<svg width="100%" height="100%" viewBox="0 0 343 506" fill="none" xmlns="http://www.w3.org/2000/svg">
<g clip-path="url(#clip0_2432_377955)">
<rect width="343" height="506" rx="11.4333" fill="#D9ED12"/>
<path d="M8.5 -116L536 -28.8183L680 533L218 548L121 326L151.999 253L103.5 200L222 187L208.5 141.5L8.5 -116Z" fill="#35298B"/>
<path d="M420.5 476.5L394 131L142.5 180.5L97.5 278L191.5 505.5L420.5 476.5Z" fill="#4639A3"/>
<path d="M302.111 147.725L0 127.291V62.8004L302.111 83.2346V147.725Z" fill="#D9ED12"/>
<path d="M164.944 87.8693L0 100.86V43.9987L164.944 31V87.8693Z" fill="#D9ED12"/>
<path d="M323.001 167.742L206.484 177.676V120.807L323.001 110.872V167.742Z" fill="#D9ED12"/>
<path d="M21.1386 84.4957H39.2671V89.788H44.3505V79.4122H41.0931V54.2118H21.6105V66.8778C21.6105 71.9999 20.9761 75.5591 19.3203 79.4122H16.1016V89.788H21.1386V84.4957ZM27.0267 66.7927V59.2952H35.6692V79.4122H24.9144C26.3999 75.5591 27.0344 71.9612 27.0344 66.7927" fill="#010101"/>
<path d="M117.369 83.8612V54.2118H111.945V65.694H97.8866V54.2118H92.4627V83.8612H97.8866V70.8625H111.945V83.8612H117.369Z" fill="#010101"/>
<path d="M156.297 74.6693C156.297 68.2705 151.894 65.4386 146.64 65.4386H127.119V54.2118H121.695V83.8612H146.633C151.886 83.8612 156.289 81.0216 156.289 74.6693M127.111 78.8629V70.4369H145.952C148.83 70.4369 150.571 71.9225 150.571 74.6693C150.571 77.416 148.838 78.8629 145.952 78.8629H127.111Z" fill="#010101"/>
<path d="M41.2169 91.405L34.4854 108.257H34.4003L27.7075 91.405H23.4675L16.1016 121.054H21.773L26.3071 101.781H26.3922L32.4892 116.644H36.4275L42.5322 101.781H42.6173L47.105 121.054H52.8229L45.4492 91.405H41.2169Z" fill="#010101"/>
<path d="M68.0349 90.7706C59.2221 90.7706 52.5293 97.0378 52.5293 106.23C52.5293 115.422 59.2221 121.689 68.0349 121.689C76.8477 121.689 83.5792 115.422 83.5792 106.23C83.5792 97.0378 76.8477 90.7706 68.0349 90.7706ZM68.0349 116.141C62.4872 116.141 58.4638 112.118 58.4638 106.23C58.4638 100.342 62.4872 96.3182 68.0349 96.3182C73.5825 96.3182 77.6059 100.342 77.6059 106.23C77.6059 112.118 73.6212 116.141 68.0349 116.141Z" fill="#010101"/>
<path d="M87.3008 113.387C87.3008 115.375 86.5348 116.056 85.1421 116.056H83.4863V121.225H85.6915C90.3957 121.225 92.7247 118.849 92.7247 113.642V96.4884H104.671V121.054H110.095V91.405H87.3086V113.387H87.3008Z" fill="#010101"/>
<path d="M128.279 90.7706C119.466 90.7706 112.773 97.0378 112.773 106.23C112.773 115.422 119.466 121.689 128.279 121.689C137.092 121.689 143.823 115.422 143.823 106.23C143.823 97.0378 137.092 90.7706 128.279 90.7706ZM128.279 116.141C122.731 116.141 118.708 112.118 118.708 106.23C118.708 100.342 122.731 96.3182 128.279 96.3182C133.827 96.3182 137.85 100.342 137.85 106.23C137.85 112.118 133.865 116.141 128.279 116.141Z" fill="#010101"/>
<path d="M168.396 91.4052H148.913V104.071C148.913 109.193 148.279 112.752 146.623 116.606H143.404V126.981H148.441V121.689H166.57V126.981H171.653V116.606H168.388V91.4052H168.396ZM162.972 116.606H152.217C153.703 112.752 154.337 109.155 154.337 103.986V96.4887H162.98V116.606H162.972Z" fill="#010101"/>
<path d="M188.209 89.8809C189.904 89.8809 191.219 88.5656 191.219 86.8711C191.219 85.1766 189.904 83.8613 188.209 83.8613C186.515 83.8613 185.246 85.1766 185.246 86.8711C185.246 88.5656 186.515 89.8809 188.209 89.8809Z" fill="#010101"/>
<path d="M178.984 89.8809C180.679 89.8809 181.948 88.5656 181.948 86.8711C181.948 85.1766 180.679 83.8613 178.984 83.8613C177.29 83.8613 175.982 85.1766 175.982 86.8711C175.982 88.5656 177.251 89.8809 178.984 89.8809Z" fill="#010101"/>
<path d="M227.137 121.055L239.168 106.145V121.055H244.383V106.145L256.361 121.055H264.036L250.651 105.379L261.916 91.4053H254.589L244.383 105V91.4053H239.168V105L228.878 91.4053H221.636L232.901 105.379L219.516 121.055H227.137Z" fill="#010101"/>
<path d="M285.543 100.427H285.59V121.055H291.006V91.4052H285.969L271.562 112.072H271.523V91.4052H266.107V121.055H271.144L285.543 100.427Z" fill="#010101"/>
<path d="M223.399 158.31L229.527 150.665C232.715 146.812 233.798 144.166 233.528 141.04C233.079 135.98 229.396 133.202 223.693 133.705C217.705 134.231 214.378 137.968 214.788 143.632L220.018 143.168C219.825 140.467 221.287 138.757 223.949 138.525C226.394 138.309 227.995 139.57 228.197 141.852C228.359 143.663 227.531 145.396 225.078 148.46L216.289 159.695L216.645 163.664L235.423 162.008L234.998 157.242L223.399 158.31Z" fill="#010101"/>
<path d="M251.562 130.594C251.052 130.594 250.525 130.618 249.999 130.664C245.798 131.035 242.1 132.854 239.593 135.786C237.047 138.765 235.848 142.765 236.227 147.059C236.606 151.354 238.486 155.083 241.519 157.567C244.506 160.012 248.46 161.157 252.661 160.785C261.435 160.012 267.246 153.118 266.472 144.39C265.745 136.188 259.586 130.594 251.562 130.594ZM252.228 155.934C251.895 155.965 251.562 155.981 251.237 155.981C248.831 155.981 246.61 155.191 244.9 153.721C242.935 152.035 241.713 149.504 241.457 146.595C241.202 143.686 241.96 140.978 243.593 138.974C245.218 136.985 247.647 135.755 250.425 135.508C253.218 135.26 255.833 136.049 257.775 137.72C259.756 139.43 260.94 141.891 261.203 144.847C261.737 150.858 258.046 155.416 252.228 155.934Z" fill="#010101"/>
<path d="M276.485 153.621L282.613 145.976C285.801 142.123 286.884 139.477 286.614 136.351C286.165 131.291 282.474 128.513 276.779 129.016C270.791 129.542 267.464 133.279 267.874 138.943L273.104 138.479C272.903 135.779 274.373 134.069 277.035 133.836C279.48 133.62 281.081 134.881 281.283 137.164C281.437 138.974 280.617 140.707 278.164 143.771L269.375 155.006L269.731 158.975L288.509 157.319L288.084 152.553L276.485 153.621Z" fill="#010101"/>
<path d="M309.802 147.361C309.438 143.268 307.071 140.924 303.14 140.761V140.676C306.274 139.632 307.914 137.063 307.628 133.775C307.218 129.132 303.512 126.656 297.732 127.167C291.867 127.685 288.555 131.082 288.927 136.282L294.204 135.817C294.057 133.62 295.457 132.219 297.987 131.995C300.479 131.778 301.98 132.916 302.188 135.198C302.413 137.814 300.842 139.229 297.384 139.531L296.2 139.632L296.571 143.849L297.755 143.748C302.219 143.315 304.061 144.336 304.324 147.377C304.572 150.201 303.187 151.818 300.231 152.073C297.322 152.329 295.418 151.052 295.031 148.537L289.669 149.009C290.288 154.565 294.242 157.451 300.618 156.886C306.862 156.337 310.282 152.754 309.81 147.354" fill="#010101"/>
<path d="M58.7719 83.8612H87.3536V78.7855H64.544V78.7778H52.1797V70.2203H58.7719V70.228H82.2237V65.2452H63.275V65.222H52.1797V59.2952H64.335V59.2797H87.3536V54.2118H58.7719H46.7559V83.8612H58.7719Z" fill="#010101"/>
<path d="M217.716 115.979H191.851V115.971H179.486V107.413H189.135V107.421H212.587V102.431H190.582V102.415H179.486V96.4884H191.642V96.4729H217.716V91.405H189.135H174.062V121.054H189.135H191.851H217.716V115.979Z" fill="#010101"/>
<path d="M-196 443.5L189.5 417L472.5 394L498 590.5L121.5 580.5L-196 443.5Z" fill="#E62A77"/>
<path d="M18.7962 255.166L34.1695 268.507C60.0244 269.768 65.5421 270.064 92.8128 271.913C93.3488 261.579 96.6173 252.525 103.044 244.512C109.466 236.513 117.668 231.15 127.571 228.464C138.229 225.572 145.513 225.785 156.868 230.017C156.934 229.882 157.001 229.753 157.057 229.622C157.234 229.173 157.412 228.718 157.589 228.269C158.302 226.449 159.012 224.633 159.725 222.813C160.452 220.955 161.176 219.093 161.903 217.235C162.618 215.404 163.337 213.571 164.053 211.74C164.78 209.882 165.503 208.02 166.231 206.162C166.946 204.331 167.665 202.498 168.38 200.667C169.108 198.809 169.831 196.947 170.559 195.089C171.274 193.258 171.993 191.424 172.705 189.591C173.432 187.733 174.156 185.871 174.883 184.012C175.598 182.182 176.313 180.345 177.029 178.515C177.756 176.656 178.484 174.798 179.207 172.936C179.393 172.456 179.737 171.49 179.737 171.49L170.108 155.486L162.758 166.093C160.511 165.606 158.257 165.164 155.976 164.866C154.332 164.652 152.688 164.425 151.043 164.243C149.603 164.084 148.153 163.935 146.704 163.859C144.508 163.75 142.311 163.672 140.111 163.649C134.455 163.593 128.831 164.025 123.24 164.878C109.969 166.907 97.477 171.216 85.7777 177.792C74.1481 184.332 64.0218 192.696 55.4235 202.894C46.9486 212.941 40.4977 224.161 36.0525 236.537C35.1344 239.097 34.3007 241.684 33.5793 244.305C32.9729 246.512 32.4053 248.734 31.9459 250.979L18.7967 255.173L18.7962 255.166Z" fill="#BD1B5F"/>
<path d="M82.5005 257.474C61.2539 256.67 40.0488 255.869 18.7885 255.066C18.7994 254.736 18.7982 254.427 18.8179 254.123C18.9386 252.335 19.0489 250.544 19.2043 248.76C19.3184 247.46 19.4808 246.164 19.6574 244.874C19.8867 243.212 20.1475 241.558 20.4152 239.904C20.5495 239.084 20.7394 238.273 20.8879 237.459C21.3838 234.758 22.0681 232.098 22.7912 229.453C23.5143 226.808 24.3602 224.2 25.2869 221.616C29.7722 209.126 36.2847 197.806 44.8353 187.664C53.5131 177.375 63.7334 168.932 75.4653 162.334C87.2733 155.692 99.8794 151.347 113.27 149.299C118.912 148.439 124.587 148 130.297 148.059C132.515 148.084 134.733 148.161 136.949 148.268C138.411 148.343 139.872 148.494 141.326 148.652C142.988 148.837 144.646 149.063 146.307 149.279C149.903 149.749 153.433 150.554 156.957 151.373C158.386 151.708 159.791 152.137 161.201 152.546C162.397 152.891 163.59 153.246 164.771 153.63C165.854 153.979 166.927 154.377 167.998 154.762C168.678 155.005 169.359 155.256 170.04 155.507C170.343 155.616 170.38 155.655 170.282 155.96C170.124 156.452 169.935 156.937 169.746 157.421C169.017 159.296 168.28 161.173 167.548 163.052C166.823 164.9 166.102 166.751 165.381 168.603C164.649 170.482 163.916 172.355 163.183 174.234C162.458 176.082 161.737 177.934 161.013 179.782C160.28 181.661 159.547 183.534 158.814 185.413C158.09 187.261 157.369 189.113 156.644 190.961C155.912 192.84 155.182 194.716 154.446 196.592C153.721 198.44 152.997 200.288 152.276 202.14C151.543 204.019 150.814 205.895 150.077 207.771C149.362 209.608 148.644 211.442 147.925 213.276C147.748 213.732 147.57 214.188 147.389 214.64C147.337 214.774 147.267 214.9 147.201 215.042C137.487 211.418 127.636 210.762 117.635 213.473C107.641 216.183 99.3635 221.596 92.8855 229.668C86.398 237.75 83.037 247.051 82.4942 257.481L82.5005 257.474Z" fill="#E62A77"/>
<path d="M39.5907 231.955L38.9328 233.56L33.8771 235.19L37.6074 236.794L37.0552 238.141L29.2138 234.77L29.766 233.422L33.2834 234.935L31.0433 230.306L31.7012 228.701L34.1621 233.659L39.5907 231.955Z" fill="white"/>
<path d="M42.0198 224.504C42.384 225.694 42.2817 226.863 41.7128 228.011C41.1439 229.159 40.2824 229.935 39.1284 230.339C37.971 230.731 36.8441 230.641 35.7479 230.066C34.6517 229.492 33.9215 228.61 33.5573 227.42C33.1895 226.219 33.2901 225.045 33.8591 223.897C34.428 222.749 35.2912 221.978 36.4486 221.586C37.6026 221.182 38.7277 221.267 39.8239 221.841C40.9201 222.416 41.6521 223.303 42.0198 224.504ZM38.7394 228.979C39.5209 228.703 40.1082 228.169 40.5012 227.376C40.8942 226.583 40.9675 225.784 40.7212 224.98C40.4715 224.164 39.9571 223.552 39.1783 223.144C38.3994 222.736 37.6192 222.67 36.8377 222.946C36.0527 223.21 35.4637 223.738 35.0707 224.532C34.6777 225.325 34.606 226.129 34.8558 226.945C35.1021 227.749 35.6147 228.355 36.3936 228.763C37.1725 229.171 37.9544 229.243 38.7394 228.979Z" fill="white"/>
<path d="M39.1817 214.591L39.9198 213.341L47.1727 217.897L46.4346 219.147L43.2952 217.175L41.3698 220.435L44.5092 222.407L43.7712 223.657L36.5183 219.101L37.2564 217.851L40.23 219.719L42.1554 216.459L39.1817 214.591Z" fill="white"/>
<path d="M50.3184 213.564C49.5628 214.654 48.5948 215.305 47.4143 215.517C46.2272 215.723 45.1278 215.452 44.1162 214.702C43.1046 213.952 42.5058 212.966 42.32 211.742C42.1275 210.513 42.4091 209.353 43.1646 208.263C43.6189 207.607 44.1852 207.113 44.8633 206.78C45.5463 206.44 46.2483 206.302 46.9693 206.367L46.8235 207.825C46.348 207.765 45.8826 207.849 45.4273 208.075C44.9702 208.29 44.5839 208.625 44.2683 209.081C43.7327 209.854 43.5307 210.655 43.6624 211.483C43.7988 212.305 44.2251 212.981 44.9411 213.512C45.6571 214.042 46.4133 214.242 47.2097 214.112C48.0108 213.974 48.6792 213.519 49.2148 212.746C49.5304 212.291 49.7188 211.804 49.7799 211.285C49.8345 210.761 49.7555 210.28 49.5431 209.84L50.822 209.221C51.1174 209.9 51.2226 210.631 51.1374 211.413C51.0504 212.185 50.7774 212.901 50.3184 213.564Z" fill="white"/>
<path d="M49.6269 200.041L50.6557 200.918L49.1162 202.857L54.6344 207.563L53.7358 208.694L48.2175 203.988L46.6703 205.937L45.6414 205.06L49.6269 200.041Z" fill="white"/>
<path d="M52.4366 196.881C52.9878 196.263 53.6424 195.937 54.4005 195.901C55.1641 195.859 55.8359 196.117 56.4158 196.675C56.9898 197.228 57.2885 197.904 57.3119 198.703C57.3349 199.49 57.0708 200.193 56.5196 200.81L55.3252 202.148L57.4555 204.198L56.495 205.274L50.2817 199.294L52.4366 196.881ZM55.561 199.888C55.8449 199.57 55.9782 199.211 55.9608 198.811C55.9374 198.406 55.7689 198.053 55.4553 197.751C55.1417 197.449 54.7924 197.304 54.4074 197.317C54.0166 197.323 53.6792 197.485 53.3952 197.803L52.2008 199.141L54.3666 201.225L55.561 199.888Z" fill="white"/>
<path d="M58.6414 190.469L59.6716 189.446L62.0849 196.091C62.6741 197.719 62.4083 199.026 61.2873 200.011L60.3941 199.037C60.7768 198.727 61.008 198.393 61.0876 198.036C61.1731 197.673 61.1251 197.257 60.9438 196.788L54.7427 194.337L55.7729 193.315L60.3627 195.175L58.6414 190.469Z" fill="white"/>
<path d="M70.7509 191.267L69.4638 192.393L64.2854 191.449L66.8707 194.66L65.7903 195.604L60.3556 188.854L61.4361 187.91L63.8739 190.937L63.9352 185.725L65.2223 184.599L65.211 190.212L70.7509 191.267Z" fill="white"/>
<path d="M70.5771 180.473L71.3661 181.587L69.4248 183.085L73.6566 189.062L72.5234 189.936L68.2916 183.96L66.3406 185.466L65.5516 184.352L70.5771 180.473Z" fill="white"/>
<path d="M81.3981 182.289C81.1271 183.515 80.468 184.476 79.4208 185.173C78.3736 185.869 77.2588 186.088 76.0762 185.83C74.8962 185.559 73.9787 184.885 73.3239 183.807C72.6691 182.729 72.4773 181.577 72.7483 180.351C73.0219 179.113 73.6823 178.146 74.7295 177.449C75.7766 176.752 76.8902 176.539 78.0702 176.81C79.2528 177.068 80.1715 177.737 80.8263 178.815C81.4811 179.893 81.6717 181.051 81.3981 182.289ZM76.4092 184.443C77.2111 184.616 77.9737 184.463 78.6971 183.981C79.4204 183.5 79.8738 182.845 80.057 182.016C80.2429 181.175 80.1032 180.372 79.6379 179.606C79.1727 178.84 78.5391 178.37 77.7372 178.196C76.9379 178.011 76.1766 178.159 75.4532 178.64C74.7298 179.122 74.2752 179.783 74.0894 180.623C73.9061 181.453 74.0471 182.25 74.5123 183.016C74.9776 183.782 75.6099 184.258 76.4092 184.443Z" fill="white"/>
<path d="M82.3266 173.013C83.0378 172.611 83.7557 172.521 84.4805 172.742C85.2124 172.959 85.7644 173.43 86.1365 174.156C86.5048 174.875 86.5755 175.618 86.3487 176.386C86.1252 177.143 85.6579 177.722 84.9467 178.123L83.4059 178.994L84.7728 181.66L83.5337 182.36L79.5467 174.583L82.3266 173.013ZM84.3316 176.924C84.6979 176.717 84.9351 176.42 85.043 176.035C85.1472 175.642 85.0986 175.249 84.8974 174.856C84.6961 174.464 84.4124 174.208 84.0462 174.091C83.6763 173.965 83.3081 174.006 82.9418 174.213L81.4009 175.083L82.7907 177.794L84.3316 176.924Z" fill="white"/>
<path d="M92.505 171.683C93.231 171.352 93.9299 171.314 94.6019 171.567C95.2739 171.821 95.7571 172.307 96.0514 173.026C96.3457 173.744 96.35 174.448 96.0641 175.138C95.7782 175.827 95.2723 176.337 94.5464 176.667L91.5716 178.021L88.2486 169.906L93.0755 167.71L93.5977 168.985L90.0617 170.594L90.8212 172.449L92.505 171.683ZM94.0337 175.415C94.3854 175.255 94.6314 175.01 94.7716 174.681C94.9161 174.34 94.9124 173.984 94.7605 173.613C94.6086 173.242 94.367 172.999 94.0357 172.884C93.7088 172.758 93.3695 172.774 93.0178 172.935L91.3339 173.701L92.3499 176.181L94.0337 175.415Z" fill="white"/>
<path d="M99.2452 165.302L100.579 164.793L100.19 171.924C100.093 173.672 99.3437 174.763 97.9422 175.2L97.5088 173.928C97.9771 173.803 98.3169 173.593 98.5279 173.298C98.7467 172.999 98.8647 172.596 98.8821 172.088L94.1988 167.228L95.5323 166.719L98.981 170.358L99.2452 165.302Z" fill="white"/>
<path d="M109.329 169.871L110.21 169.603L111.007 172.568L109.657 172.979L109.219 171.351L104.229 172.873L104.667 174.501L103.317 174.913L102.519 171.948L103.282 171.715C103.585 170.921 103.561 169.873 103.21 168.568L102.069 164.328L107.4 162.702L109.329 169.871ZM104.762 171.264L107.979 170.283L106.403 164.426L103.773 165.228L104.567 168.181C104.907 169.445 104.972 170.472 104.762 171.264Z" fill="white"/>
<path d="M114.364 161.049L115.749 160.732L114.43 167.757C114.104 169.477 113.22 170.455 111.777 170.69L111.516 169.366C111.995 169.308 112.359 169.148 112.606 168.884C112.861 168.619 113.031 168.236 113.115 167.734L109.122 162.246L110.507 161.93L113.44 166.031L114.364 161.049Z" fill="white"/>
<path d="M127.147 166.577L128.054 166.449L128.411 169.512L127.019 169.708L126.823 168.026L117.567 169.331L116.544 160.544L117.936 160.348L118.798 167.754L121.581 167.362L120.719 159.956L122.11 159.76L122.972 167.165L125.755 166.773L124.893 159.367L126.285 159.171L127.147 166.577Z" fill="white"/>
<path d="M129.661 166.497L133.436 166.275L133.492 167.666L128.317 167.971L127.96 159.118L133.075 158.816L133.131 160.208L129.417 160.427L129.51 162.729L132.919 162.527L132.975 163.906L129.565 164.107L129.661 166.497Z" fill="white"/>
<path d="M139.039 158.787L139.024 160.181L135.611 160.193L135.529 167.667L134.128 167.672L134.225 158.805L139.039 158.787Z" fill="white"/>
<path d="M146.554 166.942C145.637 167.771 144.563 168.144 143.332 168.063C142.1 167.982 141.089 167.47 140.297 166.529C139.514 165.579 139.17 164.464 139.267 163.183C139.364 161.902 139.871 160.847 140.788 160.018C141.714 159.181 142.793 158.804 144.024 158.885C145.255 158.966 146.262 159.482 147.045 160.431C147.837 161.373 148.185 162.484 148.088 163.765C147.992 165.046 147.48 166.105 146.554 166.942ZM141.355 165.608C141.893 166.244 142.588 166.591 143.438 166.647C144.289 166.703 145.024 166.451 145.645 165.891C146.274 165.323 146.622 164.583 146.691 163.673C146.76 162.763 146.525 161.989 145.987 161.352C145.458 160.708 144.768 160.357 143.917 160.301C143.067 160.245 142.327 160.501 141.698 161.069C141.078 161.63 140.733 162.365 140.664 163.275C140.596 164.185 140.826 164.963 141.355 165.608Z" fill="white"/>
<path d="M73.064 453.3H76.08L70.438 466.82C69.0513 470.131 66.8067 471.691 63.704 471.5V468.718C64.7267 468.822 65.55 468.666 66.174 468.25C66.8153 467.834 67.3267 467.141 67.708 466.17L61.65 453.3H64.666L69.086 462.894L73.064 453.3ZM83.8581 464.844C85.2447 465.468 85.9381 466.499 85.9381 467.938C85.9381 469.047 85.4874 469.975 84.5861 470.72C83.6847 471.465 82.4281 471.838 80.8161 471.838C78.1987 471.838 76.4307 470.798 75.5121 468.718L77.8001 467.366C78.2681 468.666 79.2821 469.316 80.8421 469.316C81.5701 469.316 82.1421 469.169 82.5581 468.874C82.9741 468.562 83.1821 468.155 83.1821 467.652C83.1821 467.201 83.0174 466.846 82.6881 466.586C82.3587 466.309 81.8994 466.17 81.3101 466.17H79.4641V463.7H80.8421C81.4141 463.7 81.8561 463.57 82.1681 463.31C82.4974 463.033 82.6621 462.66 82.6621 462.192C82.6621 461.741 82.4801 461.377 82.1161 461.1C81.7521 460.805 81.2667 460.658 80.6601 460.658C79.3601 460.658 78.4587 461.23 77.9561 462.374L75.6681 461.074C76.6387 459.133 78.2854 458.162 80.6081 458.162C82.0641 458.162 83.2167 458.535 84.0661 459.28C84.9327 460.008 85.3661 460.901 85.3661 461.958C85.3661 463.258 84.8634 464.22 83.8581 464.844ZM96.9938 458.5H99.8018V471.5H96.9938V466.326H91.0398V471.5H88.2318V458.5H91.0398V463.674H96.9938V458.5ZM113.356 458.5H116.164V471.5H113.356V469.628C112.299 471.101 110.782 471.838 108.806 471.838C107.021 471.838 105.495 471.179 104.23 469.862C102.965 468.527 102.332 466.907 102.332 465C102.332 463.076 102.965 461.455 104.23 460.138C105.495 458.821 107.021 458.162 108.806 458.162C110.782 458.162 112.299 458.89 113.356 460.346V458.5ZM106.31 467.99C107.09 468.77 108.069 469.16 109.248 469.16C110.427 469.16 111.406 468.77 112.186 467.99C112.966 467.193 113.356 466.196 113.356 465C113.356 463.804 112.966 462.816 112.186 462.036C111.406 461.239 110.427 460.84 109.248 460.84C108.069 460.84 107.09 461.239 106.31 462.036C105.53 462.816 105.14 463.804 105.14 465C105.14 466.196 105.53 467.193 106.31 467.99ZM129.369 458.5V461.204H125.131V471.5H122.323V461.204H118.059V458.5H129.369ZM136.937 462.92C138.324 462.92 139.459 463.319 140.343 464.116C141.227 464.896 141.669 465.927 141.669 467.21C141.669 468.475 141.227 469.507 140.343 470.304C139.459 471.101 138.324 471.5 136.937 471.5H131.269V458.5H134.077V462.92H136.937ZM136.963 468.978C137.518 468.978 137.977 468.813 138.341 468.484C138.722 468.155 138.913 467.73 138.913 467.21C138.913 466.673 138.722 466.248 138.341 465.936C137.977 465.607 137.518 465.442 136.963 465.442H134.077V468.978H136.963ZM156.496 471.838C154.503 471.838 152.874 471.197 151.608 469.914C150.36 468.614 149.736 466.959 149.736 464.948C149.736 462.747 150.066 461.048 150.724 459.852C151.383 458.639 152.718 457.538 154.728 456.55C155.058 456.394 155.543 456.169 156.184 455.874C156.843 455.579 157.294 455.371 157.536 455.25C157.779 455.111 158.082 454.921 158.446 454.678C158.81 454.418 159.079 454.149 159.252 453.872C159.426 453.577 159.564 453.231 159.668 452.832L161.956 454.158C161.887 454.539 161.774 454.895 161.618 455.224C161.462 455.536 161.237 455.831 160.942 456.108C160.648 456.385 160.388 456.611 160.162 456.784C159.954 456.957 159.599 457.165 159.096 457.408C158.594 457.651 158.221 457.824 157.978 457.928C157.753 458.032 157.32 458.214 156.678 458.474C155.534 458.925 154.694 459.393 154.156 459.878C153.636 460.346 153.272 460.935 153.064 461.646C154.104 460.467 155.517 459.878 157.302 459.878C158.828 459.878 160.154 460.424 161.28 461.516C162.424 462.608 162.996 464.021 162.996 465.754C162.996 467.522 162.39 468.978 161.176 470.122C159.98 471.266 158.42 471.838 156.496 471.838ZM156.47 469.212C157.562 469.212 158.455 468.891 159.148 468.25C159.842 467.591 160.188 466.759 160.188 465.754C160.188 464.731 159.842 463.891 159.148 463.232C158.472 462.573 157.588 462.244 156.496 462.244C155.526 462.244 154.65 462.556 153.87 463.18C153.09 463.787 152.7 464.601 152.7 465.624C152.7 466.664 153.064 467.522 153.792 468.198C154.52 468.874 155.413 469.212 156.47 469.212ZM171.352 471.838C169.445 471.838 167.825 471.179 166.49 469.862C165.155 468.545 164.488 466.924 164.488 465C164.488 463.076 165.155 461.455 166.49 460.138C167.825 458.821 169.445 458.162 171.352 458.162C173.276 458.162 174.897 458.821 176.214 460.138C177.549 461.455 178.216 463.076 178.216 465C178.216 466.924 177.549 468.545 176.214 469.862C174.897 471.179 173.276 471.838 171.352 471.838ZM168.466 467.938C169.246 468.718 170.208 469.108 171.352 469.108C172.496 469.108 173.458 468.718 174.238 467.938C175.018 467.158 175.408 466.179 175.408 465C175.408 463.821 175.018 462.842 174.238 462.062C173.458 461.282 172.496 460.892 171.352 460.892C170.208 460.892 169.246 461.282 168.466 462.062C167.686 462.842 167.296 463.821 167.296 465C167.296 466.179 167.686 467.158 168.466 467.938ZM191.346 458.5V471.5H188.538V461.204H184.196V466.04C184.196 468.103 183.746 469.567 182.844 470.434C181.943 471.301 180.66 471.656 178.996 471.5V468.874C179.794 469.013 180.392 468.848 180.79 468.38C181.189 467.912 181.388 467.089 181.388 465.91V458.5H191.346ZM200.286 462.92C201.673 462.92 202.808 463.319 203.692 464.116C204.576 464.896 205.018 465.927 205.018 467.21C205.018 468.475 204.576 469.507 203.692 470.304C202.808 471.101 201.673 471.5 200.286 471.5H194.618V458.5H197.426V462.92H200.286ZM200.312 468.978C200.867 468.978 201.326 468.813 201.69 468.484C202.072 468.155 202.262 467.73 202.262 467.21C202.262 466.673 202.072 466.248 201.69 465.936C201.326 465.607 200.867 465.442 200.312 465.442H197.426V468.978H200.312ZM222.706 458.5H225.514V471.5H207.314V458.5H210.122V468.848H215.01V458.5H217.818V468.848H222.706V458.5ZM230.979 466.196C231.187 467.184 231.664 467.947 232.409 468.484C233.154 469.004 234.064 469.264 235.139 469.264C236.63 469.264 237.748 468.727 238.493 467.652L240.807 469.004C239.524 470.893 237.626 471.838 235.113 471.838C232.998 471.838 231.291 471.197 229.991 469.914C228.691 468.614 228.041 466.976 228.041 465C228.041 463.059 228.682 461.438 229.965 460.138C231.248 458.821 232.894 458.162 234.905 458.162C236.812 458.162 238.372 458.829 239.585 460.164C240.816 461.499 241.431 463.119 241.431 465.026C241.431 465.321 241.396 465.711 241.327 466.196H230.979ZM230.953 463.908H238.597C238.406 462.851 237.964 462.053 237.271 461.516C236.595 460.979 235.798 460.71 234.879 460.71C233.839 460.71 232.972 460.996 232.279 461.568C231.586 462.14 231.144 462.92 230.953 463.908Z" fill="white"/>
<path fill-rule="evenodd" clip-rule="evenodd" d="M261.79 455.421C261.79 454.636 262.426 454 263.211 454H274.579C275.364 454 276 454.636 276 455.421V466.789C276 467.574 275.364 468.211 274.579 468.211C273.794 468.211 273.158 467.574 273.158 466.789V458.852L260.426 471.584C259.871 472.139 258.971 472.139 258.416 471.584C257.861 471.029 257.861 470.129 258.416 469.574L271.148 456.842H263.211C262.426 456.842 261.79 456.206 261.79 455.421Z" fill="white"/>
<path d="M332.524 75.5L174 65.4923L174.476 29L333 38.1477L332.524 75.5Z" fill="#4639A3"/>
<path d="M186.337 56.323L186.471 53.9868L193.177 47.8886C194.806 46.4372 195.653 45.1491 195.718 44.0243C195.769 43.1418 195.54 42.4428 195.031 41.9274C194.541 41.3956 193.889 41.1063 193.076 41.0594C191.553 40.9717 190.385 41.6596 189.572 43.1232L187.139 41.4986C187.78 40.3202 188.637 39.4494 189.712 38.8863C190.786 38.3231 191.955 38.078 193.218 38.1508C194.81 38.2425 196.148 38.8231 197.232 39.8926C198.316 40.9621 198.809 42.3621 198.709 44.0926C198.602 45.9441 197.459 47.8575 195.279 49.8327L190.941 53.6976L198.469 54.1314L198.303 57.0126L186.337 56.323ZM213.853 51.8407L213.693 54.6181L211.617 54.4984L211.428 57.769L208.417 57.5955L208.606 54.3249L199.676 53.8103L199.836 51.0329L206.791 39.2715L210.035 39.4585L203.081 51.2199L208.766 51.5475L209.038 46.8234L212.049 46.9969L211.777 51.721L213.853 51.8407ZM216.142 51.4778L216.297 48.7783L225.901 49.3318L225.746 52.0313L216.142 51.4778ZM227.985 58.7232L228.119 56.3871L234.825 50.2888C236.454 48.8374 237.301 47.5494 237.366 46.4246C237.417 45.542 237.188 44.843 236.679 44.3276C236.189 43.7958 235.537 43.5065 234.724 43.4596C233.201 43.3719 232.033 44.0598 231.219 45.5234L228.787 43.8988C229.428 42.7204 230.285 41.8496 231.359 41.2865C232.434 40.7233 233.602 40.4782 234.865 40.551C236.457 40.6427 237.796 41.2233 238.88 42.2928C239.964 43.3623 240.456 44.7623 240.357 46.4928C240.25 48.3444 239.107 50.2577 236.927 52.2329L232.589 56.0978L240.117 56.5316L239.951 59.4128L227.985 58.7232ZM248.456 48.5481C250.186 48.6479 251.618 49.2513 252.753 50.3584C253.888 51.4482 254.403 52.9015 254.298 54.7185C254.194 56.5355 253.497 57.9277 252.209 58.8952C250.92 59.8627 249.385 60.2951 247.602 60.1923C246.166 60.1096 244.913 59.7075 243.843 58.9861C242.775 58.2474 242.043 57.2329 241.649 55.9428L244.304 54.6113C244.694 56.2832 245.849 57.1745 247.77 57.2852C248.791 57.344 249.619 57.1313 250.255 56.6471C250.909 56.1465 251.261 55.4463 251.313 54.5465C251.365 53.6467 251.103 52.9197 250.527 52.3657C249.952 51.8116 249.162 51.5057 248.158 51.4478L242.863 51.1427L244.126 41.4233L254.25 42.0067L254.088 44.81L246.716 44.3852L246.171 48.4165L248.456 48.5481ZM273.079 48.3004L275.233 48.4246L274.485 61.4031L271.734 61.2445L272.209 52.9902L265.089 60.8615L262.934 60.7374L263.682 47.7589L266.434 47.9175L265.959 56.1458L273.079 48.3004ZM290.082 48.9418C291.986 49.0515 293.566 49.8023 294.822 51.1943C296.079 52.5862 296.652 54.2426 296.541 56.1634C296.431 58.0842 295.671 59.6638 294.263 60.9022C292.855 62.1405 291.199 62.7048 289.295 62.5951C287.617 62.4984 286.192 61.9041 285.023 60.8124C283.871 59.7043 283.195 58.3371 282.993 56.7108L280.839 56.5866L280.541 61.7521L277.738 61.5905L278.486 48.6121L281.289 48.7736L280.991 53.939L283.146 54.0632C283.533 52.4708 284.361 51.1991 285.632 50.2479C286.92 49.2804 288.404 48.8451 290.082 48.9418ZM286.638 58.5356C287.372 59.3591 288.31 59.8038 289.452 59.8697C290.594 59.9355 291.577 59.6015 292.401 58.8677C293.224 58.1338 293.67 57.1785 293.738 56.0018C293.806 54.8251 293.473 53.825 292.739 53.0014C292.005 52.1778 291.067 51.7331 289.925 51.6673C288.783 51.6015 287.8 51.9355 286.976 52.6693C286.153 53.4031 285.707 54.3584 285.639 55.5351C285.572 56.7118 285.905 57.712 286.638 58.5356ZM308.197 50.3243L311 50.4859L310.252 63.4643L307.449 63.3028L307.746 58.1374L301.802 57.7948L301.504 62.9602L298.701 62.7987L299.449 49.8202L302.252 49.9818L301.955 55.1472L307.899 55.4897L308.197 50.3243ZM324.298 51.2523L323.55 64.2307L320.799 64.0722L321.05 59.7114L319.492 59.6216L315.945 63.7924L312.648 63.6024L316.419 59.1841C315.536 58.838 314.839 58.277 314.328 57.501C313.834 56.726 313.614 55.8799 313.667 54.9627C313.736 53.7687 314.218 52.7808 315.114 51.9991C316.028 51.201 317.16 50.8409 318.51 50.9187L324.298 51.2523ZM318.308 57.1314L321.189 57.2974L321.4 53.6375L318.519 53.4714C317.948 53.4385 317.462 53.5755 317.063 53.8823C316.663 54.1892 316.447 54.6281 316.414 55.1992C316.382 55.7529 316.547 56.2052 316.909 56.5559C317.27 56.9066 317.737 57.0984 318.308 57.1314Z" fill="white"/>
<path d="M329.201 34.2047L329.854 35.5814C330.437 36.8128 331.74 37.5352 333.094 37.3775L334.607 37.2012L333.23 37.8536C331.999 38.437 331.276 39.7404 331.434 41.0938L331.611 42.6071L330.958 41.2303C330.375 39.999 329.071 39.2765 327.718 39.4342L326.205 39.6105L327.581 38.9582C328.813 38.3747 329.535 37.0713 329.378 35.7179L329.201 34.2047Z" fill="white"/>
<path d="M191.712 225.692C192.203 225.948 192.587 226.3 192.864 226.748C193.141 227.196 193.28 227.713 193.28 228.3C193.28 229.217 192.955 229.98 192.304 230.588C191.653 231.196 190.859 231.5 189.92 231.5H185.12V220.3H189.568C190.485 220.3 191.259 220.599 191.888 221.196C192.528 221.783 192.848 222.519 192.848 223.404C192.848 224.375 192.469 225.137 191.712 225.692ZM189.568 222.028H186.96V224.972H189.568C189.973 224.972 190.315 224.833 190.592 224.556C190.869 224.268 191.008 223.916 191.008 223.5C191.008 223.084 190.869 222.737 190.592 222.46C190.315 222.172 189.973 222.028 189.568 222.028ZM189.92 229.772C190.347 229.772 190.704 229.623 190.992 229.324C191.291 229.015 191.44 228.641 191.44 228.204C191.44 227.767 191.291 227.399 190.992 227.1C190.704 226.791 190.347 226.636 189.92 226.636H186.96V229.772H189.92ZM199.302 223.292C200.4 223.292 201.339 223.703 202.118 224.524C202.896 225.335 203.286 226.327 203.286 227.5C203.286 228.684 202.896 229.681 202.118 230.492C201.339 231.303 200.4 231.708 199.302 231.708C198.086 231.708 197.152 231.26 196.502 230.364V234.7H194.774V223.5H196.502V224.652C197.152 223.745 198.086 223.292 199.302 223.292ZM197.222 229.34C197.702 229.82 198.304 230.06 199.03 230.06C199.755 230.06 200.358 229.82 200.838 229.34C201.318 228.849 201.558 228.236 201.558 227.5C201.558 226.764 201.318 226.156 200.838 225.676C200.358 225.185 199.755 224.94 199.03 224.94C198.304 224.94 197.702 225.185 197.222 225.676C196.742 226.156 196.502 226.764 196.502 227.5C196.502 228.236 196.742 228.849 197.222 229.34ZM206.212 228.236C206.34 228.844 206.633 229.313 207.092 229.644C207.55 229.964 208.11 230.124 208.772 230.124C209.689 230.124 210.377 229.793 210.836 229.132L212.26 229.964C211.47 231.127 210.302 231.708 208.756 231.708C207.454 231.708 206.404 231.313 205.604 230.524C204.804 229.724 204.404 228.716 204.404 227.5C204.404 226.305 204.798 225.308 205.588 224.508C206.377 223.697 207.39 223.292 208.628 223.292C209.801 223.292 210.761 223.703 211.508 224.524C212.265 225.345 212.644 226.343 212.644 227.516C212.644 227.697 212.622 227.937 212.58 228.236H206.212ZM206.196 226.828H210.9C210.782 226.177 210.51 225.687 210.084 225.356C209.668 225.025 209.177 224.86 208.612 224.86C207.972 224.86 207.438 225.036 207.012 225.388C206.585 225.74 206.313 226.22 206.196 226.828ZM222.324 223.5V231.5H220.644V226.236L218.34 229.9H218.132L215.844 226.252V231.5H214.164V223.5H215.924L218.244 227.196L220.564 223.5H222.324ZM230.513 223.5V231.5H228.817V228.812H227.857L225.825 231.5H223.793L225.953 228.652C225.398 228.471 224.95 228.151 224.609 227.692C224.278 227.233 224.113 226.721 224.113 226.156C224.113 225.42 224.374 224.796 224.897 224.284C225.43 223.761 226.113 223.5 226.945 223.5H230.513ZM227.041 227.324H228.817V225.068H227.041C226.689 225.068 226.395 225.169 226.161 225.372C225.926 225.575 225.809 225.852 225.809 226.204C225.809 226.545 225.926 226.817 226.161 227.02C226.395 227.223 226.689 227.324 227.041 227.324Z" fill="white"/>
<path d="M189.122 250.3H191.722V268.5H188.732V253.498L185.066 254.538L184.338 251.99L189.122 250.3ZM194.48 268.5V266.16L200.824 259.686C202.366 258.143 203.138 256.809 203.138 255.682C203.138 254.798 202.869 254.113 202.332 253.628C201.812 253.125 201.144 252.874 200.33 252.874C198.804 252.874 197.678 253.628 196.95 255.136L194.428 253.654C195 252.441 195.806 251.522 196.846 250.898C197.886 250.274 199.038 249.962 200.304 249.962C201.898 249.962 203.268 250.465 204.412 251.47C205.556 252.475 206.128 253.845 206.128 255.578C206.128 257.433 205.096 259.409 203.034 261.506L198.926 265.614H206.466V268.5H194.48ZM212.142 258.49C211.76 258.871 211.301 259.062 210.764 259.062C210.226 259.062 209.767 258.871 209.386 258.49C209.004 258.109 208.814 257.649 208.814 257.112C208.814 256.557 208.996 256.098 209.36 255.734C209.741 255.353 210.209 255.162 210.764 255.162C211.301 255.162 211.76 255.353 212.142 255.734C212.523 256.115 212.714 256.575 212.714 257.112C212.714 257.649 212.523 258.109 212.142 258.49ZM212.142 268.24C211.76 268.621 211.301 268.812 210.764 268.812C210.226 268.812 209.767 268.621 209.386 268.24C209.004 267.859 208.814 267.399 208.814 266.862C208.814 266.325 208.996 265.865 209.36 265.484C209.741 265.103 210.209 264.912 210.764 264.912C211.301 264.912 211.76 265.103 212.142 265.484C212.523 265.865 212.714 266.325 212.714 266.862C212.714 267.399 212.523 267.859 212.142 268.24ZM227.505 266.264C226.257 267.98 224.506 268.838 222.253 268.838C219.999 268.838 218.24 267.98 216.975 266.264C215.727 264.548 215.103 262.26 215.103 259.4C215.103 256.54 215.727 254.252 216.975 252.536C218.24 250.82 219.999 249.962 222.253 249.962C224.506 249.962 226.257 250.82 227.505 252.536C228.77 254.252 229.403 256.54 229.403 259.4C229.403 262.26 228.77 264.548 227.505 266.264ZM222.253 265.926C223.605 265.926 224.636 265.363 225.347 264.236C226.057 263.109 226.413 261.497 226.413 259.4C226.413 257.303 226.057 255.691 225.347 254.564C224.636 253.437 223.605 252.874 222.253 252.874C220.918 252.874 219.887 253.437 219.159 254.564C218.448 255.691 218.093 257.303 218.093 259.4C218.093 261.497 218.448 263.109 219.159 264.236C219.887 265.363 220.918 265.926 222.253 265.926ZM243.881 266.264C242.633 267.98 240.883 268.838 238.629 268.838C236.376 268.838 234.617 267.98 233.351 266.264C232.103 264.548 231.479 262.26 231.479 259.4C231.479 256.54 232.103 254.252 233.351 252.536C234.617 250.82 236.376 249.962 238.629 249.962C240.883 249.962 242.633 250.82 243.881 252.536C245.147 254.252 245.779 256.54 245.779 259.4C245.779 262.26 245.147 264.548 243.881 266.264ZM238.629 265.926C239.981 265.926 241.013 265.363 241.723 264.236C242.434 263.109 242.789 261.497 242.789 259.4C242.789 257.303 242.434 255.691 241.723 254.564C241.013 253.437 239.981 252.874 238.629 252.874C237.295 252.874 236.263 253.437 235.535 254.564C234.825 255.691 234.469 257.303 234.469 259.4C234.469 261.497 234.825 263.109 235.535 264.236C236.263 265.363 237.295 265.926 238.629 265.926ZM248.636 261.948V259.244H258.256V261.948H248.636ZM260.876 268.5V266.16L267.22 259.686C268.763 258.143 269.534 256.809 269.534 255.682C269.534 254.798 269.266 254.113 268.728 253.628C268.208 253.125 267.541 252.874 266.726 252.874C265.201 252.874 264.074 253.628 263.346 255.136L260.824 253.654C261.396 252.441 262.202 251.522 263.242 250.898C264.282 250.274 265.435 249.962 266.7 249.962C268.295 249.962 269.664 250.465 270.808 251.47C271.952 252.475 272.524 253.845 272.524 255.578C272.524 257.433 271.493 259.409 269.43 261.506L265.322 265.614H272.862V268.5H260.876ZM274.638 268.5V266.16L280.982 259.686C282.525 258.143 283.296 256.809 283.296 255.682C283.296 254.798 283.027 254.113 282.49 253.628C281.97 253.125 281.303 252.874 280.488 252.874C278.963 252.874 277.836 253.628 277.108 255.136L274.586 253.654C275.158 252.441 275.964 251.522 277.004 250.898C278.044 250.274 279.197 249.962 280.462 249.962C282.057 249.962 283.426 250.465 284.57 251.47C285.714 252.475 286.286 253.845 286.286 255.578C286.286 257.433 285.255 259.409 283.192 261.506L279.084 265.614H286.624V268.5H274.638ZM292.3 258.49C291.918 258.871 291.459 259.062 290.922 259.062C290.384 259.062 289.925 258.871 289.544 258.49C289.162 258.109 288.972 257.649 288.972 257.112C288.972 256.557 289.154 256.098 289.518 255.734C289.899 255.353 290.367 255.162 290.922 255.162C291.459 255.162 291.918 255.353 292.3 255.734C292.681 256.115 292.872 256.575 292.872 257.112C292.872 257.649 292.681 258.109 292.3 258.49ZM292.3 268.24C291.918 268.621 291.459 268.812 290.922 268.812C290.384 268.812 289.925 268.621 289.544 268.24C289.162 267.859 288.972 267.399 288.972 266.862C288.972 266.325 289.154 265.865 289.518 265.484C289.899 265.103 290.367 264.912 290.922 264.912C291.459 264.912 291.918 265.103 292.3 265.484C292.681 265.865 292.872 266.325 292.872 266.862C292.872 267.399 292.681 267.859 292.3 268.24ZM307.663 266.264C306.415 267.98 304.664 268.838 302.411 268.838C300.157 268.838 298.398 267.98 297.133 266.264C295.885 264.548 295.261 262.26 295.261 259.4C295.261 256.54 295.885 254.252 297.133 252.536C298.398 250.82 300.157 249.962 302.411 249.962C304.664 249.962 306.415 250.82 307.663 252.536C308.928 254.252 309.561 256.54 309.561 259.4C309.561 262.26 308.928 264.548 307.663 266.264ZM302.411 265.926C303.763 265.926 304.794 265.363 305.505 264.236C306.215 263.109 306.571 261.497 306.571 259.4C306.571 257.303 306.215 255.691 305.505 254.564C304.794 253.437 303.763 252.874 302.411 252.874C301.076 252.874 300.045 253.437 299.317 254.564C298.606 255.691 298.251 257.303 298.251 259.4C298.251 261.497 298.606 263.109 299.317 264.236C300.045 265.363 301.076 265.926 302.411 265.926ZM324.04 266.264C322.792 267.98 321.041 268.838 318.788 268.838C316.534 268.838 314.775 267.98 313.51 266.264C312.262 264.548 311.638 262.26 311.638 259.4C311.638 256.54 312.262 254.252 313.51 252.536C314.775 250.82 316.534 249.962 318.788 249.962C321.041 249.962 322.792 250.82 324.04 252.536C325.305 254.252 325.938 256.54 325.938 259.4C325.938 262.26 325.305 264.548 324.04 266.264ZM318.788 265.926C320.14 265.926 321.171 265.363 321.882 264.236C322.592 263.109 322.948 261.497 322.948 259.4C322.948 257.303 322.592 255.691 321.882 254.564C321.171 253.437 320.14 252.874 318.788 252.874C317.453 252.874 316.422 253.437 315.694 254.564C314.983 255.691 314.628 257.303 314.628 259.4C314.628 261.497 314.983 263.109 315.694 264.236C316.422 265.363 317.453 265.926 318.788 265.926Z" fill="white"/>
<path d="M193.36 303.3V314.5H191.52V305.06H186.96V314.5H185.12V303.3H193.36ZM201.828 306.5H203.556V314.5H201.828V313.348C201.178 314.255 200.244 314.708 199.028 314.708C197.93 314.708 196.991 314.303 196.212 313.492C195.434 312.671 195.044 311.673 195.044 310.5C195.044 309.316 195.434 308.319 196.212 307.508C196.991 306.697 197.93 306.292 199.028 306.292C200.244 306.292 201.178 306.74 201.828 307.636V306.5ZM197.492 312.34C197.972 312.82 198.575 313.06 199.3 313.06C200.026 313.06 200.628 312.82 201.108 312.34C201.588 311.849 201.828 311.236 201.828 310.5C201.828 309.764 201.588 309.156 201.108 308.676C200.628 308.185 200.026 307.94 199.3 307.94C198.575 307.94 197.972 308.185 197.492 308.676C197.012 309.156 196.772 309.764 196.772 310.5C196.772 311.236 197.012 311.849 197.492 312.34ZM210.099 306.292C211.197 306.292 212.136 306.703 212.915 307.524C213.693 308.335 214.083 309.327 214.083 310.5C214.083 311.684 213.693 312.681 212.915 313.492C212.136 314.303 211.197 314.708 210.099 314.708C208.883 314.708 207.949 314.26 207.299 313.364V317.7H205.571V306.5H207.299V307.652C207.949 306.745 208.883 306.292 210.099 306.292ZM208.019 312.34C208.499 312.82 209.101 313.06 209.827 313.06C210.552 313.06 211.155 312.82 211.635 312.34C212.115 311.849 212.355 311.236 212.355 310.5C212.355 309.764 212.115 309.156 211.635 308.676C211.155 308.185 210.552 307.94 209.827 307.94C209.101 307.94 208.499 308.185 208.019 308.676C207.539 309.156 207.299 309.764 207.299 310.5C207.299 311.236 207.539 311.849 208.019 312.34ZM222.721 314.5H220.657L217.377 310.804V314.5H215.649V306.5H217.377V310.036L220.481 306.5H222.593L219.073 310.42L222.721 314.5Z" fill="white"/>
<path d="M199.21 351.5H195.804L191.8 344.922L187.796 351.5H184.39L190.11 342.14L184.728 333.3H188.108L191.8 339.358L195.492 333.3H198.898L193.516 342.14L199.21 351.5ZM206.424 351.838C204.518 351.838 202.897 351.179 201.562 349.862C200.228 348.545 199.56 346.924 199.56 345C199.56 343.076 200.228 341.455 201.562 340.138C202.897 338.821 204.518 338.162 206.424 338.162C208.348 338.162 209.969 338.821 211.286 340.138C212.621 341.455 213.288 343.076 213.288 345C213.288 346.924 212.621 348.545 211.286 349.862C209.969 351.179 208.348 351.838 206.424 351.838ZM203.538 347.938C204.318 348.718 205.28 349.108 206.424 349.108C207.568 349.108 208.53 348.718 209.31 347.938C210.09 347.158 210.48 346.179 210.48 345C210.48 343.821 210.09 342.842 209.31 342.062C208.53 341.282 207.568 340.892 206.424 340.892C205.28 340.892 204.318 341.282 203.538 342.062C202.758 342.842 202.368 343.821 202.368 345C202.368 346.179 202.758 347.158 203.538 347.938ZM226.76 348.848H228.502V354.984H225.746V351.5H216.828V354.984H214.072V348.848H215.658C216.455 347.721 216.854 346.153 216.854 344.142V338.5H226.76V348.848ZM218.752 348.848H224.004V341.074H219.61V344.142C219.61 345.997 219.324 347.565 218.752 348.848ZM236.451 342.92C237.837 342.92 238.973 343.319 239.857 344.116C240.741 344.896 241.183 345.927 241.183 347.21C241.183 348.475 240.741 349.507 239.857 350.304C238.973 351.101 237.837 351.5 236.451 351.5H230.783V338.5H233.591V342.92H236.451ZM242.743 338.5H245.551V351.5H242.743V338.5ZM236.477 348.978C237.031 348.978 237.491 348.813 237.855 348.484C238.236 348.155 238.427 347.73 238.427 347.21C238.427 346.673 238.236 346.248 237.855 345.936C237.491 345.607 237.031 345.442 236.477 345.442H233.591V348.978H236.477ZM257.572 338.5H260.38V351.5H257.572V346.326H251.618V351.5H248.81V338.5H251.618V343.674H257.572V338.5ZM269.774 351.838C267.815 351.838 266.177 351.179 264.86 349.862C263.56 348.545 262.91 346.924 262.91 345C262.91 343.059 263.56 341.438 264.86 340.138C266.177 338.821 267.815 338.162 269.774 338.162C271.039 338.162 272.192 338.465 273.232 339.072C274.272 339.679 275.052 340.493 275.572 341.516L273.154 342.92C272.859 342.296 272.409 341.811 271.802 341.464C271.213 341.1 270.528 340.918 269.748 340.918C268.604 340.918 267.642 341.308 266.862 342.088C266.099 342.868 265.718 343.839 265.718 345C265.718 346.161 266.099 347.132 266.862 347.912C267.642 348.692 268.604 349.082 269.748 349.082C270.511 349.082 271.195 348.9 271.802 348.536C272.426 348.172 272.894 347.687 273.206 347.08L275.624 348.458C275.069 349.498 274.272 350.321 273.232 350.928C272.192 351.535 271.039 351.838 269.774 351.838ZM289.222 351.5H285.868L280.538 345.494V351.5H277.73V338.5H280.538V344.246L285.582 338.5H289.014L283.294 344.87L289.222 351.5ZM296.206 351.838C294.299 351.838 292.678 351.179 291.344 349.862C290.009 348.545 289.342 346.924 289.342 345C289.342 343.076 290.009 341.455 291.344 340.138C292.678 338.821 294.299 338.162 296.206 338.162C298.13 338.162 299.75 338.821 301.068 340.138C302.402 341.455 303.07 343.076 303.07 345C303.07 346.924 302.402 348.545 301.068 349.862C299.75 351.179 298.13 351.838 296.206 351.838ZM293.32 347.938C294.1 348.718 295.062 349.108 296.206 349.108C297.35 349.108 298.312 348.718 299.092 347.938C299.872 347.158 300.262 346.179 300.262 345C300.262 343.821 299.872 342.842 299.092 342.062C298.312 341.282 297.35 340.892 296.206 340.892C295.062 340.892 294.1 341.282 293.32 342.062C292.54 342.842 292.15 343.821 292.15 345C292.15 346.179 292.54 347.158 293.32 347.938ZM307.819 346.196C308.027 347.184 308.503 347.947 309.249 348.484C309.994 349.004 310.904 349.264 311.979 349.264C313.469 349.264 314.587 348.727 315.333 347.652L317.647 349.004C316.364 350.893 314.466 351.838 311.953 351.838C309.838 351.838 308.131 351.197 306.831 349.914C305.531 348.614 304.881 346.976 304.881 345C304.881 343.059 305.522 341.438 306.805 340.138C308.087 338.821 309.734 338.162 311.745 338.162C313.651 338.162 315.211 338.829 316.425 340.164C317.655 341.499 318.271 343.119 318.271 345.026C318.271 345.321 318.236 345.711 318.167 346.196H307.819ZM307.793 343.908H315.437C315.246 342.851 314.804 342.053 314.111 341.516C313.435 340.979 312.637 340.71 311.719 340.71C310.679 340.71 309.812 340.996 309.119 341.568C308.425 342.14 307.983 342.92 307.793 343.908ZM197.208 367.5V380.5H194.4V370.152H188.446V380.5H185.638V367.5H197.208ZM206.602 380.838C204.695 380.838 203.075 380.179 201.74 378.862C200.405 377.545 199.738 375.924 199.738 374C199.738 372.076 200.405 370.455 201.74 369.138C203.075 367.821 204.695 367.162 206.602 367.162C208.526 367.162 210.147 367.821 211.464 369.138C212.799 370.455 213.466 372.076 213.466 374C213.466 375.924 212.799 377.545 211.464 378.862C210.147 380.179 208.526 380.838 206.602 380.838ZM203.716 376.938C204.496 377.718 205.458 378.108 206.602 378.108C207.746 378.108 208.708 377.718 209.488 376.938C210.268 376.158 210.658 375.179 210.658 374C210.658 372.821 210.268 371.842 209.488 371.062C208.708 370.282 207.746 369.892 206.602 369.892C205.458 369.892 204.496 370.282 203.716 371.062C202.936 371.842 202.546 372.821 202.546 374C202.546 375.179 202.936 376.158 203.716 376.938ZM226.596 367.5V380.5H223.788V370.204H219.446V375.04C219.446 377.103 218.996 378.567 218.094 379.434C217.193 380.301 215.91 380.656 214.246 380.5V377.874C215.044 378.013 215.642 377.848 216.04 377.38C216.439 376.912 216.638 376.089 216.638 374.91V367.5H226.596ZM232.078 375.196C232.286 376.184 232.763 376.947 233.508 377.484C234.254 378.004 235.164 378.264 236.238 378.264C237.729 378.264 238.847 377.727 239.592 376.652L241.906 378.004C240.624 379.893 238.726 380.838 236.212 380.838C234.098 380.838 232.39 380.197 231.09 378.914C229.79 377.614 229.14 375.976 229.14 374C229.14 372.059 229.782 370.438 231.064 369.138C232.347 367.821 233.994 367.162 236.004 367.162C237.911 367.162 239.471 367.829 240.684 369.164C241.915 370.499 242.53 372.119 242.53 374.026C242.53 374.321 242.496 374.711 242.426 375.196H232.078ZM232.052 372.908H239.696C239.506 371.851 239.064 371.053 238.37 370.516C237.694 369.979 236.897 369.71 235.978 369.71C234.938 369.71 234.072 369.996 233.378 370.568C232.685 371.14 232.243 371.92 232.052 372.908Z" fill="white"/>
<path d="M318.6 199.745L318.17 204.094C317.785 207.983 319.923 211.685 323.484 213.297L327.465 215.099L323.116 214.669C319.226 214.285 315.524 216.422 313.912 219.983L312.11 223.964L312.54 219.615C312.925 215.726 310.787 212.023 307.227 210.412L303.245 208.61L307.594 209.04C311.484 209.424 315.186 207.287 316.798 203.726L318.6 199.745Z" fill="white"/>
</g>
<defs>
<clipPath id="clip0_2432_377955">
<rect width="343" height="506" rx="11.4333" fill="white"/>
</clipPath>
</defs>
</svg>
