<svg width="100%" height="100%" viewBox="0 0 1200 450" fill="none" xmlns="http://www.w3.org/2000/svg">
    <g clip-path="url(#clip0_2432_377873)">
        <rect width="1200" height="450" rx="40" fill="#D9ED12" />
        <path d="M546.5 262.5L430.5 224.5L187 -6H1197.56L1239.5 477.5L699.5 584L546.5 262.5Z" fill="#4639A3" />
        <path d="M250.691 -130.5L1251.5 -5L1225.5 275.5L69.4999 184.5L250.691 -130.5Z" fill="#35298B" />
        <path d="M564.5 345.5L680 277.5L1210 328L1233.5 533L882 482.5L564.5 345.5Z" fill="#E62A77" />
        <path d="M732.542 297.756L24 249.831V98.5815L732.542 146.506V297.756Z" fill="#D9ED12" />
        <path d="M410.843 157.376L24 187.843V54.4858L410.843 24V157.376Z" fill="#D9ED12" />
        <path d="M781.535 344.7L508.27 368V234.624L781.535 211.325V344.7Z" fill="#D9ED12" />
        <path
            d="M73.5747 149.464H116.092V161.876H128.014V137.541H120.374V78.4389H74.6817V108.144C74.6817 120.157 73.1937 128.505 69.3104 137.541H61.7615V161.876H73.5747V149.464ZM87.3841 107.945V90.361H107.654V137.541H82.4301C85.9142 128.505 87.4022 120.067 87.4022 107.945"
            fill="#010101" />
        <path
            d="M299.261 147.976V78.4389H286.54V105.368H253.568V78.4389H240.847V147.976H253.568V117.49H286.54V147.976H299.261Z"
            fill="#010101" />
        <path
            d="M390.554 126.418C390.554 111.411 380.229 104.769 367.908 104.769H322.125V78.4389H309.404V147.976H367.89C380.211 147.976 390.536 141.316 390.536 126.418M322.106 136.253V116.492H366.293C373.043 116.492 377.126 119.976 377.126 126.418C377.126 132.86 373.061 136.253 366.293 136.253H322.106Z"
            fill="#010101" />
        <path
            d="M120.664 165.668L104.877 205.191H104.678L88.981 165.668H79.0368L61.7615 235.205H75.0627L85.6965 190.002H85.8961L100.195 224.862H109.432L123.749 190.002H123.949L134.474 235.205H147.884L130.591 165.668H120.664Z"
            fill="#010101" />
        <path
            d="M183.556 164.18C162.888 164.18 147.191 178.879 147.191 200.437C147.191 221.995 162.888 236.693 183.556 236.693C204.225 236.693 220.012 221.995 220.012 200.437C220.012 178.879 204.225 164.18 183.556 164.18ZM183.556 223.682C170.546 223.682 161.109 214.246 161.109 200.437C161.109 186.627 170.546 177.191 183.556 177.191C196.567 177.191 206.003 186.627 206.003 200.437C206.003 214.246 196.658 223.682 183.556 223.682Z"
            fill="#010101" />
        <path
            d="M228.745 217.222C228.745 221.886 226.948 223.482 223.682 223.482H219.799V235.604H224.97C236.003 235.604 241.465 230.033 241.465 217.821V177.59H269.483V235.205H282.204V165.668H228.763V217.222H228.745Z"
            fill="#010101" />
        <path
            d="M324.847 164.18C304.179 164.18 288.482 178.879 288.482 200.437C288.482 221.995 304.179 236.693 324.847 236.693C345.516 236.693 361.303 221.995 361.303 200.437C361.303 178.879 345.516 164.18 324.847 164.18ZM324.847 223.682C311.837 223.682 302.4 214.246 302.4 200.437C302.4 186.627 311.837 177.191 324.847 177.191C337.858 177.191 347.294 186.627 347.294 200.437C347.294 214.246 337.949 223.682 324.847 223.682Z"
            fill="#010101" />
        <path
            d="M418.935 165.668H373.242V195.374C373.242 207.387 371.754 215.734 367.871 224.771H360.322V249.105H372.135V236.693H414.652V249.105H426.574V224.771H418.917V165.668H418.935ZM406.214 224.771H380.991C384.475 215.734 385.963 207.296 385.963 195.174V177.59H406.232V224.771H406.214Z"
            fill="#010101" />
        <path
            d="M465.407 162.093C469.381 162.093 472.466 159.009 472.466 155.035C472.466 151.061 469.381 147.976 465.407 147.976C461.433 147.976 458.457 151.061 458.457 155.035C458.457 159.009 461.433 162.093 465.407 162.093Z"
            fill="#010101" />
        <path
            d="M443.761 162.093C447.735 162.093 450.711 159.009 450.711 155.035C450.711 151.061 447.735 147.976 443.761 147.976C439.787 147.976 436.72 151.061 436.72 155.035C436.72 159.009 439.696 162.093 443.761 162.093Z"
            fill="#010101" />
        <path
            d="M556.702 235.205L584.92 200.237V235.205H597.15V200.237L625.241 235.205H643.242L611.849 198.441L638.27 165.668H621.085L597.15 197.551V165.668H584.92V197.551L560.785 165.668H543.8L570.221 198.441L538.828 235.205H556.702Z"
            fill="#010101" />
        <path
            d="M693.689 186.827H693.798V235.205H706.5V165.668H694.687L660.898 214.137H660.808V165.668H648.105V235.205H659.919L693.689 186.827Z"
            fill="#010101" />
        <path
            d="M547.94 322.58L562.312 304.651C569.788 295.614 572.329 289.408 571.694 282.077C570.641 270.209 562.004 263.695 548.63 264.874C534.585 266.108 526.782 274.873 527.743 288.156L540.01 287.067C539.557 280.734 542.986 276.724 549.229 276.179C554.963 275.671 558.719 278.629 559.191 283.982C559.572 288.229 557.63 292.293 551.878 299.479L531.264 325.828L532.098 335.137L576.14 331.254L575.142 320.075L547.94 322.58Z"
            fill="#010101" />
        <path
            d="M613.99 257.579C612.793 257.579 611.559 257.634 610.325 257.743C600.471 258.614 591.797 262.878 585.918 269.756C579.948 276.742 577.135 286.124 578.024 296.195C578.913 306.266 583.323 315.012 590.436 320.837C597.441 326.572 606.714 329.257 616.567 328.386C637.145 326.572 650.773 310.403 648.958 289.934C647.252 270.699 632.808 257.579 613.99 257.579ZM615.551 317.009C614.77 317.081 613.99 317.117 613.228 317.117C607.585 317.117 602.377 315.267 598.366 311.819C593.757 307.863 590.89 301.929 590.291 295.106C589.692 288.283 591.471 281.932 595.299 277.232C599.11 272.568 604.808 269.683 611.323 269.102C617.874 268.522 624.007 270.372 628.562 274.292C633.207 278.302 635.984 284.073 636.601 291.005C637.853 305.105 629.197 315.793 615.551 317.009Z"
            fill="#010101" />
        <path
            d="M672.438 311.583L686.81 293.654C694.286 284.617 696.827 278.411 696.192 271.08C695.139 259.213 686.484 252.698 673.128 253.878C659.083 255.111 651.28 263.876 652.241 277.159L664.508 276.071C664.037 269.737 667.484 265.727 673.727 265.183C679.461 264.675 683.217 267.632 683.689 272.986C684.052 277.232 682.128 281.297 676.376 288.483L655.762 314.831L656.597 324.14L700.638 320.257L699.64 309.079L672.438 311.583Z"
            fill="#010101" />
        <path
            d="M750.578 296.903C749.725 287.303 744.172 281.805 734.954 281.424V281.224C742.303 278.774 746.15 272.75 745.478 265.038C744.517 254.15 735.825 248.343 722.269 249.541C708.514 250.756 700.748 258.723 701.619 270.917L713.995 269.828C713.65 264.675 716.934 261.39 722.868 260.864C728.711 260.356 732.232 263.023 732.722 268.377C733.248 274.51 729.564 277.831 721.453 278.538L718.676 278.774L719.547 288.664L722.324 288.428C732.794 287.412 737.113 289.807 737.73 296.939C738.311 303.562 735.062 307.355 728.131 307.954C721.308 308.552 716.844 305.558 715.936 299.661L703.361 300.768C704.813 313.797 714.085 320.565 729.038 319.241C743.682 317.952 751.703 309.551 750.596 296.884"
            fill="#010101" />
        <path
            d="M161.835 147.976H228.868V136.072H175.373V136.053H146.375V115.984H161.835V116.002H216.837V104.316H172.397V104.261H146.375V90.361H174.883V90.3247H228.868V78.4389H161.835H133.654V147.976H161.835Z"
            fill="#010101" />
        <path
            d="M534.617 223.301H473.954V223.283H444.956V203.213H467.585V203.231H522.586V191.527H470.978V191.49H444.956V177.59H473.464V177.554H534.617V165.668H467.585H432.236V235.205H467.585H473.954H534.617V223.301Z"
            fill="#010101" />
        <path
            d="M95.5078 314.327L97.8738 353.42C130.956 390.655 137.979 398.638 172.161 438.608C187.086 425.429 203.931 417.73 223.599 415.774C243.24 413.828 261.656 417.88 278.684 427.873C297.01 438.628 306.527 448.927 316 470.232C316.275 470.141 316.541 470.06 316.797 469.96C317.653 469.6 318.518 469.23 319.374 468.87C322.835 467.399 326.287 465.929 329.748 464.458C333.282 462.955 336.815 461.443 340.349 459.94C343.828 458.459 347.316 456.977 350.795 455.496C354.329 453.993 357.862 452.481 361.396 450.977C364.875 449.496 368.363 448.015 371.842 446.534C375.376 445.031 378.909 443.518 382.443 442.015C385.922 440.534 389.41 439.052 392.889 437.562C396.423 436.059 399.956 434.546 403.49 433.043C406.969 431.562 410.456 430.071 413.935 428.59C417.469 427.087 421.003 425.584 424.536 424.072C425.447 423.68 427.237 422.853 427.237 422.853L436.267 388.067L411.792 392.248C409.435 388.505 407.007 384.812 404.345 381.274C402.426 378.727 400.523 376.161 398.559 373.655C396.838 371.461 395.09 369.269 393.244 367.176C390.437 364.011 387.585 360.885 384.653 357.83C377.116 349.982 368.948 342.834 360.247 336.298C339.587 320.789 316.843 309.423 292.051 302.198C267.402 295.02 242.269 292.365 216.676 294.279C191.454 296.16 167.346 302.402 144.35 312.959C139.596 315.143 134.917 317.481 130.343 320.019C126.493 322.158 122.675 324.369 118.971 326.761L95.499 314.336L95.5078 314.327Z"
            fill="#BD1B5F" />
        <path
            d="M178.117 404.99C150.612 374.705 123.158 344.482 95.6327 314.179C96.1018 313.749 96.525 313.331 96.969 312.949C99.5892 310.708 102.199 308.448 104.86 306.259C106.8 304.666 108.8 303.144 110.812 301.648C113.405 299.726 116.029 297.857 118.663 295.998C119.971 295.078 121.341 294.248 122.66 293.355C127.04 290.399 131.617 287.759 136.226 285.191C140.835 282.623 145.56 280.273 150.359 278.067C173.565 267.414 197.894 261.121 223.348 259.216C249.174 257.289 274.541 259.967 299.409 267.206C324.438 274.491 347.385 285.966 368.231 301.614C377.01 308.211 385.257 315.419 392.864 323.347C395.816 326.429 398.697 329.581 401.534 332.772C403.4 334.883 405.159 337.093 406.9 339.304C408.884 341.837 410.806 344.421 412.746 346.994C416.942 352.57 420.59 358.505 424.21 364.452C425.673 366.867 426.974 369.376 428.311 371.864C429.448 373.972 430.566 376.091 431.63 378.231C432.608 380.19 433.505 382.2 434.42 384.19C435.001 385.454 435.573 386.727 436.145 388C436.403 388.564 436.4 388.667 435.847 388.943C434.959 389.389 434.039 389.781 433.119 390.173C429.558 391.697 425.988 393.211 422.418 394.735C418.902 396.228 415.387 397.73 411.872 399.232C408.302 400.756 404.741 402.27 401.171 403.794C397.655 405.287 394.14 406.789 390.625 408.281C387.055 409.805 383.494 411.319 379.924 412.843C376.408 414.336 372.893 415.838 369.377 417.33C365.807 418.854 362.247 420.378 358.676 421.892C355.161 423.385 351.645 424.878 348.13 426.38C344.56 427.904 340.999 429.427 337.429 430.942C333.941 432.433 330.453 433.914 326.964 435.396C326.099 435.766 325.234 436.136 324.369 436.497C324.114 436.605 323.847 436.678 323.564 436.779C315.463 418.548 303.099 404.124 285.906 394.029C268.723 383.943 250.137 379.855 230.32 381.82C210.475 383.787 193.166 391.692 178.098 404.991L178.117 404.99Z"
            fill="#E62A77" />
        <path
            d="M155.674 312.34L152.582 313.597L143.534 308.843L146.353 316.13L143.758 317.185L137.832 301.867L140.428 300.812L143.086 307.683L146.431 298.371L149.523 297.114L146.023 307.173L155.674 312.34Z"
            fill="white" />
        <path
            d="M169.135 305.665C167.991 307.767 166.246 309.201 163.902 309.965C161.558 310.729 159.332 310.59 157.223 309.547C155.124 308.485 153.732 306.814 153.045 304.534C152.358 302.254 152.587 300.063 153.732 297.96C154.887 295.838 156.637 294.394 158.981 293.63C161.325 292.866 163.546 293.015 165.644 294.078C167.754 295.12 169.152 296.781 169.838 299.061C170.525 301.341 170.291 303.542 169.135 305.665ZM158.568 307.182C159.999 307.885 161.524 307.972 163.143 307.445C164.762 306.917 165.959 305.942 166.733 304.52C167.518 303.079 167.666 301.548 167.178 299.928C166.69 298.308 165.731 297.146 164.299 296.443C162.879 295.72 161.359 295.622 159.74 296.15C158.121 296.678 156.919 297.663 156.134 299.105C155.36 300.526 155.217 302.047 155.705 303.667C156.193 305.287 157.147 306.459 158.568 307.182Z"
            fill="white" />
        <path
            d="M178.879 288.433L181.591 287.764L185.095 303.868L182.384 304.537L180.867 297.566L173.793 299.31L175.31 306.28L172.599 306.949L169.094 290.845L171.806 290.176L173.243 296.779L180.316 295.035L178.879 288.433Z"
            fill="white" />
        <path
            d="M195.235 302.367C192.719 302.797 190.52 302.343 188.64 301.005C186.758 299.652 185.65 297.775 185.318 295.376C184.986 292.976 185.536 290.824 186.968 288.92C188.398 287.001 190.371 285.827 192.887 285.397C194.4 285.139 195.842 285.251 197.213 285.735C198.6 286.216 199.734 286.995 200.617 288.072L198.416 289.836C197.858 289.102 197.117 288.575 196.192 288.254C195.281 287.915 194.3 287.835 193.249 288.015C191.466 288.32 190.093 289.12 189.131 290.417C188.186 291.711 187.83 293.208 188.065 294.906C188.3 296.605 189.044 297.914 190.295 298.832C191.563 299.748 193.089 300.054 194.872 299.749C195.923 299.57 196.847 299.173 197.642 298.558C198.435 297.928 198.99 297.172 199.308 296.288L201.881 297.212C201.346 298.532 200.484 299.66 199.293 300.597C198.116 301.516 196.763 302.106 195.235 302.367Z"
            fill="white" />
        <path
            d="M212.832 283.216L213.012 285.812L208.274 286.307L209.237 300.228L206.472 300.517L205.509 286.595L200.747 287.093L200.567 284.497L212.832 283.216Z"
            fill="white" />
        <path
            d="M220.915 282.824C222.506 282.75 223.836 283.211 224.906 284.204C225.992 285.197 226.542 286.468 226.556 288.017C226.57 289.549 226.043 290.87 224.976 291.979C223.925 293.071 222.604 293.654 221.013 293.727L217.566 293.887L217.617 299.575L214.845 299.704L214.697 283.112L220.915 282.824ZM220.99 291.167C221.809 291.129 222.482 290.829 223.007 290.268C223.533 289.69 223.792 288.983 223.784 288.145C223.777 287.308 223.505 286.632 222.97 286.12C222.435 285.591 221.758 285.346 220.938 285.384L217.491 285.544L217.543 291.327L220.99 291.167Z"
            fill="white" />
        <path
            d="M238.041 282.719L240.834 282.758L234.951 295.022C233.506 298.025 231.352 299.419 228.489 299.205L228.624 296.666C229.566 296.774 230.336 296.643 230.934 296.271C231.548 295.9 232.055 295.274 232.456 294.393L227.474 282.569L230.266 282.609L233.891 291.421L238.041 282.719Z"
            fill="white" />
        <path
            d="M253.203 300.434L249.923 300.18L244.247 291.792L243.315 299.669L240.562 299.456L242.521 282.897L245.274 283.11L244.395 290.538L251.643 283.602L254.923 283.856L247.193 291.399L253.203 300.434Z"
            fill="white" />
        <path
            d="M267.755 285.657L267.286 288.242L262.613 287.591L260.097 301.455L257.369 301.076L259.884 287.212L255.187 286.558L255.656 283.973L267.755 285.657Z"
            fill="white" />
        <path
            d="M279.781 302.966C277.731 304.245 275.522 304.633 273.154 304.132C270.786 303.631 268.984 302.394 267.747 300.42C266.53 298.434 266.222 296.265 266.822 293.913C267.422 291.561 268.747 289.746 270.797 288.468C272.866 287.177 275.085 286.783 277.453 287.284C279.821 287.785 281.613 289.028 282.83 291.014C284.067 292.988 284.385 295.151 283.785 297.503C283.185 299.855 281.85 301.676 279.781 302.966ZM270.102 299.01C270.943 300.346 272.182 301.187 273.817 301.533C275.453 301.879 276.964 301.62 278.35 300.756C279.756 299.879 280.672 298.605 281.098 296.934C281.525 295.263 281.317 293.76 280.476 292.424C279.654 291.076 278.425 290.229 276.79 289.883C275.154 289.537 273.633 289.802 272.228 290.679C270.841 291.543 269.935 292.811 269.509 294.482C269.082 296.153 269.28 297.662 270.102 299.01Z"
            fill="white" />
        <path
            d="M293.726 291.739C295.235 292.176 296.326 293.041 296.999 294.335C297.686 295.633 297.781 297.026 297.285 298.515C296.793 299.989 295.867 301.087 294.506 301.809C293.165 302.521 291.74 302.658 290.23 302.222L286.959 301.276L285.135 306.745L282.504 305.985L287.824 290.033L293.726 291.739ZM291.051 299.761C291.828 299.986 292.555 299.913 293.231 299.542C293.911 299.155 294.386 298.56 294.654 297.754C294.923 296.949 294.891 296.216 294.56 295.554C294.235 294.876 293.683 294.425 292.905 294.201L289.634 293.255L287.78 298.815L291.051 299.761Z"
            fill="white" />
        <path
            d="M309.197 303.915C310.628 304.468 311.622 305.377 312.179 306.642C312.735 307.907 312.718 309.225 312.126 310.598C311.535 311.97 310.573 312.924 309.24 313.459C307.908 313.994 306.526 313.986 305.094 313.433L299.228 311.167L305.906 295.673L315.425 299.349L314.375 301.784L307.403 299.091L305.876 302.632L309.197 303.915ZM306.125 311.042C306.818 311.31 307.486 311.318 308.128 311.067C308.791 310.807 309.275 310.323 309.58 309.614C309.886 308.906 309.894 308.247 309.607 307.636C309.34 307.017 308.86 306.573 308.166 306.305L304.846 305.023L302.804 309.76L306.125 311.042Z"
            fill="white" />
        <path
            d="M327.008 304.569L329.504 305.717L319.179 314.786C316.647 317.005 314.137 317.445 311.65 316.106L312.814 313.799C313.616 314.274 314.363 314.458 315.053 314.35C315.758 314.249 316.471 313.868 317.192 313.208L317.566 300.227L320.061 301.374L319.703 311.015L327.008 304.569Z"
            fill="white" />
        <path
            d="M334.26 324.56L335.815 325.409L332.814 330.498L330.43 329.197L332.078 326.402L323.267 321.592L321.619 324.387L319.235 323.086L322.236 317.997L323.583 318.732C325.082 318.08 326.492 316.635 327.811 314.396L332.103 307.117L341.515 312.255L334.26 324.56ZM326.195 320.158L331.876 323.259L337.803 313.206L333.159 310.671L330.171 315.739C328.892 317.908 327.567 319.381 326.195 320.158Z"
            fill="white" />
        <path
            d="M353.117 319.574L355.417 321.051L343.986 328.697C341.183 330.567 338.648 330.668 336.383 329.001L337.85 326.859C338.575 327.44 339.285 327.723 339.98 327.709C340.689 327.703 341.444 327.419 342.247 326.859L344.413 313.981L346.713 315.459L345.025 325.012L353.117 319.574Z"
            fill="white" />
        <path
            d="M362.689 344.55L364.086 345.625L360.357 350.239L358.214 348.591L360.262 346.057L346.003 335.092L356.703 321.855L358.846 323.503L349.828 334.66L354.115 337.957L363.133 326.8L365.277 328.448L356.258 339.605L360.545 342.902L369.563 331.745L371.707 333.393L362.689 344.55Z"
            fill="white" />
        <path
            d="M366.132 347.865L371.522 352.753L369.685 354.704L362.297 348.002L373.984 335.59L381.286 342.213L379.449 344.164L374.146 339.354L371.108 342.581L375.976 346.997L374.156 348.929L369.288 344.514L366.132 347.865Z"
            fill="white" />
        <path
            d="M389.323 350.34L387.387 352.196L382.775 347.522L372.392 357.473L370.498 355.554L382.816 343.748L389.323 350.34Z"
            fill="white" />
        <path
            d="M388.209 371.615C385.835 371.47 383.875 370.497 382.328 368.695C380.782 366.894 380.123 364.814 380.351 362.458C380.601 360.103 381.672 358.129 383.563 356.537C385.454 354.945 387.586 354.221 389.961 354.366C392.358 354.512 394.329 355.486 395.875 357.288C397.422 359.09 398.069 361.168 397.819 363.523C397.591 365.88 396.532 367.854 394.641 369.446C392.75 371.038 390.606 371.761 388.209 371.615ZM383.042 362.673C382.891 364.27 383.35 365.691 384.418 366.936C385.486 368.18 386.823 368.851 388.429 368.949C390.057 369.049 391.542 368.533 392.886 367.401C394.229 366.27 394.977 364.906 395.127 363.309C395.301 361.713 394.854 360.292 393.785 359.048C392.717 357.803 391.369 357.131 389.741 357.032C388.136 356.934 386.661 357.451 385.318 358.582C383.974 359.713 383.216 361.077 383.042 362.673Z"
            fill="white" />
        <path
            d="M847.676 34.466C848.228 34.754 848.66 35.15 848.972 35.654C849.284 36.158 849.44 36.74 849.44 37.4C849.44 38.432 849.074 39.29 848.342 39.974C847.61 40.658 846.716 41 845.66 41H840.26V28.4H845.264C846.296 28.4 847.166 28.736 847.874 29.408C848.594 30.068 848.954 30.896 848.954 31.892C848.954 32.984 848.528 33.842 847.676 34.466ZM845.264 30.344H842.33V33.656H845.264C845.72 33.656 846.104 33.5 846.416 33.188C846.728 32.864 846.884 32.468 846.884 32C846.884 31.532 846.728 31.142 846.416 30.83C846.104 30.506 845.72 30.344 845.264 30.344ZM845.66 39.056C846.14 39.056 846.542 38.888 846.866 38.552C847.202 38.204 847.37 37.784 847.37 37.292C847.37 36.8 847.202 36.386 846.866 36.05C846.542 35.702 846.14 35.528 845.66 35.528H842.33V39.056H845.66ZM856.214 31.766C857.45 31.766 858.506 32.228 859.382 33.152C860.258 34.064 860.696 35.18 860.696 36.5C860.696 37.832 860.258 38.954 859.382 39.866C858.506 40.778 857.45 41.234 856.214 41.234C854.846 41.234 853.796 40.73 853.064 39.722V44.6H851.12V32H853.064V33.296C853.796 32.276 854.846 31.766 856.214 31.766ZM853.874 38.57C854.414 39.11 855.092 39.38 855.908 39.38C856.724 39.38 857.402 39.11 857.942 38.57C858.482 38.018 858.752 37.328 858.752 36.5C858.752 35.672 858.482 34.988 857.942 34.448C857.402 33.896 856.724 33.62 855.908 33.62C855.092 33.62 854.414 33.896 853.874 34.448C853.334 34.988 853.064 35.672 853.064 36.5C853.064 37.328 853.334 38.018 853.874 38.57ZM863.988 37.328C864.132 38.012 864.462 38.54 864.978 38.912C865.494 39.272 866.124 39.452 866.868 39.452C867.9 39.452 868.674 39.08 869.19 38.336L870.792 39.272C869.904 40.58 868.59 41.234 866.85 41.234C865.386 41.234 864.204 40.79 863.304 39.902C862.404 39.002 861.954 37.868 861.954 36.5C861.954 35.156 862.398 34.034 863.286 33.134C864.174 32.222 865.314 31.766 866.706 31.766C868.026 31.766 869.106 32.228 869.946 33.152C870.798 34.076 871.224 35.198 871.224 36.518C871.224 36.722 871.2 36.992 871.152 37.328H863.988ZM863.97 35.744H869.262C869.13 35.012 868.824 34.46 868.344 34.088C867.876 33.716 867.324 33.53 866.688 33.53C865.968 33.53 865.368 33.728 864.888 34.124C864.408 34.52 864.102 35.06 863.97 35.744ZM882.115 32V41H880.225V35.078L877.633 39.2H877.399L874.825 35.096V41H872.935V32H874.915L877.525 36.158L880.135 32H882.115ZM891.327 32V41H889.419V37.976H888.339L886.053 41H883.767L886.197 37.796C885.573 37.592 885.069 37.232 884.685 36.716C884.313 36.2 884.127 35.624 884.127 34.988C884.127 34.16 884.421 33.458 885.009 32.882C885.609 32.294 886.377 32 887.313 32H891.327ZM887.421 36.302H889.419V33.764H887.421C887.025 33.764 886.695 33.878 886.431 34.106C886.167 34.334 886.035 34.646 886.035 35.042C886.035 35.426 886.167 35.732 886.431 35.96C886.695 36.188 887.025 36.302 887.421 36.302Z"
            fill="white" />
        <path
            d="M845.304 60.3307H848.504V82.7307H844.824V64.2667L840.312 65.5467L839.416 62.4107L845.304 60.3307ZM851.898 82.7307V79.8507L859.706 71.8827C861.605 69.984 862.554 68.3413 862.554 66.9547C862.554 65.8667 862.224 65.024 861.562 64.4267C860.922 63.808 860.101 63.4987 859.098 63.4987C857.221 63.4987 855.834 64.4267 854.938 66.2827L851.834 64.4587C852.538 62.9653 853.53 61.8347 854.81 61.0667C856.09 60.2987 857.509 59.9147 859.066 59.9147C861.029 59.9147 862.714 60.5333 864.122 61.7707C865.53 63.008 866.234 64.6933 866.234 66.8267C866.234 69.1093 864.965 71.5413 862.426 74.1227L857.37 79.1787H866.65V82.7307H851.898ZM873.636 70.4107C873.166 70.88 872.601 71.1147 871.94 71.1147C871.278 71.1147 870.713 70.88 870.244 70.4107C869.774 69.9413 869.54 69.376 869.54 68.7147C869.54 68.032 869.764 67.4667 870.212 67.0187C870.681 66.5493 871.257 66.3147 871.94 66.3147C872.601 66.3147 873.166 66.5493 873.636 67.0187C874.105 67.488 874.34 68.0533 874.34 68.7147C874.34 69.376 874.105 69.9413 873.636 70.4107ZM873.636 82.4107C873.166 82.88 872.601 83.1147 871.94 83.1147C871.278 83.1147 870.713 82.88 870.244 82.4107C869.774 81.9413 869.54 81.376 869.54 80.7147C869.54 80.0533 869.764 79.488 870.212 79.0187C870.681 78.5493 871.257 78.3147 871.94 78.3147C872.601 78.3147 873.166 78.5493 873.636 79.0187C874.105 79.488 874.34 80.0533 874.34 80.7147C874.34 81.376 874.105 81.9413 873.636 82.4107ZM892.544 79.9787C891.008 82.0907 888.853 83.1467 886.08 83.1467C883.307 83.1467 881.141 82.0907 879.584 79.9787C878.048 77.8667 877.28 75.0507 877.28 71.5307C877.28 68.0107 878.048 65.1947 879.584 63.0827C881.141 60.9707 883.307 59.9147 886.08 59.9147C888.853 59.9147 891.008 60.9707 892.544 63.0827C894.101 65.1947 894.88 68.0107 894.88 71.5307C894.88 75.0507 894.101 77.8667 892.544 79.9787ZM886.08 79.5627C887.744 79.5627 889.013 78.8693 889.888 77.4827C890.763 76.096 891.2 74.112 891.2 71.5307C891.2 68.9493 890.763 66.9653 889.888 65.5787C889.013 64.192 887.744 63.4987 886.08 63.4987C884.437 63.4987 883.168 64.192 882.272 65.5787C881.397 66.9653 880.96 68.9493 880.96 71.5307C880.96 74.112 881.397 76.096 882.272 77.4827C883.168 78.8693 884.437 79.5627 886.08 79.5627ZM912.7 79.9787C911.164 82.0907 909.01 83.1467 906.236 83.1467C903.463 83.1467 901.298 82.0907 899.74 79.9787C898.204 77.8667 897.436 75.0507 897.436 71.5307C897.436 68.0107 898.204 65.1947 899.74 63.0827C901.298 60.9707 903.463 59.9147 906.236 59.9147C909.01 59.9147 911.164 60.9707 912.7 63.0827C914.258 65.1947 915.036 68.0107 915.036 71.5307C915.036 75.0507 914.258 77.8667 912.7 79.9787ZM906.236 79.5627C907.9 79.5627 909.17 78.8693 910.044 77.4827C910.919 76.096 911.356 74.112 911.356 71.5307C911.356 68.9493 910.919 66.9653 910.044 65.5787C909.17 64.192 907.9 63.4987 906.236 63.4987C904.594 63.4987 903.324 64.192 902.428 65.5787C901.554 66.9653 901.116 68.9493 901.116 71.5307C901.116 74.112 901.554 76.096 902.428 77.4827C903.324 78.8693 904.594 79.5627 906.236 79.5627ZM918.553 74.6667V71.3387H930.393V74.6667H918.553ZM933.617 82.7307V79.8507L941.425 71.8827C943.324 69.984 944.273 68.3413 944.273 66.9547C944.273 65.8667 943.942 65.024 943.281 64.4267C942.641 63.808 941.82 63.4987 940.817 63.4987C938.94 63.4987 937.553 64.4267 936.657 66.2827L933.553 64.4587C934.257 62.9653 935.249 61.8347 936.529 61.0667C937.809 60.2987 939.228 59.9147 940.785 59.9147C942.748 59.9147 944.433 60.5333 945.841 61.7707C947.249 63.008 947.953 64.6933 947.953 66.8267C947.953 69.1093 946.684 71.5413 944.145 74.1227L939.089 79.1787H948.369V82.7307H933.617ZM950.555 82.7307V79.8507L958.363 71.8827C960.261 69.984 961.211 68.3413 961.211 66.9547C961.211 65.8667 960.88 65.024 960.219 64.4267C959.579 63.808 958.757 63.4987 957.755 63.4987C955.877 63.4987 954.491 64.4267 953.595 66.2827L950.491 64.4587C951.195 62.9653 952.187 61.8347 953.467 61.0667C954.747 60.2987 956.165 59.9147 957.723 59.9147C959.685 59.9147 961.371 60.5333 962.779 61.7707C964.187 63.008 964.891 64.6933 964.891 66.8267C964.891 69.1093 963.621 71.5413 961.083 74.1227L956.027 79.1787H965.307V82.7307H950.555ZM972.292 70.4107C971.823 70.88 971.257 71.1147 970.596 71.1147C969.935 71.1147 969.369 70.88 968.9 70.4107C968.431 69.9413 968.196 69.376 968.196 68.7147C968.196 68.032 968.42 67.4667 968.868 67.0187C969.337 66.5493 969.913 66.3147 970.596 66.3147C971.257 66.3147 971.823 66.5493 972.292 67.0187C972.761 67.488 972.996 68.0533 972.996 68.7147C972.996 69.376 972.761 69.9413 972.292 70.4107ZM972.292 82.4107C971.823 82.88 971.257 83.1147 970.596 83.1147C969.935 83.1147 969.369 82.88 968.9 82.4107C968.431 81.9413 968.196 81.376 968.196 80.7147C968.196 80.0533 968.42 79.488 968.868 79.0187C969.337 78.5493 969.913 78.3147 970.596 78.3147C971.257 78.3147 971.823 78.5493 972.292 79.0187C972.761 79.488 972.996 80.0533 972.996 80.7147C972.996 81.376 972.761 81.9413 972.292 82.4107ZM991.2 79.9787C989.664 82.0907 987.51 83.1467 984.736 83.1467C981.963 83.1467 979.798 82.0907 978.24 79.9787C976.704 77.8667 975.936 75.0507 975.936 71.5307C975.936 68.0107 976.704 65.1947 978.24 63.0827C979.798 60.9707 981.963 59.9147 984.736 59.9147C987.51 59.9147 989.664 60.9707 991.2 63.0827C992.758 65.1947 993.536 68.0107 993.536 71.5307C993.536 75.0507 992.758 77.8667 991.2 79.9787ZM984.736 79.5627C986.4 79.5627 987.67 78.8693 988.544 77.4827C989.419 76.096 989.856 74.112 989.856 71.5307C989.856 68.9493 989.419 66.9653 988.544 65.5787C987.67 64.192 986.4 63.4987 984.736 63.4987C983.094 63.4987 981.824 64.192 980.928 65.5787C980.054 66.9653 979.616 68.9493 979.616 71.5307C979.616 74.112 980.054 76.096 980.928 77.4827C981.824 78.8693 983.094 79.5627 984.736 79.5627ZM1011.36 79.9787C1009.82 82.0907 1007.67 83.1467 1004.89 83.1467C1002.12 83.1467 999.954 82.0907 998.397 79.9787C996.861 77.8667 996.093 75.0507 996.093 71.5307C996.093 68.0107 996.861 65.1947 998.397 63.0827C999.954 60.9707 1002.12 59.9147 1004.89 59.9147C1007.67 59.9147 1009.82 60.9707 1011.36 63.0827C1012.91 65.1947 1013.69 68.0107 1013.69 71.5307C1013.69 75.0507 1012.91 77.8667 1011.36 79.9787ZM1004.89 79.5627C1006.56 79.5627 1007.83 78.8693 1008.7 77.4827C1009.58 76.096 1010.01 74.112 1010.01 71.5307C1010.01 68.9493 1009.58 66.9653 1008.7 65.5787C1007.83 64.192 1006.56 63.4987 1004.89 63.4987C1003.25 63.4987 1001.98 64.192 1001.08 65.5787C1000.21 66.9653 999.773 68.9493 999.773 71.5307C999.773 74.112 1000.21 76.096 1001.08 77.4827C1001.98 78.8693 1003.25 79.5627 1004.89 79.5627Z"
            fill="white" />
        <path
            d="M849.53 118.131V130.731H847.46V120.111H842.33V130.731H840.26V118.131H849.53ZM859.057 121.731H861.001V130.731H859.057V129.435C858.325 130.455 857.275 130.965 855.907 130.965C854.671 130.965 853.615 130.509 852.739 129.597C851.863 128.673 851.425 127.551 851.425 126.231C851.425 124.899 851.863 123.777 852.739 122.865C853.615 121.953 854.671 121.497 855.907 121.497C857.275 121.497 858.325 122.001 859.057 123.009V121.731ZM854.179 128.301C854.719 128.841 855.397 129.111 856.213 129.111C857.029 129.111 857.707 128.841 858.247 128.301C858.787 127.749 859.057 127.059 859.057 126.231C859.057 125.403 858.787 124.719 858.247 124.179C857.707 123.627 857.029 123.351 856.213 123.351C855.397 123.351 854.719 123.627 854.179 124.179C853.639 124.719 853.369 125.403 853.369 126.231C853.369 127.059 853.639 127.749 854.179 128.301ZM868.361 121.497C869.597 121.497 870.653 121.959 871.529 122.883C872.405 123.795 872.843 124.911 872.843 126.231C872.843 127.563 872.405 128.685 871.529 129.597C870.653 130.509 869.597 130.965 868.361 130.965C866.993 130.965 865.943 130.461 865.211 129.453V134.331H863.267V121.731H865.211V123.027C865.943 122.007 866.993 121.497 868.361 121.497ZM866.021 128.301C866.561 128.841 867.239 129.111 868.055 129.111C868.871 129.111 869.549 128.841 870.089 128.301C870.629 127.749 870.899 127.059 870.899 126.231C870.899 125.403 870.629 124.719 870.089 124.179C869.549 123.627 868.871 123.351 868.055 123.351C867.239 123.351 866.561 123.627 866.021 124.179C865.481 124.719 865.211 125.403 865.211 126.231C865.211 127.059 865.481 127.749 866.021 128.301ZM882.561 130.731H880.239L876.549 126.573V130.731H874.605V121.731H876.549V125.709L880.041 121.731H882.417L878.457 126.141L882.561 130.731Z"
            fill="white" />
        <path
            d="M857.72 172.461H853.528L848.6 164.365L843.672 172.461H839.48L846.52 160.941L839.896 150.061H844.056L848.6 157.517L853.144 150.061H857.336L850.712 160.941L857.72 172.461ZM866.599 172.877C864.253 172.877 862.258 172.067 860.615 170.445C858.973 168.824 858.151 166.829 858.151 164.461C858.151 162.093 858.973 160.099 860.615 158.477C862.258 156.856 864.253 156.045 866.599 156.045C868.967 156.045 870.962 156.856 872.583 158.477C874.226 160.099 875.047 162.093 875.047 164.461C875.047 166.829 874.226 168.824 872.583 170.445C870.962 172.067 868.967 172.877 866.599 172.877ZM863.047 168.077C864.007 169.037 865.191 169.517 866.599 169.517C868.007 169.517 869.191 169.037 870.151 168.077C871.111 167.117 871.591 165.912 871.591 164.461C871.591 163.011 871.111 161.805 870.151 160.845C869.191 159.885 868.007 159.405 866.599 159.405C865.191 159.405 864.007 159.885 863.047 160.845C862.087 161.805 861.607 163.011 861.607 164.461C861.607 165.912 862.087 167.117 863.047 168.077ZM891.627 169.197H893.771V176.749H890.379V172.461H879.403V176.749H876.011V169.197H877.963C878.945 167.811 879.435 165.88 879.435 163.405V156.461H891.627V169.197ZM881.771 169.197H888.235V159.629H882.827V163.405C882.827 165.688 882.475 167.619 881.771 169.197ZM903.555 161.901C905.261 161.901 906.659 162.392 907.747 163.373C908.835 164.333 909.379 165.603 909.379 167.181C909.379 168.739 908.835 170.008 907.747 170.989C906.659 171.971 905.261 172.461 903.555 172.461H896.579V156.461H900.035V161.901H903.555ZM911.299 156.461H914.755V172.461H911.299V156.461ZM903.587 169.357C904.269 169.357 904.835 169.155 905.283 168.749C905.752 168.344 905.987 167.821 905.987 167.181C905.987 166.52 905.752 165.997 905.283 165.613C904.835 165.208 904.269 165.005 903.587 165.005H900.035V169.357H903.587ZM929.55 156.461H933.006V172.461H929.55V166.093H922.222V172.461H918.766V156.461H922.222V162.829H929.55V156.461ZM944.568 172.877C942.157 172.877 940.141 172.067 938.52 170.445C936.92 168.824 936.12 166.829 936.12 164.461C936.12 162.072 936.92 160.077 938.52 158.477C940.141 156.856 942.157 156.045 944.568 156.045C946.125 156.045 947.544 156.419 948.824 157.165C950.104 157.912 951.064 158.915 951.704 160.173L948.728 161.901C948.365 161.133 947.811 160.536 947.064 160.109C946.339 159.661 945.496 159.437 944.536 159.437C943.128 159.437 941.944 159.917 940.984 160.877C940.045 161.837 939.576 163.032 939.576 164.461C939.576 165.891 940.045 167.085 940.984 168.045C941.944 169.005 943.128 169.485 944.536 169.485C945.475 169.485 946.317 169.261 947.064 168.813C947.832 168.365 948.408 167.768 948.792 167.021L951.768 168.717C951.085 169.997 950.104 171.011 948.824 171.757C947.544 172.504 946.125 172.877 944.568 172.877ZM968.504 172.461H964.376L957.816 165.069V172.461H954.36V156.461H957.816V163.533L964.024 156.461H968.248L961.208 164.301L968.504 172.461ZM977.099 172.877C974.753 172.877 972.758 172.067 971.115 170.445C969.473 168.824 968.651 166.829 968.651 164.461C968.651 162.093 969.473 160.099 971.115 158.477C972.758 156.856 974.753 156.045 977.099 156.045C979.467 156.045 981.462 156.856 983.083 158.477C984.726 160.099 985.547 162.093 985.547 164.461C985.547 166.829 984.726 168.824 983.083 170.445C981.462 172.067 979.467 172.877 977.099 172.877ZM973.547 168.077C974.507 169.037 975.691 169.517 977.099 169.517C978.507 169.517 979.691 169.037 980.651 168.077C981.611 167.117 982.091 165.912 982.091 164.461C982.091 163.011 981.611 161.805 980.651 160.845C979.691 159.885 978.507 159.405 977.099 159.405C975.691 159.405 974.507 159.885 973.547 160.845C972.587 161.805 972.107 163.011 972.107 164.461C972.107 165.912 972.587 167.117 973.547 168.077ZM991.392 165.933C991.648 167.149 992.235 168.088 993.152 168.749C994.07 169.389 995.19 169.709 996.512 169.709C998.347 169.709 999.723 169.048 1000.64 167.725L1003.49 169.389C1001.91 171.715 999.574 172.877 996.48 172.877C993.878 172.877 991.776 172.088 990.176 170.509C988.576 168.909 987.776 166.893 987.776 164.461C987.776 162.072 988.566 160.077 990.144 158.477C991.723 156.856 993.75 156.045 996.224 156.045C998.571 156.045 1000.49 156.867 1001.98 158.509C1003.5 160.152 1004.26 162.147 1004.26 164.493C1004.26 164.856 1004.21 165.336 1004.13 165.933H991.392ZM991.36 163.117H1000.77C1000.53 161.816 999.99 160.835 999.136 160.173C998.304 159.512 997.323 159.181 996.192 159.181C994.912 159.181 993.846 159.533 992.992 160.237C992.139 160.941 991.595 161.901 991.36 163.117ZM1029.54 156.461V172.461H1026.08V159.725H1018.75V172.461H1015.3V156.461H1029.54ZM1041.1 172.877C1038.75 172.877 1036.76 172.067 1035.12 170.445C1033.47 168.824 1032.65 166.829 1032.65 164.461C1032.65 162.093 1033.47 160.099 1035.12 158.477C1036.76 156.856 1038.75 156.045 1041.1 156.045C1043.47 156.045 1045.46 156.856 1047.08 158.477C1048.73 160.099 1049.55 162.093 1049.55 164.461C1049.55 166.829 1048.73 168.824 1047.08 170.445C1045.46 172.067 1043.47 172.877 1041.1 172.877ZM1037.55 168.077C1038.51 169.037 1039.69 169.517 1041.1 169.517C1042.51 169.517 1043.69 169.037 1044.65 168.077C1045.61 167.117 1046.09 165.912 1046.09 164.461C1046.09 163.011 1045.61 161.805 1044.65 160.845C1043.69 159.885 1042.51 159.405 1041.1 159.405C1039.69 159.405 1038.51 159.885 1037.55 160.845C1036.59 161.805 1036.11 163.011 1036.11 164.461C1036.11 165.912 1036.59 167.117 1037.55 168.077ZM1065.71 156.461V172.461H1062.25V159.789H1056.91V165.741C1056.91 168.28 1056.35 170.083 1055.24 171.149C1054.13 172.216 1052.56 172.653 1050.51 172.461V169.229C1051.49 169.4 1052.22 169.197 1052.72 168.621C1053.21 168.045 1053.45 167.032 1053.45 165.581V156.461H1065.71ZM1072.45 165.933C1072.71 167.149 1073.3 168.088 1074.21 168.749C1075.13 169.389 1076.25 169.709 1077.57 169.709C1079.41 169.709 1080.79 169.048 1081.7 167.725L1084.55 169.389C1082.97 171.715 1080.64 172.877 1077.54 172.877C1074.94 172.877 1072.84 172.088 1071.24 170.509C1069.64 168.909 1068.84 166.893 1068.84 164.461C1068.84 162.072 1069.63 160.077 1071.21 158.477C1072.79 156.856 1074.81 156.045 1077.29 156.045C1079.63 156.045 1081.55 156.867 1083.05 158.509C1084.56 160.152 1085.32 162.147 1085.32 164.493C1085.32 164.856 1085.28 165.336 1085.19 165.933H1072.45ZM1072.42 163.117H1081.83C1081.6 161.816 1081.05 160.835 1080.2 160.173C1079.37 159.512 1078.39 159.181 1077.25 159.181C1075.97 159.181 1074.91 159.533 1074.05 160.237C1073.2 160.941 1072.66 161.901 1072.42 163.117Z"
            fill="white" />
        <path d="M716.129 131.624L426.498 107.219L427.368 24.0733L716.999 46.3811L716.129 131.624Z" fill="#4639A3" />
        <path
            d="M459.988 79.9911L460.278 76.2222L471.296 66.5797C473.972 64.2858 475.379 62.2316 475.519 60.4169C475.628 58.9931 475.28 57.8571 474.475 57.009C473.699 56.135 472.656 55.6477 471.343 55.5469C468.887 55.3582 466.979 56.4332 465.62 58.772L461.741 56.073C462.812 54.1896 464.224 52.8096 465.976 51.9332C467.729 51.0569 469.624 50.6969 471.662 50.8535C474.23 51.0507 476.374 52.0298 478.092 53.7905C479.81 55.5513 480.562 57.8275 480.347 60.6193C480.118 63.6065 478.212 66.6616 474.631 69.7844L467.506 75.8928L479.65 76.8255L479.293 81.4738L459.988 79.9911ZM504.568 73.6003L504.223 78.0811L500.873 77.8238L500.468 83.1002L495.61 82.7271L496.016 77.4507L481.61 76.3442L481.954 71.8634L493.549 53.0822L498.783 53.4842L487.189 72.2655L496.36 72.9699L496.945 65.3483L501.803 65.7214L501.218 73.343L504.568 73.6003ZM508.275 73.0847L508.61 68.7295L524.104 69.9196L523.77 74.2748L508.275 73.0847ZM527.179 85.1518L527.468 81.3829L538.487 71.7404C541.163 69.4466 542.57 67.3923 542.709 65.5777C542.819 64.1539 542.471 63.0179 541.665 62.1697C540.89 61.2958 539.846 60.8084 538.534 60.7076C536.077 60.5189 534.169 61.594 532.81 63.9328L528.932 61.2338C530.003 59.3503 531.415 57.9704 533.167 57.094C534.919 56.2176 536.815 55.8577 538.853 56.0142C541.421 56.2115 543.564 57.1905 545.283 58.9513C547.001 60.712 547.753 62.9883 547.538 65.7801C547.309 68.7673 545.403 71.8223 541.821 74.9452L534.697 81.0535L546.841 81.9863L546.484 86.6346L527.179 85.1518ZM560.555 69.3494C563.347 69.5639 565.642 70.5826 567.44 72.4056C569.239 74.2007 570.027 76.564 569.802 79.4953C569.576 82.4267 568.408 84.6538 566.298 86.1766C564.187 87.6994 561.694 88.3504 558.818 88.1295C556.501 87.9516 554.49 87.2635 552.784 86.0654C551.081 84.8394 549.931 83.1784 549.334 81.0825L553.663 79.014C554.241 81.7262 556.079 83.2013 559.178 83.4394C560.825 83.5659 562.17 83.2479 563.211 82.4854C564.283 81.6971 564.874 80.5772 564.986 79.1254C565.097 77.6737 564.697 76.4916 563.784 75.579C562.871 74.6664 561.605 74.1479 559.986 74.0235L551.443 73.3674L553.783 57.7086L570.115 58.963L569.767 63.4857L557.874 62.5722L556.87 69.0664L560.555 69.3494ZM600.331 69.7086L603.807 69.9756L602.199 90.9139L597.76 90.573L598.783 77.2562L587.04 89.7496L583.564 89.4826L585.172 68.5443L589.611 68.8852L588.591 82.1601L600.331 69.7086ZM627.774 71.2688C630.845 71.5047 633.373 72.766 635.36 75.0529C637.347 77.3397 638.221 80.0326 637.983 83.1315C637.745 86.2304 636.47 88.7581 634.157 90.7148C631.845 92.6714 629.153 93.5318 626.082 93.2959C623.374 93.0879 621.092 92.0842 619.236 90.2848C617.411 88.4597 616.36 86.2307 616.085 83.5979L612.609 83.3309L611.969 91.6643L607.447 91.317L609.055 70.3786L613.577 70.726L612.937 79.0595L616.413 79.3264C617.087 76.7665 618.465 74.7381 620.545 73.241C622.656 71.7182 625.066 71.0608 627.774 71.2688ZM621.916 86.6574C623.076 88.0102 624.577 88.7573 626.419 88.8989C628.262 89.0404 629.86 88.5312 631.213 87.3714C632.565 86.2116 633.315 84.6825 633.46 82.7841C633.606 80.8857 633.099 79.2601 631.939 77.9073C630.78 76.5545 629.278 75.8074 627.436 75.6658C625.593 75.5243 623.996 76.0334 622.643 77.1933C621.29 78.3531 620.541 79.8822 620.395 81.7806C620.249 83.679 620.756 85.3046 621.916 86.6574ZM656.988 74.0602L661.51 74.4076L659.902 95.3459L655.379 94.9986L656.019 86.6651L646.43 85.9285L645.79 94.262L641.267 93.9146L642.875 72.9763L647.398 73.3237L646.758 81.6571L656.347 82.3937L656.988 74.0602ZM682.964 76.0554L681.356 96.9938L676.917 96.6528L677.457 89.6175L674.945 89.4246L669.086 96.0514L663.768 95.6429L669.994 88.623C668.578 88.0369 667.47 87.1093 666.669 85.8403C665.896 84.5733 665.566 83.2 665.68 81.7204C665.828 79.7941 666.637 78.2134 668.108 76.9784C669.609 75.7177 671.448 75.1709 673.626 75.3382L682.964 76.0554ZM673.108 85.366L677.757 85.723L678.21 79.8184L673.562 79.4614C672.64 79.3906 671.852 79.5969 671.197 80.0801C670.542 80.5634 670.18 81.2657 670.109 82.187C670.04 83.0803 670.293 83.8158 670.866 84.3934C671.44 84.971 672.187 85.2952 673.108 85.366Z"
            fill="white" />
        <path
            d="M714.413 38.6992L715.875 41.784C717.182 44.543 720.103 46.1618 723.135 45.8084L726.526 45.4133L723.441 46.875C720.682 48.1823 719.063 51.1028 719.417 54.1353L719.812 57.5259L718.35 54.4412C717.043 51.6822 714.122 50.0633 711.09 50.4167L707.699 50.8118L710.784 49.3501C713.543 48.0428 715.162 45.1224 714.808 42.0898L714.413 38.6992Z"
            fill="white" />
        <path
            d="M1161.04 21.6358L1160.16 30.5295C1159.37 38.4841 1163.74 46.055 1171.02 49.3512L1179.17 53.0366L1170.27 52.1572C1162.32 51.3708 1154.75 55.7419 1151.45 63.024L1147.76 71.1658L1148.64 62.2721C1149.43 54.3175 1145.06 46.7466 1137.78 43.4504L1129.64 39.765L1138.53 40.6444C1146.48 41.4308 1154.05 37.0597 1157.35 29.7776L1161.04 21.6358Z"
            fill="white" />
        <path
            d="M857.301 365.6H861.013L854.069 382.24C852.362 386.315 849.6 388.235 845.781 388V384.576C847.04 384.704 848.053 384.512 848.821 384C849.61 383.488 850.24 382.635 850.709 381.44L843.253 365.6H846.965L852.405 377.408L857.301 365.6ZM870.586 379.808C872.293 380.576 873.146 381.845 873.146 383.616C873.146 384.981 872.591 386.123 871.482 387.04C870.373 387.957 868.826 388.416 866.842 388.416C863.621 388.416 861.445 387.136 860.314 384.576L863.13 382.912C863.706 384.512 864.954 385.312 866.874 385.312C867.77 385.312 868.474 385.131 868.986 384.768C869.498 384.384 869.754 383.883 869.754 383.264C869.754 382.709 869.551 382.272 869.146 381.952C868.741 381.611 868.175 381.44 867.45 381.44H865.178V378.4H866.874C867.578 378.4 868.122 378.24 868.506 377.92C868.911 377.579 869.114 377.12 869.114 376.544C869.114 375.989 868.89 375.541 868.442 375.2C867.994 374.837 867.397 374.656 866.65 374.656C865.05 374.656 863.941 375.36 863.322 376.768L860.506 375.168C861.701 372.779 863.727 371.584 866.586 371.584C868.378 371.584 869.797 372.043 870.842 372.96C871.909 373.856 872.442 374.955 872.442 376.256C872.442 377.856 871.823 379.04 870.586 379.808ZM886.753 372H890.209V388H886.753V381.632H879.425V388H875.969V372H879.425V378.368H886.753V372ZM906.891 372H910.347V388H906.891V385.696C905.59 387.509 903.723 388.416 901.291 388.416C899.094 388.416 897.216 387.605 895.659 385.984C894.102 384.341 893.323 382.347 893.323 380C893.323 377.632 894.102 375.637 895.659 374.016C897.216 372.395 899.094 371.584 901.291 371.584C903.723 371.584 905.59 372.48 906.891 374.272V372ZM898.219 383.68C899.179 384.64 900.384 385.12 901.835 385.12C903.286 385.12 904.491 384.64 905.451 383.68C906.411 382.699 906.891 381.472 906.891 380C906.891 378.528 906.411 377.312 905.451 376.352C904.491 375.371 903.286 374.88 901.835 374.88C900.384 374.88 899.179 375.371 898.219 376.352C897.259 377.312 896.779 378.528 896.779 380C896.779 381.472 897.259 382.699 898.219 383.68ZM926.599 372V375.328H921.383V388H917.927V375.328H912.679V372H926.599ZM935.914 377.44C937.621 377.44 939.018 377.931 940.106 378.912C941.194 379.872 941.738 381.141 941.738 382.72C941.738 384.277 941.194 385.547 940.106 386.528C939.018 387.509 937.621 388 935.914 388H928.938V372H932.394V377.44H935.914ZM935.946 384.896C936.629 384.896 937.194 384.693 937.642 384.288C938.111 383.883 938.346 383.36 938.346 382.72C938.346 382.059 938.111 381.536 937.642 381.152C937.194 380.747 936.629 380.544 935.946 380.544H932.394V384.896H935.946ZM959.987 388.416C957.534 388.416 955.528 387.627 953.971 386.048C952.435 384.448 951.667 382.411 951.667 379.936C951.667 377.227 952.072 375.136 952.883 373.664C953.694 372.171 955.336 370.816 957.811 369.6C958.216 369.408 958.814 369.131 959.603 368.768C960.414 368.405 960.968 368.149 961.267 368C961.566 367.829 961.939 367.595 962.387 367.296C962.835 366.976 963.166 366.645 963.379 366.304C963.592 365.941 963.763 365.515 963.891 365.024L966.707 366.656C966.622 367.125 966.483 367.563 966.291 367.968C966.099 368.352 965.822 368.715 965.459 369.056C965.096 369.397 964.776 369.675 964.499 369.888C964.243 370.101 963.806 370.357 963.187 370.656C962.568 370.955 962.11 371.168 961.811 371.296C961.534 371.424 961 371.648 960.211 371.968C958.803 372.523 957.768 373.099 957.107 373.696C956.467 374.272 956.019 374.997 955.763 375.872C957.043 374.421 958.782 373.696 960.979 373.696C962.856 373.696 964.488 374.368 965.875 375.712C967.283 377.056 967.987 378.795 967.987 380.928C967.987 383.104 967.24 384.896 965.747 386.304C964.275 387.712 962.355 388.416 959.987 388.416ZM959.955 385.184C961.299 385.184 962.398 384.789 963.251 384C964.104 383.189 964.531 382.165 964.531 380.928C964.531 379.669 964.104 378.635 963.251 377.824C962.419 377.013 961.331 376.608 959.987 376.608C958.792 376.608 957.715 376.992 956.755 377.76C955.795 378.507 955.315 379.509 955.315 380.768C955.315 382.048 955.763 383.104 956.659 383.936C957.555 384.768 958.654 385.184 959.955 385.184ZM978.271 388.416C975.924 388.416 973.93 387.605 972.287 385.984C970.644 384.363 969.823 382.368 969.823 380C969.823 377.632 970.644 375.637 972.287 374.016C973.93 372.395 975.924 371.584 978.271 371.584C980.639 371.584 982.634 372.395 984.255 374.016C985.898 375.637 986.719 377.632 986.719 380C986.719 382.368 985.898 384.363 984.255 385.984C982.634 387.605 980.639 388.416 978.271 388.416ZM974.719 383.616C975.679 384.576 976.863 385.056 978.271 385.056C979.679 385.056 980.863 384.576 981.823 383.616C982.783 382.656 983.263 381.451 983.263 380C983.263 378.549 982.783 377.344 981.823 376.384C980.863 375.424 979.679 374.944 978.271 374.944C976.863 374.944 975.679 375.424 974.719 376.384C973.759 377.344 973.279 378.549 973.279 380C973.279 381.451 973.759 382.656 974.719 383.616ZM1002.88 372V388H999.423V375.328H994.079V381.28C994.079 383.819 993.525 385.621 992.415 386.688C991.306 387.755 989.727 388.192 987.679 388V384.768C988.661 384.939 989.397 384.736 989.887 384.16C990.378 383.584 990.623 382.571 990.623 381.12V372H1002.88ZM1013.88 377.44C1015.59 377.44 1016.99 377.931 1018.07 378.912C1019.16 379.872 1019.71 381.141 1019.71 382.72C1019.71 384.277 1019.16 385.547 1018.07 386.528C1016.99 387.509 1015.59 388 1013.88 388H1006.91V372H1010.36V377.44H1013.88ZM1013.91 384.896C1014.6 384.896 1015.16 384.693 1015.61 384.288C1016.08 383.883 1016.31 383.36 1016.31 382.72C1016.31 382.059 1016.08 381.536 1015.61 381.152C1015.16 380.747 1014.6 380.544 1013.91 380.544H1010.36V384.896H1013.91ZM1041.48 372H1044.93V388H1022.53V372H1025.99V384.736H1032V372H1035.46V384.736H1041.48V372ZM1051.66 381.472C1051.91 382.688 1052.5 383.627 1053.42 384.288C1054.34 384.928 1055.46 385.248 1056.78 385.248C1058.61 385.248 1059.99 384.587 1060.91 383.264L1063.75 384.928C1062.18 387.253 1059.84 388.416 1056.75 388.416C1054.14 388.416 1052.04 387.627 1050.44 386.048C1048.84 384.448 1048.04 382.432 1048.04 380C1048.04 377.611 1048.83 375.616 1050.41 374.016C1051.99 372.395 1054.02 371.584 1056.49 371.584C1058.84 371.584 1060.76 372.405 1062.25 374.048C1063.76 375.691 1064.52 377.685 1064.52 380.032C1064.52 380.395 1064.48 380.875 1064.39 381.472H1051.66ZM1051.63 378.656H1061.03C1060.8 377.355 1060.26 376.373 1059.4 375.712C1058.57 375.051 1057.59 374.72 1056.46 374.72C1055.18 374.72 1054.11 375.072 1053.26 375.776C1052.4 376.48 1051.86 377.44 1051.63 378.656Z"
            fill="white" />
        <path fill-rule="evenodd" clip-rule="evenodd"
            d="M1084.79 369.921C1084.79 369.136 1085.43 368.5 1086.21 368.5H1097.58C1098.36 368.5 1099 369.136 1099 369.921V381.289C1099 382.074 1098.36 382.711 1097.58 382.711C1096.79 382.711 1096.16 382.074 1096.16 381.289V373.352L1083.43 386.084C1082.87 386.639 1081.97 386.639 1081.42 386.084C1080.86 385.529 1080.86 384.629 1081.42 384.074L1094.15 371.342H1086.21C1085.43 371.342 1084.79 370.706 1084.79 369.921Z"
            fill="white" />
    </g>
    <defs>
        <clipPath id="clip0_2432_377873">
            <rect width="1200" height="450" rx="40" fill="white" />
        </clipPath>
    </defs>
</svg>