<svg width="285" height="262" viewBox="0 0 285 262" fill="none" xmlns="http://www.w3.org/2000/svg">
<path d="M-26.3932 352C-30.4128 329.363 -28.9513 306.095 -22.1303 284.137C-15.3093 262.179 -3.3268 242.168 12.8175 225.773C28.9619 209.378 48.7999 197.075 70.6764 189.889C92.5529 182.704 115.834 180.846 138.576 184.469L125.549 265.95C115.823 264.401 105.866 265.196 96.5105 268.268C87.1545 271.341 78.6704 276.603 71.766 283.615C64.8615 290.626 59.7369 299.185 56.8198 308.575C53.9027 317.966 53.2776 327.917 54.9967 337.598L-26.3932 352Z" fill="#4671E6"/>
<path d="M-2.54964 201.258C-6.56932 178.622 -5.10771 155.354 1.71325 133.396C8.5342 111.438 20.5167 91.4262 36.6611 75.0311C52.8054 58.6361 72.6434 46.3327 94.5199 39.1476C116.396 31.9625 139.677 30.104 162.42 33.7271L149.393 115.208C139.666 113.659 129.71 114.454 120.354 117.527C110.998 120.599 102.514 125.861 95.6095 132.873C88.705 139.885 83.5805 148.443 80.6633 157.834C77.7462 167.224 77.1211 177.175 78.8402 186.856L-2.54964 201.258Z" fill="#4671E6"/>
<path d="M281.753 151.365C285.773 174.002 284.311 197.27 277.49 219.228C270.669 241.186 258.687 261.197 242.543 277.592C226.398 293.987 206.56 306.29 184.684 313.476C162.807 320.661 139.527 322.519 116.784 318.896L129.811 237.415C139.537 238.964 149.494 238.169 158.85 235.097C168.206 232.024 176.69 226.762 183.594 219.75C190.499 212.739 195.623 204.18 198.54 194.79C201.457 185.399 202.083 175.448 200.363 165.767L281.753 151.365Z" fill="#4671E6"/>
<path d="M305.783 0.429504C309.803 23.0661 308.341 46.3341 301.52 68.2921C294.699 90.2502 282.717 110.261 266.572 126.657C250.428 143.052 230.59 155.355 208.714 162.54C186.837 169.725 163.556 171.584 140.814 167.961L153.841 86.4792C163.567 88.0287 173.524 87.2339 182.879 84.161C192.235 81.0882 200.72 75.8264 207.624 68.8147C214.528 61.8031 219.653 53.2448 222.57 43.854C225.487 34.4632 226.112 24.5122 224.393 14.8312L305.783 0.429504Z" fill="#4671E6"/>
</svg>