<svg width="13" height="19" viewBox="0 0 13 19" fill="none" xmlns="http://www.w3.org/2000/svg">
<path d="M2.84751 6.26L5.51834 4.32C5.81816 4.10059 6.18284 3.98793 6.55418 4C7.0071 4.01129 7.44525 4.16342 7.80772 4.43524C8.17018 4.70705 8.43896 5.08504 8.57668 5.51667C8.73168 6.0025 8.87334 6.33083 9.00168 6.50167C9.38943 7.019 9.89244 7.43884 10.4708 7.72786C11.0491 8.01688 11.6868 8.16712 12.3333 8.16667V9.83333C11.4728 9.83427 10.6227 9.6444 9.84426 9.27739C9.06586 8.91038 8.3785 8.37535 7.83168 7.71083L7.25084 11.0067L8.96834 12.4483L10.8208 17.5383L9.25418 18.1083L7.55418 13.4383L4.72918 11.0675C4.49734 10.8803 4.31994 10.6344 4.21544 10.3553C4.11094 10.0762 4.08316 9.77427 4.13501 9.48083L4.55918 7.07667L3.99501 7.48667L2.22251 9.92667L0.874176 8.94667L2.83334 6.25L2.84751 6.26ZM7.75001 3.58333C7.30798 3.58333 6.88406 3.40774 6.5715 3.09518C6.25894 2.78262 6.08334 2.35869 6.08334 1.91667C6.08334 1.47464 6.25894 1.05072 6.5715 0.738155C6.88406 0.425595 7.30798 0.25 7.75001 0.25C8.19204 0.25 8.61596 0.425595 8.92852 0.738155C9.24108 1.05072 9.41668 1.47464 9.41668 1.91667C9.41668 2.35869 9.24108 2.78262 8.92852 3.09518C8.61596 3.40774 8.19204 3.58333 7.75001 3.58333ZM5.27334 14.5675L2.59501 17.7592L1.31834 16.6883L3.79834 13.7333L4.42001 11.9167L5.91251 13.1667L5.27334 14.5675Z" fill="white"/>
</svg>