<svg width="285" height="217" viewBox="0 0 285 217" fill="none" xmlns="http://www.w3.org/2000/svg">
<path d="M288.924 72.6107C282.966 56.1952 273.168 41.4426 260.349 29.5835C247.53 17.7245 232.061 9.1031 215.232 4.43854C198.403 -0.226018 180.703 -0.798431 163.608 2.76906C146.513 6.33655 130.519 13.9405 116.961 24.9465L156.463 73.61C162.261 68.9031 169.101 65.6511 176.412 64.1254C183.723 62.5997 191.293 62.8445 198.49 64.8394C205.688 66.8343 212.303 70.5214 217.786 75.5931C223.268 80.6649 227.458 86.9742 230.006 93.9946L288.924 72.6107Z" fill="#E35A2F"/>
<path d="M360.429 162.222C354.471 145.807 344.674 131.054 331.854 119.195C319.035 107.336 303.566 98.7148 286.737 94.0503C269.909 89.3857 252.208 88.8133 235.113 92.3808C218.018 95.9483 202.024 103.552 188.466 114.558L227.968 163.222C233.766 158.515 240.606 155.263 247.917 153.737C255.228 152.211 262.798 152.456 269.996 154.451C277.193 156.446 283.808 160.133 289.291 165.205C294.773 170.277 298.963 176.586 301.511 183.606L360.429 162.222Z" fill="#E35A2F"/>
<path d="M-18.6693 202.94C11.2313 254.729 77.4539 272.474 129.243 242.573C181.032 212.673 198.777 146.45 168.876 94.6606C138.976 42.8714 72.753 25.1271 20.9637 55.0276C-30.8255 84.9282 -48.5698 151.151 -18.6693 202.94ZM116.541 124.876C129.754 147.762 121.913 177.025 99.0273 190.238C76.1421 203.45 46.8789 195.609 33.6661 172.724C20.4533 149.839 28.2944 120.576 51.1796 107.363C74.0648 94.1502 103.328 101.991 116.541 124.876Z" fill="#E35A2F"/>
</svg>
