<svg width="285" height="238" viewBox="0 0 285 238" fill="none" xmlns="http://www.w3.org/2000/svg">
<path d="M225.721 17.0463C221.182 38.2866 211.628 58.1332 197.859 74.9304C184.089 91.7276 166.501 104.988 146.564 113.606C126.627 122.224 104.918 125.948 83.2482 124.47C61.5786 122.991 40.5769 116.351 21.9952 105.105L62.3596 38.4129C70.3064 43.2226 79.2882 46.0621 88.5556 46.6945C97.8231 47.327 107.107 45.734 115.634 42.0484C124.161 38.3629 131.682 32.6917 137.571 25.5081C143.46 18.3244 147.546 9.8366 149.487 0.75277L225.721 17.0463Z" fill="#E02EE0"/>
<path d="M151.206 140.583C146.667 161.823 137.113 181.67 123.343 198.467C109.573 215.264 91.986 228.525 72.0487 237.143C52.1115 245.76 30.4025 249.485 8.7329 248.007C-12.9367 246.528 -33.9384 239.888 -52.5201 228.642L-12.1557 161.95C-4.20891 166.759 4.77292 169.599 14.0403 170.231C23.3078 170.864 32.5921 169.271 41.1187 165.585C49.6452 161.9 57.1668 156.229 63.0558 149.045C68.9448 141.861 73.0305 133.373 74.9719 124.29L151.206 140.583Z" fill="#E02EE0"/>
<path d="M164.904 142.735C169.444 121.495 178.997 101.648 192.767 84.8508C206.537 68.0536 224.125 54.793 244.062 46.1753C263.999 37.5576 285.708 33.8328 307.378 35.3115C329.047 36.7903 350.049 43.4297 368.631 54.676L328.266 121.368C320.319 116.559 311.338 113.719 302.07 113.087C292.803 112.454 283.518 114.047 274.992 117.733C266.465 121.418 258.944 127.089 253.055 134.273C247.166 141.457 243.08 149.945 241.139 159.028L164.904 142.735Z" fill="#E02EE0"/>
<path d="M92.0979 265.335C96.6376 244.095 106.191 224.248 119.961 207.451C133.731 190.654 151.318 177.393 171.255 168.775C191.193 160.158 212.902 156.433 234.571 157.911C256.241 159.39 277.243 166.03 295.824 177.276L255.46 243.968C247.513 239.159 238.531 236.319 229.264 235.687C219.996 235.054 210.712 236.647 202.185 240.333C193.659 244.018 186.137 249.689 180.248 256.873C174.359 264.057 170.274 272.545 168.332 281.628L92.0979 265.335Z" fill="#E02EE0"/>
</svg>
