<svg width="285" height="246" viewBox="0 0 285 246" fill="none" xmlns="http://www.w3.org/2000/svg">
<path d="M160.712 17.2759C164.455 38.3935 163.094 60.1002 156.742 80.5848C150.39 101.069 139.231 119.738 124.197 135.033C109.163 150.328 90.6884 161.805 70.3159 168.508C49.9435 175.211 28.2635 176.945 7.08463 173.565L19.2159 97.5515C28.2734 98.9971 37.5453 98.2556 46.258 95.3889C54.9707 92.5222 62.8715 87.6135 69.3013 81.0723C75.731 74.5312 80.5033 66.5472 83.2198 57.7865C85.9364 49.0259 86.5185 39.7426 84.9176 30.7112L160.712 17.2759Z" fill="#7646E6"/>
<path d="M129.872 295.556C126.129 274.438 127.49 252.732 133.842 232.247C140.194 211.763 151.352 193.094 166.387 177.799C181.421 162.504 199.895 151.026 220.268 144.323C240.64 137.62 262.32 135.887 283.499 139.267L266.585 245.247C262.306 244.564 257.926 244.915 253.81 246.269C249.694 247.623 245.961 249.942 242.924 253.032C239.886 256.123 237.632 259.894 236.348 264.033C235.065 268.172 234.79 272.557 235.546 276.824L129.872 295.556Z" fill="#7646E6"/>
<path d="M2.61612 190.343C30.3566 194.492 56.1057 207.211 76.2601 226.719C96.4144 246.226 109.965 271.547 115.017 299.138L39.2993 313C37.1391 301.2 31.3437 290.371 22.7243 282.028C14.1049 273.685 3.09277 268.246 -8.77103 266.472L2.61612 190.343Z" fill="#7646E6"/>
<path d="M285.613 122.826C257.872 118.676 232.123 105.958 211.969 86.45C191.815 66.9422 178.264 41.6212 173.212 14.0307L248.93 0.168579C251.09 11.9682 256.885 22.7972 265.505 31.1402C274.124 39.4831 285.136 44.9224 297 46.697L285.613 122.826Z" fill="#7646E6"/>
</svg>