<svg width="285" height="243" viewBox="0 0 285 243" fill="none" xmlns="http://www.w3.org/2000/svg">
<path d="M84.0735 17.6421C123.497 -1.66084 168.973 -4.51235 210.499 9.71488C252.025 23.9421 286.198 54.0826 305.501 93.5059C324.804 132.929 327.656 178.406 313.428 219.932C299.201 261.457 269.061 295.631 229.637 314.934L188.066 230.031C204.972 221.754 217.897 207.099 223.998 189.292C230.099 171.484 228.877 151.983 220.599 135.077C212.321 118.171 197.667 105.246 179.859 99.1449C162.052 93.0438 142.55 94.2666 125.644 102.544L84.0735 17.6421Z" fill="#E34557"/>
<path d="M152.583 156.024C129.125 167.509 103.282 173.28 77.1661 172.864C51.0506 172.449 25.4042 165.858 2.32386 153.631C-20.7565 141.405 -40.6155 123.889 -55.6294 102.517C-70.6433 81.1446 -80.386 56.5224 -84.0607 30.6634L9.53219 17.3633C11.108 28.4524 15.2859 39.0111 21.7243 48.1762C28.1628 57.3412 36.6789 64.8524 46.5764 70.0955C56.4739 75.3387 67.4718 78.1649 78.6709 78.3432C89.87 78.5215 100.952 76.0468 111.012 71.1214L152.583 156.024Z" fill="#E34557"/>
<path d="M160.5 172.194C137.042 183.68 116.636 200.554 100.949 221.438C85.2626 242.321 74.7411 266.621 70.2451 292.35C65.7491 318.079 67.4062 344.507 75.0809 369.472C82.7556 394.438 96.2301 417.233 114.403 435.994L182.303 370.221C174.51 362.176 168.732 352.401 165.441 341.695C162.15 330.989 161.439 319.656 163.367 308.623C165.295 297.589 169.807 287.169 176.534 278.213C183.261 269.258 192.012 262.022 202.071 257.096L160.5 172.194Z" fill="#E34557"/>
</svg>