<svg width="16" height="16" viewBox="0 0 16 16" fill="none" xmlns="http://www.w3.org/2000/svg">
<path d="M0.5 8.1665H15.5V14.9165C15.5 15.1154 15.421 15.3062 15.2803 15.4468C15.1397 15.5875 14.9489 15.6665 14.75 15.6665H1.25C1.05109 15.6665 0.860322 15.5875 0.71967 15.4468C0.579018 15.3062 0.5 15.1154 0.5 14.9165V8.1665ZM11.75 2.1665H14.75C14.9489 2.1665 15.1397 2.24552 15.2803 2.38617C15.421 2.52683 15.5 2.71759 15.5 2.9165V6.6665H0.5V2.9165C0.5 2.71759 0.579018 2.52683 0.71967 2.38617C0.860322 2.24552 1.05109 2.1665 1.25 2.1665H4.25V0.666504H5.75V2.1665H10.25V0.666504H11.75V2.1665Z" fill="white"/>
</svg>
