<svg width="21" height="21" viewBox="0 0 21 21" fill="none" xmlns="http://www.w3.org/2000/svg">
<path d="M11.1883 20.1509C5.67286 20.4399 0.967684 16.2034 0.678633 10.688C0.389582 5.17252 4.62614 0.467352 10.1416 0.178301C15.657 -0.110751 20.3622 4.12581 20.6512 9.64124C20.9403 15.1567 16.7037 19.8618 11.1883 20.1509ZM11.6636 10.1123L11.4542 6.11774C11.4253 5.56621 10.9548 5.14254 10.4032 5.17145C9.85172 5.20035 9.42805 5.67089 9.45695 6.22241L9.71863 11.2156C9.74754 11.7671 10.2181 12.1908 10.7696 12.1619L14.7641 11.9525C15.3156 11.9236 15.7393 11.4531 15.7104 10.9015C15.6815 10.35 15.211 9.92635 14.6594 9.95525L11.6636 10.1123Z" fill="white"/>
</svg>
