<svg width="32" height="32" viewBox="0 0 32 32" fill="none" xmlns="http://www.w3.org/2000/svg">
<path d="M5.23437 14.9434C12.6195 11.598 22.1765 7.51936 23.4957 6.95485C26.9562 5.4773 28.018 5.76047 27.4886 9.03261C27.1084 11.3845 26.0113 19.1709 25.1369 24.0174C24.6181 26.8914 23.454 27.2321 21.6236 25.9887C20.7433 25.3903 16.3004 22.365 15.3361 21.6547C14.4558 21.0073 13.2418 20.2285 14.7643 18.6947C15.3061 18.1484 18.8577 14.6566 21.6248 11.9387C21.9873 11.5817 21.5319 10.9954 21.1135 11.2816C17.3839 13.8283 12.2129 17.363 11.5548 17.8235C10.5605 18.5187 9.60565 18.8375 7.89157 18.3305C6.59647 17.9475 5.33133 17.4907 4.8389 17.3164C2.94267 16.646 3.39278 15.7778 5.23437 14.9434Z" fill="white"/>
</svg>
