<svg width="1202" height="543" viewBox="0 0 1202 543" fill="none" xmlns="http://www.w3.org/2000/svg">
<path d="M4.32887 69H24.7769V29.688H60.9209V15.432H4.32887V69ZM56.152 54.744V78.36H75.376V69H118.648V78.36H137.872V54.744H129.232V15.432H66.952C66.952 39.048 66.304 48.84 63.208 54.744H56.152ZM82.144 54.744C84.448 50.208 85.384 40.416 85.384 29.688H108.784V54.744H82.144ZM141.654 15.432V69H201.486V55.608H161.814V48.264H200.118V35.232H161.814V28.536H200.91V15.432H141.654ZM228.626 69H249.074V29.688H280.106V69H300.482V15.432H228.626V69ZM351.81 52.224C371.394 52.224 377.226 44.016 377.226 34.296V33.144C377.226 23.28 371.61 15.432 351.81 15.432H307.17V69H327.618V52.224H351.81ZM327.618 28.824H349.362C354.186 28.824 356.13 30.624 356.13 33.72V33.936C356.13 36.888 354.042 38.832 349.362 38.832H327.618V28.824ZM418.716 14.424C384.012 14.424 379.62 30.912 379.62 40.992V43.152C379.62 53.16 384.012 70.008 418.716 70.008H421.956C456.588 70.008 460.98 53.16 460.98 43.152V40.992C460.98 30.912 456.516 14.424 421.956 14.424H418.716ZM439.812 42.504C439.812 48.264 436.14 55.536 420.3 55.536C404.46 55.536 400.788 47.976 400.788 42.36V41.496C400.788 35.808 404.172 28.824 420.3 28.824C436.14 28.824 439.812 35.808 439.812 41.496V42.504ZM514.767 51.792V69H535.215V15.432H488.127C469.623 15.432 463.791 24 463.791 33V34.152C463.791 42.36 469.191 48.912 482.223 50.64L461.847 69H487.047L505.335 51.792H514.767ZM514.767 38.976H491.511C486.831 38.976 484.959 36.744 484.959 33.936V33.792C484.959 31.128 486.759 28.824 491.439 28.824H514.767V38.976ZM541.943 69H592.631C610.127 69 615.239 61.944 615.239 53.52V52.656C615.239 43.224 607.679 40.056 602.927 38.904C606.455 38.112 612.143 35.088 612.143 28.392V27.6C612.143 21.48 607.967 15.432 592.343 15.432H541.943V69ZM586.151 27.6C590.399 27.6 591.623 29.184 591.623 31.272V31.416C591.623 33.432 590.399 35.16 586.151 35.16H562.391V27.6H586.151ZM587.447 47.184C592.703 47.184 593.783 49.272 593.783 51.576V51.792C593.783 53.88 592.775 56.4 587.447 56.4H562.391V47.184H587.447ZM673.002 69H693.45V15.432H673.002L639.378 49.128V15.432H618.93V69H639.378L673.002 35.376V69ZM721.602 69H742.05V30.048H765.162V15.432H698.49V30.048H721.602V69ZM790.269 31.2V15.432H769.821V69H812.805C834.477 69 839.877 60.576 839.877 50.568V49.416C839.877 39.408 834.405 31.2 812.805 31.2H790.269ZM790.269 55.68V44.52H810.213C816.837 44.52 818.709 46.896 818.709 49.92V50.136C818.709 53.016 816.837 55.68 810.213 55.68H790.269ZM43.4249 149.008C75.6809 149.008 80.7209 133.888 80.7209 126.904V125.752H59.5529C59.2649 126.976 57.6809 134.536 41.9129 134.536C27.5129 134.536 23.9129 126.976 23.9129 121.216V120.352C23.9129 114.376 27.0809 107.824 41.8409 107.824C57.3929 107.824 59.0489 114.592 59.4809 116.032H80.7209V115.096C80.7209 108.184 75.9689 93.424 43.4249 93.424H40.6169C7.20887 93.424 2.74487 109.768 2.74487 119.992V122.08C2.74487 132.232 7.71287 149.008 40.6169 149.008H43.4249ZM85.1933 94.432V148H145.025V134.608H105.353V127.264H143.657V114.232H105.353V107.536H144.449V94.432H85.1933ZM150.298 148H194.218C215.89 148 221.29 140.224 221.29 130.648V130C221.29 120.568 215.89 113.44 194.218 113.44H170.746V107.032H216.178V94.432H150.298V148ZM170.746 135.04V125.536H191.986C198.394 125.536 200.122 127.48 200.122 130.072V130.288C200.122 132.808 198.394 135.04 191.986 135.04H170.746ZM274.087 130.792V148H294.535V94.432H247.447C228.943 94.432 223.111 103 223.111 112V113.152C223.111 121.36 228.511 127.912 241.543 129.64L221.167 148H246.367L264.655 130.792H274.087ZM274.087 117.976H250.831C246.151 117.976 244.279 115.744 244.279 112.936V112.792C244.279 110.128 246.079 107.824 250.759 107.824H274.087V117.976ZM336.832 130.072V129.712C336.832 127.408 337.336 126.328 341.152 125.392L348.424 123.664C358.648 121.144 362.032 115.96 362.032 109.48V108.976C362.032 101.776 358 93.712 332.8 93.712H328.984C299.608 93.712 298.888 104.584 298.888 111.208V112.072H318.688C318.904 109.84 319.048 105.88 331.144 105.88C341.296 105.88 341.944 107.392 341.944 109.12C341.944 110.56 340.936 111.856 335.608 113.008L328.48 114.664C318.544 116.968 317.248 120.136 317.248 125.248V130.072H336.832ZM337.336 133.96H317.104V148H337.336V133.96Z" fill="white"/>
<path d="M962.716 111.432V121.656H1056.82V111.432H962.716ZM1095.32 106.32V138H1115.63V84.432H1099.35C1096.83 90.624 1091.94 94.584 1082.36 95.16V106.32H1095.32ZM1199.45 110.064C1199.45 100.2 1194.84 83.424 1161.87 83.424H1158.63C1125.58 83.424 1120.97 100.2 1120.97 110.064V112.224C1120.97 121.944 1125.58 139.008 1158.63 139.008H1161.87C1194.84 139.008 1199.45 121.944 1199.45 112.224V110.064ZM1178.21 111.432C1178.21 116.976 1174.61 124.464 1160.21 124.464C1145.74 124.464 1142.14 116.904 1142.14 111.36V110.496C1142.14 104.952 1145.45 97.824 1160.21 97.824C1174.61 97.824 1178.21 104.952 1178.21 110.496V111.432ZM598.377 217H618.825V177.688H649.857V217H670.233V163.432H598.377V217ZM721.561 200.224C741.145 200.224 746.977 192.016 746.977 182.296V181.144C746.977 171.28 741.361 163.432 721.561 163.432H676.921V217H697.369V200.224H721.561ZM697.369 176.824H719.113C723.937 176.824 725.881 178.624 725.881 181.72V181.936C725.881 184.888 723.793 186.832 719.113 186.832H697.369V176.824ZM788.467 162.424C753.763 162.424 749.371 178.912 749.371 188.992V191.152C749.371 201.16 753.763 218.008 788.467 218.008H791.707C826.339 218.008 830.731 201.16 830.731 191.152V188.992C830.731 178.912 826.267 162.424 791.707 162.424H788.467ZM809.563 190.504C809.563 196.264 805.891 203.536 790.051 203.536C774.211 203.536 770.539 195.976 770.539 190.36V189.496C770.539 183.808 773.923 176.824 790.051 176.824C805.891 176.824 809.563 183.808 809.563 189.496V190.504ZM835.405 163.432V217H895.237V203.608H855.565V196.264H893.869V183.232H855.565V176.536H894.661V163.432H835.405ZM947.094 217H973.734L941.55 187.768L972.726 163.432H947.31L920.958 184.6V163.432H900.51V217H920.958V193.024L947.094 217ZM996.572 217H1017.02V178.048H1040.13V163.432H973.46V178.048H996.572V217ZM1080.4 162.424C1045.7 162.424 1041.31 178.912 1041.31 188.992V191.152C1041.31 201.16 1045.7 218.008 1080.4 218.008H1083.64C1118.28 218.008 1122.67 201.16 1122.67 191.152V188.992C1122.67 178.912 1118.2 162.424 1083.64 162.424H1080.4ZM1101.5 190.504C1101.5 196.264 1097.83 203.536 1081.99 203.536C1066.15 203.536 1062.48 195.976 1062.48 190.36V189.496C1062.48 183.808 1065.86 176.824 1081.99 176.824C1097.83 176.824 1101.5 183.808 1101.5 189.496V190.504ZM1127.34 217H1178.03C1195.53 217 1200.64 209.944 1200.64 201.52V200.656C1200.64 191.224 1193.08 188.056 1188.33 186.904C1191.85 186.112 1197.54 183.088 1197.54 176.392V175.6C1197.54 169.48 1193.37 163.432 1177.74 163.432H1127.34V217ZM1171.55 175.6C1175.8 175.6 1177.02 177.184 1177.02 179.272V179.416C1177.02 181.432 1175.8 183.16 1171.55 183.16H1147.79V175.6H1171.55ZM1172.85 195.184C1178.1 195.184 1179.18 197.272 1179.18 199.576V199.792C1179.18 201.88 1178.17 204.4 1172.85 204.4H1147.79V195.184H1172.85ZM966.747 281.744V305.36H985.971V296H1029.24V305.36H1048.47V281.744H1039.83V242.432H977.547C977.547 266.048 976.899 275.84 973.803 281.744H966.747ZM992.739 281.744C995.043 277.208 995.979 267.416 995.979 256.688H1019.38V281.744H992.739ZM1100.77 296H1121.22V242.432H1060.02C1060.02 270.296 1059.3 276.2 1057.28 278.792C1056.06 280.448 1054.4 280.736 1051.52 280.736H1050.44V296H1057.07C1066.86 296 1071.4 293.696 1074.28 288.872C1077.16 284.264 1078.6 277.496 1078.6 256.184H1100.77V296ZM1177.37 278.792V296H1197.82V242.432H1150.73C1132.23 242.432 1126.39 251 1126.39 260V261.152C1126.39 269.36 1131.79 275.912 1144.83 277.64L1124.45 296H1149.65L1167.94 278.792H1177.37ZM1177.37 265.976H1154.11C1149.43 265.976 1147.56 263.744 1147.56 260.936V260.792C1147.56 258.128 1149.36 255.824 1154.04 255.824H1177.37V265.976ZM621.076 352.968H603.292L612.076 334.536L621.076 352.968ZM631.804 375H654.196L626.188 321.432H598.684L572.188 375H592.924L597.028 366.36H627.628L631.804 375ZM702.406 375H729.046L696.862 345.768L728.038 321.432H702.622L676.27 342.6V321.432H655.822V375H676.27V351.024L702.406 375ZM751.885 375H772.333V336.048H795.445V321.432H728.773V336.048H751.885V375ZM854.175 375H874.623V321.432H854.175L820.551 355.128V321.432H800.103V375H820.551L854.175 341.376V375ZM881.319 375H932.007C949.503 375 954.615 367.944 954.615 359.52V358.656C954.615 349.224 947.055 346.056 942.303 344.904C945.831 344.112 951.519 341.088 951.519 334.392V333.6C951.519 327.48 947.343 321.432 931.719 321.432H881.319V375ZM925.527 333.6C929.775 333.6 930.999 335.184 930.999 337.272V337.416C930.999 339.432 929.775 341.16 925.527 341.16H901.767V333.6H925.527ZM926.823 353.184C932.079 353.184 933.159 355.272 933.159 357.576V357.792C933.159 359.88 932.151 362.4 926.823 362.4H901.767V353.184H926.823ZM958.306 375H978.754V354.624H1012.23V375H1032.61V321.432H1012.23V340.368H978.754V321.432H958.306V375ZM1076.61 320.424C1041.9 320.424 1037.51 336.912 1037.51 346.992V349.152C1037.51 359.16 1041.9 376.008 1076.61 376.008H1079.85C1114.48 376.008 1118.87 359.16 1118.87 349.152V346.992C1118.87 336.912 1114.41 320.424 1079.85 320.424H1076.61ZM1097.7 348.504C1097.7 354.264 1094.03 361.536 1078.19 361.536C1062.35 361.536 1058.68 353.976 1058.68 348.36V347.496C1058.68 341.808 1062.06 334.824 1078.19 334.824C1094.03 334.824 1097.7 341.808 1097.7 347.496V348.504ZM1177.4 375H1197.85V321.432H1177.4L1143.78 355.128V321.432H1123.33V375H1143.78L1177.4 341.376V375ZM1162.5 318.696C1175.31 318.696 1178.55 310.272 1178.55 306.456V306.312H1165.59C1165.59 307.176 1165.02 309.84 1161.13 309.84C1157.17 309.84 1156.52 307.176 1156.52 306.312H1143.35V306.456C1143.35 310.272 1145.58 318.696 1159.62 318.696H1162.5ZM525.819 454H545.763V420.592L564.483 454H574.923L593.715 420.592V454H613.947V400.432H587.019L570.315 430.528L553.899 400.432H525.819V454ZM657.756 399.424C623.052 399.424 618.66 415.912 618.66 425.992V428.152C618.66 438.16 623.052 455.008 657.756 455.008H660.996C695.628 455.008 700.02 438.16 700.02 428.152V425.992C700.02 415.912 695.556 399.424 660.996 399.424H657.756ZM678.852 427.504C678.852 433.264 675.18 440.536 659.34 440.536C643.5 440.536 639.828 432.976 639.828 427.36V426.496C639.828 420.808 643.212 413.824 659.34 413.824C675.18 413.824 678.852 420.808 678.852 426.496V427.504ZM750.616 454H771.064V400.432H709.864C709.864 428.296 709.144 434.2 707.128 436.792C705.904 438.448 704.248 438.736 701.368 438.736H700.288V454H706.912C716.704 454 721.24 451.696 724.12 446.872C727 442.264 728.44 435.496 728.44 414.184H750.616V454ZM815.045 399.424C780.341 399.424 775.949 415.912 775.949 425.992V428.152C775.949 438.16 780.341 455.008 815.045 455.008H818.285C852.917 455.008 857.309 438.16 857.309 428.152V425.992C857.309 415.912 852.845 399.424 818.285 399.424H815.045ZM836.141 427.504C836.141 433.264 832.469 440.536 816.629 440.536C800.789 440.536 797.117 432.976 797.117 427.36V426.496C797.117 420.808 800.501 413.824 816.629 413.824C832.469 413.824 836.141 420.808 836.141 426.496V427.504ZM856.708 439.744V463.36H875.932V454H919.204V463.36H938.428V439.744H929.788V400.432H867.508C867.508 424.048 866.86 433.84 863.764 439.744H856.708ZM882.7 439.744C885.004 435.208 885.94 425.416 885.94 414.688H909.34V439.744H882.7ZM942.21 400.432V454H1002.04V440.608H962.37V433.264H1000.67V420.232H962.37V413.536H1001.47V400.432H942.21ZM1051.88 454H1072.33V431.176L1094.65 454H1121.29L1091.55 424.84L1120.28 400.432H1094.87L1072.33 420.376V400.432H1051.88V420.376L1029.35 400.432H1003.79L1032.66 424.912L1003.07 454H1029.56L1051.88 431.176V454ZM1177.4 454H1197.85V400.432H1177.4L1143.78 434.128V400.432H1123.33V454H1143.78L1177.4 420.376V454ZM692.038 533H711.982V499.592L730.702 533H741.142L759.934 499.592V533H780.166V479.432H753.238L736.534 509.528L720.118 479.432H692.038V533ZM823.975 478.424C789.271 478.424 784.879 494.912 784.879 504.992V507.152C784.879 517.16 789.271 534.008 823.975 534.008H827.215C861.847 534.008 866.239 517.16 866.239 507.152V504.992C866.239 494.912 861.775 478.424 827.215 478.424H823.975ZM845.071 506.504C845.071 512.264 841.399 519.536 825.559 519.536C809.719 519.536 806.047 511.976 806.047 506.36V505.496C806.047 499.808 809.431 492.824 825.559 492.824C841.399 492.824 845.071 499.808 845.071 505.496V506.504ZM909.793 534.008C942.049 534.008 947.089 518.888 947.089 511.904V510.752H925.921C925.633 511.976 924.049 519.536 908.281 519.536C893.881 519.536 890.281 511.976 890.281 506.216V505.352C890.281 499.376 893.449 492.824 908.209 492.824C923.761 492.824 925.417 499.592 925.849 501.032H947.089V500.096C947.089 493.184 942.337 478.424 909.793 478.424H906.985C873.577 478.424 869.113 494.768 869.113 504.992V507.08C869.113 517.232 874.081 534.008 906.985 534.008H909.793ZM997.929 533H1024.57L992.385 503.768L1023.56 479.432H998.145L971.793 500.6V479.432H951.345V533H971.793V509.024L997.929 533ZM1026.44 533H1077.13C1094.63 533 1099.74 525.944 1099.74 517.52V516.656C1099.74 507.224 1092.18 504.056 1087.43 502.904C1090.96 502.112 1096.64 499.088 1096.64 492.392V491.6C1096.64 485.48 1092.47 479.432 1076.84 479.432H1026.44V533ZM1070.65 491.6C1074.9 491.6 1076.12 493.184 1076.12 495.272V495.416C1076.12 497.432 1074.9 499.16 1070.65 499.16H1046.89V491.6H1070.65ZM1071.95 511.184C1077.2 511.184 1078.28 513.272 1078.28 515.576V515.792C1078.28 517.88 1077.28 520.4 1071.95 520.4H1046.89V511.184H1071.95ZM1123.88 495.2V479.432H1103.43V533H1146.42C1168.09 533 1173.49 524.576 1173.49 514.568V513.416C1173.49 503.408 1168.02 495.2 1146.42 495.2H1123.88ZM1123.88 519.68V508.52H1143.82C1150.45 508.52 1152.32 510.896 1152.32 513.92V514.136C1152.32 517.016 1150.45 519.68 1143.82 519.68H1123.88ZM1197.97 479.432H1177.59V533H1197.97V479.432Z" fill="white"/>
<rect x="0.90918" y="292.518" width="359.829" height="131" rx="32" transform="rotate(-3 0.90918 292.518)" fill="white" fill-opacity="0.08"/>
<path d="M35.0447 324.772L45.6259 324.217L45.7307 326.216L41.5372 326.436L42.1653 338.422L39.9711 338.537L39.3429 326.551L35.1495 326.771L35.0447 324.772ZM48.7813 336.373L50.878 336.263C51.3331 336.24 51.7054 336.067 51.995 335.745C52.2845 335.424 52.4174 335.035 52.3935 334.58C52.3697 334.125 52.197 333.753 51.8754 333.463C51.5538 333.174 51.1655 333.041 50.7104 333.065L48.6136 333.175L48.7813 336.373ZM53.2743 332.168C53.9699 332.75 54.3428 333.523 54.3933 334.485C54.4434 335.441 54.153 336.245 53.5222 336.897C52.8979 337.549 52.0462 337.904 50.9669 337.96L46.871 338.175L46.3686 328.588L48.3678 328.484L48.5247 331.478L50.6214 331.368C51.7007 331.311 52.585 331.578 53.2743 332.168ZM57.4569 328.007L57.9593 337.594L55.9601 337.699L55.4577 328.112L57.4569 328.007ZM69.1652 331.599L72.4465 327.222L74.0458 327.138L74.5482 336.724L72.549 336.829L72.2194 330.539L69.3119 334.398L66.0267 330.864L66.3564 337.154L64.3571 337.259L63.8547 327.672L65.4541 327.588L69.1652 331.599ZM83.5198 333.721C84.079 333.073 84.3353 332.303 84.2887 331.412C84.2416 330.515 83.9061 329.773 83.2821 329.187C82.6581 328.6 81.9398 328.328 81.1271 328.371C80.3144 328.413 79.6252 328.759 79.0594 329.408C78.5001 330.057 78.244 330.83 78.291 331.727C78.3377 332.617 78.6731 333.356 79.2971 333.943C79.9276 334.529 80.6492 334.801 81.4618 334.758C82.2745 334.716 82.9605 334.37 83.5198 333.721ZM77.9674 335.254C76.927 334.311 76.3718 333.17 76.3016 331.831C76.231 330.485 76.6638 329.289 77.5999 328.243C78.5425 327.196 79.6867 326.637 81.0325 326.566C82.3783 326.496 83.5714 326.932 84.6118 327.875C85.6586 328.818 86.2173 329.962 86.2879 331.308C86.3581 332.647 85.9219 333.84 84.9793 334.887C84.0428 335.927 82.9017 336.482 81.5559 336.553C80.2101 336.623 79.0139 336.191 77.9674 335.254ZM95.0127 329.941L98.5048 325.856L100.904 325.73L97.4173 329.923L101.709 335.301L99.5046 335.417L96.1883 331.288L95.1491 332.545L95.3112 335.636L93.3217 335.741L93.1597 332.649L91.9948 331.507L89.1282 335.96L86.9242 336.076L90.6298 330.278L86.7241 326.474L89.1232 326.348L93.0232 330.045L92.8193 326.154L94.8087 326.05L95.0127 329.941ZM111.768 330.667L104.278 331.059C104.418 331.73 104.78 332.298 105.365 332.762C105.957 333.227 106.639 333.439 107.413 333.398C107.972 333.369 108.486 333.215 108.953 332.936C109.428 332.657 109.759 332.392 109.948 332.141L110.231 331.754L111.596 332.983C111.56 333.038 111.502 333.116 111.423 333.218C111.349 333.313 111.185 333.481 110.931 333.722C110.676 333.957 110.403 334.171 110.114 334.362C109.823 334.547 109.442 334.726 108.968 334.901C108.501 335.069 108.014 335.166 107.507 335.193C106.148 335.264 104.949 334.828 103.908 333.885C102.874 332.935 102.32 331.762 102.247 330.364C102.177 329.018 102.594 327.842 103.5 326.836C104.412 325.824 105.537 325.282 106.876 325.212C108.222 325.142 109.364 325.532 110.302 326.382C111.246 327.226 111.753 328.32 111.823 329.666L111.768 330.667ZM106.966 326.919C106.244 326.957 105.647 327.203 105.176 327.658C104.71 328.106 104.411 328.673 104.277 329.358L109.826 329.067C109.674 328.397 109.343 327.863 108.833 327.466C108.323 327.063 107.7 326.88 106.966 326.919ZM114.075 334.653L113.572 325.066L115.572 324.962L115.98 332.754L119.471 332.571L119.063 324.779L121.062 324.674L121.471 332.466L124.972 332.283L124.563 324.49L126.553 324.386L127.055 333.973L114.075 334.653ZM131.565 332.035L133.759 331.92C134.214 331.896 134.586 331.723 134.876 331.402C135.165 331.08 135.298 330.692 135.274 330.237C135.25 329.782 135.078 329.409 134.756 329.12C134.435 328.83 134.046 328.697 133.591 328.721L131.397 328.836L131.565 332.035ZM136.155 327.824C136.851 328.407 137.224 329.179 137.274 330.142C137.324 331.097 137.034 331.901 136.403 332.554C135.779 333.206 134.927 333.56 133.848 333.617L129.654 333.836L129.152 324.25L131.151 324.145L131.308 327.139L133.502 327.024C134.581 326.968 135.466 327.234 136.155 327.824ZM144.83 325.228L145.239 333.02L143.24 333.124L142.737 323.538L151.426 323.083L151.929 332.669L149.93 332.774L149.521 324.982L144.83 325.228ZM159.629 332.461C159.271 332.48 158.921 332.456 158.579 332.389C158.236 332.322 157.941 332.233 157.694 332.122C157.447 332.005 157.226 331.886 157.03 331.766C156.841 331.639 156.702 331.539 156.614 331.465L156.469 331.326L156.747 336.622L154.748 336.726L154.026 322.946L156.025 322.842L156.082 323.944C156.169 323.848 156.289 323.721 156.444 323.563C156.605 323.405 156.949 323.191 157.476 322.922C158.003 322.653 158.546 322.504 159.105 322.475C160.373 322.408 161.498 322.838 162.478 323.765C163.465 324.685 163.995 325.837 164.068 327.222C164.14 328.606 163.734 329.811 162.849 330.835C161.97 331.853 160.897 332.395 159.629 332.461ZM161.073 325.12C160.455 324.526 159.766 324.249 159.005 324.289C158.244 324.329 157.588 324.676 157.035 325.331C156.483 325.986 156.23 326.756 156.276 327.64C156.322 328.517 156.654 329.253 157.272 329.847C157.89 330.44 158.579 330.717 159.34 330.677C160.1 330.637 160.757 330.29 161.309 329.635C161.862 328.98 162.115 328.214 162.069 327.336C162.023 326.452 161.691 325.713 161.073 325.12ZM172.794 321.963L174.588 321.869L175.091 331.455L173.092 331.56L172.762 325.27L168.098 331.822L166.304 331.916L165.802 322.329L167.801 322.225L168.13 328.515L172.794 321.963ZM179.48 327.216L179.689 331.214L177.69 331.319L177.187 321.733L179.187 321.628L179.386 325.421L184.076 325.176L183.878 321.382L185.877 321.277L186.379 330.864L184.38 330.968L184.17 326.97L179.48 327.216ZM191.675 320.973L196.063 320.743L196.566 330.33L194.576 330.434L194.419 327.44L192.322 327.55L190.578 330.644L188.383 330.759L190.307 327.352C190.255 327.342 190.182 327.317 190.088 327.276C190.001 327.235 189.847 327.142 189.624 326.997C189.401 326.846 189.199 326.671 189.019 326.471C188.846 326.272 188.678 325.994 188.516 325.637C188.36 325.274 188.271 324.881 188.249 324.458C188.199 323.502 188.486 322.699 189.11 322.047C189.741 321.388 190.595 321.03 191.675 320.973ZM194.163 322.544L191.764 322.67C191.308 322.694 190.936 322.867 190.647 323.188C190.357 323.51 190.224 323.898 190.248 324.353C190.272 324.809 190.445 325.181 190.766 325.47C191.088 325.76 191.476 325.893 191.931 325.869L194.33 325.743L194.163 322.544ZM197.752 322.454L197.658 320.66L206.24 320.21L206.334 322.004L203.038 322.177L203.446 329.969L201.457 330.073L201.048 322.281L197.752 322.454ZM210.247 327.911L212.441 327.796C212.897 327.772 213.269 327.6 213.558 327.278C213.848 326.956 213.981 326.568 213.957 326.113C213.933 325.658 213.76 325.286 213.439 324.996C213.117 324.706 212.729 324.574 212.274 324.597L210.08 324.712L210.247 327.911ZM214.838 323.7C215.533 324.283 215.906 325.056 215.957 326.018C216.007 326.974 215.716 327.778 215.086 328.43C214.461 329.082 213.61 329.437 212.53 329.493L208.337 329.713L207.835 320.126L209.834 320.022L209.991 323.016L212.185 322.901C213.264 322.844 214.148 323.111 214.838 323.7ZM224.276 329.875L224.624 328.859L220.22 319.477L222.317 319.367L225.482 326.213L227.915 319.074L230.011 318.964L226.265 329.771C225.833 330.98 225.386 331.835 224.923 332.335C224.467 332.835 223.875 333.104 223.146 333.142C222.88 333.156 222.629 333.153 222.393 333.132C222.157 333.112 221.983 333.085 221.87 333.052L221.732 333.02L221.637 331.216C221.976 331.329 222.314 331.379 222.653 331.368C223.413 331.322 223.954 330.824 224.276 329.875ZM237.901 328.163L237.713 324.565C237.074 325.068 236.287 325.344 235.351 325.393C234.193 325.453 233.252 325.154 232.526 324.494C231.807 323.828 231.416 322.897 231.353 321.7L231.206 318.902L233.196 318.797L233.342 321.596C233.374 322.194 233.592 322.685 233.997 323.068C234.407 323.444 234.892 323.617 235.452 323.588C235.861 323.567 236.245 323.481 236.602 323.332C236.965 323.176 237.225 323.026 237.38 322.881L237.614 322.673L237.399 318.577L239.388 318.473L239.891 328.059L237.901 328.163ZM250.185 327.52L248.185 327.625L248.133 326.63C248.109 326.657 248.065 326.702 248.003 326.764C247.948 326.825 247.829 326.929 247.648 327.076C247.473 327.215 247.281 327.346 247.072 327.468C246.863 327.583 246.598 327.691 246.277 327.793C245.957 327.895 245.631 327.954 245.299 327.971C244.324 328.022 243.5 327.782 242.826 327.25C242.153 326.718 241.797 326.088 241.759 325.36C241.718 324.573 241.93 323.901 242.397 323.342C242.869 322.782 243.534 322.408 244.391 322.22L247.861 321.432C247.834 320.925 247.623 320.509 247.228 320.184C246.84 319.859 246.353 319.712 245.768 319.742C245.26 319.769 244.804 319.9 244.4 320.137C244.001 320.366 243.729 320.592 243.584 320.815L243.339 321.17L241.974 319.941C242.01 319.887 242.059 319.819 242.12 319.738C242.187 319.65 242.332 319.498 242.556 319.285C242.785 319.064 243.029 318.865 243.287 318.689C243.545 318.512 243.889 318.351 244.318 318.205C244.753 318.051 245.205 317.963 245.673 317.938C246.843 317.877 247.82 318.174 248.605 318.831C249.388 319.481 249.807 320.313 249.86 321.327L250.185 327.52ZM245.507 326.161C246.32 326.118 246.941 325.845 247.371 325.34C247.807 324.828 248.002 324.123 247.955 323.226L247.945 323.031L244.869 323.691C244.515 323.775 244.234 323.936 244.025 324.175C243.815 324.415 243.72 324.706 243.738 325.051C243.755 325.37 243.922 325.641 244.24 325.866C244.565 326.09 244.987 326.188 245.507 326.161ZM253.604 326.05C252.563 325.107 252.008 323.966 251.938 322.626C251.867 321.281 252.3 320.084 253.236 319.038C254.179 317.991 255.323 317.432 256.669 317.362C257.417 317.323 258.121 317.449 258.781 317.74C259.442 318.025 259.92 318.319 260.216 318.623L260.66 319.06L259.431 320.425C259.36 320.324 259.253 320.202 259.108 320.06C258.97 319.911 258.67 319.718 258.208 319.481C257.752 319.245 257.271 319.139 256.763 319.166C255.951 319.209 255.261 319.554 254.696 320.203C254.136 320.852 253.88 321.625 253.927 322.522C253.974 323.413 254.309 324.151 254.933 324.738C255.564 325.324 256.285 325.596 257.098 325.554C257.605 325.527 258.073 325.375 258.502 325.099C258.937 324.822 259.246 324.558 259.429 324.307L259.712 323.92L261.077 325.15C261.04 325.204 260.986 325.281 260.913 325.383C260.84 325.478 260.679 325.646 260.431 325.888C260.182 326.122 259.92 326.335 259.643 326.525C259.366 326.709 259.003 326.888 258.556 327.061C258.108 327.228 257.654 327.324 257.192 327.348C255.846 327.419 254.65 326.986 253.604 326.05ZM261.557 319.11L261.463 317.316L270.045 316.866L270.139 318.661L266.843 318.833L267.251 326.625L265.262 326.73L264.854 318.938L261.557 319.11ZM278.632 316.416L280.427 316.322L280.929 325.908L278.93 326.013L278.6 319.723L273.937 326.275L272.142 326.369L271.64 316.783L273.639 316.678L273.969 322.968L278.632 316.416ZM292.198 321.211L284.708 321.603C284.848 322.274 285.21 322.842 285.795 323.307C286.386 323.771 287.069 323.983 287.843 323.942C288.402 323.913 288.915 323.759 289.383 323.48C289.857 323.201 290.189 322.936 290.378 322.685L290.661 322.299L292.026 323.528C291.99 323.582 291.932 323.66 291.852 323.762C291.779 323.857 291.615 324.025 291.361 324.267C291.106 324.502 290.833 324.715 290.543 324.906C290.253 325.091 289.871 325.27 289.398 325.445C288.931 325.613 288.444 325.71 287.937 325.737C286.578 325.808 285.378 325.372 284.338 324.429C283.304 323.479 282.75 322.306 282.677 320.908C282.606 319.562 283.024 318.386 283.929 317.38C284.841 316.368 285.967 315.826 287.306 315.756C288.652 315.686 289.794 316.076 290.731 316.926C291.675 317.77 292.182 318.865 292.253 320.21L292.198 321.211ZM287.396 317.463C286.674 317.501 286.077 317.747 285.606 318.202C285.14 318.65 284.841 319.217 284.707 319.902L290.256 319.611C290.104 318.941 289.772 318.407 289.263 318.01C288.753 317.607 288.13 317.424 287.396 317.463ZM37.4808 354.089L42.0741 353.848C42.9908 353.8 43.7314 353.999 44.2959 354.445C44.8601 354.885 45.1611 355.466 45.1989 356.188C45.2204 356.597 45.1489 356.976 44.9846 357.323C44.8264 357.664 44.6565 357.904 44.4748 358.044L44.2114 358.244C44.2511 358.255 44.3076 358.275 44.3808 358.304C44.454 358.332 44.5885 358.41 44.7842 358.537C44.9795 358.657 45.1497 358.795 45.2948 358.95C45.446 359.099 45.584 359.306 45.7088 359.574C45.8402 359.841 45.9142 360.133 45.9309 360.452C45.9742 361.278 45.7136 361.966 45.1492 362.517C44.5914 363.068 43.8021 363.37 42.7813 363.424L37.9832 363.675L37.4808 354.089ZM42.5564 359.133L39.7575 359.279L39.8935 361.873L42.6924 361.727C43.089 361.706 43.3982 361.572 43.62 361.326C43.8417 361.08 43.9423 360.758 43.9215 360.362C43.9027 360.004 43.7664 359.705 43.5126 359.464C43.2587 359.223 42.94 359.112 42.5564 359.133ZM42.9854 357.242C43.1579 357.051 43.2362 356.802 43.2202 356.497C43.2038 356.185 43.1 355.945 42.9088 355.779C42.7172 355.607 42.4686 355.529 42.1631 355.545L39.569 355.681L39.6737 357.68L42.2678 357.544C42.5734 357.528 42.8126 357.427 42.9854 357.242ZM53.6507 358.845L53.8603 362.843L51.8611 362.948L51.3586 353.361L53.3579 353.257L53.5567 357.05L58.2475 356.804L58.0487 353.011L60.0479 352.906L60.5503 362.492L58.5511 362.597L58.3415 358.599L53.6507 358.845ZM70.844 361.953L68.8448 362.058L68.7926 361.063C68.768 361.09 68.7247 361.135 68.6628 361.197C68.6073 361.258 68.4889 361.362 68.3075 361.509C68.1323 361.648 67.9403 361.779 67.7315 361.901C67.5224 362.016 67.2576 362.125 66.9369 362.226C66.6163 362.328 66.2902 362.387 65.9586 362.404C64.9834 362.456 64.1591 362.215 63.4858 361.683C62.8125 361.151 62.4568 360.521 62.4186 359.793C62.3774 359.007 62.5899 358.334 63.056 357.775C63.5287 357.215 64.1937 356.841 65.0509 356.653L68.5202 355.865C68.4937 355.358 68.2828 354.942 67.8876 354.617C67.499 354.292 67.0121 354.145 66.427 354.175C65.9199 354.202 65.4639 354.333 65.059 354.57C64.6603 354.799 64.3886 355.025 64.2438 355.248L63.9984 355.603L62.6334 354.374C62.6696 354.32 62.7182 354.252 62.7792 354.171C62.8463 354.083 62.9915 353.932 63.215 353.718C63.4447 353.497 63.6885 353.299 63.9466 353.122C64.2046 352.946 64.5482 352.784 64.9773 352.638C65.4126 352.485 65.8643 352.396 66.3324 352.371C67.5027 352.31 68.4799 352.607 69.264 353.264C70.0478 353.914 70.4663 354.746 70.5194 355.76L70.844 361.953ZM66.1669 360.594C66.9795 360.552 67.6008 360.278 68.0307 359.773C68.4668 359.261 68.6613 358.557 68.6143 357.659L68.6041 357.464L65.5289 358.124C65.1747 358.208 64.8931 358.369 64.684 358.609C64.4748 358.848 64.3793 359.14 64.3974 359.484C64.414 359.803 64.5815 360.074 64.8997 360.299C65.2243 360.523 65.6467 360.621 66.1669 360.594ZM73.4432 361.817L72.9407 352.23L74.94 352.125L75.3483 359.917L78.8396 359.735L78.4313 351.942L80.4305 351.838L80.8388 359.63L84.3399 359.446L83.9315 351.654L85.921 351.55L86.4234 361.136L73.4432 361.817ZM95.5125 351.047L97.3069 350.953L97.8093 360.54L95.8101 360.644L95.4805 354.354L90.817 360.906L89.0226 361L88.5201 351.414L90.5194 351.309L90.849 357.599L95.5125 351.047ZM104.945 355.159L108.795 359.964L106.504 360.084L103.824 356.724L101.51 360.346L99.209 360.466L102.546 355.285L99.0089 350.864L101.301 350.744L103.667 353.72L105.699 350.513L108 350.393L104.945 355.159ZM118.802 354.032L122.083 349.655L123.682 349.571L124.185 359.157L122.186 359.262L121.856 352.972L118.948 356.831L115.663 353.297L115.993 359.587L113.994 359.691L113.491 350.105L115.091 350.021L118.802 354.032ZM134.479 358.618L132.479 358.723L132.427 357.728C132.403 357.755 132.359 357.8 132.297 357.862C132.242 357.923 132.123 358.027 131.942 358.174C131.767 358.313 131.575 358.444 131.366 358.566C131.157 358.681 130.892 358.79 130.571 358.891C130.251 358.993 129.925 359.052 129.593 359.07C128.618 359.121 127.794 358.88 127.12 358.348C126.447 357.816 126.091 357.186 126.053 356.458C126.012 355.672 126.224 354.999 126.691 354.44C127.163 353.88 127.828 353.507 128.685 353.318L132.155 352.53C132.128 352.023 131.917 351.607 131.522 351.282C131.134 350.957 130.647 350.81 130.062 350.84C129.554 350.867 129.098 350.998 128.694 351.235C128.295 351.464 128.023 351.69 127.878 351.913L127.633 352.268L126.268 351.039C126.304 350.985 126.353 350.917 126.414 350.836C126.481 350.748 126.626 350.597 126.85 350.383C127.079 350.162 127.323 349.964 127.581 349.787C127.839 349.611 128.183 349.449 128.612 349.303C129.047 349.15 129.499 349.061 129.967 349.036C131.137 348.975 132.114 349.272 132.899 349.929C133.682 350.579 134.101 351.411 134.154 352.425L134.479 358.618ZM129.801 357.259C130.614 357.217 131.235 356.943 131.665 356.438C132.101 355.926 132.296 355.222 132.249 354.324L132.239 354.129L129.163 354.789C128.809 354.873 128.528 355.034 128.318 355.274C128.109 355.513 128.014 355.805 128.032 356.149C128.049 356.468 128.216 356.739 128.534 356.964C128.859 357.188 129.281 357.287 129.801 357.259ZM137.898 357.148C136.857 356.205 136.302 355.064 136.232 353.725C136.161 352.379 136.594 351.183 137.53 350.136C138.473 349.089 139.617 348.53 140.963 348.46C141.71 348.421 142.415 348.547 143.075 348.838C143.736 349.123 144.214 349.417 144.51 349.721L144.954 350.158L143.725 351.523C143.654 351.422 143.547 351.301 143.402 351.158C143.264 351.009 142.964 350.816 142.502 350.58C142.046 350.343 141.564 350.238 141.057 350.264C140.245 350.307 139.555 350.653 138.99 351.302C138.43 351.95 138.174 352.723 138.221 353.62C138.268 354.511 138.603 355.25 139.227 355.836C139.858 356.423 140.579 356.694 141.392 356.652C141.899 356.625 142.367 356.474 142.796 356.197C143.231 355.92 143.54 355.656 143.723 355.405L144.006 355.019L145.371 356.248C145.334 356.302 145.28 356.38 145.207 356.481C145.134 356.576 144.973 356.745 144.725 356.986C144.476 357.22 144.214 357.433 143.937 357.624C143.66 357.808 143.297 357.986 142.85 358.16C142.402 358.327 141.948 358.422 141.486 358.446C140.14 358.517 138.944 358.084 137.898 357.148ZM147.254 357.948L146.752 348.362L148.751 348.257L149.16 356.049L152.651 355.866L152.242 348.074L154.242 347.969L154.65 355.761L158.151 355.578L157.743 347.786L159.732 347.682L160.235 357.268L147.254 357.948ZM161.431 349.392L161.337 347.598L169.919 347.148L170.013 348.942L166.716 349.115L167.125 356.907L165.135 357.011L164.727 349.219L161.431 349.392ZM179.71 356.247L177.711 356.352L177.659 355.357C177.634 355.385 177.591 355.43 177.529 355.491C177.474 355.553 177.355 355.657 177.174 355.803C176.998 355.943 176.807 356.074 176.598 356.195C176.389 356.311 176.124 356.419 175.803 356.521C175.482 356.622 175.156 356.682 174.825 356.699C173.85 356.75 173.025 356.51 172.352 355.978C171.679 355.446 171.323 354.816 171.285 354.088C171.244 353.301 171.456 352.628 171.922 352.069C172.395 351.51 173.06 351.136 173.917 350.948L177.386 350.16C177.36 349.652 177.149 349.236 176.754 348.912C176.365 348.586 175.878 348.439 175.293 348.47C174.786 348.496 174.33 348.628 173.925 348.864C173.527 349.094 173.255 349.32 173.11 349.543L172.865 349.898L171.5 348.669C171.536 348.615 171.584 348.547 171.645 348.466C171.712 348.377 171.858 348.226 172.081 348.012C172.311 347.792 172.555 347.593 172.813 347.417C173.071 347.24 173.414 347.079 173.844 346.932C174.279 346.779 174.731 346.69 175.199 346.666C176.369 346.604 177.346 346.902 178.13 347.558C178.914 348.208 179.333 349.041 179.386 350.055L179.71 356.247ZM175.033 354.889C175.846 354.846 176.467 354.572 176.897 354.067C177.333 353.556 177.528 352.851 177.48 351.954L177.47 351.759L174.395 352.419C174.041 352.503 173.759 352.664 173.55 352.903C173.341 353.142 173.246 353.434 173.264 353.779C173.28 354.097 173.448 354.369 173.766 354.593C174.091 354.818 174.513 354.916 175.033 354.889ZM191.65 350.918C191.721 352.264 191.306 353.439 190.407 354.445C189.514 355.45 188.418 355.987 187.118 356.055C185.616 356.134 184.378 355.661 183.406 354.636C182.439 353.604 181.902 352.068 181.795 350.026C181.673 347.699 182.014 345.93 182.817 344.721C183.621 343.512 184.816 342.733 186.401 342.382C187.104 342.228 187.73 342.045 188.279 341.834C188.835 341.622 189.217 341.449 189.426 341.314L189.737 341.102L190.713 342.557C190.677 342.611 190.599 342.69 190.481 342.794C190.369 342.898 189.972 343.095 189.29 343.385C188.614 343.674 187.747 343.935 186.69 344.166C185.781 344.364 185.063 344.783 184.536 345.423C184.009 346.064 183.724 346.9 183.68 347.933C183.704 347.892 183.747 347.838 183.808 347.769C183.876 347.694 184.01 347.567 184.209 347.387C184.408 347.2 184.618 347.036 184.838 346.894C185.065 346.745 185.355 346.609 185.707 346.487C186.065 346.357 186.43 346.283 186.8 346.263C188.009 346.2 189.101 346.628 190.075 347.549C191.055 348.462 191.58 349.585 191.65 350.918ZM184.776 349.068C184.255 349.689 184.017 350.438 184.063 351.316C184.109 352.193 184.424 352.914 185.007 353.476C185.591 354.039 186.26 354.3 187.014 354.261C187.775 354.221 188.416 353.891 188.937 353.27C189.459 352.65 189.697 351.9 189.651 351.023C189.605 350.145 189.29 349.425 188.706 348.862C188.122 348.293 187.45 348.028 186.689 348.068C185.935 348.108 185.297 348.441 184.776 349.068ZM195.875 351.391L196.085 355.389L194.085 355.494L193.583 345.908L195.582 345.803L195.781 349.596L200.472 349.351L200.273 345.557L202.272 345.452L202.775 355.039L200.775 355.143L200.566 351.145L195.875 351.391ZM207.284 353.101L209.381 352.991C209.836 352.967 210.208 352.794 210.498 352.473C210.787 352.151 210.92 351.763 210.896 351.308C210.873 350.853 210.7 350.48 210.378 350.191C210.057 349.901 209.668 349.768 209.213 349.792L207.116 349.902L207.284 353.101ZM211.777 348.895C212.473 349.478 212.846 350.25 212.896 351.213C212.946 352.168 212.656 352.972 212.025 353.625C211.401 354.277 210.549 354.631 209.47 354.688L205.374 354.902L204.871 345.316L206.871 345.211L207.028 348.205L209.124 348.095C210.204 348.039 211.088 348.305 211.777 348.895ZM215.96 344.735L216.462 354.321L214.463 354.426L213.961 344.84L215.96 344.735ZM223.598 348.941L227.448 353.746L225.156 353.866L222.477 350.505L220.163 354.127L217.862 354.248L221.199 349.066L217.662 344.646L219.953 344.526L222.319 347.502L224.352 344.295L226.653 344.174L223.598 348.941ZM234.237 345.576L234.646 353.368L232.647 353.473L232.144 343.887L240.833 343.431L241.336 353.018L239.337 353.123L238.928 345.331L234.237 345.576ZM249.036 352.81C248.678 352.829 248.328 352.805 247.986 352.738C247.643 352.671 247.348 352.582 247.101 352.471C246.854 352.354 246.633 352.235 246.437 352.115C246.248 351.988 246.109 351.888 246.021 351.814L245.876 351.675L246.154 356.97L244.155 357.075L243.433 343.295L245.432 343.19L245.49 344.292C245.576 344.197 245.696 344.07 245.851 343.912C246.012 343.753 246.356 343.54 246.883 343.271C247.41 343.002 247.953 342.853 248.512 342.824C249.78 342.757 250.905 343.187 251.885 344.114C252.872 345.033 253.402 346.186 253.475 347.57C253.547 348.955 253.141 350.16 252.256 351.184C251.377 352.201 250.304 352.743 249.036 352.81ZM250.48 345.468C249.862 344.875 249.173 344.598 248.412 344.638C247.651 344.678 246.995 345.025 246.442 345.68C245.89 346.335 245.637 347.104 245.683 347.988C245.729 348.866 246.061 349.602 246.679 350.195C247.297 350.789 247.986 351.065 248.747 351.026C249.507 350.986 250.164 350.638 250.716 349.984C251.269 349.329 251.522 348.563 251.476 347.685C251.43 346.801 251.098 346.062 250.48 345.468ZM262.083 349.398C262.643 348.749 262.899 347.979 262.852 347.089C262.805 346.191 262.47 345.45 261.846 344.863C261.222 344.276 260.503 344.004 259.691 344.047C258.878 344.089 258.189 344.435 257.623 345.084C257.064 345.733 256.808 346.506 256.855 347.403C256.901 348.294 257.237 349.032 257.861 349.619C258.491 350.205 259.213 350.477 260.025 350.435C260.838 350.392 261.524 350.046 262.083 349.398ZM256.531 350.931C255.491 349.988 254.935 348.847 254.865 347.507C254.795 346.161 255.227 344.965 256.164 343.919C257.106 342.872 258.25 342.313 259.596 342.243C260.942 342.172 262.135 342.608 263.175 343.551C264.222 344.494 264.781 345.638 264.851 346.984C264.922 348.323 264.485 349.516 263.543 350.563C262.606 351.603 261.465 352.158 260.119 352.229C258.774 352.299 257.578 351.867 256.531 350.931ZM275.767 347.106L268.277 347.499C268.416 348.169 268.779 348.737 269.364 349.202C269.955 349.666 270.638 349.878 271.411 349.838C271.971 349.809 272.484 349.654 272.952 349.376C273.426 349.097 273.758 348.831 273.947 348.58L274.23 348.194L275.595 349.423C275.558 349.477 275.5 349.555 275.421 349.657C275.348 349.752 275.184 349.92 274.929 350.162C274.674 350.397 274.402 350.61 274.112 350.801C273.822 350.986 273.44 351.166 272.967 351.341C272.5 351.508 272.013 351.606 271.505 351.632C270.147 351.703 268.947 351.268 267.907 350.325C266.872 349.375 266.319 348.201 266.245 346.803C266.175 345.457 266.593 344.282 267.498 343.276C268.41 342.263 269.535 341.722 270.875 341.652C272.221 341.581 273.362 341.971 274.3 342.822C275.244 343.665 275.751 344.76 275.822 346.106L275.767 347.106ZM270.964 343.358C270.243 343.396 269.646 343.642 269.174 344.097C268.709 344.546 268.409 345.112 268.276 345.797L273.825 345.506C273.672 344.836 273.341 344.303 272.831 343.906C272.321 343.502 271.699 343.32 270.964 343.358ZM286.065 341.061L282.579 345.253L286.86 350.632L284.666 350.747L281.349 346.618L279.931 348.296L280.072 350.988L278.073 351.092L277.571 341.506L279.57 341.401L279.795 345.692L283.666 341.187L286.065 341.061ZM286.847 342.819L286.753 341.025L295.335 340.575L295.429 342.369L292.133 342.542L292.541 350.334L290.551 350.439L290.143 342.646L286.847 342.819ZM305.126 349.675L303.127 349.779L303.075 348.785C303.05 348.812 303.007 348.857 302.945 348.919C302.89 348.98 302.771 349.084 302.59 349.231C302.415 349.37 302.223 349.501 302.014 349.623C301.805 349.738 301.54 349.846 301.219 349.948C300.899 350.049 300.573 350.109 300.241 350.126C299.266 350.177 298.441 349.937 297.768 349.405C297.095 348.873 296.739 348.243 296.701 347.515C296.66 346.728 296.872 346.055 297.338 345.496C297.811 344.937 298.476 344.563 299.333 344.375L302.803 343.587C302.776 343.08 302.565 342.664 302.17 342.339C301.781 342.014 301.295 341.866 300.709 341.897C300.202 341.924 299.746 342.055 299.341 342.292C298.943 342.521 298.671 342.747 298.526 342.97L298.281 343.325L296.916 342.096C296.952 342.042 297.001 341.974 297.062 341.893C297.129 341.804 297.274 341.653 297.497 341.44C297.727 341.219 297.971 341.02 298.229 340.844C298.487 340.667 298.831 340.506 299.26 340.36C299.695 340.206 300.147 340.117 300.615 340.093C301.785 340.032 302.762 340.329 303.546 340.986C304.33 341.636 304.749 342.468 304.802 343.482L305.126 349.675ZM300.449 348.316C301.262 348.273 301.883 348 302.313 347.495C302.749 346.983 302.944 346.278 302.897 345.381L302.886 345.186L299.811 345.846C299.457 345.93 299.175 346.091 298.966 346.33C298.757 346.569 298.662 346.861 298.68 347.206C298.696 347.525 298.864 347.796 299.182 348.021C299.507 348.245 299.929 348.343 300.449 348.316ZM312.262 344.294L316.112 349.099L313.821 349.219L311.141 345.859L308.828 349.481L306.526 349.601L309.863 344.42L306.326 339.999L308.618 339.879L310.984 342.855L313.016 339.648L315.317 339.528L312.262 344.294ZM45.7816 378.688L47.576 378.594L48.0784 388.18L46.0792 388.285L45.7495 381.995L41.086 388.547L39.2916 388.641L38.7892 379.054L40.7884 378.95L41.1181 385.24L45.7816 378.688ZM51.2772 378.4L58.6694 378.012L59.1718 387.599L57.1726 387.704L56.7642 379.912L53.3704 380.09L53.423 381.094C53.5188 382.921 53.4482 384.372 53.2111 385.447C52.9803 386.515 52.6466 387.24 52.2103 387.621C51.7804 388.003 51.2079 388.212 50.4927 388.249C50.3172 388.259 50.1278 388.252 49.9245 388.23C49.7278 388.208 49.5731 388.18 49.4606 388.147L49.283 388.117L49.1833 386.215C49.4533 386.267 49.686 386.29 49.8814 386.286C50.2909 386.265 50.607 386.138 50.8294 385.904C51.0584 385.671 51.2312 385.173 51.3477 384.41C51.4703 383.641 51.4957 382.571 51.4238 381.199L51.2772 378.4ZM68.2609 377.51L70.0553 377.416L70.5577 387.002L68.5585 387.107L68.2288 380.817L63.5653 387.369L61.7709 387.463L61.2685 377.876L63.2677 377.771L63.5974 384.062L68.2609 377.51ZM78.5464 378.77L78.9548 386.562L76.9556 386.667L76.4532 377.08L85.1424 376.625L85.6448 386.212L83.6456 386.316L83.2372 378.524L78.5464 378.77ZM94.6163 383.209C95.1756 382.56 95.4319 381.79 95.3852 380.9C95.3382 380.002 95.0027 379.26 94.3787 378.674C93.7547 378.087 93.0363 377.815 92.2236 377.858C91.411 377.9 90.7217 378.246 90.156 378.895C89.5967 379.544 89.3406 380.317 89.3876 381.214C89.4343 382.105 89.7696 382.843 90.3936 383.43C91.0241 384.016 91.7457 384.288 92.5584 384.245C93.3711 384.203 94.0571 383.857 94.6163 383.209ZM89.064 384.741C88.0236 383.799 87.4683 382.657 87.3981 381.318C87.3276 379.972 87.7604 378.776 88.6965 377.73C89.6391 376.683 90.7833 376.124 92.1291 376.054C93.4749 375.983 94.668 376.419 95.7083 377.362C96.7552 378.305 97.3139 379.449 97.3844 380.795C97.4546 382.134 97.0184 383.327 96.0758 384.374C95.1394 385.414 93.9983 385.969 92.6525 386.04C91.3066 386.11 90.1105 385.678 89.064 384.741ZM98.1413 383.757L98.8337 383.721C98.8707 383.68 98.9227 383.615 98.9898 383.527C99.063 383.432 99.1827 383.227 99.3487 382.912C99.5212 382.596 99.6666 382.259 99.7847 381.901C99.909 381.536 100.011 381.061 100.091 380.477C100.178 379.892 100.205 379.281 100.171 378.644L100.025 375.845L107.017 375.479L107.425 383.271L108.82 383.198L109.04 387.391L107.05 387.495L106.925 385.096L100.235 385.447L100.36 387.846L98.3611 387.951L98.1413 383.757ZM102.118 377.535L102.171 378.539C102.204 379.176 102.18 379.784 102.1 380.362C102.026 380.939 101.917 381.421 101.775 381.807C101.638 382.185 101.496 382.516 101.347 382.797C101.206 383.078 101.086 383.28 100.988 383.403L100.833 383.616L105.426 383.375L105.112 377.378L102.118 377.535ZM119.393 380.336L111.903 380.728C112.043 381.399 112.405 381.967 112.99 382.431C113.581 382.896 114.264 383.108 115.038 383.067C115.597 383.038 116.11 382.884 116.578 382.605C117.052 382.326 117.384 382.061 117.573 381.81L117.856 381.423L119.221 382.653C119.185 382.707 119.127 382.785 119.047 382.887C118.974 382.982 118.81 383.15 118.556 383.391C118.301 383.627 118.028 383.84 117.738 384.031C117.448 384.216 117.066 384.395 116.593 384.57C116.126 384.738 115.639 384.835 115.132 384.862C113.773 384.933 112.573 384.497 111.533 383.554C110.499 382.604 109.945 381.431 109.872 380.033C109.801 378.687 110.219 377.511 111.124 376.505C112.036 375.493 113.162 374.951 114.501 374.881C115.847 374.811 116.989 375.201 117.926 376.051C118.87 376.895 119.378 377.989 119.448 379.335L119.393 380.336ZM114.591 376.588C113.869 376.626 113.272 376.872 112.801 377.327C112.335 377.775 112.036 378.342 111.902 379.027L117.451 378.736C117.299 378.066 116.967 377.532 116.458 377.135C115.948 376.732 115.325 376.549 114.591 376.588ZM122.299 374.678L129.691 374.29L130.194 383.877L128.195 383.982L127.786 376.19L124.392 376.367L124.445 377.372C124.541 379.199 124.47 380.65 124.233 381.725C124.002 382.793 123.669 383.518 123.232 383.899C122.802 384.28 122.23 384.49 121.515 384.527C121.339 384.536 121.15 384.53 120.947 384.508C120.75 384.486 120.595 384.458 120.483 384.425L120.305 384.395L120.205 382.493C120.475 382.544 120.708 382.568 120.903 382.564C121.313 382.543 121.629 382.415 121.852 382.182C122.08 381.949 122.253 381.451 122.37 380.688C122.492 379.919 122.518 378.848 122.446 377.477L122.299 374.678ZM139.283 373.788L141.077 373.694L141.58 383.28L139.581 383.385L139.251 377.095L134.587 383.647L132.793 383.741L132.291 374.154L134.29 374.049L134.619 380.34L139.283 373.788ZM142.776 375.404L142.682 373.61L151.264 373.16L151.358 374.954L148.062 375.127L148.47 382.919L146.48 383.023L146.072 375.231L142.776 375.404ZM155.271 380.861L157.465 380.746C157.921 380.722 158.293 380.549 158.582 380.228C158.872 379.906 159.005 379.518 158.981 379.063C158.957 378.608 158.784 378.235 158.463 377.946C158.141 377.656 157.753 377.523 157.298 377.547L155.104 377.662L155.271 380.861ZM159.862 376.65C160.557 377.233 160.93 378.006 160.981 378.968C161.031 379.924 160.74 380.728 160.11 381.38C159.485 382.032 158.634 382.386 157.554 382.443L153.361 382.663L152.858 373.076L154.858 372.971L155.015 375.965L157.209 375.85C158.288 375.794 159.172 376.06 159.862 376.65ZM163.967 380.816C162.927 379.873 162.372 378.732 162.302 377.393C162.231 376.047 162.664 374.851 163.6 373.804C164.543 372.757 165.687 372.199 167.033 372.128C167.78 372.089 168.484 372.215 169.145 372.506C169.805 372.791 170.284 373.085 170.58 373.389L171.023 373.826L169.794 375.191C169.724 375.09 169.616 374.969 169.472 374.826C169.334 374.677 169.034 374.484 168.571 374.248C168.116 374.011 167.634 373.906 167.127 373.932C166.314 373.975 165.625 374.321 165.059 374.97C164.5 375.618 164.244 376.391 164.291 377.288C164.338 378.179 164.673 378.918 165.297 379.504C165.928 380.091 166.649 380.362 167.462 380.32C167.969 380.293 168.437 380.142 168.866 379.865C169.301 379.588 169.61 379.324 169.792 379.073L170.075 378.687L171.44 379.916C171.404 379.97 171.349 380.048 171.277 380.149C171.203 380.244 171.043 380.413 170.794 380.654C170.546 380.888 170.283 381.101 170.006 381.292C169.729 381.476 169.367 381.654 168.92 381.828C168.472 381.995 168.018 382.09 167.556 382.114C166.21 382.185 165.014 381.752 163.967 380.816ZM176.02 371.862L180.409 371.632L180.911 381.219L178.922 381.323L178.765 378.329L176.668 378.439L174.923 381.533L172.729 381.648L174.653 378.241C174.6 378.231 174.527 378.206 174.434 378.165C174.347 378.124 174.192 378.031 173.97 377.886C173.747 377.735 173.545 377.56 173.365 377.36C173.192 377.161 173.024 376.883 172.862 376.526C172.706 376.163 172.617 375.77 172.595 375.347C172.545 374.391 172.832 373.588 173.456 372.936C174.086 372.277 174.941 371.919 176.02 371.862ZM178.508 373.434L176.109 373.559C175.654 373.583 175.282 373.756 174.992 374.077C174.703 374.399 174.57 374.787 174.594 375.242C174.618 375.698 174.79 376.07 175.112 376.359C175.434 376.649 175.822 376.782 176.277 376.758L178.676 376.632L178.508 373.434ZM193.789 370.931L195.584 370.837L196.086 380.424L194.087 380.528L193.757 374.238L189.094 380.79L187.299 380.884L186.797 371.298L188.796 371.193L189.126 377.483L193.789 370.931ZM197.197 378.566L197.889 378.53C197.926 378.489 197.978 378.424 198.045 378.336C198.119 378.241 198.238 378.035 198.404 377.72C198.577 377.405 198.722 377.068 198.84 376.71C198.964 376.345 199.067 375.87 199.147 375.286C199.234 374.701 199.26 374.09 199.227 373.453L199.08 370.654L206.073 370.287L206.481 378.079L207.875 378.006L208.095 382.2L206.106 382.304L205.98 379.905L199.29 380.256L199.416 382.655L197.417 382.759L197.197 378.566ZM201.173 372.343L201.226 373.348C201.259 373.985 201.236 374.593 201.155 375.171C201.081 375.748 200.973 376.23 200.83 376.615C200.694 376.994 200.551 377.324 200.403 377.606C200.261 377.887 200.141 378.089 200.043 378.211L199.888 378.425L204.482 378.184L204.167 372.187L201.173 372.343ZM218.448 375.144L210.959 375.537C211.098 376.208 211.46 376.775 212.045 377.24C212.637 377.705 213.32 377.917 214.093 377.876C214.652 377.847 215.166 377.693 215.634 377.414C216.108 377.135 216.44 376.87 216.629 376.619L216.911 376.232L218.276 377.461C218.24 377.515 218.182 377.593 218.103 377.695C218.03 377.79 217.866 377.959 217.611 378.2C217.356 378.435 217.084 378.648 216.794 378.84C216.504 379.024 216.122 379.204 215.649 379.379C215.181 379.547 214.694 379.644 214.187 379.67C212.828 379.742 211.629 379.306 210.588 378.363C209.554 377.413 209.001 376.239 208.927 374.841C208.857 373.496 209.274 372.32 210.18 371.314C211.092 370.301 212.217 369.76 213.557 369.69C214.902 369.619 216.044 370.009 216.982 370.86C217.926 371.703 218.433 372.798 218.504 374.144L218.448 375.144ZM213.646 371.396C212.924 371.434 212.328 371.681 211.856 372.136C211.391 372.584 211.091 373.15 210.958 373.835L216.507 373.545C216.354 372.875 216.023 372.341 215.513 371.944C215.003 371.54 214.381 371.358 213.646 371.396ZM229.425 374.569L221.935 374.962C222.074 375.632 222.437 376.2 223.022 376.665C223.613 377.129 224.296 377.341 225.07 377.301C225.629 377.272 226.142 377.117 226.61 376.839C227.084 376.56 227.416 376.294 227.605 376.043L227.888 375.657L229.253 376.886C229.216 376.94 229.159 377.018 229.079 377.12C229.006 377.215 228.842 377.383 228.587 377.625C228.332 377.86 228.06 378.073 227.77 378.264C227.48 378.449 227.098 378.629 226.625 378.804C226.158 378.971 225.671 379.069 225.164 379.095C223.805 379.166 222.605 378.731 221.565 377.788C220.531 376.838 219.977 375.664 219.904 374.266C219.833 372.92 220.251 371.745 221.156 370.739C222.068 369.726 223.194 369.185 224.533 369.115C225.879 369.044 227.021 369.434 227.958 370.285C228.902 371.128 229.409 372.223 229.48 373.569L229.425 374.569ZM224.622 370.821C223.901 370.859 223.304 371.105 222.832 371.56C222.367 372.009 222.067 372.575 221.934 373.26L227.483 372.969C227.33 372.299 226.999 371.766 226.49 371.369C225.979 370.965 225.357 370.783 224.622 370.821ZM238.221 368.603L240.016 368.508L240.518 378.095L238.519 378.2L238.189 371.91L233.526 378.461L231.731 378.555L231.229 368.969L233.228 368.864L233.558 375.154L238.221 368.603ZM234.445 365.397C234.725 365.65 235.064 365.766 235.461 365.745C235.864 365.724 236.192 365.573 236.444 365.293C236.697 365.012 236.812 364.67 236.791 364.267L238.293 364.188C238.335 364.988 238.097 365.669 237.579 366.231C237.061 366.792 236.382 367.095 235.543 367.139C234.705 367.183 233.998 366.953 233.424 366.448C232.85 365.944 232.542 365.292 232.5 364.492L233.992 364.414C234.013 364.81 234.164 365.138 234.445 365.397ZM247.736 376.426C246.696 375.483 246.14 374.342 246.07 373.002C246 371.657 246.432 370.46 247.369 369.414C248.311 368.367 249.455 367.808 250.801 367.738C251.549 367.699 252.253 367.825 252.914 368.116C253.574 368.401 254.052 368.695 254.349 368.999L254.792 369.436L253.563 370.801C253.492 370.7 253.385 370.579 253.241 370.436C253.102 370.287 252.802 370.094 252.34 369.858C251.884 369.621 251.403 369.515 250.896 369.542C250.083 369.585 249.394 369.93 248.828 370.579C248.269 371.228 248.013 372.001 248.06 372.898C248.106 373.789 248.442 374.528 249.066 375.114C249.696 375.701 250.418 375.972 251.231 375.93C251.738 375.903 252.206 375.752 252.634 375.475C253.07 375.198 253.379 374.934 253.561 374.683L253.844 374.297L255.209 375.526C255.173 375.58 255.118 375.658 255.045 375.759C254.972 375.854 254.811 376.022 254.563 376.264C254.315 376.498 254.052 376.711 253.775 376.901C253.498 377.085 253.136 377.264 252.688 377.438C252.241 377.604 251.786 377.7 251.325 377.724C249.979 377.795 248.783 377.362 247.736 376.426ZM256.59 367.64L261.184 367.399C262.1 367.351 262.841 367.55 263.405 367.997C263.97 368.436 264.271 369.017 264.308 369.739C264.33 370.148 264.258 370.527 264.094 370.875C263.936 371.215 263.766 371.456 263.584 371.596L263.321 371.795C263.361 371.806 263.417 371.826 263.49 371.855C263.564 371.884 263.698 371.961 263.894 372.088C264.089 372.208 264.259 372.346 264.404 372.501C264.556 372.65 264.694 372.858 264.818 373.125C264.95 373.392 265.024 373.685 265.04 374.003C265.084 374.829 264.823 375.517 264.259 376.068C263.701 376.619 262.912 376.921 261.891 376.975L257.093 377.226L256.59 367.64ZM261.666 372.684L258.867 372.831L259.003 375.425L261.802 375.278C262.198 375.257 262.508 375.124 262.729 374.877C262.951 374.631 263.052 374.31 263.031 373.913C263.012 373.555 262.876 373.256 262.622 373.015C262.368 372.774 262.05 372.664 261.666 372.684ZM262.095 370.794C262.267 370.602 262.346 370.353 262.33 370.048C262.313 369.736 262.21 369.497 262.018 369.331C261.827 369.158 261.578 369.08 261.273 369.096L258.678 369.232L258.783 371.231L261.377 371.095C261.683 371.079 261.922 370.979 262.095 370.794ZM273.544 373.831C274.103 373.183 274.36 372.413 274.313 371.522C274.266 370.625 273.931 369.883 273.307 369.297C272.683 368.71 271.964 368.438 271.152 368.48C270.339 368.523 269.65 368.869 269.084 369.518C268.525 370.167 268.268 370.939 268.315 371.837C268.362 372.727 268.698 373.466 269.322 374.053C269.952 374.639 270.674 374.911 271.486 374.868C272.299 374.826 272.985 374.48 273.544 373.831ZM267.992 375.364C266.951 374.421 266.396 373.28 266.326 371.941C266.255 370.595 266.688 369.399 267.624 368.352C268.567 367.306 269.711 366.747 271.057 366.676C272.403 366.606 273.596 367.042 274.636 367.985C275.683 368.928 276.242 370.072 276.312 371.418C276.383 372.757 275.946 373.95 275.004 374.997C274.067 376.037 272.926 376.592 271.58 376.663C270.235 376.733 269.038 376.3 267.992 375.364ZM287.227 371.54L279.738 371.932C279.877 372.603 280.239 373.171 280.824 373.636C281.416 374.1 282.099 374.312 282.872 374.272C283.431 374.242 283.945 374.088 284.413 373.809C284.887 373.53 285.219 373.265 285.408 373.014L285.69 372.628L287.055 373.857C287.019 373.911 286.961 373.989 286.882 374.091C286.809 374.186 286.645 374.354 286.39 374.596C286.135 374.831 285.863 375.044 285.573 375.235C285.283 375.42 284.901 375.599 284.428 375.774C283.961 375.942 283.473 376.039 282.966 376.066C281.607 376.137 280.408 375.701 279.368 374.758C278.333 373.809 277.78 372.635 277.706 371.237C277.636 369.891 278.053 368.715 278.959 367.71C279.871 366.697 280.996 366.155 282.336 366.085C283.681 366.015 284.823 366.405 285.761 367.255C286.705 368.099 287.212 369.194 287.283 370.539L287.227 371.54ZM282.425 367.792C281.703 367.83 281.107 368.076 280.635 368.531C280.17 368.979 279.87 369.546 279.737 370.231L285.286 369.94C285.133 369.27 284.802 368.736 284.292 368.339C283.782 367.936 283.16 367.753 282.425 367.792ZM295.722 365.589L295.816 367.383L291.125 367.629L291.533 375.421L289.534 375.526L289.032 365.94L295.722 365.589ZM303.996 372.235C304.555 371.587 304.812 370.817 304.765 369.926C304.718 369.029 304.383 368.287 303.759 367.701C303.135 367.114 302.416 366.842 301.603 366.885C300.791 366.927 300.102 367.273 299.536 367.922C298.977 368.571 298.72 369.344 298.767 370.241C298.814 371.131 299.149 371.87 299.773 372.457C300.404 373.043 301.126 373.315 301.938 373.272C302.751 373.23 303.437 372.884 303.996 372.235ZM298.444 373.768C297.403 372.825 296.848 371.684 296.778 370.345C296.707 368.999 297.14 367.803 298.076 366.756C299.019 365.71 300.163 365.151 301.509 365.08C302.855 365.01 304.048 365.446 305.088 366.389C306.135 367.332 306.694 368.476 306.764 369.822C306.834 371.161 306.398 372.354 305.456 373.401C304.519 374.441 303.378 374.996 302.032 375.067C300.686 375.137 299.49 374.704 298.444 373.768ZM311.615 370.663L310.016 370.746L309.077 360.479L311.476 360.353L311.615 370.663ZM310.092 374.263C309.819 374.016 309.673 373.721 309.655 373.376C309.636 373.025 309.75 372.713 309.997 372.439C310.243 372.166 310.539 372.02 310.883 372.002C311.228 371.984 311.537 372.098 311.811 372.344C312.084 372.591 312.23 372.889 312.249 373.24C312.267 373.585 312.153 373.894 311.906 374.168C311.659 374.435 311.364 374.578 311.019 374.596C310.675 374.614 310.366 374.503 310.092 374.263Z" fill="white"/>
</svg>
