<svg width="24" height="24" viewBox="0 0 24 24" fill="none" xmlns="http://www.w3.org/2000/svg">
<rect width="24" height="24" rx="12" fill="white"/>
<g clip-path="url(#clip0_729_120651)">
<path d="M14.5 10.6L17.1065 8.775C17.144 8.74873 17.188 8.73325 17.2336 8.73025C17.2793 8.72725 17.3249 8.73685 17.3655 8.758C17.4061 8.77914 17.4401 8.81103 17.4638 8.85018C17.4875 8.88932 17.5001 8.93423 17.5 8.98V15.02C17.5001 15.0658 17.4875 15.1107 17.4638 15.1498C17.4401 15.189 17.4061 15.2209 17.3655 15.242C17.3249 15.2631 17.2793 15.2727 17.2336 15.2697C17.188 15.2668 17.144 15.2513 17.1065 15.225L14.5 13.4V15.5C14.5 15.6326 14.4473 15.7598 14.3536 15.8536C14.2598 15.9473 14.1326 16 14 16H7C6.86739 16 6.74021 15.9473 6.64645 15.8536C6.55268 15.7598 6.5 15.6326 6.5 15.5V8.5C6.5 8.36739 6.55268 8.24021 6.64645 8.14645C6.74021 8.05268 6.86739 8 7 8H14C14.1326 8 14.2598 8.05268 14.3536 8.14645C14.4473 8.24021 14.5 8.36739 14.5 8.5V10.6ZM8.5 10V11H9.5V10H8.5Z" fill="#E72978"/>
</g>
<defs>
<clipPath id="clip0_729_120651">
<rect width="12" height="12" fill="white" transform="translate(6 6)"/>
</clipPath>
</defs>
</svg>
