<svg width="24" height="24" viewBox="0 0 24 24" fill="none" xmlns="http://www.w3.org/2000/svg">
<rect width="24" height="24" rx="12" fill="white"/>
<g clip-path="url(#clip0_729_120646)">
<path d="M11.9998 6.5C12.3281 6.5 12.6532 6.56466 12.9566 6.6903C13.2599 6.81594 13.5355 7.00009 13.7676 7.23223C13.9998 7.46438 14.1839 7.73998 14.3095 8.04329C14.4352 8.34661 14.4998 8.6717 14.4998 9V11C14.4998 11.663 14.2365 12.2989 13.7676 12.7678C13.2988 13.2366 12.6629 13.5 11.9998 13.5C11.3368 13.5 10.7009 13.2366 10.2321 12.7678C9.76324 12.2989 9.49984 11.663 9.49984 11V9C9.49984 8.33696 9.76324 7.70107 10.2321 7.23223C10.7009 6.76339 11.3368 6.5 11.9998 6.5ZM7.52734 11.5H8.53484C8.65599 12.3324 9.07278 13.0933 9.70896 13.6436C10.3451 14.1939 11.1582 14.4968 11.9993 14.4968C12.8405 14.4968 13.6535 14.1939 14.2897 13.6436C14.9259 13.0933 15.3427 12.3324 15.4638 11.5H16.4718C16.3582 12.5144 15.9032 13.46 15.1814 14.1818C14.4597 14.9036 13.5142 15.3587 12.4998 15.4725V17.5H11.4998V15.4725C10.4854 15.3588 9.53974 14.9037 8.81793 14.1819C8.09613 13.4601 7.64105 12.5144 7.52734 11.5Z" fill="#E72978"/>
</g>
<defs>
<clipPath id="clip0_729_120646">
<rect width="12" height="12" fill="white" transform="translate(6 6)"/>
</clipPath>
</defs>
</svg>
