<svg width="24" height="24" viewBox="0 0 24 24" fill="none" xmlns="http://www.w3.org/2000/svg">
<rect width="24" height="24" rx="12" fill="white"/>
<g clip-path="url(#clip0_729_120666)">
<path d="M9.5 11.5C9.20453 11.5 8.91194 11.4418 8.63896 11.3287C8.36598 11.2157 8.11794 11.0499 7.90901 10.841C7.70008 10.6321 7.53434 10.384 7.42127 10.111C7.3082 9.83806 7.25 9.54547 7.25 9.25C7.25 8.95453 7.3082 8.66194 7.42127 8.38896C7.53434 8.11598 7.70008 7.86794 7.90901 7.65901C8.11794 7.45008 8.36598 7.28434 8.63896 7.17127C8.91194 7.0582 9.20453 7 9.5 7C10.0967 7 10.669 7.23705 11.091 7.65901C11.5129 8.08097 11.75 8.65326 11.75 9.25C11.75 9.84674 11.5129 10.419 11.091 10.841C10.669 11.2629 10.0967 11.5 9.5 11.5ZM14.75 13.5C14.2196 13.5 13.7109 13.2893 13.3358 12.9142C12.9607 12.5391 12.75 12.0304 12.75 11.5C12.75 10.9696 12.9607 10.4609 13.3358 10.0858C13.7109 9.71071 14.2196 9.5 14.75 9.5C15.2804 9.5 15.7891 9.71071 16.1642 10.0858C16.5393 10.4609 16.75 10.9696 16.75 11.5C16.75 12.0304 16.5393 12.5391 16.1642 12.9142C15.7891 13.2893 15.2804 13.5 14.75 13.5ZM14.75 14C15.3467 14 15.919 14.2371 16.341 14.659C16.7629 15.081 17 15.6533 17 16.25V16.5H12.5V16.25C12.5 15.6533 12.7371 15.081 13.159 14.659C13.581 14.2371 14.1533 14 14.75 14ZM9.5 12C9.8283 12 10.1534 12.0647 10.4567 12.1903C10.76 12.3159 11.0356 12.5001 11.2678 12.7322C11.4999 12.9644 11.6841 13.24 11.8097 13.5433C11.9353 13.8466 12 14.1717 12 14.5V16.5H7V14.5C7 13.837 7.26339 13.2011 7.73223 12.7322C8.20107 12.2634 8.83696 12 9.5 12Z" fill="#E72978"/>
</g>
<defs>
<clipPath id="clip0_729_120666">
<rect width="12" height="12" fill="white" transform="translate(6 6)"/>
</clipPath>
</defs>
</svg>
