<svg width="24" height="24" viewBox="0 0 24 24" fill="none" xmlns="http://www.w3.org/2000/svg">
<rect width="24" height="24" rx="12" fill="white"/>
<g clip-path="url(#clip0_729_120671)">
<path d="M14 16.5L11.619 12.135L13.5 9L17.5 16.5H14ZM10 11L13 16.5H7L10 11ZM8.75 10C8.41848 10 8.10054 9.8683 7.86612 9.63388C7.6317 9.39946 7.5 9.08152 7.5 8.75C7.5 8.41848 7.6317 8.10054 7.86612 7.86612C8.10054 7.6317 8.41848 7.5 8.75 7.5C9.08152 7.5 9.39946 7.6317 9.63388 7.86612C9.8683 8.10054 10 8.41848 10 8.75C10 9.08152 9.8683 9.39946 9.63388 9.63388C9.39946 9.8683 9.08152 10 8.75 10Z" fill="#E72978"/>
</g>
<defs>
<clipPath id="clip0_729_120671">
<rect width="12" height="12" fill="white" transform="translate(6 6)"/>
</clipPath>
</defs>
</svg>
