<svg width="24" height="24" viewBox="0 0 24 24" fill="none" xmlns="http://www.w3.org/2000/svg">
<rect width="24" height="24" rx="12" fill="white"/>
<g clip-path="url(#clip0_729_120661)">
<path d="M10.7331 10.1275L9.66558 10.516V12.5833H8.49892V9.69583H8.50767L11.5807 8.577C11.723 8.52275 11.8782 8.49533 12.0368 8.50058C12.3539 8.50849 12.6606 8.61498 12.9143 8.80525C13.168 8.99552 13.3562 9.26011 13.4526 9.56225C13.5611 9.90233 13.6602 10.1322 13.7501 10.2518C14.0216 10.6138 14.3737 10.9076 14.7785 11.1098C15.1834 11.312 15.6297 11.4171 16.0822 11.4167V12.5833C15.4798 12.584 14.8848 12.4511 14.3399 12.1942C13.795 11.9373 13.3139 11.5627 12.9311 11.0976L12.5922 13.0208L13.7489 14.1408V18.4167H12.5822V14.9248L11.3864 13.7658L10.834 16.2729L6.8125 15.5642L7.0155 14.415L9.88783 14.9213L10.7331 10.1275ZM12.8739 8.20833C12.5645 8.20833 12.2678 8.08542 12.049 7.86662C11.8302 7.64783 11.7072 7.35109 11.7072 7.04167C11.7072 6.73225 11.8302 6.4355 12.049 6.21671C12.2678 5.99792 12.5645 5.875 12.8739 5.875C13.1833 5.875 13.4801 5.99792 13.6989 6.21671C13.9177 6.4355 14.0406 6.73225 14.0406 7.04167C14.0406 7.35109 13.9177 7.64783 13.6989 7.86662C13.4801 8.08542 13.1833 8.20833 12.8739 8.20833Z" fill="#E72978"/>
</g>
<defs>
<clipPath id="clip0_729_120661">
<rect width="14" height="14" fill="white" transform="translate(5 5)"/>
</clipPath>
</defs>
</svg>
