<svg width="713" height="308" viewBox="0 0 713 308" fill="none" xmlns="http://www.w3.org/2000/svg">
<path d="M3.24 68.9995H23.688V29.6875H54.72V68.9995H75.096V15.4315H3.24V68.9995ZM126.424 52.2235C146.008 52.2235 151.84 44.0155 151.84 34.2955V33.1435C151.84 23.2795 146.224 15.4315 126.424 15.4315H81.7841V68.9995H102.232V52.2235H126.424ZM102.232 28.8235H123.976C128.8 28.8235 130.744 30.6235 130.744 33.7195V33.9355C130.744 36.8875 128.656 38.8315 123.976 38.8315H102.232V28.8235ZM193.33 14.4235C158.626 14.4235 154.234 30.9115 154.234 40.9915V43.1515C154.234 53.1595 158.626 70.0075 193.33 70.0075H196.57C231.202 70.0075 235.594 53.1595 235.594 43.1515V40.9915C235.594 30.9115 231.13 14.4235 196.57 14.4235H193.33ZM214.426 42.5035C214.426 48.2635 210.754 55.5355 194.914 55.5355C179.074 55.5355 175.402 47.9755 175.402 42.3595V41.4955C175.402 35.8075 178.786 28.8235 194.914 28.8235C210.754 28.8235 214.426 35.8075 214.426 41.4955V42.5035ZM240.269 15.4315V68.9995H300.101V55.6075H260.429V48.2635H298.733V35.2315H260.429V28.5355H299.525V15.4315H240.269ZM351.957 68.9995H378.597L346.413 39.7675L377.589 15.4315H352.173L325.821 36.5995V15.4315H305.373V68.9995H325.821V45.0235L351.957 68.9995ZM401.435 68.9995H421.883V30.0475H444.995V15.4315H378.323V30.0475H401.435V68.9995ZM449.654 68.9995H470.102V48.6235H503.582V68.9995H523.958V15.4315H503.582V34.3675H470.102V15.4315H449.654V68.9995ZM550.891 31.1995V15.4315H530.443V68.9995H573.427C595.099 68.9995 600.499 60.5755 600.499 50.5675V49.4155C600.499 39.4075 595.027 31.1995 573.427 31.1995H550.891ZM550.891 55.6795V44.5195H570.835C577.459 44.5195 579.331 46.8955 579.331 49.9195V50.1355C579.331 53.0155 577.459 55.6795 570.835 55.6795H550.891ZM624.979 15.4315H604.603V68.9995H624.979V15.4315ZM685.414 68.9995H705.862V15.4315H685.414L651.79 49.1275V15.4315H631.342V68.9995H651.79L685.414 35.3755V68.9995ZM670.51 12.6955C683.326 12.6955 686.566 4.27151 686.566 0.45551V0.311508H673.606C673.606 1.17551 673.03 3.83951 669.142 3.83951C665.182 3.83951 664.534 1.17551 664.534 0.311508H651.358V0.45551C651.358 4.27151 653.59 12.6955 667.63 12.6955H670.51ZM40.752 93.4235C6.048 93.4235 1.656 109.912 1.656 119.992V122.152C1.656 132.16 6.048 149.008 40.752 149.008H43.992C78.624 149.008 83.016 132.16 83.016 122.152V119.992C83.016 109.912 78.552 93.4235 43.992 93.4235H40.752ZM61.848 121.504C61.848 127.264 58.176 134.536 42.336 134.536C26.496 134.536 22.824 126.976 22.824 121.36V120.496C22.824 114.808 26.208 107.824 42.336 107.824C58.176 107.824 61.848 114.808 61.848 120.496V121.504ZM126.138 98.6075H112.674C95.7544 98.6075 85.0984 106.168 85.0984 119.56V120.712C85.0984 134.248 95.6104 141.88 112.602 141.88H126.138V148.72H146.586V141.88H160.122C177.114 141.88 187.626 134.248 187.626 120.712V119.56C187.626 106.024 176.97 98.6075 160.05 98.6075H146.586V93.7115H126.138V98.6075ZM146.442 112.144H155.802C163.506 112.144 166.89 115.384 166.89 119.92V120.352C166.89 124.96 163.506 128.344 155.802 128.344H146.442V112.144ZM126.282 112.144V128.344H116.922C109.218 128.344 105.834 124.96 105.834 120.352V119.92C105.834 115.384 109.218 112.144 116.922 112.144H126.282ZM245.82 148H266.268V94.4315H245.82L212.196 128.128V94.4315H191.748V148H212.196L245.82 114.376V148ZM311.844 149.008C344.1 149.008 349.14 133.888 349.14 126.904V125.752H327.972C327.684 126.976 326.1 134.536 310.332 134.536C295.932 134.536 292.332 126.976 292.332 121.216V120.352C292.332 114.376 295.5 107.824 310.26 107.824C325.812 107.824 327.468 114.592 327.9 116.032H349.14V115.096C349.14 108.184 344.388 93.4235 311.844 93.4235H309.036C275.628 93.4235 271.164 109.768 271.164 119.992V122.08C271.164 132.232 276.132 149.008 309.036 149.008H311.844ZM14.472 206.336L22.968 194.096H9.504L0.792 206.336L9.504 218.792H22.824L14.472 206.336ZM31.824 206.336L40.032 194.096H26.64L18.072 206.336L26.424 218.792H39.744L31.824 206.336ZM44.5185 227H64.4625V193.592L83.1825 227H93.6225L112.415 193.592V227H132.647V173.432H105.719L89.0145 203.528L72.5985 173.432H44.5185V227ZM176.455 172.424C141.751 172.424 137.359 188.912 137.359 198.992V201.152C137.359 211.16 141.751 228.008 176.455 228.008H179.695C214.327 228.008 218.719 211.16 218.719 201.152V198.992C218.719 188.912 214.255 172.424 179.695 172.424H176.455ZM197.551 200.504C197.551 206.264 193.879 213.536 178.039 213.536C162.199 213.536 158.527 205.976 158.527 200.36V199.496C158.527 193.808 161.911 186.824 178.039 186.824C193.879 186.824 197.551 193.808 197.551 199.496V200.504ZM269.315 227H289.763V173.432H228.563C228.563 201.296 227.843 207.2 225.827 209.792C224.603 211.448 222.947 211.736 220.067 211.736H218.987V227H225.611C235.403 227 239.939 224.696 242.819 219.872C245.699 215.264 247.139 208.496 247.139 187.184H269.315V227ZM333.744 172.424C299.04 172.424 294.648 188.912 294.648 198.992V201.152C294.648 211.16 299.04 228.008 333.744 228.008H336.984C371.616 228.008 376.008 211.16 376.008 201.152V198.992C376.008 188.912 371.544 172.424 336.984 172.424H333.744ZM354.84 200.504C354.84 206.264 351.168 213.536 335.328 213.536C319.488 213.536 315.816 205.976 315.816 200.36V199.496C315.816 193.808 319.2 186.824 335.328 186.824C351.168 186.824 354.84 193.808 354.84 199.496V200.504ZM375.407 212.744V236.36H394.631V227H437.903V236.36H457.127V212.744H448.487V173.432H386.207C386.207 197.048 385.559 206.84 382.463 212.744H375.407ZM401.399 212.744C403.703 208.208 404.639 198.416 404.639 187.688H428.039V212.744H401.399ZM460.909 173.432V227H520.741V213.608H481.069V206.264H519.373V193.232H481.069V186.536H520.165V173.432H460.909ZM570.581 227H591.029V204.176L613.349 227H639.989L610.253 197.84L638.981 173.432H613.565L591.029 193.376V173.432H570.581V193.376L548.045 173.432H522.485L551.357 197.912L521.765 227H548.261L570.581 204.176V227ZM662.477 189.2V173.432H642.029V227H685.013C706.685 227 712.085 218.576 712.085 208.568V207.416C712.085 197.408 706.613 189.2 685.013 189.2H662.477ZM662.477 213.68V202.52H682.421C689.045 202.52 690.917 204.896 690.917 207.92V208.136C690.917 211.016 689.045 213.68 682.421 213.68H662.477ZM3.456 306H23.4V272.592L42.12 306H52.56L71.352 272.592V306H91.584V252.432H64.656L47.952 282.528L31.536 252.432H3.456V306ZM135.393 251.424C100.689 251.424 96.2966 267.912 96.2966 277.992V280.152C96.2966 290.16 100.689 307.008 135.393 307.008H138.633C173.265 307.008 177.657 290.16 177.657 280.152V277.992C177.657 267.912 173.193 251.424 138.633 251.424H135.393ZM156.489 279.504C156.489 285.264 152.817 292.536 136.977 292.536C121.137 292.536 117.465 284.976 117.465 279.36V278.496C117.465 272.808 120.849 265.824 136.977 265.824C152.817 265.824 156.489 272.808 156.489 278.496V279.504ZM221.211 307.008C253.467 307.008 258.507 291.888 258.507 284.904V283.752H237.339C237.051 284.976 235.467 292.536 219.699 292.536C205.299 292.536 201.699 284.976 201.699 279.216V278.352C201.699 272.376 204.867 265.824 219.627 265.824C235.179 265.824 236.835 272.592 237.267 274.032H258.507V273.096C258.507 266.184 253.755 251.424 221.211 251.424H218.403C184.995 251.424 180.531 267.768 180.531 277.992V280.08C180.531 290.232 185.499 307.008 218.403 307.008H221.211ZM309.347 306H335.987L303.803 276.768L334.979 252.432H309.563L283.211 273.6V252.432H262.763V306H283.211V282.024L309.347 306ZM337.862 306H388.55C406.046 306 411.158 298.944 411.158 290.52V289.656C411.158 280.224 403.598 277.056 398.846 275.904C402.374 275.112 408.062 272.088 408.062 265.392V264.6C408.062 258.48 403.886 252.432 388.262 252.432H337.862V306ZM382.07 264.6C386.318 264.6 387.542 266.184 387.542 268.272V268.416C387.542 270.432 386.318 272.16 382.07 272.16H358.31V264.6H382.07ZM383.366 284.184C388.622 284.184 389.702 286.272 389.702 288.576V288.792C389.702 290.88 388.694 293.4 383.366 293.4H358.31V284.184H383.366ZM435.297 268.2V252.432H414.849V306H457.833C479.505 306 484.905 297.576 484.905 287.568V286.416C484.905 276.408 479.433 268.2 457.833 268.2H435.297ZM435.297 292.68V281.52H455.241C461.865 281.52 463.737 283.896 463.737 286.92V287.136C463.737 290.016 461.865 292.68 455.241 292.68H435.297ZM509.385 252.432H489.009V306H509.385V252.432ZM521.724 285.336L513.804 297.792H527.124L535.476 285.336L526.908 273.096H513.516L521.724 285.336ZM544.044 297.792L552.756 285.336L544.044 273.096H530.58L539.076 285.336L530.724 297.792H544.044Z" fill="white"/>
</svg>
