<svg width="64" height="64" viewBox="0 0 64 64" fill="none" xmlns="http://www.w3.org/2000/svg">
<path fill-rule="evenodd" clip-rule="evenodd" d="M26.3584 2.68725C26.4801 2.66169 26.5993 2.65317 26.7153 2.66081C26.8316 2.66944 26.93 2.68925 27.0101 2.71938C27.09 2.74882 27.1617 2.78081 27.2258 2.81453C27.2895 2.84774 27.3365 2.87729 27.3668 2.90338L27.4139 2.94374L27.1661 3.32284C27.1576 3.31535 27.1464 3.30532 27.1321 3.2923C27.1171 3.27924 27.0864 3.25841 27.0392 3.22893C26.9921 3.19986 26.9423 3.17616 26.89 3.15698C26.8376 3.13842 26.7715 3.12492 26.691 3.11667C26.6105 3.10898 26.5314 3.11358 26.4527 3.13005C26.2364 3.17528 26.0712 3.2854 25.9573 3.46052C25.8424 3.63585 25.8083 3.8303 25.854 4.04506C25.8997 4.26021 26.0105 4.42414 26.1865 4.53812C26.3619 4.65164 26.558 4.68589 26.7743 4.64004C26.8579 4.62225 26.9359 4.59376 27.0079 4.55487C27.08 4.5156 27.1379 4.4755 27.1815 4.43309C27.2255 4.39031 27.2633 4.34895 27.2951 4.30974C27.3273 4.26879 27.349 4.23501 27.3617 4.20803L27.3804 4.16913L27.7453 4.4187C27.7391 4.43329 27.7294 4.4529 27.7162 4.47758C27.7031 4.50201 27.6712 4.54744 27.6219 4.6129C27.5727 4.67874 27.5171 4.73908 27.4564 4.79389C27.3961 4.84863 27.3125 4.9041 27.2074 4.9609C27.1021 5.01836 26.9894 5.05914 26.8688 5.08445C26.516 5.15881 26.1937 5.1038 25.9011 4.92094C25.6089 4.73709 25.4276 4.47993 25.3572 4.14957C25.287 3.81959 25.3479 3.51175 25.5404 3.22677C25.7333 2.94122 26.0056 2.7613 26.3584 2.68725ZM38.1301 61.2302C37.8375 61.0468 37.6557 60.7905 37.5845 60.4598C37.5135 60.1301 37.5739 59.8218 37.7657 59.5367C37.9579 59.2508 38.2299 59.0708 38.582 58.9961C38.9335 58.9208 39.2558 58.9752 39.5488 59.1576C39.8412 59.3397 40.0228 59.5964 40.094 59.9266C40.1651 60.2567 40.1047 60.5652 39.9132 60.8512C39.721 61.1367 39.4492 61.3178 39.0976 61.3923C38.7454 61.467 38.4232 61.4127 38.1301 61.2302ZM35.8606 60.6041L36.5575 59.4951L37.003 59.4452L37.2679 61.781L36.7653 61.8374L36.5888 60.2801L35.9418 61.3209L35.0805 60.4553L35.2562 62.0063L34.752 62.0624L34.4873 59.7266L34.9411 59.6758L35.8606 60.6041ZM34.0884 60.7057L33.6503 60.7317L33.2644 61.3427L33.7211 61.9044L34.1592 61.8783L33.7026 61.3165L34.0884 60.7057ZM33.3645 60.7484L32.9786 61.3599L33.4353 61.9216L32.9973 61.9477L32.5406 61.3854L32.9264 60.7745L33.3645 60.7484ZM55.4665 48.8096L55.1263 47.5462L55.3933 47.1881L57.2919 48.5891L56.9902 48.9929L55.7249 48.0589L56.0489 49.2394L54.8254 49.2756L56.0856 50.2056L55.7832 50.6107L53.8851 49.21L54.1572 48.8452L55.4665 48.8096ZM61.1814 34.451L61.7529 34.8968L61.7729 34.4608L61.2014 34.0151L60.5926 34.4078L60.5731 34.8438L61.1814 34.451ZM61.2137 33.7306L60.6054 34.1234L60.6253 33.6874L61.2337 33.2947L61.8052 33.7403L61.7857 34.1762L61.2137 33.7306ZM61.1506 37.4622L61.2109 37.0299C61.2249 36.9309 61.2046 36.8432 61.1494 36.7677C61.0941 36.6918 61.0191 36.6474 60.9256 36.6344C60.832 36.6213 60.7483 36.6437 60.6743 36.7016C60.5998 36.7592 60.556 36.8377 60.5419 36.9368L60.4811 37.3691L61.1506 37.4622ZM61.6641 37.0767L61.5312 38.0249L59.1904 37.6991L59.26 37.1994L60.0293 37.3064L60.0925 36.8579C60.1259 36.6185 60.2288 36.4306 60.4016 36.2943C60.5746 36.1579 60.7724 36.1052 60.9958 36.1361C61.2186 36.1672 61.3941 36.2719 61.5229 36.4502C61.6506 36.6284 61.6979 36.8372 61.6641 37.0767ZM59.5472 35.1552L61.8882 35.4808L61.8184 35.9795L59.4771 35.6539L59.5472 35.1552ZM59.2829 38.9929L59.169 39.448L59.6619 39.57L59.7754 39.1151C59.7958 39.034 59.7892 38.965 59.7565 38.9072C59.7232 38.8494 59.6693 38.8113 59.5945 38.7928C59.5197 38.7742 59.4548 38.7829 59.3982 38.8185C59.3418 38.8542 59.3035 38.9121 59.2829 38.9929ZM60.6439 39.8133L60.774 39.2932C60.7967 39.2034 60.7865 39.1227 60.7448 39.0501C60.7029 38.9769 60.6404 38.9304 60.5574 38.9097C60.4743 38.8893 60.3969 38.9011 60.3253 38.9461C60.253 38.9906 60.2063 39.0573 60.1836 39.147L60.0535 39.6671L60.6439 39.8133ZM61.1893 39.3708L60.9307 40.4045L58.6368 39.8361L58.882 38.8579C58.9336 38.651 59.0372 38.4949 59.1927 38.39C59.3478 38.2848 59.5062 38.2526 59.6674 38.2925C59.7278 38.3075 59.7839 38.3299 59.8347 38.3609C59.8855 38.3913 59.9254 38.4244 59.9553 38.4599C59.9848 38.4956 60.0091 38.5294 60.0288 38.5619C60.0484 38.5945 60.061 38.62 60.0679 38.6395L60.0768 38.6707C60.0837 38.6614 60.0932 38.6493 60.1053 38.6351C60.118 38.6203 60.1454 38.5953 60.1868 38.5596C60.2295 38.5241 60.2733 38.4945 60.3188 38.4707C60.3649 38.4475 60.4232 38.4297 60.4943 38.419C60.5655 38.4077 60.6385 38.4114 60.7117 38.4297C60.895 38.4749 61.0352 38.5869 61.1307 38.7646C61.2263 38.9427 61.2463 39.1448 61.1893 39.3708ZM58.0759 41.5636L57.9081 42.0398L60.1392 42.8167L60.3069 42.3403L59.669 42.1183L59.4515 41.7231L60.6359 41.4056L60.8307 40.8517L59.2119 41.2833L58.5776 40.1383L58.3827 40.6923L59.0482 41.9021L58.0759 41.5636ZM57.3323 43.3123C57.3801 43.1982 57.4409 43.0962 57.5133 43.0056C57.5869 42.9154 57.6589 42.8457 57.7291 42.7974C57.7994 42.7488 57.8662 42.7082 57.9301 42.6747C57.9942 42.6418 58.0454 42.62 58.0845 42.6101L58.1442 42.5944L58.3174 43.0123C58.3063 43.015 58.2914 43.0185 58.2726 43.0228C58.2534 43.0276 58.219 43.0411 58.1673 43.0629C58.1166 43.0848 58.0686 43.1123 58.0235 43.1444C57.9784 43.1767 57.9295 43.2232 57.8773 43.2844C57.8244 43.3455 57.7835 43.4127 57.7528 43.4867C57.6676 43.6896 57.6645 43.8872 57.7447 44.0799C57.8246 44.273 57.9665 44.4119 58.1696 44.4964C58.374 44.5811 58.5729 44.5835 58.7669 44.5041C58.9605 44.4249 59.1 44.284 59.1852 44.0811C59.218 44.0027 59.239 43.9228 59.2476 43.8414C59.2561 43.7599 59.2556 43.69 59.2453 43.6301C59.2348 43.57 59.2222 43.5158 59.2075 43.467C59.1921 43.4177 59.1768 43.3809 59.1611 43.3551L59.1398 43.3177L59.5539 43.1608C59.562 43.174 59.573 43.1931 59.5856 43.2179C59.5985 43.2425 59.6184 43.2944 59.6442 43.372C59.6709 43.4496 59.6894 43.5293 59.6999 43.6102C59.7111 43.6907 59.7094 43.7905 59.6973 43.909C59.6844 44.0276 59.6547 44.1431 59.6072 44.2561C59.4682 44.5871 59.2396 44.8195 58.9219 44.9551C58.6036 45.0897 58.2881 45.0923 57.9746 44.9622C57.6612 44.8323 57.4409 44.6074 57.3145 44.2882C57.188 43.9683 57.1938 43.6434 57.3323 43.3123ZM57.517 47.5794C57.8462 47.4738 58.0956 47.2636 58.2645 46.9475C58.4333 46.6318 58.469 46.3087 58.3727 45.9784C58.276 45.6482 58.0779 45.404 57.7778 45.2454C57.4778 45.0868 57.1638 45.06 56.8351 45.1651C56.5059 45.2707 56.2575 45.4812 56.0887 45.7967C55.9194 46.113 55.8831 46.4359 55.9793 46.7662C56.0751 47.0958 56.2737 47.3401 56.5732 47.4984C56.8733 47.6571 57.1878 47.6841 57.517 47.5794ZM56.4361 46.587C56.3729 46.3877 56.3911 46.1951 56.4904 46.0094C56.5898 45.8236 56.7399 45.7015 56.9409 45.6419C57.1429 45.5826 57.34 45.6038 57.5325 45.7059C57.7253 45.8077 57.8529 45.9581 57.916 46.1574C57.9781 46.3563 57.9605 46.5485 57.8612 46.7341C57.7618 46.9199 57.6117 47.0426 57.4107 47.1023C57.2093 47.1619 57.0127 47.141 56.82 47.039C56.6272 46.9372 56.4991 46.7865 56.4361 46.587ZM53.0931 52.9724L53.4244 52.6388C53.4953 52.567 53.5314 52.4845 53.5323 52.391C53.5334 52.2978 53.5 52.218 53.4331 52.152C53.3658 52.0859 53.2849 52.054 53.1912 52.0562C53.0968 52.058 53.0145 52.0949 52.9432 52.1665L52.612 52.5001L53.0931 52.9724ZM53.7598 52.9448L53.0599 53.6496L51.3782 51.9977L51.7346 51.6386L52.2871 52.1812L52.6305 51.8358C52.8006 51.6642 52.9964 51.5747 53.2166 51.5677C53.4379 51.561 53.628 51.6362 53.7888 51.7938C53.9488 51.951 54.0266 52.1393 54.022 52.3589C54.0175 52.5778 53.9303 52.7735 53.7598 52.9448ZM50.7458 54.6554L50.4495 54.6154L50.5607 55.8302L50.1058 56.2037L49.952 54.5438L48.6521 54.3487L49.1071 53.9746L50.3258 54.1497L49.7453 53.4508L50.135 53.1307L50.7158 53.8296L50.7731 52.6064L51.2281 52.2325L51.1757 53.5386L52.7858 54.0022L52.3305 54.3757L51.1522 54.0387L51.1359 54.3348L51.6406 54.9428L51.2508 55.263L50.7458 54.6554ZM48.5453 56.7159L48.2454 56.2887L49.0333 55.742L48.7727 55.3708L47.9848 55.9177L47.7138 55.532L48.7235 54.8307L48.4623 54.4587L47.0364 55.4486L48.3899 57.376L49.8438 56.3662L49.5833 55.9953L48.5453 56.7159ZM45.9347 56.9433L45.804 56.7075L46.3509 56.4081L47.0524 57.6721L46.181 58.1504L46.1973 58.0947C46.205 58.0592 46.2097 58.0052 46.2112 57.9338C46.2131 57.8618 46.2083 57.7804 46.1982 57.688C46.1878 57.5966 46.1605 57.4836 46.1159 57.3494C46.0711 57.2154 46.0106 57.0804 45.9347 56.9433ZM45.6195 58.4584L45.7376 58.3936C45.7416 58.3815 45.7459 58.3635 45.7516 58.3388C45.757 58.3135 45.7622 58.2608 45.7665 58.1805C45.7706 58.0998 45.7672 58.0163 45.7554 57.929C45.7443 57.8419 45.7166 57.7305 45.6723 57.5944C45.628 57.4591 45.5672 57.3234 45.4915 57.1864L45.1402 56.5538L46.5737 55.767L47.4958 57.4291L47.7481 57.2906L48.2045 58.1135L47.76 58.3572L47.5234 57.931L46.2822 58.6116L46.5188 59.0382L46.0759 59.2808L45.6195 58.4584ZM43.5189 59.5889C43.843 59.7091 44.1697 59.6978 44.4993 59.554C44.8285 59.41 45.058 59.1785 45.1883 58.8599C45.318 58.5412 45.3145 58.2272 45.1778 57.9176C45.0415 57.6088 44.8113 57.3942 44.4881 57.2745C44.1639 57.1543 43.8373 57.1661 43.5082 57.3099C43.1785 57.4539 42.9487 57.685 42.8184 58.0031C42.6885 58.3211 42.6918 58.6347 42.8283 58.9437C42.9649 59.253 43.195 59.4681 43.5189 59.5889ZM43.2886 58.1439C43.3634 57.9486 43.4976 57.8088 43.6914 57.7244C43.8851 57.6394 44.0789 57.6363 44.2739 57.7135C44.4694 57.7913 44.6108 57.9294 44.6987 58.1281C44.7864 58.3269 44.7928 58.5234 44.718 58.7185C44.643 58.9133 44.5094 59.053 44.3155 59.1374C44.1219 59.2223 43.9277 59.2262 43.7325 59.1488C43.5374 59.0716 43.3961 58.9341 43.3083 58.7353C43.2206 58.5365 43.2142 58.3395 43.2886 58.1439ZM42.0333 58.0236L42.7541 60.2621L42.2719 60.4155L41.6901 58.6093L41.0312 58.8189L41.1137 59.0751C41.2153 59.3908 41.2827 59.6608 41.3171 59.8856C41.3504 60.111 41.3518 60.2913 41.3201 60.4277C41.2884 60.5639 41.2377 60.6688 41.1681 60.7427C41.098 60.8168 41.0054 60.8722 40.8891 60.9093C40.842 60.924 40.7927 60.9347 40.7413 60.9401C40.6902 60.9449 40.6515 60.9474 40.6258 60.9466L40.5826 60.9462L40.4354 60.489C40.4958 60.4926 40.5521 60.4867 40.606 60.4705C40.6895 60.4439 40.7496 60.3971 40.7848 60.3304C40.8206 60.2636 40.8287 60.1399 40.8089 59.9593C40.7899 59.7791 40.7312 59.5363 40.633 59.2315L40.4102 58.54L42.0333 58.0236ZM38.1976 59.7686C38.0849 59.9455 38.0513 60.1399 38.0971 60.352C38.1427 60.564 38.2532 60.7275 38.4287 60.8422C38.6039 60.9564 38.7951 60.9923 39.002 60.9479C39.2089 60.9041 39.3682 60.7941 39.4811 60.6182C39.5939 60.4424 39.6278 60.2486 39.5819 60.0366C39.5362 59.8238 39.4257 59.6605 39.2502 59.5451C39.0747 59.4298 38.884 59.3947 38.6772 59.4386C38.4703 59.4823 38.3105 59.5928 38.1976 59.7686ZM47.0993 22.5039L46.1055 19.5087L45.0446 22.5039H42.4998L44.9775 15.4878H47.1735L49.7404 22.5039H47.0993ZM18.3334 28.7019C20.3861 28.7019 22.0501 30.3658 22.0501 32.4184C22.0501 34.471 20.3861 36.1349 18.3334 36.1349C16.2809 36.1349 14.617 34.471 14.617 32.4184C14.617 30.3658 16.2809 28.7019 18.3334 28.7019ZM18.3334 29.3145C19.1905 29.3145 19.9666 29.6619 20.5283 30.2237C21.09 30.7853 21.4374 31.5615 21.4374 32.4184C21.4374 33.2755 21.09 34.0517 20.5283 34.6132C19.9666 35.175 19.1905 35.5224 18.3334 35.5224C17.4764 35.5224 16.7004 35.175 16.1387 34.6132C15.5769 34.0515 15.2295 33.2755 15.2295 32.4184C15.2295 31.5615 15.5769 30.7853 16.1387 30.2237C16.7004 29.6619 17.4764 29.3145 18.3334 29.3145ZM18.3334 31.8122C18.5007 31.8122 18.6524 31.88 18.7621 31.9898C18.8718 32.0995 18.9396 32.2512 18.9396 32.4184C18.9396 32.5857 18.8718 32.7374 18.7621 32.8471C18.6524 32.9568 18.5007 33.0247 18.3334 33.0247C18.166 33.0247 18.0145 32.9568 17.9048 32.8471C17.7951 32.7374 17.7272 32.5857 17.7272 32.4184C17.7272 32.2512 17.7951 32.0995 17.9048 31.9898C18.0145 31.88 18.166 31.8122 18.3334 31.8122ZM18.3334 30.5267C18.8558 30.5267 19.3287 30.7384 19.6711 31.0809C20.0134 31.4232 20.2253 31.8961 20.2253 32.4184C20.2253 32.9408 20.0134 33.4138 19.6711 33.7561C19.3287 34.0986 18.8558 34.3102 18.3334 34.3102C17.8111 34.3102 17.3382 34.0986 16.9958 33.7561C16.6534 33.4138 16.4417 32.9408 16.4417 32.4184C16.4417 31.8961 16.6534 31.4232 16.9958 31.0809C17.3382 30.7384 17.8111 30.5267 18.3334 30.5267ZM19.2293 31.5226C19 31.2934 18.6832 31.1516 18.3334 31.1516C17.9836 31.1516 17.6668 31.2934 17.4376 31.5226C17.2084 31.7518 17.0666 32.0684 17.0666 32.4184C17.0666 32.7683 17.2084 33.0851 17.4376 33.3143C17.6668 33.5435 17.9836 33.6854 18.3334 33.6854C18.6832 33.6854 19 33.5435 19.2293 33.3143C19.4586 33.0851 19.6004 32.7683 19.6004 32.4184C19.6004 32.0684 19.4586 31.7518 19.2293 31.5226ZM20.0865 30.6655C19.638 30.2169 19.0181 29.9394 18.3334 29.9394C17.6489 29.9394 17.0291 30.2169 16.5805 30.6655C16.1319 31.114 15.8543 31.7338 15.8543 32.4184C15.8543 33.1031 16.1319 33.7229 16.5805 34.1714C17.0291 34.6201 17.6489 34.8975 18.3334 34.8975C19.0181 34.8975 19.638 34.6201 20.0865 34.1714C20.5351 33.7229 20.8126 33.1031 20.8126 32.4184C20.8126 31.7338 20.5351 31.114 20.0865 30.6655ZM31.9558 15.2792C34.0085 15.2792 35.6722 16.9432 35.6722 18.9958C35.6722 21.0485 34.0085 22.7123 31.9558 22.7123C29.9033 22.7123 28.2392 21.0485 28.2392 18.9958C28.2392 16.9432 29.9033 15.2792 31.9558 15.2792ZM31.9558 18.3897C32.1232 18.3897 32.2747 18.4576 32.3844 18.5671C32.494 18.6769 32.562 18.8285 32.562 18.9958C32.562 19.1632 32.494 19.3148 32.3844 19.4245C32.2747 19.5341 32.1232 19.602 31.9558 19.602C31.7885 19.602 31.6369 19.5341 31.5271 19.4245C31.4175 19.3148 31.3497 19.1632 31.3497 18.9958C31.3497 18.8285 31.4175 18.6769 31.5271 18.5671C31.6369 18.4576 31.7885 18.3897 31.9558 18.3897ZM31.9558 15.8917C32.8129 15.8917 33.5889 16.2392 34.1507 16.801C34.7122 17.3627 35.0597 18.1386 35.0597 18.9958C35.0597 19.8529 34.7122 20.6289 34.1507 21.1907C33.5889 21.7523 32.8129 22.0998 31.9558 22.0998C31.0987 22.0998 30.3228 21.7523 29.761 21.1907C29.1992 20.6289 28.8518 19.8529 28.8518 18.9958C28.8518 18.1386 29.1992 17.3627 29.761 16.801C30.3228 16.2392 31.0987 15.8917 31.9558 15.8917ZM33.7089 17.2428C33.2602 16.7941 32.6404 16.5166 31.9558 16.5166C31.2713 16.5166 30.6515 16.7941 30.2028 17.2428C29.7542 17.6915 29.4767 18.3111 29.4767 18.9958C29.4767 19.6805 29.7542 20.3003 30.2028 20.7489C30.6515 21.1975 31.2713 21.475 31.9558 21.475C32.6404 21.475 33.2602 21.1975 33.7089 20.7489C34.1575 20.3003 34.4349 19.6805 34.4349 18.9958C34.4349 18.3111 34.1575 17.6915 33.7089 17.2428ZM31.9558 17.1041C32.4781 17.1041 32.951 17.3159 33.2934 17.6582C33.6358 18.0005 33.8475 18.4734 33.8475 18.9958C33.8475 19.5181 33.6358 19.9911 33.2934 20.3335C32.951 20.6758 32.4781 20.8876 31.9558 20.8876C31.4334 20.8876 30.9605 20.6758 30.6182 20.3335C30.2759 19.9911 30.0641 19.5181 30.0641 18.9958C30.0641 18.4734 30.2759 18.0005 30.6182 17.6582C30.9605 17.3159 31.4334 17.1041 31.9558 17.1041ZM32.8516 18.0999C32.6223 17.8707 32.3056 17.7288 31.9558 17.7288C31.6059 17.7288 31.2891 17.8707 31.0599 18.0999C30.8307 18.3291 30.6888 18.646 30.6888 18.9958C30.6888 19.3457 30.8307 19.6624 31.0599 19.8916C31.2891 20.1209 31.6059 20.2626 31.9558 20.2626C32.3056 20.2626 32.6223 20.1209 32.8516 19.8916C33.0808 19.6624 33.2226 19.3457 33.2226 18.9958C33.2226 18.646 33.0808 18.3291 32.8516 18.0999ZM29.2646 49.3345H32.7076C34.8232 49.3345 35.7912 48.2306 35.7912 46.8134C35.7912 45.3808 34.8683 44.0307 31.695 43.8886V42.2698H29.2646V49.3345ZM31.7176 47.6114L31.7252 45.6496C32.3703 45.6496 33.4206 45.8584 33.4206 46.7685C33.4206 47.4695 32.8353 47.6114 31.7176 47.6114ZM16.435 19.0889V22.5217H14.3262V15.4995L16.4423 15.4699L18.4311 17.6339L20.2093 15.4849L22.3406 15.4995V22.5217H20.2321V19.0889L18.4311 21.2456L16.435 19.0889ZM42.4032 45.8413C42.4032 45.3181 42.4977 44.8276 42.6871 44.37C42.8764 43.9121 43.138 43.513 43.4717 43.1722C43.8057 42.8315 44.1997 42.563 44.6539 42.3669C45.1083 42.1707 45.597 42.0726 46.1202 42.0726C46.6433 42.0726 47.132 42.1707 47.5864 42.3669C48.0406 42.563 48.4347 42.8315 48.7684 43.1722C49.1024 43.513 49.3639 43.9121 49.5532 44.37C49.7426 44.8276 49.837 45.3181 49.837 45.8413C49.837 46.3644 49.7426 46.8549 49.5532 47.3125C49.3639 47.7703 49.1024 48.1695 48.7684 48.5103C48.4347 48.8509 48.0406 49.1194 47.5864 49.3156C47.132 49.5118 46.6433 49.6097 46.1202 49.6097C45.597 49.6097 45.1083 49.5118 44.6539 49.3156C44.1997 49.1194 43.8057 48.8509 43.4717 48.5103C43.138 48.1695 42.8764 47.7703 42.6871 47.3125C42.4977 46.8549 42.4032 46.3644 42.4032 45.8413ZM46.1202 42.7561C46.972 42.7561 47.7434 43.1014 48.3016 43.6598C48.8598 44.218 49.2054 44.9895 49.2054 45.8413C49.2054 46.693 48.8598 47.4644 48.3016 48.0228C47.7434 48.5811 46.972 48.9265 46.1202 48.9265C45.2684 48.9265 44.4969 48.5811 43.9387 48.0228C43.3804 47.4646 43.0349 46.693 43.0349 45.8413C43.0349 44.9894 43.3804 44.218 43.9387 43.6598C44.4969 43.1014 45.2684 42.7561 46.1202 42.7561ZM47.8866 44.0749C47.4345 43.6229 46.81 43.3432 46.1202 43.3432C45.4303 43.3432 44.8057 43.6229 44.3537 44.0749C43.9018 44.5268 43.6222 45.1513 43.6222 45.8413C43.6222 46.5311 43.9018 47.1557 44.3537 47.6078C44.8057 48.0597 45.4303 48.3392 46.1202 48.3392C46.81 48.3392 47.4345 48.0597 47.8866 47.6078C48.3386 47.1557 48.618 46.5311 48.618 45.8413C48.618 45.1513 48.3386 44.5268 47.8866 44.0749ZM47.8755 45.8413L45.2424 47.3615V44.3212L47.8755 45.8413ZM49.1263 34.0157C49.1263 34.5593 49.1338 35.1695 49.1562 35.9217L43.0841 35.9368L43.0917 28.9002L49.1263 28.915V30.6278L45.4949 30.6351V31.3648L48.6471 31.3573V33.1592L45.4949 33.2113L45.4875 34.0006L49.1263 34.0157ZM22.7908 42.3461H20.3134L19.5342 43.2591V42.3143H17.133V43.2591L16.3536 42.3461H13.8758L16.389 45.8413L13.8758 49.3361H16.3536L17.133 48.423V49.3682H19.5342V48.423L20.3134 49.3361H22.7908L20.1209 45.8413L22.7908 42.3461ZM35.9849 35.994C35.9554 35.2314 35.9455 34.6122 35.9455 34.061L34.9939 34.0593L33.0796 28.8277H30.8321L28.9886 34.048L28.0257 34.0458L28.0182 36.0092L35.9849 35.994ZM31.0527 34.0061L32.0033 31.3215L32.8956 34.0097L31.0527 34.0061ZM31.9999 5.55143C33.3021 5.55143 34.5822 5.64597 35.834 5.82783L36.6079 0.923373C35.1039 0.702294 33.5654 0.587154 31.9999 0.587154C24.6442 0.587154 17.8791 3.11577 12.5262 7.3506L13.0858 8.00514L12.9582 8.11299L13.0869 8.00546C13.1848 8.12158 13.2274 8.24874 13.2141 8.38814C13.2006 8.52688 13.1324 8.64724 13.01 8.74956C12.8877 8.85153 12.7566 8.89724 12.6165 8.88667C12.477 8.87547 12.3583 8.81248 12.2604 8.69686L11.7091 8.01908C11.0444 8.58214 10.4032 9.17211 9.78776 9.78771C4.1032 15.4722 0.587153 23.3256 0.587153 32C0.587153 33.8001 0.738954 35.5646 1.02983 37.282L5.91627 36.4017C5.67636 34.9702 5.55134 33.4997 5.55134 32C5.55134 24.6967 8.51171 18.0843 13.2979 13.298C18.0842 8.51181 24.6966 5.55143 31.9999 5.55143ZM12.2638 7.56031L12.8287 8.2213C12.8658 8.26533 12.8819 8.31472 12.8768 8.36894C12.8723 8.42285 12.8475 8.46818 12.8026 8.50537C12.7583 8.54265 12.7089 8.55927 12.6547 8.55374C12.6005 8.5497 12.5547 8.52481 12.5174 8.48089L12.3898 8.58734L12.5169 8.47989L11.9667 7.80343C12.0653 7.72183 12.1642 7.64079 12.2638 7.56031ZM25.0083 5.44199L24.5263 5.59484L24.0703 4.17257L23.4172 5.94699L22.9979 6.08023L22.2803 3.84081L22.7637 3.68734L23.2203 5.1117L23.8728 3.33513L24.2905 3.20258L25.0083 5.44199ZM21.5123 5.76091C21.4565 5.89184 21.3491 5.99635 21.1918 6.07396L20.764 5.08832C20.9284 5.02714 21.0783 5.0206 21.2126 5.07022C21.3474 5.11932 21.4449 5.21427 21.5055 5.35378C21.5663 5.49438 21.5688 5.6295 21.5123 5.76091ZM21.366 6.47574L21.4864 6.75225L21.0215 6.95219L20.9012 6.67513C20.6083 6.7913 20.3314 6.80287 20.0703 6.70963C19.8099 6.61634 19.6266 6.44866 19.5214 6.20641C19.4165 5.96457 19.4193 5.71714 19.5308 5.46433C19.6417 5.21182 19.8403 5.01945 20.1251 4.88805L20.0243 4.65552L20.4892 4.45603L20.5901 4.68803C20.8827 4.57143 21.1601 4.5593 21.4209 4.65201C21.682 4.74484 21.8649 4.91262 21.97 5.15436C22.0753 5.39661 22.0724 5.64451 21.9614 5.89732C21.8507 6.15024 21.6518 6.34318 21.366 6.47574ZM19.9784 5.60028C20.0343 5.46935 20.1412 5.36539 20.299 5.28769L20.7269 6.27344C20.5631 6.33398 20.4135 6.3399 20.2795 6.2908C20.1448 6.24129 20.0472 6.1469 19.9863 6.00639C19.9256 5.86679 19.9228 5.73167 19.9784 5.60028ZM17.5469 8.32102C17.2134 8.23024 16.9646 8.03772 16.8001 7.7416C16.6358 7.44638 16.6038 7.13436 16.7041 6.80615C16.8046 6.47751 17.0123 6.22617 17.3273 6.05273C17.6419 5.87934 17.966 5.83786 18.2997 5.92786C18.6326 6.0177 18.8815 6.21069 19.0456 6.50561C19.2103 6.8013 19.2423 7.11345 19.1426 7.44271C19.0419 7.77187 18.8346 8.02375 18.52 8.19661C18.205 8.37 17.8804 8.411 17.5469 8.32102ZM17.1851 6.90314C17.2417 6.70189 17.3626 6.55031 17.5477 6.44844C17.7328 6.34664 17.9256 6.32588 18.127 6.38477C18.3287 6.44462 18.482 6.56928 18.5878 6.75915C18.6935 6.94917 18.7177 7.14436 18.6613 7.3452C18.6043 7.54594 18.4841 7.69716 18.2989 7.79931C18.1139 7.90123 17.9205 7.92246 17.7193 7.86369C17.5178 7.80429 17.3647 7.68069 17.259 7.49068C17.1534 7.30075 17.1289 7.10498 17.1851 6.90314ZM15.5158 10.0755L15.1282 10.3989L14.1633 9.25536L14.2362 11.1434L13.8992 11.4247L12.3802 9.6241L12.769 9.29954L13.7352 10.4453L13.661 8.55558L13.9968 8.27548L15.5158 10.0755ZM11.5551 13.065L11.0735 12.594L11.3814 12.2825C11.452 12.2113 11.5344 12.174 11.6288 12.1723C11.723 12.1693 11.8036 12.201 11.8711 12.2673C11.9384 12.333 11.9716 12.4128 11.9706 12.5068C11.9697 12.6 11.9336 12.6825 11.8631 12.7537L11.5551 13.065ZM12.1988 13.0595L11.5237 13.7421L9.83893 12.0941L10.1948 11.7343L10.7483 12.2757L11.0675 11.953C11.2382 11.7806 11.4334 11.6905 11.6539 11.6833C11.8746 11.6762 12.0651 11.7511 12.2257 11.9085C12.3861 12.0652 12.4644 12.2534 12.4607 12.4727C12.4564 12.6917 12.3694 12.8873 12.1988 13.0595ZM11.6506 10.2627L13.3354 11.9103L12.9802 12.2695L11.2955 10.6218L11.6506 10.2627ZM9.22056 12.8396L11.0557 14.3206L10.7365 14.7115L9.98922 14.1086L9.35117 14.8903L10.0985 15.4935L9.77869 15.8854L7.94352 14.4045L8.26337 14.0125L8.99776 14.6051L9.63569 13.8233L8.90134 13.2308L9.22056 12.8396ZM6.51034 16.5539L7.53725 15.0158L7.91742 15.2667L7.54446 15.8253L9.13319 16.8742L8.85303 17.2938L7.2643 16.245L6.89037 16.8047L6.51034 16.5539ZM5.53464 18.3131L6.44348 18.795L5.97146 17.4982L6.24928 16.9803L6.70021 18.208L8.36659 18.0266L8.08883 18.5446L6.86973 18.679L7.02375 19.1024L7.61996 19.4186L7.38132 19.864L5.29579 18.7584L5.53464 18.3131ZM6.19233 21.3906L6.67678 20.2272L7.09723 20.4003L6.41869 22.0299L4.23485 21.1313L4.90037 19.5332L5.32198 19.7068L4.85065 20.8386L5.28794 21.0183L5.6557 20.1353L6.07609 20.3084L5.70829 21.1915L6.19233 21.3906ZM5.22342 24.5818C4.92072 24.7478 4.60704 24.7819 4.28176 24.6839C3.95715 24.5861 3.71525 24.3845 3.55707 24.0797C3.39858 23.7742 3.37156 23.4502 3.47614 23.1077C3.58041 22.7655 3.7838 22.5109 4.08619 22.3442C4.3879 22.1778 4.70164 22.1436 5.02629 22.2415C5.35168 22.3394 5.59342 22.5409 5.75274 22.8459C5.91128 23.1516 5.93882 23.4757 5.83436 23.8178C5.72988 24.1606 5.52601 24.4149 5.22342 24.5818ZM3.97033 23.8161C3.86981 23.6325 3.85027 23.4402 3.91166 23.2388C3.97299 23.0373 4.09665 22.8886 4.28264 22.7914C4.4691 22.6946 4.66655 22.6773 4.87543 22.7405C5.08443 22.8033 5.23842 22.9263 5.33897 23.1097C5.439 23.2929 5.45855 23.4849 5.39722 23.6863C5.33583 23.8875 5.21213 24.0367 5.02676 24.1342C4.84071 24.2314 4.64386 24.2486 4.4349 24.1858C4.22602 24.1228 4.07134 23.9997 3.97033 23.8161ZM3.24183 25.9351C3.26124 25.8364 3.30971 25.7602 3.38752 25.7071C3.46437 25.6538 3.54941 25.6362 3.6421 25.6543C3.73498 25.6725 3.8062 25.7208 3.85713 25.7991C3.90753 25.8775 3.92305 25.9661 3.90355 26.0648L3.81221 26.5248L3.15038 26.3953L3.24183 25.9351ZM2.60455 26.8026L2.79744 25.8309C2.84427 25.5945 2.9578 25.4124 3.13846 25.2857C3.3185 25.1586 3.51891 25.1168 3.73916 25.1601C3.96002 25.2034 4.12943 25.3174 4.24756 25.5021C4.36624 25.6867 4.40166 25.8983 4.35458 26.1361L4.25984 26.6127L5.02164 26.7619L4.9234 27.2571L2.60455 26.8026ZM2.40762 27.7619L4.76072 27.9828L4.71308 28.4836L2.81427 28.3054L2.72026 29.2914L4.61912 29.4695L4.57116 29.972L2.21814 29.7512L2.40762 27.7619ZM1.13278 37.8577C2.32596 44.1835 5.41511 49.8395 9.78774 54.2123C14.3146 58.7391 20.2169 61.8909 26.814 62.9868L27.1603 60.7927C21.1383 59.7808 15.7488 56.9474 11.5796 52.8677C7.41066 48.7885 4.46137 43.4622 3.31918 37.4638L1.13278 37.8577ZM3.89487 37.3602L6.01914 36.9775C7.02988 42.2851 9.62674 47.0308 13.2979 50.7019C17.0991 54.5031 22.0521 57.1524 27.5881 58.082L27.2515 60.2149C21.3536 59.2231 16.0746 56.4471 11.99 52.4503C7.90508 48.4532 5.01494 43.2354 3.89487 37.3602ZM57.9807 27.0228C56.97 21.7151 54.3732 16.9694 50.702 13.298C46.9009 9.49693 41.9479 6.84773 36.4119 5.91809L36.7485 3.78522C42.6464 4.77718 47.9255 7.55305 52.01 11.5499C56.0948 15.547 58.9851 20.765 60.105 26.6401L57.9807 27.0228ZM60.6807 26.5364L62.8672 26.1425C61.6741 19.8166 58.5849 14.1604 54.2122 9.78771C49.6854 5.26087 43.783 2.10921 37.1859 1.0133L36.8396 3.20753C42.8616 4.21927 48.2511 7.05279 52.4205 11.1325C56.5892 15.2117 59.5386 20.5381 60.6807 26.5364ZM62.9701 26.7184C63.2609 28.4356 63.4128 30.2001 63.4128 32C63.4128 40.6745 59.8968 48.5277 54.2122 54.2123C48.5277 59.8968 40.6744 63.413 31.9999 63.413C30.4345 63.413 28.896 63.2978 27.392 63.0767L28.1659 58.1723C29.4178 58.3541 30.6979 58.4487 31.9999 58.4487C39.3033 58.4487 45.9157 55.4882 50.702 50.7019C55.4882 45.9158 58.4485 39.3034 58.4485 32C58.4485 30.5004 58.3235 29.0301 58.0837 27.5986L62.9701 26.7184ZM31.9999 0C23.1634 0 15.1634 3.58187 9.37272 9.37269C3.58171 15.1636 0 23.1635 0 32C0 40.8364 3.58171 48.8365 9.37272 54.6274C15.1634 60.4182 23.1634 64 31.9999 64C40.8364 64 48.8365 60.4182 54.6273 54.6274C60.4182 48.8365 64 40.8364 64 32C64 23.1635 60.4182 15.1636 54.6273 9.37269C48.8365 3.58187 40.8364 0 31.9999 0ZM50.2867 13.7131C54.9668 18.3931 57.8614 24.8585 57.8614 32C57.8614 39.1416 54.9668 45.607 50.2867 50.2869C45.607 54.9668 39.1415 57.8615 31.9999 57.8615C24.8585 57.8615 18.393 54.9668 13.7131 50.2869C9.03311 45.607 6.13847 39.1416 6.13847 32C6.13847 24.8585 9.03311 18.3931 13.7131 13.7131C18.393 9.03319 24.8585 6.13853 31.9999 6.13853C39.1415 6.13853 45.607 9.03319 50.2867 13.7131Z" fill="white"/>
</svg>
