<svg width="1200" height="515" viewBox="0 0 1200 515" fill="none" xmlns="http://www.w3.org/2000/svg">
<path d="M580.992 260.434C580.918 314.56 567.901 367.885 543.027 415.957C518.153 464.03 482.143 505.457 438.002 536.783C393.861 568.108 342.869 588.423 289.279 596.033C235.69 603.643 181.058 598.326 129.942 580.528L193.823 397.063C215.684 404.675 239.048 406.948 261.967 403.694C284.885 400.439 306.693 391.751 325.571 378.354C344.449 364.957 359.849 347.24 370.487 326.681C381.125 306.122 386.692 283.316 386.723 260.168L580.992 260.434Z" fill="#493BA8"/>
<path d="M-96.5981 256.389C-96.5241 202.262 -83.507 148.938 -58.633 100.865C-33.759 52.7922 2.25075 11.3649 46.3918 -19.9603C90.5328 -51.2857 141.525 -71.6007 195.114 -79.2105C248.703 -86.8203 303.335 -81.5042 354.452 -63.7057L290.571 119.759C268.71 112.147 245.345 109.874 222.427 113.128C199.508 116.383 177.701 125.071 158.823 138.468C139.945 151.865 124.545 169.582 113.907 190.141C103.269 210.701 97.7018 233.506 97.6702 256.654L-96.5981 256.389Z" fill="#493BA8"/>
<path d="M699.426 -81.2518C699.352 -27.1251 686.335 26.199 661.461 74.2718C636.587 122.344 600.577 163.772 556.436 195.097C512.295 226.422 461.303 246.737 407.714 254.347C354.125 261.957 299.493 256.641 248.376 238.842L312.257 55.3774C334.118 62.9893 357.483 65.2628 380.401 62.0083C403.32 58.7538 425.128 50.0657 444.005 36.6688C462.883 23.2719 478.284 5.55468 488.921 -15.0046C499.559 -35.5639 505.126 -58.3691 505.158 -81.5174L699.426 -81.2518Z" fill="#493BA8"/>
<path d="M-215.039 598.074C-214.965 543.947 -201.948 490.623 -177.074 442.55C-152.2 394.478 -116.191 353.05 -72.0496 321.725C-27.9086 290.4 23.0837 270.085 76.6728 262.475C130.262 254.865 184.894 260.181 236.011 277.98L172.13 461.445C150.268 453.833 126.904 451.559 103.985 454.814C81.067 458.068 59.2591 466.757 40.3813 480.153C21.5035 493.55 6.10323 511.268 -4.53468 531.827C-15.1726 552.386 -20.7396 575.191 -20.7712 598.34L-215.039 598.074Z" fill="#493BA8"/>
<path d="M620.621 259.641C620.695 205.515 633.712 152.191 658.586 104.118C683.46 56.0451 719.469 14.6179 763.61 -16.7074C807.751 -48.0327 858.744 -68.3478 912.333 -75.9576C965.922 -83.5674 1020.55 -78.2513 1071.67 -60.4528L1007.79 123.012C985.929 115.4 962.564 113.127 939.646 116.381C916.727 119.636 894.919 128.324 876.041 141.721C857.164 155.118 841.763 172.835 831.125 193.394C820.488 213.954 814.921 236.759 814.889 259.907L620.621 259.641Z" fill="#493BA8"/>
<path d="M1298.22 263.686C1298.14 317.812 1285.12 371.137 1260.25 419.209C1235.38 467.282 1199.37 508.709 1155.23 540.035C1111.08 571.36 1060.09 591.675 1006.5 599.285C952.914 606.895 898.282 601.578 847.165 583.78L911.046 400.315C932.907 407.927 956.272 410.2 979.19 406.946C1002.11 403.691 1023.92 395.003 1042.79 381.606C1061.67 368.209 1077.07 350.492 1087.71 329.933C1098.35 309.374 1103.92 286.568 1103.95 263.42L1298.22 263.686Z" fill="#493BA8"/>
<path d="M502.194 601.326C502.268 547.199 515.285 493.875 540.159 445.802C565.033 397.73 601.043 356.302 645.184 324.977C689.325 293.652 740.317 273.337 793.906 265.727C847.495 258.117 902.127 263.433 953.244 281.232L889.363 464.697C867.502 457.085 844.137 454.811 821.219 458.066C798.3 461.32 776.492 470.009 757.615 483.405C738.737 496.802 723.337 514.52 712.699 535.079C702.061 555.638 696.494 578.443 696.462 601.592L502.194 601.326Z" fill="#493BA8"/>
<path d="M1416.65 -77.9989C1416.58 -23.8722 1403.56 29.452 1378.68 77.5247C1353.81 125.597 1317.8 167.025 1273.66 198.35C1229.52 229.675 1178.53 249.99 1124.94 257.6C1071.35 265.21 1016.72 259.894 965.6 242.095L1029.48 58.6303C1051.34 66.2422 1074.71 68.5157 1097.62 65.2612C1120.54 62.0067 1142.35 53.3186 1161.23 39.9217C1180.11 26.5248 1195.51 8.80763 1206.15 -11.7517C1216.78 -32.3109 1222.35 -55.1161 1222.38 -78.2645L1416.65 -77.9989Z" fill="#493BA8"/>
</svg>
