<svg width="16" height="16" viewBox="0 0 16 16" fill="none" xmlns="http://www.w3.org/2000/svg">
<path d="M0.5 7.6665H15.5V14.4165C15.5 14.6154 15.421 14.8062 15.2803 14.9468C15.1397 15.0875 14.9489 15.1665 14.75 15.1665H1.25C1.05109 15.1665 0.860322 15.0875 0.71967 14.9468C0.579018 14.8062 0.5 14.6154 0.5 14.4165V7.6665ZM11.75 1.6665H14.75C14.9489 1.6665 15.1397 1.74552 15.2803 1.88617C15.421 2.02683 15.5 2.21759 15.5 2.4165V6.1665H0.5V2.4165C0.5 2.21759 0.579018 2.02683 0.71967 1.88617C0.860322 1.74552 1.05109 1.6665 1.25 1.6665H4.25V0.166504H5.75V1.6665H10.25V0.166504H11.75V1.6665Z" fill="#1F1F1F"/>
</svg>
