<svg width="1280" height="357" viewBox="0 0 1280 357" fill="none" xmlns="http://www.w3.org/2000/svg">
<path d="M-95.5189 352.873C-95.4805 324.794 -88.7277 297.131 -75.824 272.193C-62.9202 247.254 -44.2397 225.763 -21.3409 209.513C1.55781 193.262 28.0108 182.724 55.8109 178.776C83.611 174.828 111.952 177.586 138.47 186.819L105.33 281.994C93.9896 278.046 81.869 276.866 69.9797 278.554C58.0904 280.243 46.7773 284.75 36.9842 291.7C27.191 298.65 19.2019 307.841 13.6834 318.506C8.16483 329.171 5.27687 341.002 5.26045 353.01L-95.5189 352.873Z" fill="#E72978"/>
<path d="M-34.5189 176.744C-34.4805 148.665 -27.7277 121.002 -14.824 96.0637C-1.92025 71.1254 16.7603 49.6344 39.6591 33.384C62.5578 17.1335 89.0108 6.59482 116.811 2.64713C144.611 -1.30057 172.952 1.45722 199.47 10.6904L166.33 105.865C154.99 101.917 142.869 100.737 130.98 102.426C119.09 104.114 107.777 108.621 97.9842 115.571C88.191 122.521 80.2019 131.712 74.6834 142.377C69.1648 153.043 66.2769 164.873 66.2604 176.882L-34.5189 176.744Z" fill="#E72978"/>
<path d="M1024.32 353.599C1024.36 325.52 1031.11 297.858 1044.02 272.919C1056.92 247.981 1075.6 226.49 1098.5 210.239C1121.4 193.989 1147.85 183.45 1175.65 179.503C1203.45 175.555 1231.79 178.313 1258.31 187.546L1225.17 282.721C1213.83 278.772 1201.71 277.593 1189.82 279.281C1177.93 280.969 1166.62 285.476 1156.82 292.426C1147.03 299.376 1139.04 308.567 1133.52 319.233C1128 329.898 1125.12 341.728 1125.1 353.737L1024.32 353.599Z" fill="#E72978"/>
<path d="M1085.32 177.466C1085.36 149.387 1092.11 121.725 1105.02 96.7864C1117.92 71.848 1136.6 50.3571 1159.5 34.1066C1182.4 17.8562 1208.85 7.31748 1236.65 3.36978C1264.45 -0.577915 1292.79 2.17987 1319.31 11.4131L1286.17 106.588C1274.83 102.639 1262.71 101.46 1250.82 103.148C1238.93 104.837 1227.62 109.344 1217.82 116.293C1208.03 123.243 1200.04 132.434 1194.52 143.1C1189 153.765 1186.12 165.596 1186.1 177.604L1085.32 177.466Z" fill="#E72978"/>
<path d="M277.872 353.923C277.91 325.844 284.663 298.182 297.567 273.243C310.47 248.305 329.151 226.814 352.05 210.564C374.949 194.313 401.401 183.775 429.202 179.827C457.002 175.879 485.343 178.637 511.86 187.87L478.721 283.045C467.38 279.096 455.26 277.917 443.37 279.605C431.481 281.294 420.168 285.801 410.375 292.751C400.582 299.7 392.593 308.891 387.074 319.557C381.556 330.222 378.668 342.053 378.651 354.061L277.872 353.923Z" fill="#E72978"/>
<path d="M338.872 177.795C338.91 149.716 345.663 122.053 358.567 97.1145C371.47 72.1761 390.151 50.6852 413.05 34.4348C435.949 18.1843 462.401 7.64563 490.202 3.69794C518.002 -0.249754 546.343 2.50804 572.86 11.7412L539.721 106.916C528.38 102.968 516.26 101.788 504.37 103.476C492.481 105.165 481.168 109.672 471.375 116.622C461.582 123.571 453.593 132.762 448.074 143.428C442.556 154.093 439.668 165.924 439.651 177.932L338.872 177.795Z" fill="#E72978"/>
<path d="M690.82 178.768C690.781 206.847 684.029 234.51 671.125 259.448C658.221 284.386 639.54 305.877 616.642 322.128C593.743 338.378 567.29 348.917 539.49 352.865C511.69 356.812 483.349 354.055 456.831 344.821L489.97 249.646C501.311 253.595 513.432 254.774 525.321 253.086C537.21 251.398 548.523 246.891 558.317 239.941C568.11 232.991 576.099 223.8 581.617 213.135C587.136 202.469 590.024 190.639 590.04 178.63L690.82 178.768Z" fill="#E72978"/>
<path d="M1437.27 178.44C1437.23 206.519 1430.48 234.181 1417.58 259.12C1404.67 284.058 1385.99 305.549 1363.09 321.8C1340.2 338.05 1313.74 348.589 1285.94 352.536C1258.14 356.484 1229.8 353.726 1203.28 344.493L1236.42 249.318C1247.76 253.267 1259.88 254.446 1271.77 252.758C1283.66 251.07 1294.98 246.563 1304.77 239.613C1314.56 232.663 1322.55 223.472 1328.07 212.806C1333.59 202.141 1336.48 190.311 1336.49 178.302L1437.27 178.44Z" fill="#E72978"/>
<path d="M752.097 2.44373C752.059 30.5227 745.306 58.1854 732.402 83.1238C719.498 108.062 700.818 129.553 677.919 145.804C655.02 162.054 628.567 172.593 600.767 176.54C572.967 180.488 544.626 177.73 518.109 168.497L551.248 73.322C562.588 77.2708 574.709 78.4502 586.598 76.7619C598.488 75.0736 609.801 70.5665 619.594 63.6167C629.387 56.6668 637.376 47.4758 642.895 36.8104C648.413 26.145 651.301 14.3145 651.318 2.30594L752.097 2.44373Z" fill="#E72978"/>
<path d="M1498.55 2.1156C1498.51 30.1946 1491.76 57.8572 1478.85 82.7956C1465.95 107.734 1447.27 129.225 1424.37 145.475C1401.47 161.726 1375.02 172.265 1347.22 176.212C1319.42 180.16 1291.08 177.402 1264.56 168.169L1297.7 72.9939C1309.04 76.9427 1321.16 78.1221 1333.05 76.4338C1344.94 74.7455 1356.25 70.2384 1366.04 63.2885C1375.84 56.3387 1383.83 47.1477 1389.34 36.4823C1394.86 25.8168 1397.75 13.9863 1397.77 1.97781L1498.55 2.1156Z" fill="#E72978"/>
<path d="M649.942 355.611C649.98 327.532 656.733 299.869 669.637 274.931C682.541 249.993 701.221 228.502 724.12 212.251C747.019 196.001 773.472 185.462 801.272 181.514C829.072 177.567 857.413 180.324 883.931 189.558L850.791 284.733C839.451 280.784 827.33 279.604 815.441 281.293C803.551 282.981 792.238 287.488 782.445 294.438C772.652 301.388 764.663 310.579 759.144 321.244C753.626 331.91 750.738 343.74 750.721 355.749L649.942 355.611Z" fill="#E72978"/>
<path d="M710.942 179.478C710.98 151.399 717.733 123.737 730.637 98.7981C743.541 73.8597 762.221 52.3688 785.12 36.1183C808.019 19.8679 834.472 9.3292 862.272 5.3815C890.072 1.4338 918.413 4.19159 944.931 13.4248L911.791 108.6C900.451 104.651 888.33 103.472 876.441 105.16C864.551 106.848 853.238 111.355 843.445 118.305C833.652 125.255 825.663 134.446 820.144 145.111C814.626 155.777 811.738 167.607 811.721 179.616L710.942 179.478Z" fill="#E72978"/>
<path d="M1062.89 180.455C1062.85 208.534 1056.1 236.197 1043.2 261.135C1030.29 286.074 1011.61 307.565 988.712 323.815C965.813 340.066 939.36 350.604 911.56 354.552C883.76 358.5 855.419 355.742 828.901 346.509L862.041 251.334C873.381 255.282 885.502 256.462 897.391 254.774C909.281 253.085 920.594 248.578 930.387 241.628C940.18 234.679 948.169 225.488 953.688 214.822C959.206 204.157 962.094 192.326 962.111 180.318L1062.89 180.455Z" fill="#E72978"/>
<path d="M1124.17 4.13514C1124.13 32.2141 1117.38 59.8768 1104.47 84.8152C1091.57 109.754 1072.89 131.244 1049.99 147.495C1027.09 163.745 1000.64 174.284 972.838 178.232C945.037 182.179 916.696 179.422 890.179 170.188L923.318 75.0134C934.659 78.9622 946.779 80.1416 958.669 78.4533C970.558 76.765 981.871 72.2579 991.664 65.3081C1001.46 58.3582 1009.45 49.1672 1014.97 38.5018C1020.48 27.8364 1023.37 16.0059 1023.39 3.99734L1124.17 4.13514Z" fill="#E72978"/>
<path d="M317.722 178.147C317.684 206.226 310.931 233.888 298.027 258.827C285.123 283.765 266.443 305.256 243.544 321.507C220.645 337.757 194.192 348.296 166.392 352.243C138.592 356.191 110.251 353.433 83.7335 344.2L116.873 249.025C128.213 252.974 140.334 254.153 152.223 252.465C164.113 250.777 175.426 246.27 185.219 239.32C195.012 232.37 203.001 223.179 208.52 212.514C214.038 201.848 216.926 190.018 216.943 178.009L317.722 178.147Z" fill="#E72978"/>
<path d="M381.113 2.44373C381.074 30.5227 374.321 58.1854 361.418 83.1237C348.514 108.062 329.833 129.553 306.935 145.804C284.036 162.054 257.583 172.593 229.783 176.54C201.983 180.488 173.642 177.73 147.124 168.497L180.263 73.322C191.604 77.2708 203.725 78.4502 215.614 76.7619C227.503 75.0736 238.816 70.5665 248.61 63.6167C258.403 56.6668 266.392 47.4758 271.91 36.8104C277.429 26.145 280.317 14.3145 280.333 2.30594L381.113 2.44373Z" fill="#E72978"/>
</svg>
