<svg width="16" height="15" viewBox="0 0 16 15" fill="none" xmlns="http://www.w3.org/2000/svg">
<path d="M11.3333 11.6667V10.8333H8.83333V8.33333H11.3333V10H13V11.6667H12.1667V13.3333H10.5V15H8.83333V12.5H10.5V11.6667H11.3333ZM15.5 15H12.1667V13.3333H13.8333V11.6667H15.5V15ZM0.5 0H7.16667V6.66667H0.5V0ZM8.83333 0H15.5V6.66667H8.83333V0ZM0.5 8.33333H7.16667V15H0.5V8.33333ZM13 8.33333H15.5V10H13V8.33333ZM3 2.5V4.16667H4.66667V2.5H3ZM3 10.8333V12.5H4.66667V10.8333H3ZM11.3333 2.5V4.16667H13V2.5H11.3333Z" fill="#332784"/>
</svg>
