<svg width="40" height="40" viewBox="0 0 40 40" fill="none" xmlns="http://www.w3.org/2000/svg">
<path fill-rule="evenodd" clip-rule="evenodd" d="M32.961 32.963C36.2787 29.6453 38.3307 25.062 38.3307 19.9993C38.3307 9.87413 30.1226 1.66602 19.9974 1.66602C9.87217 1.66602 1.66406 9.87413 1.66406 19.9993C1.66406 25.588 4.16468 30.5926 8.10806 33.9553C11.3091 36.6849 15.4608 38.3327 19.9974 38.3327C24.5331 38.3327 28.6841 36.6855 31.8849 33.9568C32.2567 33.6398 32.6157 33.3083 32.961 32.963ZM8.59765 32.3852C10.3692 27.8195 14.8047 24.5827 19.9963 24.5827C25.1884 24.5827 29.6244 27.8202 31.3955 32.3867C34.7371 29.3104 36.8307 24.8994 36.8307 19.9993C36.8307 10.7026 29.2942 3.16602 19.9974 3.16602C10.7006 3.16602 3.16406 10.7026 3.16406 19.9993C3.16406 24.8986 5.25704 29.309 8.59765 32.3852ZM26.1096 16.9438C26.1096 20.3189 23.3736 23.0549 19.9985 23.0549C16.6234 23.0549 13.8874 20.3189 13.8874 16.9438C13.8874 13.5687 16.6234 10.8327 19.9985 10.8327C23.3736 10.8327 26.1096 13.5687 26.1096 16.9438Z" fill="white" fill-opacity="0.5"/>
</svg>
