<svg width="20" height="20" viewBox="0 0 20 20" fill="none" xmlns="http://www.w3.org/2000/svg">
<rect width="20" height="20" rx="10" fill="#DA4545"/>
<path d="M10.6507 12.1159H9.58301L9.31608 5.24744H10.9176L10.6507 12.1159ZM9.51139 14.4597C9.33778 14.2861 9.25098 14.0842 9.25098 13.8542C9.25098 13.6198 9.33778 13.4158 9.51139 13.2422C9.685 13.0686 9.88683 12.9818 10.1169 12.9818C10.3469 12.9818 10.5487 13.0686 10.7223 13.2422C10.8959 13.4158 10.9827 13.6198 10.9827 13.8542C10.9827 14.0842 10.8959 14.2861 10.7223 14.4597C10.5487 14.6289 10.3469 14.7136 10.1169 14.7136C9.88683 14.7136 9.685 14.6289 9.51139 14.4597Z" fill="white"/>
</svg>
