<?xml version="1.0" encoding="UTF-8" standalone="no"?>
<!-- Created with Inkscape (http://www.inkscape.org/) -->

<svg
   version="1.1"
   id="svg2"
   width="1590.6667"
   height="1440"
   viewBox="0 0 1590.6667 1440"
   sodipodi:docname="Лого Благсервис (3).ai"
   xmlns:inkscape="http://www.inkscape.org/namespaces/inkscape"
   xmlns:sodipodi="http://sodipodi.sourceforge.net/DTD/sodipodi-0.dtd"
   xmlns="http://www.w3.org/2000/svg"
   xmlns:svg="http://www.w3.org/2000/svg">
  <defs
     id="defs6">
    <clipPath
       clipPathUnits="userSpaceOnUse"
       id="clipPath16">
      <path
         d="M 0,1080 H 1193 V 0 H 0 Z"
         id="path14" />
    </clipPath>
  </defs>
  <sodipodi:namedview
     id="namedview4"
     pagecolor="#ffffff"
     bordercolor="#000000"
     borderopacity="0.25"
     inkscape:showpageshadow="2"
     inkscape:pageopacity="0.0"
     inkscape:pagecheckerboard="0"
     inkscape:deskcolor="#d1d1d1" />
  <g
     id="g8"
     inkscape:groupmode="layer"
     inkscape:label="Лого Благсервис (3)"
     transform="matrix(1.3333333,0,0,-1.3333333,0,1440)">
    <g
       id="g10">
      <g
         id="g12"
         clip-path="url(#clipPath16)">
        <g
           id="g18"
           transform="translate(164.073,210.365)">
          <path
             d="m 0,0 v 76.619 h 11.279 c 2.388,0 3.957,-1.122 4.707,-3.358 l 1.195,-5.679 c 1.338,1.497 2.75,2.863 4.218,4.109 1.467,1.245 3.036,2.311 4.707,3.21 1.66,0.891 3.453,1.605 5.375,2.131 1.915,0.517 4.017,0.784 6.305,0.784 4.829,0 8.802,-1.31 11.912,-3.923 3.116,-2.612 5.442,-6.088 6.988,-10.42 1.196,2.539 2.684,4.719 4.476,6.532 1.793,1.824 3.758,3.3 5.904,4.449 2.137,1.146 4.417,1.989 6.829,2.534 2.418,0.553 4.842,0.828 7.282,0.828 4.233,0 7.99,-0.648 11.279,-1.942 3.283,-1.299 6.045,-3.189 8.292,-5.681 2.237,-2.491 3.943,-5.526 5.108,-9.112 1.174,-3.583 1.757,-7.685 1.757,-12.319 V 0 H 89.167 v 48.762 c 0,4.877 -1.074,8.548 -3.209,11.017 -2.138,2.462 -5.276,3.694 -9.407,3.694 -1.894,0 -3.649,-0.325 -5.269,-0.965 C 69.663,61.852 68.243,60.924 67.028,59.7 65.806,58.483 64.849,56.951 64.151,55.11 63.452,53.266 63.107,51.15 63.107,48.762 V 0 h -18.52 v 48.762 c 0,5.131 -1.036,8.858 -3.102,11.204 -2.064,2.339 -5.116,3.507 -9.148,3.507 -2.64,0 -5.116,-0.655 -7.427,-1.98 -2.318,-1.319 -4.468,-3.124 -6.461,-5.413 l 0,-56.08 z"
             style="fill:#e72525;fill-opacity:1;fill-rule:nonzero;stroke:none"
             id="path20" />
        </g>
        <g
           id="g22"
           transform="translate(322.5427,288.1807)">
          <path
             d="m 0,0 c 5.728,0 10.918,-0.93 15.574,-2.763 4.656,-1.843 8.622,-4.455 11.91,-7.845 3.283,-3.384 5.823,-7.516 7.615,-12.395 1.792,-4.877 2.691,-10.334 2.691,-16.359 0,-6.073 -0.899,-11.55 -2.691,-16.422 -1.792,-4.88 -4.332,-9.042 -7.615,-12.475 -3.288,-3.44 -7.254,-6.073 -11.91,-7.916 -4.656,-1.844 -9.846,-2.763 -15.574,-2.763 -5.723,0 -10.926,0.919 -15.605,2.763 -4.684,1.843 -8.679,4.476 -11.989,7.916 -3.311,3.433 -5.873,7.595 -7.688,12.475 -1.82,4.872 -2.727,10.349 -2.727,16.422 0,6.025 0.907,11.482 2.727,16.359 1.815,4.879 4.377,9.011 7.688,12.395 3.31,3.39 7.305,6.002 11.989,7.845 C -10.926,-0.93 -5.723,0 0,0 m 0,-64.752 v 0 c 6.375,0 11.09,2.143 14.155,6.427 3.059,4.283 4.592,10.551 4.592,18.821 0,8.261 -1.533,14.559 -4.592,18.892 -3.065,4.333 -7.78,6.497 -14.155,6.497 -6.472,0 -11.251,-2.18 -14.338,-6.535 -3.087,-4.359 -4.629,-10.643 -4.629,-18.854 0,-8.222 1.542,-14.482 4.629,-18.786 3.087,-4.311 7.866,-6.462 14.338,-6.462"
             style="fill:#e72525;fill-opacity:1;fill-rule:nonzero;stroke:none"
             id="path24" />
        </g>
        <g
           id="g26"
           transform="translate(420.2198,272.0454)">
          <path
             d="m 0,0 c -0.495,-0.792 -1.013,-1.353 -1.561,-1.678 -0.554,-0.323 -1.245,-0.488 -2.095,-0.488 -0.899,0 -1.856,0.252 -2.871,0.747 -1.021,0.497 -2.209,1.058 -3.547,1.686 -1.346,0.616 -2.88,1.18 -4.598,1.675 -1.714,0.497 -3.743,0.75 -6.084,0.75 -3.634,0 -6.497,-0.77 -8.584,-2.319 -2.095,-1.538 -3.139,-3.554 -3.139,-6.045 0,-1.649 0.531,-3.029 1.605,-4.147 1.071,-1.122 2.491,-2.107 4.253,-2.95 1.77,-0.848 3.77,-1.604 6.017,-2.275 2.237,-0.674 4.528,-1.409 6.866,-2.209 2.338,-0.791 4.636,-1.706 6.873,-2.719 2.239,-1.023 4.24,-2.319 6.01,-3.887 1.769,-1.57 3.189,-3.448 4.26,-5.636 1.067,-2.194 1.604,-4.83 1.604,-7.917 0,-3.684 -0.675,-7.081 -2.02,-10.197 -1.339,-3.111 -3.311,-5.795 -5.896,-8.062 -2.59,-2.267 -5.786,-4.037 -9.6,-5.303 -3.808,-1.267 -8.176,-1.901 -13.106,-1.901 -2.635,0 -5.21,0.231 -7.729,0.705 -2.514,0.474 -4.923,1.13 -7.241,1.98 -2.318,0.848 -4.456,1.841 -6.421,2.987 -1.971,1.145 -3.699,2.389 -5.195,3.734 l 4.26,7.017 c 0.547,0.85 1.194,1.499 1.943,1.944 0.741,0.446 1.691,0.669 2.836,0.669 1.145,0 2.224,-0.324 3.245,-0.964 1.023,-0.648 2.204,-1.347 3.549,-2.095 1.346,-0.748 2.922,-1.447 4.743,-2.087 1.82,-0.648 4.115,-0.972 6.909,-0.972 2.189,0 4.067,0.262 5.636,0.784 1.569,0.521 2.864,1.204 3.885,2.052 1.023,0.843 1.764,1.828 2.239,2.952 0.475,1.116 0.714,2.273 0.714,3.468 0,1.793 -0.541,3.261 -1.605,4.406 -1.074,1.15 -2.491,2.143 -4.263,2.986 -1.762,0.848 -3.786,1.612 -6.045,2.283 -2.268,0.668 -4.584,1.401 -6.944,2.2 -2.369,0.8 -4.685,1.727 -6.947,2.801 -2.265,1.072 -4.281,2.425 -6.051,4.072 -1.764,1.641 -3.189,3.657 -4.255,6.046 -1.072,2.389 -1.605,5.276 -1.605,8.665 0,3.138 0.62,6.125 1.864,8.961 1.246,2.836 3.075,5.312 5.492,7.429 2.412,2.115 5.426,3.814 9.034,5.081 3.613,1.266 7.779,1.906 12.506,1.906 5.277,0 10.086,-0.871 14.417,-2.62 4.335,-1.742 7.94,-4.029 10.824,-6.865 z"
             style="fill:#e72525;fill-opacity:1;fill-rule:nonzero;stroke:none"
             id="path28" />
        </g>
        <g
           id="g30"
           transform="translate(435.609,220.5216)">
          <path
             d="m 0,0 c 0,1.539 0.287,3.006 0.855,4.403 0.577,1.388 1.369,2.592 2.39,3.584 1.023,0.993 2.232,1.793 3.62,2.39 1.397,0.596 2.895,0.898 4.484,0.898 1.541,0 3.017,-0.302 4.406,-0.898 1.396,-0.597 2.589,-1.397 3.584,-2.39 1.001,-0.992 1.79,-2.196 2.39,-3.584 0.596,-1.397 0.899,-2.864 0.899,-4.403 0,-1.599 -0.303,-3.082 -0.899,-4.449 -0.6,-1.369 -1.389,-2.549 -2.39,-3.549 -0.995,-0.993 -2.188,-1.777 -3.584,-2.346 -1.389,-0.577 -2.865,-0.863 -4.406,-0.863 -1.589,0 -3.087,0.286 -4.484,0.863 -1.388,0.569 -2.597,1.353 -3.62,2.346 -1.021,1 -1.813,2.18 -2.39,3.549 C 0.287,-3.082 0,-1.599 0,0"
             style="fill:#e72525;fill-opacity:1;fill-rule:nonzero;stroke:none"
             id="path32" />
        </g>
        <g
           id="g34"
           transform="translate(473.618,210.365)">
          <path
             d="m 0,0 v 76.619 h 10.831 c 1.892,0 3.209,-0.35 3.958,-1.047 0.742,-0.699 1.245,-1.896 1.491,-3.586 l 1.122,-9.255 c 2.735,4.728 5.944,8.463 9.631,11.198 3.683,2.734 7.815,4.11 12.4,4.11 3.778,0 6.916,-0.871 9.407,-2.613 l -2.392,-13.82 c -0.15,-0.899 -0.474,-1.531 -0.97,-1.906 -0.498,-0.374 -1.165,-0.553 -2.016,-0.553 -0.749,0 -1.762,0.172 -3.06,0.517 -1.294,0.346 -3.013,0.526 -5.151,0.526 -3.836,0 -7.127,-1.059 -9.861,-3.174 -2.734,-2.115 -5.053,-5.218 -6.944,-9.298 L 18.446,0 Z"
             style="fill:#e72525;fill-opacity:1;fill-rule:nonzero;stroke:none"
             id="path36" />
        </g>
        <g
           id="g38"
           transform="translate(551.5042,286.9843)">
          <path
             d="m 0,0 v -48.696 c 0,-4.677 1.086,-8.297 3.252,-10.858 2.169,-2.57 5.413,-3.851 9.748,-3.851 3.186,0 6.166,0.713 8.96,2.129 2.785,1.42 5.425,3.369 7.916,5.861 V 0 H 48.322 V -76.619 H 37.044 c -2.389,0 -3.958,1.115 -4.708,3.362 l -1.266,6.116 c -1.597,-1.589 -3.238,-3.044 -4.928,-4.369 -1.694,-1.316 -3.5,-2.441 -5.413,-3.36 -1.923,-0.922 -3.987,-1.642 -6.198,-2.168 -2.217,-0.517 -4.598,-0.776 -7.133,-0.776 -4.182,0 -7.881,0.705 -11.09,2.121 -3.209,1.42 -5.916,3.428 -8.104,6.018 -2.189,2.585 -3.842,5.658 -4.967,9.219 -1.122,3.566 -1.675,7.48 -1.675,11.76 l 0,48.696 z"
             style="fill:#e72525;fill-opacity:1;fill-rule:nonzero;stroke:none"
             id="path40" />
        </g>
        <g
           id="g42"
           transform="translate(625.9602,210.1341)">
          <path
             d="M 0,0 C -0.447,-1.145 -1.016,-2.137 -1.714,-2.986 -2.412,-3.829 -3.212,-4.542 -4.103,-5.108 -5.002,-5.684 -5.946,-6.117 -6.939,-6.419 -7.94,-6.715 -8.912,-6.865 -9.854,-6.865 h -7.767 l 43.61,111.571 c 0.848,2.087 2.064,3.699 3.661,4.815 1.592,1.122 3.514,1.683 5.751,1.683 h 7.838 z"
             style="fill:#e72525;fill-opacity:1;fill-rule:nonzero;stroke:none"
             id="path44" />
        </g>
        <g
           id="g46"
           transform="translate(677.563,210.365)">
          <path
             d="M 0,0 V 110.973 H 18.446 V 67.208 c 3.036,3.237 6.471,5.815 10.305,7.728 3.836,1.914 8.313,2.88 13.447,2.88 4.179,0 8.003,-0.863 11.464,-2.577 3.455,-1.719 6.441,-4.225 8.96,-7.506 2.513,-3.29 4.455,-7.348 5.821,-12.18 1.369,-4.829 2.06,-10.377 2.06,-16.645 0,-5.728 -0.777,-11.034 -2.319,-15.912 C 66.639,18.116 64.437,13.891 61.578,10.299 58.714,6.716 55.253,3.916 51.194,1.9 c -4.06,-2.016 -8.603,-3.022 -13.625,-3.022 -2.345,0 -4.483,0.236 -6.426,0.704 -1.945,0.477 -3.707,1.137 -5.299,1.98 -1.597,0.848 -3.08,1.886 -4.448,3.103 -1.366,1.216 -2.677,2.574 -3.92,4.072 L 16.653,3.583 C 16.358,2.287 15.848,1.367 15.127,0.82 14.401,0.267 13.416,0 12.177,0 Z m 35.848,63.473 v 0 c -3.834,0 -7.109,-0.807 -9.823,-2.428 -2.715,-1.619 -5.241,-3.891 -7.579,-6.829 V 19.862 c 2.094,-2.589 4.369,-4.396 6.837,-5.417 2.462,-1.023 5.139,-1.527 8.026,-1.527 2.792,0 5.304,0.519 7.541,1.57 2.239,1.043 4.146,2.633 5.715,4.778 1.569,2.138 2.778,4.838 3.621,8.097 0.847,3.26 1.274,7.111 1.274,11.545 0,4.477 -0.368,8.277 -1.087,11.385 -0.72,3.111 -1.756,5.637 -3.095,7.578 -1.345,1.945 -2.98,3.363 -4.895,4.262 -1.922,0.893 -4.095,1.34 -6.535,1.34"
             style="fill:#e72525;fill-opacity:1;fill-rule:nonzero;stroke:none"
             id="path48" />
        </g>
        <path
           d="M 782.116,210.365 H 763.67 v 110.973 h 18.446 z"
           style="fill:#e72525;fill-opacity:1;fill-rule:nonzero;stroke:none"
           id="path50" />
        <g
           id="g52"
           transform="translate(862.991,210.365)">
          <path
             d="m 0,0 h -8.285 c -1.749,0 -3.115,0.259 -4.108,0.778 -0.995,0.525 -1.742,1.584 -2.239,3.181 l -1.648,5.449 c -1.937,-1.742 -3.844,-3.276 -5.708,-4.593 -1.871,-1.324 -3.801,-2.425 -5.794,-3.324 -1.985,-0.894 -4.103,-1.57 -6.34,-2.016 -2.247,-0.447 -4.735,-0.67 -7.472,-0.67 -3.237,0 -6.225,0.431 -8.96,1.31 -2.742,0.871 -5.096,2.18 -7.061,3.93 -1.963,1.749 -3.496,3.923 -4.591,6.521 -1.094,2.597 -1.64,5.62 -1.64,9.068 0,2.892 0.755,5.756 2.273,8.58 1.521,2.82 4.047,5.368 7.578,7.643 3.543,2.267 8.242,4.153 14.123,5.656 5.872,1.498 13.162,2.244 21.878,2.244 v 4.516 c 0,5.166 -1.086,8.994 -3.252,11.478 -2.166,2.483 -5.312,3.722 -9.443,3.722 -2.986,0 -5.477,-0.345 -7.47,-1.044 -1.996,-0.697 -3.722,-1.483 -5.189,-2.354 -1.47,-0.871 -2.829,-1.655 -4.075,-2.352 -1.237,-0.699 -2.613,-1.045 -4.101,-1.045 -1.247,0 -2.318,0.322 -3.212,0.97 -0.898,0.648 -1.617,1.448 -2.165,2.39 l -3.362,5.902 c 8.81,8.062 19.44,12.099 31.884,12.099 4.484,0 8.478,-0.733 11.99,-2.204 3.506,-1.475 6.484,-3.511 8.924,-6.124 2.44,-2.613 4.291,-5.743 5.564,-9.371 C -0.635,56.698 0,52.72 0,48.386 Z m -35.843,11.502 v 0 c 1.894,0 3.636,0.166 5.225,0.511 1.592,0.344 3.103,0.856 4.52,1.537 1.419,0.695 2.785,1.535 4.11,2.542 1.318,1.001 2.648,2.197 3.994,3.563 v 12.826 c -5.375,0 -9.874,-0.339 -13.479,-1.015 -3.613,-0.677 -6.513,-1.542 -8.702,-2.592 -2.196,-1.056 -3.75,-2.288 -4.671,-3.692 -0.922,-1.404 -1.382,-2.927 -1.382,-4.582 0,-3.264 0.965,-5.594 2.88,-6.998 1.914,-1.401 4.418,-2.1 7.505,-2.1"
             style="fill:#e72525;fill-opacity:1;fill-rule:nonzero;stroke:none"
             id="path54" />
        </g>
        <g
           id="g56"
           transform="translate(907.6497,288.3248)">
          <path
             d="m 0,0 c 3.288,0 6.375,-0.332 9.262,-1.007 2.887,-0.671 5.527,-1.655 7.916,-2.951 h 22.031 v -6.868 c 0,-1.142 -0.294,-2.044 -0.899,-2.69 -0.598,-0.648 -1.612,-1.096 -3.059,-1.339 l -6.873,-1.274 c 0.495,-1.296 0.884,-2.664 1.158,-4.108 0.274,-1.44 0.411,-2.959 0.411,-4.558 0,-3.778 -0.756,-7.203 -2.275,-10.263 -1.518,-3.064 -3.613,-5.665 -6.276,-7.808 -2.663,-2.137 -5.822,-3.793 -9.486,-4.965 -3.656,-1.168 -7.63,-1.757 -11.91,-1.757 -2.887,0 -5.701,0.274 -8.435,0.827 -2.392,-1.46 -3.585,-3.087 -3.585,-4.895 0,-1.555 0.706,-2.692 2.13,-3.417 1.417,-0.727 3.283,-1.245 5.599,-1.542 2.311,-0.302 4.938,-0.451 7.873,-0.451 2.945,0 5.954,-0.13 9.042,-0.377 3.087,-0.251 6.095,-0.691 9.038,-1.315 2.938,-0.619 5.564,-1.604 7.874,-2.957 2.318,-1.347 4.181,-3.182 5.606,-5.508 1.419,-2.326 2.125,-5.304 2.125,-8.952 0,-3.397 -0.835,-6.693 -2.498,-9.89 -1.671,-3.196 -4.088,-6.046 -7.249,-8.544 -3.159,-2.495 -7.031,-4.503 -11.609,-6.03 -4.582,-1.518 -9.808,-2.282 -15.68,-2.282 -5.832,0 -10.883,0.561 -15.166,1.678 -4.283,1.122 -7.83,2.613 -10.638,4.485 -2.813,1.863 -4.923,4.014 -6.312,6.453 -1.397,2.441 -2.095,4.982 -2.095,7.623 0,3.584 1.094,6.594 3.291,9.033 2.188,2.44 5.225,4.382 9.112,5.83 -1.894,1.043 -3.412,2.433 -4.558,4.181 -1.144,1.742 -1.718,4.003 -1.718,6.795 0,1.142 0.201,2.323 0.596,3.547 0.396,1.215 1.009,2.424 1.828,3.62 0.829,1.197 1.857,2.326 3.104,3.397 1.243,1.073 2.711,2.029 4.405,2.88 -3.88,2.087 -6.932,4.872 -9.148,8.363 -2.217,3.484 -3.327,7.564 -3.327,12.241 0,3.786 0.764,7.212 2.283,10.27 1.518,3.067 3.633,5.679 6.348,7.846 2.711,2.165 5.923,3.815 9.63,4.965 C -8.422,-0.569 -4.378,0 0,0 m 20.246,-81.177 v 0 c 0,1.519 -0.455,2.763 -1.346,3.729 -0.901,0.971 -2.118,1.72 -3.663,2.251 -1.542,0.533 -3.347,0.93 -5.414,1.181 -2.065,0.259 -4.253,0.38 -6.571,0.38 h -7.167 c -2.471,0 -4.845,0.274 -7.133,0.829 -2.094,-1.152 -3.772,-2.504 -5.045,-4.073 -1.266,-1.57 -1.901,-3.375 -1.901,-5.413 0,-1.346 0.338,-2.605 1.008,-3.77 0.67,-1.173 1.742,-2.182 3.209,-3.03 1.47,-0.843 3.377,-1.506 5.716,-1.972 2.338,-0.476 5.202,-0.715 8.586,-0.715 3.433,0 6.398,0.267 8.889,0.801 2.488,0.533 4.54,1.274 6.16,2.209 1.62,0.943 2.801,2.067 3.547,3.361 0.749,1.295 1.125,2.707 1.125,4.232 M 0,-37.784 v 0 c 2.295,0 4.28,0.31 5.974,0.934 1.698,0.618 3.1,1.475 4.222,2.577 1.117,1.094 1.965,2.412 2.542,3.958 0.568,1.541 0.855,3.233 0.855,5.075 0,3.786 -1.134,6.786 -3.397,8.996 -2.265,2.216 -5.662,3.326 -10.196,3.326 -4.527,0 -7.924,-1.11 -10.192,-3.326 -2.267,-2.21 -3.397,-5.21 -3.397,-8.996 0,-1.793 0.287,-3.463 0.855,-5.002 0.577,-1.548 1.42,-2.879 2.542,-3.995 1.123,-1.124 2.542,-1.995 4.261,-2.613 1.714,-0.624 3.691,-0.934 5.931,-0.934"
             style="fill:#e72525;fill-opacity:1;fill-rule:nonzero;stroke:none"
             id="path58" />
        </g>
        <g
           id="g60"
           transform="translate(991.1442,288.1807)">
          <path
             d="m 0,0 c 5.721,0 10.91,-0.93 15.567,-2.763 4.656,-1.843 8.63,-4.455 11.91,-7.845 3.29,-3.384 5.829,-7.516 7.622,-12.395 1.793,-4.877 2.684,-10.334 2.684,-16.359 0,-6.073 -0.891,-11.55 -2.684,-16.422 -1.793,-4.88 -4.332,-9.042 -7.622,-12.475 -3.28,-3.44 -7.254,-6.073 -11.91,-7.916 C 10.91,-78.019 5.721,-78.938 0,-78.938 c -5.731,0 -10.933,0.919 -15.612,2.763 -4.677,1.843 -8.674,4.476 -11.984,7.916 -3.309,3.433 -5.873,7.595 -7.693,12.475 -1.813,4.872 -2.727,10.349 -2.727,16.422 0,6.025 0.914,11.482 2.727,16.359 1.82,4.879 4.384,9.011 7.693,12.395 3.31,3.39 7.307,6.002 11.984,7.845 C -10.933,-0.93 -5.731,0 0,0 m 0,-64.752 v 0 c 6.368,0 11.09,2.143 14.147,6.427 3.068,4.283 4.593,10.551 4.593,18.821 0,8.261 -1.525,14.559 -4.593,18.892 -3.057,4.333 -7.779,6.497 -14.147,6.497 -6.471,0 -11.25,-2.18 -14.338,-6.535 -3.087,-4.359 -4.636,-10.643 -4.636,-18.854 0,-8.222 1.549,-14.482 4.636,-18.786 3.088,-4.311 7.867,-6.462 14.338,-6.462"
             style="fill:#e72525;fill-opacity:1;fill-rule:nonzero;stroke:none"
             id="path62" />
        </g>
        <g
           id="g64"
           transform="translate(373.1599,487.5937)">
          <path
             d="m 0,0 c 0,-25.788 21,-46.762 46.824,-46.762 h 128.397 v -86.539 l 28.351,29.847 c 40.433,41.86 72.597,56.692 122.897,56.692 h 46.071 c 25.813,0 46.824,20.974 46.824,46.762 v 65.686 c -5.579,-2.279 -10.271,-4.021 -13.747,-5.281 -4.174,1.519 -10.062,3.735 -17.123,6.721 V 0 c 0,-8.79 -7.155,-15.935 -15.954,-15.935 h -46.071 c -44.305,0 -82.545,-7.32 -125.294,-54.066 l -0.168,54.066 H 46.824 C 38.021,-15.935 30.861,-8.79 30.861,0 v 378.197 h 357.633 v -70.816 c 7.133,-7.838 13.178,-17.05 17.705,-27.32 3.44,8.262 7.888,15.885 13.165,22.658 V 409.02 H 0 Z"
             style="fill:#e72525;fill-opacity:1;fill-rule:nonzero;stroke:none"
             id="path66" />
        </g>
        <g
           id="g68"
           transform="translate(856.3181,807.5131)">
          <path
             d="m 0,0 c -13.416,0 -25.931,-4.39 -36.475,-11.97 -11.263,-8.097 -20.411,-19.819 -26.233,-33.811 l -13.855,-33.259 -14.523,32.957 c -6.297,14.294 -15.963,26.091 -27.401,34.259 -11.106,7.923 -23.809,12.414 -36.562,12.357 -17.935,-0.079 -35.632,-9.075 -48.731,-23.887 -12.761,-14.432 -21.046,-34.294 -20.994,-56.895 h 0.058 v -0.279 -1.232 c 0.431,-5.707 1.115,-10.982 2.016,-15.854 0.949,-5.218 2.138,-10.126 3.484,-14.727 12.321,-42.137 42.18,-72.77 72.165,-94.052 27.175,-19.295 54.502,-30.956 69.554,-36.692 14.954,5.672 42.167,17.238 69.436,36.506 29.978,21.189 59.852,51.718 72.174,93.764 1.346,4.599 2.533,9.507 3.491,14.725 0.891,4.864 1.576,10.149 2.008,15.864 -0.007,0.307 -0.007,0.711 -0.007,1.221 v 0.282 h 0.063 C 69.612,-58.045 61.543,-37.611 48.531,-22.9 36.016,-8.753 18.857,0 0,0 M -54.474,13.027 C -38.712,24.356 -20.03,30.911 0,30.911 c 28.041,0 53.339,-12.761 71.598,-33.4 17.77,-20.096 28.79,-47.761 28.86,-78.234 h 0.016 l -0.008,-0.282 h 0.028 v 0.282 h 0.031 v -0.282 c 0,-3.353 -0.008,-1.165 -0.031,0 h -0.028 c 0,-0.215 -0.008,-0.502 -0.008,-0.871 v -0.063 l -0.008,-0.808 v -0.056 -0.066 -0.358 c -0.007,-0.203 -0.012,-0.403 -0.028,-0.598 l 0.021,-0.008 c -0.48,-6.78 -1.351,-13.402 -2.531,-19.813 -1.145,-6.233 -2.577,-12.148 -4.213,-17.742 -14.71,-50.205 -49.37,-85.947 -84.01,-110.434 -33.763,-23.855 -67.682,-36.998 -82.043,-42.18 l -5.238,-1.894 -5.204,1.894 c -14.414,5.23 -48.249,18.438 -82.134,42.49 -34.597,24.558 -69.178,60.365 -83.876,110.6 -1.633,5.6 -3.064,11.515 -4.21,17.742 -1.15,6.289 -2.016,12.774 -2.503,19.424 -0.074,0.59 -0.094,0.964 -0.094,1.273 -0.008,-0.322 -0.015,-0.1 -0.015,1.945 v 0.279 h 0.058 c -0.058,30.552 11.27,57.565 28.724,77.306 18.79,21.246 44.803,34.149 71.676,34.273 19.41,0.087 38.353,-6.472 54.562,-18.037 8.679,-6.202 16.603,-13.848 23.397,-22.67 6.508,8.678 14.171,16.244 22.737,22.404 m -170.286,-95.067 -0.007,0.288 v 0.02 -0.128 -0.172 z m -30.795,-0.064 c -0.023,1.84 -0.043,0.674 -0.051,-0.043 h 0.051 z m 325.21,0.482 0.013,0.095 v 0.522 h -0.005 z m 0.013,0.617 v 0.282 l -0.005,-0.282 z m 30.826,0.282 c -0.008,0.367 -0.013,0.498 -0.02,0 z"
             style="fill:#e72525;fill-opacity:1;fill-rule:nonzero;stroke:none"
             id="path70" />
        </g>
      </g>
    </g>
  </g>
</svg>
