<svg width="1752" height="960" viewBox="0 0 1752 960" fill="none" xmlns="http://www.w3.org/2000/svg">
<path fill-rule="evenodd" clip-rule="evenodd" d="M816.577 435.974C820.64 435.974 823.406 437.047 825.212 438.909C827.018 440.772 828.034 443.707 828.034 447.997C828.034 452.286 827.018 455.221 825.212 457.084C823.406 458.946 820.64 460.019 816.577 460.019H776.051V436.031H816.577V435.974ZM776.051 523.968V495.972H818.665C823.406 495.972 826.623 497.214 828.768 499.359C830.856 501.56 832.042 505.003 832.042 509.97C832.042 514.937 830.856 518.38 828.768 520.581C826.68 522.782 823.406 523.968 818.665 523.968H776.051ZM813.755 399.964C823.18 399.964 831.364 401.037 838.476 403.125C845.531 405.214 851.289 408.205 855.578 412.099C859.755 415.881 862.916 420.114 864.948 424.855C866.98 429.54 867.996 434.62 867.996 439.982C867.996 444.328 867.375 448.448 866.076 452.343C864.778 456.237 862.746 459.793 860.094 463.01C857.328 466.397 853.49 469.106 848.692 471.081C846.039 472.21 843.161 473.057 840.057 473.678V475.597C849.087 477.177 856.368 480.394 861.674 485.361C868.673 491.965 872.059 501.334 872.059 513.244C872.059 518.323 871.495 523.008 870.423 527.354C869.294 531.813 867.262 536.103 864.496 540.167C861.618 544.287 857.892 547.786 853.49 550.608C849.031 553.43 843.274 555.688 836.444 557.325C829.558 559.018 821.6 559.865 812.739 559.865H736.09V399.852H813.811L813.755 399.964Z" fill="white"/>
<path d="M443.442 144C454.334 144 470.135 145.242 488.249 150.773C499.028 154.103 523.801 161.949 546.374 183.792C569.398 206.03 578.032 230.977 585.03 251.296C587.231 257.674 589.714 268.398 594.68 289.903C602.693 324.558 604.668 340.193 613.979 376.711C614.826 379.928 616.406 386.306 618.437 393.53C632.827 445.626 644.509 466.849 652.635 492.417C667.928 540.506 663.921 582.781 662.285 598.528C657.996 639.674 645.017 669.081 633.279 694.987C620.695 722.813 598.404 763.96 559.24 806.743C524.648 812.613 483.791 815.999 440 815.999C396.209 815.999 355.352 812.613 320.76 806.743C281.652 763.96 259.305 722.813 246.721 694.987C234.983 669.081 222.004 639.674 217.715 598.528C216.079 582.837 212.072 540.506 227.365 492.417C235.491 466.849 247.229 445.57 261.563 393.53C263.594 386.249 265.174 379.928 266.021 376.711C275.332 340.193 277.307 324.558 285.32 289.903C290.286 268.398 292.769 257.674 294.97 251.296C301.968 230.977 310.602 206.03 333.626 183.792C356.368 161.949 381.142 154.047 391.92 150.773C410.035 145.242 425.836 144 436.727 144H443.442ZM439.887 767.967C549.703 767.967 604.555 718.58 604.555 619.863C605.571 593.618 605.176 571.605 604.442 555.124C603.483 533.112 602.975 522.105 600.323 506.753C596.768 486.603 591.745 471.533 583.619 447.658C576.283 426.041 570.301 411.253 568.213 405.835C559.297 382.806 549.866 346.533 549.754 290.598C549.754 224.787 513.136 191.976 439.944 191.976C366.751 191.976 330.409 224.882 330.409 290.693C330.24 346.627 320.872 382.806 311.956 405.835C309.868 411.197 303.887 426.041 296.55 447.658C288.424 471.533 283.345 486.603 279.847 506.753C277.138 522.049 276.686 533.112 275.727 555.124C274.993 571.605 274.598 593.618 275.614 619.863C275.614 718.58 330.409 767.967 439.887 767.967Z" fill="white"/>
<path fill-rule="evenodd" clip-rule="evenodd" d="M1034.62 278.107C1040.83 271.616 1044.1 261.682 1044.1 248.023C1044.1 234.364 1040.83 224.431 1034.62 217.94C1028.41 211.449 1019.04 208.062 1006 208.062C992.964 208.062 983.595 211.449 977.442 217.94C971.29 224.431 968.016 234.364 968.016 248.023C968.016 261.682 971.29 271.616 977.442 278.107C983.595 284.598 993.021 287.984 1005.95 287.984C1018.87 287.984 1028.35 284.598 1034.56 278.107H1034.62ZM964.347 317.221C952.438 310.053 943.351 300.458 937.198 288.436C931.046 276.414 927.998 262.98 927.998 248.08C927.998 236.961 929.804 226.519 933.417 216.811C937.029 207.103 942.052 198.58 948.6 191.355C955.204 184.074 963.388 178.374 973.322 174.254C983.199 170.133 994.149 168.045 1006 168.045C1017.86 168.045 1028.81 170.133 1038.68 174.254C1048.56 178.374 1056.86 184.074 1063.41 191.355C1069.95 198.58 1075.03 207.046 1078.59 216.811C1082.2 226.519 1084.01 236.904 1084.01 248.08C1084.01 262.98 1080.96 276.47 1074.81 288.436C1068.71 300.402 1059.68 309.997 1047.77 317.165C1035.8 324.389 1021.86 327.945 1006.06 327.945C990.255 327.945 976.37 324.389 964.347 317.221Z" fill="white"/>
<path fill-rule="evenodd" clip-rule="evenodd" d="M994.656 510.084C1000.86 503.593 1004.14 493.659 1004.14 480C1004.14 466.341 1000.86 456.407 994.656 449.916C988.447 443.425 979.078 440.039 966.04 440.039C953.001 440.039 943.632 443.425 937.479 449.916C931.327 456.407 928.053 466.341 928.053 480C928.053 493.659 931.327 503.593 937.479 510.084C943.632 516.574 953.058 519.961 965.983 519.961C978.909 519.961 988.391 516.574 994.6 510.084H994.656ZM924.385 549.198C912.475 542.03 903.388 532.435 897.235 520.412C891.083 508.39 888.035 494.957 888.035 480.056C888.035 468.937 889.841 458.495 893.454 448.787C897.066 439.079 902.09 430.557 908.637 423.332C915.241 416.051 923.425 410.35 933.359 406.23C943.237 402.11 954.187 400.021 966.04 400.021C977.893 400.021 988.843 402.11 998.72 406.23C1008.6 410.35 1016.89 416.051 1023.44 423.332C1029.99 430.557 1035.07 439.023 1038.63 448.787C1042.24 458.495 1044.04 468.881 1044.04 480.056C1044.04 494.957 1041 508.447 1034.84 520.412C1028.75 532.378 1019.72 541.973 1007.81 549.141C995.842 556.366 981.9 559.922 966.096 559.922C950.292 559.922 936.407 556.366 924.385 549.198Z" fill="white"/>
<path fill-rule="evenodd" clip-rule="evenodd" d="M1332.64 510.084C1338.85 503.593 1342.12 493.659 1342.12 480C1342.12 466.341 1338.85 456.407 1332.64 449.916C1326.43 443.425 1317.06 440.039 1304.02 440.039C1290.98 440.039 1281.61 443.425 1275.46 449.916C1269.31 456.407 1266.03 466.341 1266.03 480C1266.03 493.659 1269.31 503.593 1275.46 510.084C1281.61 516.574 1291.04 519.961 1303.96 519.961C1316.89 519.961 1326.37 516.574 1332.58 510.084H1332.64ZM1262.37 549.198C1250.46 542.03 1241.37 532.435 1235.22 520.412C1229.06 508.39 1226.02 494.957 1226.02 480.056C1226.02 468.937 1227.82 458.495 1231.43 448.787C1235.05 439.079 1240.07 430.557 1246.62 423.332C1253.22 416.051 1261.41 410.35 1271.34 406.23C1281.22 402.11 1292.17 400.021 1304.02 400.021C1315.87 400.021 1326.82 402.11 1336.7 406.23C1346.58 410.35 1354.88 416.051 1361.42 423.332C1367.97 430.557 1373.05 439.023 1376.61 448.787C1380.22 458.495 1382.02 468.881 1382.02 480.056C1382.02 494.957 1378.98 508.447 1372.82 520.412C1366.73 532.378 1357.7 541.973 1345.79 549.141C1333.82 556.366 1319.88 559.922 1304.08 559.922C1288.27 559.922 1274.39 556.366 1262.37 549.198Z" fill="white"/>
<path d="M1084.12 399.965V429.315C1084.12 436.821 1084.12 443.312 1083.89 448.787C1083.72 454.319 1083.55 460.189 1083.21 466.566C1082.93 472.888 1082.42 478.306 1081.75 482.878C1081.07 487.394 1080.22 491.965 1079.21 496.65C1078.13 501.335 1076.84 505.173 1075.25 508.221C1073.67 511.269 1071.81 514.091 1069.61 516.574C1067.47 519.114 1064.93 520.92 1061.99 522.162C1059 523.404 1055.73 523.968 1052.11 523.968V559.978C1061.31 559.978 1069.61 558.736 1076.95 556.253C1084.29 553.769 1090.44 550.496 1095.35 546.545C1100.26 542.594 1104.61 537.288 1108.16 530.741C1111.77 524.194 1114.54 517.647 1116.51 511.269C1118.49 504.891 1120.07 497.045 1121.2 487.845C1122.33 478.645 1123.06 470.292 1123.46 462.728C1123.85 455.165 1124.02 446.247 1124.02 435.975H1168.05V559.978H1208.07V399.965H1084.17H1084.12Z" fill="white"/>
<path d="M1439.99 461.995H1496.04V399.965H1536V559.978H1496.04V498.005H1439.99V559.978H1400.03V399.965H1439.99V461.995Z" fill="white"/>
<path d="M928.053 631.941V791.955H888.035V667.951H852.024V791.955H812.006V667.951H776.051V791.955H736.033V631.941H928.053Z" fill="white"/>
<path fill-rule="evenodd" clip-rule="evenodd" d="M1251.36 277.825C1250.12 281.493 1248.59 284.993 1246.84 288.436C1240.75 300.402 1231.72 309.997 1219.81 317.165C1207.84 324.389 1193.9 327.945 1178.1 327.945C1162.29 327.945 1148.41 324.389 1136.38 317.221C1124.47 310.053 1115.39 300.458 1109.24 288.436C1103.08 276.414 1100.04 262.98 1100.04 248.08C1100.04 236.961 1101.84 226.519 1105.45 216.811C1109.07 207.103 1114.09 198.58 1120.64 191.355C1127.24 184.074 1135.42 178.374 1145.36 174.254C1155.24 170.133 1166.19 168.045 1178.04 168.045C1189.89 168.045 1200.84 170.133 1210.72 174.254C1220.6 178.374 1228.89 184.074 1235.44 191.355C1241.99 198.58 1247.07 207.046 1250.63 216.811C1250.79 217.319 1250.96 217.77 1251.13 218.278L1213.03 228.494C1211.45 224.318 1209.31 220.818 1206.6 217.94C1200.39 211.449 1191.02 208.062 1177.98 208.062C1164.94 208.062 1155.58 211.449 1149.42 217.94C1143.27 224.431 1140 234.364 1140 248.023C1140 261.682 1143.27 271.616 1149.42 278.107C1155.58 284.598 1165 287.984 1177.93 287.984C1190.85 287.984 1200.33 284.598 1206.54 278.107C1209.25 275.228 1211.4 271.729 1212.98 267.552L1251.25 277.825H1251.36Z" fill="white"/>
<path fill-rule="evenodd" clip-rule="evenodd" d="M1179.23 739.971C1187.24 739.971 1194.58 738.56 1201.35 735.795C1208.01 733.029 1213.65 729.191 1218.11 724.168C1222.52 719.257 1225.96 713.557 1228.39 707.009C1230.81 700.462 1232 693.407 1232 685.9C1232 675.853 1229.91 666.766 1225.79 658.638C1221.67 650.511 1215.52 644.02 1207.39 639.166C1199.26 634.256 1189.84 631.941 1179.17 631.941H1095.97V791.955H1135.99V739.971H1179.17H1179.23ZM1174.82 703.961C1180.86 703.961 1185.04 702.381 1187.75 699.559C1190.46 696.737 1191.98 692.278 1191.98 685.956C1191.98 679.635 1190.46 675.232 1187.75 672.354C1185.04 669.532 1180.81 667.951 1174.82 667.951H1135.99V703.961H1166.81H1174.82Z" fill="white"/>
<path fill-rule="evenodd" clip-rule="evenodd" d="M1042.57 609.761C1040.09 611.228 1037.21 611.962 1034.05 611.962C1030.89 611.962 1028.01 611.228 1025.53 609.817C1023.1 608.406 1021.18 606.431 1019.88 604.004C1018.59 601.576 1017.97 598.924 1017.97 595.989C1017.97 593.788 1018.3 591.699 1019.04 589.78C1019.77 587.918 1020.79 586.111 1022.2 584.7C1023.55 583.233 1025.25 582.048 1027.33 581.257C1029.37 580.467 1031.57 580.016 1034 580.016C1036.42 580.016 1038.62 580.411 1040.66 581.257C1042.69 582.104 1044.38 583.233 1045.74 584.7C1047.09 586.168 1048.16 587.918 1048.9 589.78C1049.63 591.699 1049.97 593.788 1049.97 595.989C1049.97 598.924 1049.35 601.633 1048.05 604.004C1046.75 606.374 1044.89 608.293 1042.52 609.761H1042.57ZM998.549 609.761C996.066 611.228 993.187 611.962 990.027 611.962C986.866 611.962 983.987 611.228 981.504 609.817C979.077 608.406 977.158 606.431 975.86 604.004C974.561 601.576 973.94 598.924 973.94 595.989C973.94 593.788 974.279 591.699 975.013 589.78C975.747 587.918 976.763 586.111 978.174 584.7C979.528 583.233 981.222 582.048 983.31 581.257C985.342 580.467 987.543 580.016 989.97 580.016C992.397 580.016 994.598 580.411 996.63 581.257C998.662 582.104 1000.36 583.233 1001.71 584.7C1003.06 586.168 1004.14 587.918 1004.87 589.78C1005.6 591.699 1005.94 593.788 1005.94 595.989C1005.94 598.924 1005.32 601.633 1004.02 604.004C1002.73 606.374 1000.86 608.293 998.493 609.761H998.549ZM1071.98 791.956V755.946H992.002V729.926H1056.01V693.916H992.002V667.896H1071.98V631.886H951.984V791.899H1071.98V791.956Z" fill="white"/>
<path fill-rule="evenodd" clip-rule="evenodd" d="M736.033 167.988V328.002H776.051V259.989H779.833L802.241 307.965H841.864L864.215 259.989H868.054V328.002H908.015V167.988H867.376L824.48 259.989H819.569L776.672 167.988H736.033Z" fill="white"/>
</svg>
