<?xml version="1.0" encoding="UTF-8" standalone="no"?>
<!-- Created with Inkscape (http://www.inkscape.org/) -->

<svg
   version="1.1"
   id="svg2"
   width="2375.8933"
   height="3175.0132"
   viewBox="0 0 2375.8933 3175.0132"
   sodipodi:docname="ОПМ_лого вертикальное (1).eps"
   xmlns:inkscape="http://www.inkscape.org/namespaces/inkscape"
   xmlns:sodipodi="http://sodipodi.sourceforge.net/DTD/sodipodi-0.dtd"
   xmlns="http://www.w3.org/2000/svg"
   xmlns:svg="http://www.w3.org/2000/svg">
  <defs
     id="defs6" />
  <sodipodi:namedview
     id="namedview4"
     pagecolor="#ffffff"
     bordercolor="#000000"
     borderopacity="0.25"
     inkscape:showpageshadow="2"
     inkscape:pageopacity="0.0"
     inkscape:pagecheckerboard="0"
     inkscape:deskcolor="#d1d1d1" />
  <g
     id="g8"
     inkscape:groupmode="layer"
     inkscape:label="ink_ext_XXXXXX"
     transform="matrix(1.3333333,0,0,-1.3333333,0,3175.0133)">
    <g
       id="g10"
       transform="scale(0.1)">
      <path
         d="m 13434.7,12732.8 c 7.9,-0.5 16.4,-1.7 24,-0.8 76.2,10.6 152.9,9.7 229.1,9.7 138.2,0.5 276.8,0 415.1,0.5 14.6,0 29.4,-3.5 43.2,4.4 112.7,0 225.9,-0.4 338.8,-0.4 29.8,0 58.9,6.7 87.3,12.9 235.4,54.4 422.7,270.6 422.7,544.8 -0.9,3248.7 -0.5,6498 -0.5,9746.9 0,52.2 0,52.2 -50.3,52.2 -1368.1,0 -2736.6,0 -4105.3,0 -56.6,0 -49,6.5 -49,-49.6 0,-2918 0,-5836.1 0,-8754.2 0,-15 1.4,-29.8 1.8,-44.5 -0.9,-14.7 -2.2,-29 -2.2,-43.7 0,-155.1 0,-310.7 0,-465.9 0,-66.8 0.9,-133.7 1.3,-200.5 -0.4,-80.8 -1.3,-161 -0.4,-241.6 0.4,-33.5 2.7,-67.4 8.5,-100.3 49.9,-284.5 298.2,-460.5 543,-457.9 268.2,3.2 537.1,1.4 805.4,0.6 54.8,-0.6 110.2,-3.2 164.5,-8.5 196.6,-20.1 384.8,-70.9 559.4,-165.4 16.6,-9 29.1,-7.6 44.2,0.4 162.7,87.8 337,137.3 519.4,160.9 z m 2267.2,384.7 c -0.9,-129.3 -16.1,-256.8 -49.6,-382 -41.8,-156.4 -110,-299.1 -223.8,-416.7 -119.9,-124.9 -268.2,-198.9 -433.6,-240.8 -113.8,-29 -229.1,-42.4 -346.4,-42.4 -151.6,0.5 -303.6,0 -455.1,0 -16.1,0 -32.1,-1.3 -48.2,-2.2 -5.3,0.9 -10.7,1.8 -16,1.8 -158.4,0 -316.6,1.8 -475.3,-0.5 -73.5,-1.3 -147.4,-4.4 -219.2,-24 -198.9,-43.2 -350.4,-149.8 -447.2,-331.2 -47.7,-90.1 -71.3,-187.7 -85.6,-288 -6.6,-4 -6.6,-15.2 -16.5,-16 -6.7,45 -12.9,90.4 -24.5,134.5 -64.2,250.6 -216.2,417.8 -466.7,490.8 -91.3,26.8 -185,34.4 -279.1,34.8 -326.8,0.5 -653,0 -979.8,0 -115.9,0 -230.5,13.4 -342.8,41.9 -324,81.7 -540.2,279.5 -642.3,599.6 -49.9,156.5 -66.9,317.4 -69.5,480.6 -2.3,128.7 -0.9,258 -1.4,386.9 0.5,6.7 1.4,13.4 1.4,20.1 0,219.2 0,438.6 0,658.3 0,10.8 -1.9,21 -2.3,31.7 0.4,16.1 1.8,32.1 1.8,48.2 0,3153.9 0,6307.7 0,9461.6 0,16 -0.9,32.1 -1.4,48.1 h 5621.7 c 0,-3547.5 0,-7095 0,-10642.9 0,-17.5 0.9,-34.8 1.4,-52.2 v 0"
         style="fill:#ee2344;fill-opacity:1;fill-rule:evenodd;stroke:none"
         id="path12" />
      <path
         d="m 2123.19,12397.5 c 0.88,10.6 4.42,21.7 2.27,32.1 -13.01,59.6 -6.32,120.3 -6.69,180.4 0,2520.1 0,5039.9 0,7559.5 0,70.5 -8.09,61.5 62.79,61.5 2389.37,0.5 4779.12,0.5 7168.49,0.5 18.71,0 37.53,-0.9 56.61,-0.9 0.5,-18.7 1.39,-37.9 1.39,-56.6 0.38,-1955.2 0.38,-3910.4 0.38,-5865.6 0,-17.8 0.5,-35.2 0.5,-52.5 -168.56,-0.5 -337,-0.9 -505.56,-0.9 -68.11,0 -136.86,0.9 -204.97,1.3 0,1738.1 0,3475.7 0,5213.8 0,62.4 8.47,57.5 -58.5,57.5 -1918.17,0 -3835.83,0 -5754,0 -66.84,0 -57.49,7.5 -57.49,-57.5 -0.5,-1787.5 -0.88,-3575.1 0,-5362.7 0,-491.7 4.04,-983.8 4.42,-1475.5 0.51,-148.5 49.92,-277.3 152.9,-382.5 102.61,-104.8 226.94,-165.3 376.68,-164.4 153.41,0.4 306.68,-0.5 460.08,0 82.01,0.4 163.52,-4.1 244.77,-14.3 173.74,-21.5 338.77,-70.9 493.82,-152 25.02,-13 44.22,-14.3 69.62,-0.9 205.46,109.2 426.98,163.5 657.96,165.8 521.5,4 1043.12,0.9 1564.24,0.9 0.37,-52.2 1.26,-104.8 1.26,-157 -0.38,-184.1 -0.89,-368.2 -0.89,-552.3 -504.18,0 -1007.85,0.5 -1511.66,-0.4 -116.25,0 -230.35,-18.7 -337.38,-65.9 -192.58,-83.8 -312.11,-231.4 -369.11,-431.5 -20.08,-71.4 -32.09,-144.1 -34.74,-226.1 -15.67,48.1 -13.9,91.9 -21.49,133.8 -28.43,152.4 -86.43,290.1 -201.04,399.3 -89.59,86.1 -197.37,137.9 -316.91,165.9 -70.89,16.5 -142.66,24.9 -215.7,24.9 -240.34,0 -481.06,-1.8 -721.27,1.8 -138.62,2.3 -275.09,26.8 -406.13,74.9 -256.76,95 -428.36,273.7 -518.84,531.4 -47.26,134.2 -71.39,272.4 -75.81,414.2"
         style="fill:#53a394;fill-opacity:1;fill-rule:evenodd;stroke:none"
         id="path14" />
      <path
         d="m 6853.15,11375.2 c 0.38,184.1 0.88,368.2 0.88,552.3 0,52.2 -0.5,104.8 -0.88,157 4.42,16 2.14,32.1 2.14,48.1 0,691 0,1381.9 0,2072.5 0,57.9 -6.19,49.4 49.04,49.4 581.76,0.5 1163.91,0.5 1745.68,0.5 16.55,0 32.6,0.9 48.65,1.3 68.11,-0.4 136.34,-1.3 204.58,-1.3 168.44,0 337.51,0.4 505.95,0.9 168.06,-0.5 335.61,-0.9 503.68,-0.9 55.34,-0.5 110.23,0 165.43,0 0.9,-10.7 2.2,-21.5 2.2,-32.1 0,-219.4 0,-438.7 0,-658.5 0,-6.7 -0.8,-13.4 -1.3,-19.9 -222.94,0 -445.84,0 -668.62,0 -182.85,0.3 -365.18,0.8 -547.91,0.8 -55.21,0 -110.06,-0.8 -165.4,-1.3 -13.4,0 -26.79,0.8 -40.06,0.8 -348.25,0 -696.38,0 -1044.5,0 -49.92,0 -44.98,7.2 -44.98,-45.4 0,-458.2 0,-916.6 0,-1374.7 0,-13.4 1.76,-26.8 2.65,-40.2 -0.51,-76.7 -1.39,-152.9 -1.39,-229.6 0,-160 0.88,-319.6 0.88,-479.7 -0.38,-7.9 -2.14,-16 -2.14,-24 0,-318.3 -1.78,-637 0.37,-955.8 1.77,-218.8 101.72,-382.5 292.53,-489.4 63.68,-35.6 131.92,-54.4 207.23,-53.9 949.1,0.8 1898.07,0.3 2847.14,0.8 64.6,0 128.8,-1.7 193,-8.9 185.9,-20.5 363.4,-70.8 529.2,-157.7 23.1,-12.2 39.7,-12.2 62.4,0 218.4,113.2 452,166.1 697.7,166.1 188,0 376.1,0 564.7,0.5 16,0 31.7,-0.5 47.7,3.2 238.1,49.4 424.4,274.1 424.9,517.1 1.2,546 0.3,1091.6 0,1637.2 72.1,19.7 146.2,23.3 219.7,24.2 158.2,2.6 316.5,0.9 474.7,0.9 5.4,0 10.8,-1.4 16.1,-1.8 0.5,-248.8 0.5,-497.5 0.5,-745.8 0,-350.8 0.9,-701.7 0,-1052.5 -0.5,-159.2 -22.8,-315.6 -73.5,-467.1 -102.1,-304.9 -311.3,-494.9 -619.3,-577.8 -126.5,-34.3 -255.8,-47.7 -386.5,-48.1 -222.9,-0.9 -446.1,0.4 -669,-0.5 -116.9,-0.4 -229.6,-22.7 -336.2,-71.8 -194.3,-89.1 -307.5,-244.7 -359.7,-448.4 -17.4,-66.4 -27.2,-134.2 -28.6,-204.1 -12,17.3 -10.7,36.9 -12.5,55.7 -10.2,115 -37.9,225.1 -93.6,326.7 -93.5,170.3 -239.7,271 -426.1,317 -70.9,17.3 -142.7,25.4 -215.3,25.4 -994.49,-0.5 -1989.08,-0.5 -2983.55,0 -155.17,0 -308.07,18.2 -456.04,67.7 -307.69,102.5 -491.67,318.7 -575.57,626.3 -31.21,114.6 -45.87,231.4 -51.69,350 -3.53,78 -2.65,155.6 -3.16,233.5 0,302.3 0,605 0,907.2 0,16 -1.26,32.1 -2.14,48.1"
         style="fill:#29575e;fill-opacity:1;fill-rule:evenodd;stroke:none"
         id="path16" />
      <path
         d="m 10791.7,14254.9 c 1100.1,0 2200.7,0 3301,0 53,0 53,0 53,-53.1 0,-468.9 0,-937.9 0,-1406.8 0,-16 0.4,-32.1 0.4,-48.1 -13.8,-8.1 -28.9,-5 -43.2,-5 -138.3,0 -276.9,0 -415,0 -76.7,-0.5 -152.9,0.4 -229.2,-9.8 -7.6,-0.9 -16.1,0.5 -24,0.5 0,256.8 0.4,513.5 0,770.3 0,49 5.3,41.8 -43.2,41.8 -443.6,0 -887.2,0 -1330.7,0 -423.5,0 -846.9,0 -1270,0 -0.5,67 -1.4,133.8 -1.4,200.7 -0.3,155.2 0,310.2 0,465.4 0,14.6 1.4,29.4 2.3,44.1"
         style="fill:#29575e;fill-opacity:1;fill-rule:evenodd;stroke:none"
         id="path18" />
      <path
         d="m 9410.71,13544.5 c -0.89,-17.5 -2.28,-34.9 -2.28,-52.2 0,-341.5 2.28,-683 -0.88,-1024.1 -1.77,-192 -30.71,-379.7 -108.8,-557.6 -98.94,-225 -265.61,-377.1 -495.72,-460.5 -102.98,-37.4 -209.5,-56.6 -318.3,-67.7 -92.25,-9.3 -185,-7.2 -277.62,-7.2 -212.28,-0.4 -424.45,0 -637.11,0 -0.38,160.1 -0.89,319.7 -0.89,479.7 0,76.7 0.51,152.9 0.89,229.6 204.2,0 408.78,0 612.97,0.5 20.1,0 40.57,0 60.15,3.5 125.73,22.3 233.14,80.3 317.93,176 88.71,100.4 137.74,216.8 137.23,352.2 0,254.1 0.51,507.7 0,761.9 0,55.3 -0.38,110.1 -0.89,165.4 54.84,0.5 110.19,1.3 164.9,1.3 182.85,0 365.57,-0.5 548.42,-0.8"
         style="fill:#53a394;fill-opacity:1;fill-rule:evenodd;stroke:none"
         id="path20" />
      <path
         d="M 17514.2,346.699 V 1909 h 305 V 346.699 Z m -168.9,487.102 c 0,-71.699 -12.1,-137.199 -36.2,-196.399 -24.2,-59.199 -58.6,-110.402 -103.2,-153.601 -44.6,-43.098 -98,-76.801 -160.2,-100.899 -62.1,-24.199 -131.2,-36.203 -207.3,-36.203 H 16224 V 1909 h 305 v -588.1 h 309.4 c 76.1,0 145.2,-12.1 207.3,-36.2 62.2,-24.1 115.6,-57.8 160.2,-100.9 44.6,-43.2 79,-94.4 103.2,-153.6 24.1,-59.298 36.2,-124.7 36.2,-196.399 z m -305,0 c 0,64.402 -20.1,116.301 -60.4,155.801 -40.2,39.498 -95.4,59.198 -165.6,59.198 H 16529 V 618.801 h 285.3 c 70.2,0 125.4,19.301 165.6,58.097 40.3,38.805 60.4,91.102 60.4,156.903 z M 15697.4,1147.6 c 30.7,-16.1 54.1,-30 70.2,-41.7 16.1,-11.7 32.2,-25.6 48.3,-41.7 33.6,-36.6 58.1,-76.798 73.5,-120.7 15.4,-43.898 23,-93.598 23,-149.199 0,-68.801 -10.9,-130.598 -32.9,-185.403 -21.9,-54.898 -53.7,-101.699 -95.4,-140.496 -41.7,-38.703 -92.2,-68.703 -151.4,-89.902 -59.3,-21.199 -125.5,-31.801 -198.6,-31.801 h -653.9 V 1909 h 627.6 c 73.1,0 139.7,-10.3 199.6,-30.8 60,-20.4 110.9,-49.3 152.5,-86.6 41.7,-37.3 73.9,-82.3 96.6,-135 22.7,-52.6 34,-111.9 34,-177.7 0,-149.2 -64.4,-259.7 -193.1,-331.3 z m -313.8,129.4 c 62.9,0 112.3,16.1 148.1,48.3 35.9,32.2 53.8,76.1 53.8,131.6 0,55.6 -17.9,99.5 -53.8,131.7 -35.8,32.2 -85.2,48.3 -148.1,48.3 h -298.4 V 1277 h 298.4 z m 19.8,-658.199 c 62.9,0 112.6,17.101 149.2,51.5 36.6,34.398 54.8,81.597 54.8,141.5 0,60 -18.2,106.801 -54.8,140.5 -36.6,33.601 -86.3,50.399 -149.2,50.399 h -318.2 V 618.801 h 318.2 z M 14229.5,346.699 13827.9,1057.6 13626.1,816.203 V 346.699 h -305 V 1909 h 305 v -680.3 l 550.7,680.3 h 370.8 l -517.8,-621 555.1,-941.301 h -355.4 z m -1184.9,166.703 c -21.9,-20.402 -41,-37.601 -57,-51.504 -16.1,-13.898 -31.9,-25.996 -47.2,-36.195 -15.4,-10.301 -30.7,-19.402 -46.1,-27.5 -15.4,-8.004 -32.5,-15.703 -51.6,-23.004 -33.6,-13.199 -69.5,-23.398 -107.5,-30.699 -38,-7.301 -78.2,-11 -120.7,-11 -172.6,0 -314.5,57.102 -425.6,171.199 -38.1,39.403 -67.7,81.903 -88.9,127.199 -21.2,45.403 -36.6,93.602 -46.1,144.801 -9.5,51.203 -15,106.102 -16.4,164.602 -1.5,58.5 -2.2,120.699 -2.2,186.499 v 63.6 c 0,77.6 2.2,144.5 6.5,200.8 4.4,56.3 12.5,106.1 24.2,149.2 11.7,43.2 27.4,81.2 47.2,114.1 19.7,32.9 44.9,64.8 75.7,95.5 111.1,114.1 252.3,171.1 423.4,171.1 87.8,0 164.6,-13.9 230.4,-41.7 36.6,-16.1 68.8,-32.9 96.6,-50.4 27.8,-17.6 62.9,-46.8 105.3,-87.8 l -201.9,-201.9 c -42.4,42.4 -80.1,71.3 -113,86.7 -32.9,15.4 -72,23 -117.4,23 -81.9,0 -147,-27 -195.2,-81.2 -19.1,-21.9 -33.7,-47.9 -43.9,-77.8 -10.3,-30 -17.9,-62.6 -23.1,-97.7 -5.1,-35.1 -8,-71.7 -8.7,-109.7 -0.8,-38 -1.1,-75.3 -1.1,-111.9 v -83.4 c 0,-61.4 1.1,-113.698 3.3,-156.902 2.1,-43.097 6.2,-80.097 12,-110.796 5.9,-30.7 13.6,-56.301 23.1,-76.801 9.5,-20.5 22.3,-39.5 38.4,-57 48.2,-54.199 113.3,-81.199 195.2,-81.199 45.4,0 84.5,7.699 117.4,23 32.9,15.398 70.6,44.3 113,86.699 l 201.9,-201.899 z M 11776.3,1127.8 c 0,-55.6 -0.3,-111.2 -1,-166.698 -0.8,-55.602 -5.5,-110.102 -14.3,-163.5 -8.8,-53.403 -24.1,-104.602 -46.1,-153.602 -21.9,-49 -53.4,-95.5 -94.3,-139.301 -109.8,-114.097 -250.2,-171.199 -421.3,-171.199 -171.2,0 -312.3,57.102 -423.5,171.199 -41,42.403 -72.1,89.199 -93.3,140.403 -21.2,51.199 -36.2,103.796 -44.9,158 -8.8,54.097 -13.6,107.097 -14.3,159.097 -0.7,51.901 -1.1,99.801 -1.1,143.701 v 85.5 c 0,77.6 2.2,144.5 6.6,200.8 4.4,56.3 12.4,106.1 24.1,149.2 11.7,43.2 27.4,81.2 47.2,114.1 19.7,32.9 45,64.8 75.7,95.5 111.2,114.1 252.3,171.1 423.5,171.1 169.7,0 310.1,-57 421.3,-171.1 54.1,-55.6 93.6,-123.6 118.4,-204.1 24.9,-80.4 37.3,-183.6 37.3,-309.4 v -109.7 z m -304.9,28.5 c 0,64.4 -1.1,118.9 -3.3,163.5 -2.2,44.6 -6.3,82.3 -12.1,113 -5.9,30.7 -13.9,56.3 -24.1,76.8 -10.3,20.5 -22.7,39.5 -37.3,57.1 -48.3,55.5 -113.4,83.3 -195.3,83.3 -39.5,0 -76.1,-6.9 -109.7,-20.8 -33.7,-13.9 -62.9,-34.7 -87.8,-62.5 -35.1,-38.1 -56.3,-92.9 -63.6,-164.6 -7.4,-71.7 -11,-155.8 -11,-252.3 0,-48.3 0,-95.5 0,-141.6 0,-46.001 2.2,-89.2 6.6,-129.399 4.4,-40.301 11.7,-76.801 21.9,-109.699 10.3,-33 25.6,-59.602 46.1,-80.102 55.6,-55.598 121.4,-83.398 197.5,-83.398 81.9,0 147,27.8 195.3,83.398 16,17.5 29.2,36.902 39.4,58.102 10.3,21.199 18,49 23.1,83.398 5.1,34.402 8.8,77.5 11,129.5 2.2,51.9 3.3,117.3 3.3,196.3 z M 10005.6,346.699 V 1257.3 L 9707.2,664.801 H 9500.94 L 9200.34,1257.3 V 346.699 H 8895.35 V 1909 h 300.6 L 9604.08,1064.2 10010,1909 h 300.6 V 346.699 h -305 z m -2130.56,0 -92.16,276.403 H 7227.74 L 7133.39,346.699 H 6815.23 L 7383.53,1909 H 7622.7 L 8193.19,346.699 H 7875.04 Z M 7510.8,1448.2 7313.32,879.902 h 388.37 L 7510.8,1448.2 Z M 6448.8,0 V 346.699 H 5584.27 V 0 h -294.02 v 618.801 h 155.79 c 30.71,77.5 57.41,156.5 80.09,236.902 22.67,80.5 40.96,168.297 54.85,263.297 13.9,95.1 24.5,201.2 31.82,318.2 7.31,117 10.97,250.9 10.97,401.5 v 70.3 h 939.12 V 618.801 h 179.93 V 0 H 6448.8 Z m -190.9,1636.9 h -333.52 v -50.5 c 0,-115.6 -4.03,-218.7 -12.07,-309.4 -8.05,-90.7 -19.02,-173.7 -32.91,-249 -13.9,-75.398 -31.09,-145.898 -51.57,-211.797 -20.48,-65.801 -42.42,-131.601 -65.83,-197.402 h 495.9 V 1636.9 Z M 5116.91,1127.8 c 0,-55.6 -0.37,-111.2 -1.1,-166.698 C 5115.08,905.5 5110.32,851 5101.54,797.602 5092.77,744.199 5077.41,693 5055.47,644 5033.53,595 5002.08,548.5 4961.11,504.699 4851.4,390.602 4710.98,333.5 4539.83,333.5 c -171.15,0 -312.31,57.102 -423.49,171.199 -40.95,42.403 -72.04,89.199 -93.25,140.403 -21.21,51.199 -36.2,103.796 -44.98,158 -8.78,54.097 -13.53,107.097 -14.27,159.097 -0.72,51.901 -1.09,99.801 -1.09,143.701 v 85.5 c 0,77.6 2.19,144.5 6.58,200.8 4.39,56.3 12.44,106.1 24.14,149.2 11.7,43.2 27.43,81.2 47.18,114.1 19.74,32.9 44.98,64.8 75.69,95.5 111.18,114.1 252.34,171.1 423.49,171.1 169.68,0 310.11,-57 421.28,-171.1 54.13,-55.6 93.63,-123.6 118.5,-204.1 24.86,-80.4 37.3,-183.6 37.3,-309.4 v -109.7 z m -305,28.5 c 0,64.4 -1.1,118.9 -3.29,163.5 -2.19,44.6 -6.22,82.3 -12.07,113 -5.85,30.7 -13.9,56.3 -24.14,76.8 -10.24,20.5 -22.67,39.5 -37.3,57.1 -48.27,55.5 -113.37,83.3 -195.28,83.3 -39.5,0 -76.07,-6.9 -109.71,-20.8 -33.65,-13.9 -62.9,-34.7 -87.77,-62.5 -35.11,-38.1 -56.32,-92.9 -63.63,-164.6 -7.32,-71.7 -10.97,-155.8 -10.97,-252.3 0,-48.3 0,-95.5 0,-141.6 0,-46.001 2.19,-89.2 6.58,-129.399 4.39,-40.301 11.7,-76.801 21.94,-109.699 10.24,-33 25.6,-59.602 46.08,-80.102 55.59,-55.598 121.41,-83.398 197.48,-83.398 81.91,0 147.01,27.8 195.28,83.398 16.09,17.5 29.26,36.902 39.5,58.102 10.24,21.199 17.92,49 23.04,83.398 5.12,34.402 8.78,77.5 10.97,129.5 2.19,51.9 3.29,117.3 3.29,196.3 z M 3243.05,1909 c 74.6,0 143.72,-12.1 207.35,-36.2 63.63,-24.2 118.12,-57.8 163.47,-101 45.35,-43.1 80.82,-94.3 106.42,-153.6 25.6,-59.2 38.4,-124.7 38.4,-196.4 0,-71.6 -12.8,-137.1 -38.4,-196.3 -25.6,-59.3 -61.07,-110.5 -106.42,-153.6 -45.35,-43.2 -99.47,-76.798 -162.37,-100.998 -62.9,-24.101 -132.39,-36.203 -208.45,-36.203 h -300.61 v -588 h -305 V 1909 h 605.61 z m -15.36,-700 c 68.75,0 123.61,19 164.56,57 40.96,38.1 61.44,90 61.44,155.8 0,65.9 -20.48,118.2 -61.44,156.9 -40.95,38.8 -95.81,58.2 -164.56,58.2 H 2942.44 V 1209 h 285.25 z m -901.82,-81.2 c 0,-55.6 -0.37,-111.2 -1.1,-166.698 C 2324.04,905.5 2319.28,851 2310.5,797.602 2301.73,744.199 2286.37,693 2264.43,644 2242.49,595 2211.04,548.5 2170.07,504.699 2060.36,390.602 1919.94,333.5 1748.79,333.5 c -171.15,0 -312.31,57.102 -423.49,171.199 -40.95,42.403 -72.04,89.199 -93.25,140.403 -21.21,51.199 -36.2,103.796 -44.98,158 -8.78,54.097 -13.53,107.097 -14.27,159.097 -0.72,51.901 -1.09,99.801 -1.09,143.701 v 85.5 c 0,77.6 2.19,144.5 6.58,200.8 4.39,56.3 12.44,106.1 24.14,149.2 11.7,43.2 27.42,81.2 47.18,114.1 19.74,32.9 44.98,64.8 75.69,95.5 111.18,114.1 252.34,171.1 423.49,171.1 169.68,0 310.11,-57 421.28,-171.1 54.13,-55.6 93.63,-123.6 118.5,-204.1 24.86,-80.4 37.3,-183.6 37.3,-309.4 v -109.7 z m -305,28.5 c 0,64.4 -1.1,118.9 -3.29,163.5 -2.19,44.6 -6.22,82.3 -12.07,113 -5.85,30.7 -13.9,56.3 -24.14,76.8 -10.24,20.5 -22.67,39.5 -37.3,57.1 -48.27,55.5 -113.37,83.3 -195.28,83.3 -39.5,0 -76.07,-6.9 -109.71,-20.8 -33.65,-13.9 -62.9,-34.7 -87.77,-62.5 -35.11,-38.1 -56.32,-92.9 -63.63,-164.6 -7.32,-71.7 -10.97,-155.8 -10.97,-252.3 0,-48.3 0,-95.5 0,-141.6 0,-46.001 2.19,-89.2 6.58,-129.399 4.39,-40.301 11.7,-76.801 21.94,-109.699 10.24,-33 25.6,-59.602 46.08,-80.102 55.59,-55.598 121.41,-83.398 197.48,-83.398 81.91,0 147.01,27.8 195.28,83.398 16.09,17.5 29.26,36.902 39.5,58.102 10.24,21.199 17.92,49 23.04,83.398 5.12,34.402 8.78,77.5 10.97,129.5 2.19,51.9 3.29,117.3 3.29,196.3 z M 304.996,1636.9 V 346.699 L 0,346.699 V 1909 H 983.008 V 1636.9 H 304.996 Z m 12502.604,910.6 -92.1,276.4 h -555.2 l -94.3,-276.4 h -318.2 l 568.3,1562.2 h 239.2 l 570.5,-1562.2 h -318.2 z m -364.2,1101.5 -197.5,-568.3 h 388.4 l -190.9,568.3 z m -1180.5,188.7 V 2547.5 h -305 v 1290.2 h -408.1 v 272 H 11671 v -272 h -408.1 z m -1108.1,-1290.2 -92.1,276.4 h -555.17 l -94.36,-276.4 h -318.15 l 568.3,1562.2 h 239.17 L 10473,2547.5 h -318.2 z M 9790.58,3649 9593.1,3080.7 h 388.38 L 9790.58,3649 Z M 8594.73,2547.5 v 1290.2 h -355.46 l -17.55,-653.9 c -5.85,-220.9 -49.37,-382.2 -130.56,-483.8 -81.18,-101.7 -197.84,-152.5 -349.98,-152.5 h -133.84 v 272.1 h 50.46 c 35.11,0 67.66,5.4 97.65,16.4 29.99,11 56.68,30.7 80.08,59.3 23.41,28.5 41.7,67.2 54.86,116.2 13.17,49 21.21,110.9 24.14,185.5 l 24.13,912.7 h 961.07 V 2547.5 h -305 z m -1345.05,0 -92.16,276.4 h -555.13 l -94.36,-276.4 h -318.16 l 568.31,1562.2 h 239.16 l 570.5,-1562.2 H 7249.68 Z M 6885.44,3649 6687.96,3080.7 h 388.38 L 6885.44,3649 Z M 5691.79,2547.5 V 3837.7 H 5162.98 V 2547.5 h -305 v 1562.2 h 1138.8 V 2547.5 H 5691.79 Z M 17165.3,4748.3 v 588 h -239.1 l -267.7,-588 h -362.1 l 322.6,649.5 c -83.4,36.5 -149.2,91.7 -197.5,165.6 -48.3,73.9 -72.4,160.6 -72.4,260 0,71.7 12.8,137.2 38.4,196.4 25.6,59.3 61.1,110.5 106.4,153.6 45.4,43.2 99.8,76.8 163.5,100.9 63.6,24.2 132.7,36.2 207.3,36.2 h 605.6 V 4748.3 h -305 z m 0,1290.2 h -285.2 c -68.8,0 -123.6,-19.4 -164.6,-58.2 -40.9,-38.7 -61.4,-91 -61.4,-156.9 0,-64.3 20.5,-115.9 61.4,-154.7 41,-38.7 95.8,-58.1 164.6,-58.1 h 285.2 v 427.9 z m -1270.4,-1290.2 -92.2,276.4 h -555.1 l -94.4,-276.4 h -318.1 l 568.3,1562.2 h 239.1 L 16213,4748.3 h -318.1 z m -364.2,1101.5 -197.5,-568.3 h 388.3 l -190.8,568.3 z M 14337,4748.3 v 653.8 h -528.8 v -653.8 h -305 v 1562.2 h 305 V 5672 h 528.8 v 638.5 h 305 V 4748.3 h -305 z m -1503,0 v 653.8 h -528.8 v -653.8 h -305 v 1562.2 h 305 V 5672 h 528.8 v 638.5 h 305 V 4748.3 h -305 z m -2161.3,0 v 1562.2 h 1029 v -272 h -724 V 5672 h 616.5 v -272.1 h -616.5 v -379.6 h 724 v -272 h -1029 z m -526.7,800.9 c 30.8,-16.1 54.2,-30 70.3,-41.7 16,-11.7 32.1,-25.6 48.2,-41.7 33.7,-36.6 58.2,-76.8 73.5,-120.7 15.4,-43.9 23.1,-93.6 23.1,-149.2 0,-68.8 -11,-130.6 -32.9,-185.4 -22,-54.9 -53.8,-101.7 -95.5,-140.5 -41.7,-38.7 -92.1,-68.7 -151.4,-89.9 -59.2,-21.2 -125.42,-31.8 -198.56,-31.8 h -653.88 v 1562.2 h 627.55 c 73.14,0 139.7,-10.2 199.69,-30.7 60,-20.5 110.8,-49.3 152.5,-86.6 41.7,-37.3 73.8,-82.3 96.5,-135 22.7,-52.7 34,-111.9 34,-177.7 0,-149.2 -64.3,-259.7 -193.1,-331.3 z m -313.73,129.4 c 62.9,0 112.28,16.1 148.11,48.3 35.82,32.2 53.72,76.1 53.72,131.6 0,55.6 -17.9,99.5 -53.72,131.7 -35.83,32.2 -85.21,48.3 -148.11,48.3 h -298.41 v -359.9 h 298.41 z m 19.75,-658.3 c 62.9,0 112.63,17.2 149.18,51.6 36.6,34.4 54.9,81.6 54.9,141.5 0,60 -18.3,106.8 -54.9,140.5 -36.55,33.6 -86.28,50.4 -149.18,50.4 h -318.16 v -384 h 318.16 z M 8572.79,6038.5 V 4748.3 H 8267.8 v 1290.2 h -408.13 v 272 h 1121.24 v -272 H 8572.79 Z M 7699.49,4915 c -21.94,-20.5 -40.95,-37.6 -57.04,-51.5 -16.1,-13.9 -31.82,-26 -47.18,-36.2 -15.36,-10.3 -30.72,-19.4 -46.07,-27.5 -15.37,-8 -32.56,-15.7 -51.57,-23 -33.64,-13.2 -69.48,-23.4 -107.52,-30.7 -38.03,-7.3 -78.26,-11 -120.68,-11 -172.61,0 -314.5,57 -425.68,171.1 -38.03,39.5 -67.65,82 -88.86,127.3 -21.21,45.4 -36.57,93.6 -46.08,144.8 -9.51,51.2 -15,106.1 -16.46,164.6 -1.46,58.5 -2.19,120.7 -2.19,186.5 v 63.6 c 0,77.6 2.19,144.5 6.58,200.8 4.39,56.3 12.44,106.1 24.14,149.2 11.7,43.2 27.43,81.2 47.17,114.1 19.75,32.9 44.98,64.7 75.7,95.5 111.18,114.1 252.34,171.1 423.49,171.1 87.77,0 164.56,-13.9 230.39,-41.7 36.57,-16.1 68.75,-32.9 96.55,-50.4 27.79,-17.6 62.9,-46.9 105.31,-87.8 l -201.86,-201.9 c -42.42,42.4 -80.09,71.3 -113,86.7 -32.91,15.3 -72.05,23 -117.39,23 -81.92,0 -147.01,-27 -195.29,-81.2 -19.01,-21.9 -33.64,-47.9 -43.88,-77.9 -10.24,-29.9 -17.92,-62.5 -23.04,-97.6 -5.12,-35.1 -8.05,-71.7 -8.78,-109.7 -0.73,-38 -1.1,-75.3 -1.1,-111.9 v -83.4 c 0,-61.4 1.1,-113.7 3.29,-156.9 2.2,-43.1 6.22,-80.1 12.07,-110.8 5.85,-30.7 13.53,-56.3 23.04,-76.8 9.51,-20.5 22.31,-39.5 38.4,-57 48.28,-54.2 113.37,-81.2 195.29,-81.2 45.34,0 84.48,7.7 117.39,23 32.91,15.4 70.58,44.3 113,86.7 L 7699.49,4915 Z M 5415.32,4748.3 v 1562.2 h 1029.09 v -272 H 5720.32 V 5672 h 616.57 v -272.1 h -616.57 v -379.6 h 724.09 v -272 H 5415.32 Z m -535.39,-346.7 v 346.7 H 3190.39 v 1562.2 h 304.99 V 5020.3 h 445.43 V 6310.5 H 4245.8 V 5020.3 h 443.23 v 1290.2 h 305 V 5020.3 h 179.93 v -618.7 h -294.03 z m -1992.35,833.8 c 0,-71.7 -11.69,-137.2 -35.1,-196.4 -23.41,-59.2 -56.69,-110.4 -99.84,-153.6 -43.15,-43.2 -96.18,-76.8 -159.08,-100.9 -62.9,-24.2 -133.85,-36.2 -212.84,-36.2 h -625.35 v 1562.2 h 1033.47 v -272 h -728.47 v -316 h 320.35 c 78.99,0 149.57,-12.1 211.75,-36.2 62.16,-24.1 115.19,-57.8 159.07,-100.9 43.89,-43.2 77.53,-94.4 100.94,-153.6 23.41,-59.3 35.1,-124.7 35.1,-196.4 z m -304.99,0 c 0,64.3 -19.01,116.3 -57.05,155.8 -38.03,39.5 -91.43,59.2 -160.18,59.2 h -304.99 v -430.1 h 304.99 c 68.75,0 122.15,19.4 160.18,58.2 38.04,38.8 57.05,91.1 57.05,156.9 z m -1138.79,294 c 0,-55.6 -0.37,-111.2 -1.1,-166.8 -0.74,-55.5 -5.49,-110 -14.27,-163.4 -8.78,-53.4 -24.13,-104.6 -46.07,-153.6 -21.95,-49 -53.4,-95.5 -94.36,-139.4 -109.71,-114.1 -250.14,-171.1 -421.285,-171.1 -171.152,0 -312.309,57 -423.485,171.1 -40.957,42.5 -72.042,89.3 -93.253,140.5 -21.211,51.2 -36.207,103.8 -44.981,158 -8.777,54.1 -13.531,107.1 -14.262,159 -0.734,52 -1.097,99.9 -1.097,143.8 v 85.5 c 0,77.6 2.191,144.5 6.582,200.8 4.386,56.3 12.433,106.1 24.133,149.2 11.707,43.2 27.429,81.2 47.179,114.1 19.746,32.9 44.981,64.7 75.699,95.5 111.176,114.1 252.333,171.1 423.485,171.1 169.685,0 310.115,-57 421.285,-171.1 54.13,-55.6 93.62,-123.6 118.49,-204.1 24.87,-80.5 37.31,-183.6 37.31,-309.4 v -109.7 z m -305,28.5 c 0,64.4 -1.1,118.9 -3.3,163.5 -2.19,44.6 -6.21,82.3 -12.06,113 -5.85,30.7 -13.9,56.3 -24.14,76.8 -10.24,20.5 -22.67,39.5 -37.3,57 -48.27,55.6 -113.371,83.4 -195.285,83.4 -39.496,0 -76.07,-6.9 -109.711,-20.8 -33.645,-13.9 -62.902,-34.8 -87.77,-62.6 -35.105,-38 -56.316,-92.8 -63.632,-164.5 -7.313,-71.7 -10.973,-155.8 -10.973,-252.4 0,-48.2 0,-95.4 0,-141.5 0,-46.1 2.199,-89.2 6.582,-129.4 4.391,-40.3 11.707,-76.8 21.945,-109.8 10.239,-32.9 25.602,-59.6 46.078,-80 55.586,-55.6 121.411,-83.4 197.481,-83.4 81.914,0 147.015,27.8 195.285,83.4 16.09,17.5 29.26,36.9 39.5,58.1 10.23,21.2 17.92,49 23.03,83.4 5.12,34.4 8.78,77.5 10.97,129.5 2.2,51.9 3.3,117.3 3.3,196.3 v 0"
         style="fill:#29575e;fill-opacity:1;fill-rule:evenodd;stroke:none"
         id="path22" />
    </g>
  </g>
</svg>
