<svg width="183" height="160" viewBox="0 0 183 160" fill="none" xmlns="http://www.w3.org/2000/svg">
<path fill-rule="evenodd" clip-rule="evenodd" d="M74.3317 99.9963V88.6049H76.2778L67.8938 79.5L65.4121 82.0662V99.9963H74.3355H74.3317ZM66.7774 93.659H68.5651V96.7326H66.7774V93.659ZM70.5036 88.769H72.28V91.8388H70.5036V88.769Z" fill="white"/>
<path fill-rule="evenodd" clip-rule="evenodd" d="M66.4987 78.2203L58.1034 69.1191L56.1309 71.1594V99.996H64.4734V78.2203H66.4987ZM59.7666 88.1458H61.5467V91.2156H59.7666V88.1458ZM59.7666 80.5814H61.5467V83.6549H59.7666V80.5814Z" fill="white"/>
<path fill-rule="evenodd" clip-rule="evenodd" d="M55.2631 68.1459H55.2028V99.9963H46.6679V79.1942L50.2244 79.2054L42.2779 70.977V68.1012H40.3242L48.7083 59L57.56 68.1497H55.2631V68.1459ZM50.4432 82.7377H52.2233V85.8074H50.4432V82.7377ZM45.1744 69.6006H46.9621V72.6704H45.1744V69.6006Z" fill="white"/>
<path fill-rule="evenodd" clip-rule="evenodd" d="M22.9574 99.9963V88.6049H21L29.3878 79.5L31.8657 82.0662V99.9963H22.9574ZM25.1147 88.4855H26.8949V91.5553H25.1147V88.4855Z" fill="white"/>
<path fill-rule="evenodd" clip-rule="evenodd" d="M45.7353 78.2688V99.9997H32.8065V78.2203H30.7812L39.1766 69.1191L48.0283 78.2763L45.7315 78.2651L45.7353 78.2688ZM41.1604 87.5751H42.9481V90.6486H41.1604V87.5751ZM41.1604 78.7015H42.9481V81.775H41.1604V78.7015ZM35.0657 83.5915H36.8534V86.6613H35.0657V83.5915Z" fill="white"/>
<path d="M83.7754 75.6728H85.8686V73.7406L86.6342 72.8976L88.535 75.6728H91.0506L88.0938 71.4131L90.9563 68.1979H88.4747L85.8723 71.2303V68.1979H83.7792V75.6728H83.7754ZM95.814 75.822C98.1448 75.822 99.8948 74.08 99.8948 71.9353C99.8948 69.7906 98.1675 68.0487 95.8367 68.0487C93.5059 68.0487 91.7559 69.7906 91.7559 71.9353C91.7559 74.08 93.4832 75.822 95.814 75.822ZM95.8367 73.9532C94.6939 73.9532 93.9056 73.0133 93.9056 71.9353C93.9056 70.8573 94.6713 69.9174 95.8178 69.9174C96.9643 69.9174 97.7601 70.8573 97.7601 71.9353C97.7601 73.0133 96.9945 73.9532 95.8367 73.9532ZM101.343 75.6728H105.239C107.042 75.6728 108.102 74.8932 108.102 73.6101C108.102 72.5731 107.517 72.0621 106.601 71.7637C107.268 71.4765 107.766 70.9618 107.766 70.0964C107.766 69.563 107.581 69.1676 107.279 68.8692C106.838 68.4328 106.167 68.1979 105.216 68.1979H101.339V75.6728H101.343ZM103.383 74.0054V72.6291H104.983C105.684 72.6291 106.008 72.8976 106.008 73.3005C106.008 73.7593 105.643 74.0054 105.005 74.0054H103.387H103.383ZM103.383 71.1744V69.8614H104.745C105.371 69.8614 105.695 70.0964 105.695 70.503C105.695 70.9618 105.341 71.1744 104.703 71.1744H103.387H103.383ZM113.22 75.8182C115.55 75.8182 117.3 74.0763 117.3 71.9316C117.3 69.7868 115.573 68.0449 113.238 68.0449C110.904 68.0449 109.158 69.7868 109.158 71.9316C109.158 74.0763 110.885 75.8182 113.216 75.8182H113.22ZM113.242 73.9495C112.099 73.9495 111.311 73.0095 111.311 71.9316C111.311 70.8536 112.077 69.9136 113.223 69.9136C114.37 69.9136 115.166 70.8536 115.166 71.9316C115.166 73.0095 114.4 73.9495 113.242 73.9495ZM118.749 75.669H120.842V73.5317H121.879C123.757 73.5317 125.13 72.603 125.13 70.8424C125.13 69.0819 123.9 68.1941 121.988 68.1941H118.749V75.669ZM120.842 71.9092V69.9323H121.826C122.58 69.9323 123.037 70.2755 123.037 70.9133C123.037 71.5511 122.584 71.9055 121.837 71.9055H120.846L120.842 71.9092ZM126.367 75.669H128.46V73.7369L129.226 72.8939L131.127 75.669H133.642L130.685 71.4094L133.548 68.1941H131.066L128.464 71.2266V68.1941H126.371V75.669H126.367ZM134.604 75.669H136.558L139.484 71.4616V75.669H141.559V68.1979H139.605L136.678 72.4053V68.1979H134.604V75.6728V75.669ZM143.252 75.669H145.345V72.8305H148.034V75.669H150.127V68.1979H148.034V70.9953H145.345V68.1979H143.252V75.6728V75.669ZM151.825 75.669H153.918V70.0106H157.263V68.1941H151.821V75.669H151.825ZM158.161 73.2035H163V71.4616H158.161V73.2035ZM89.3912 89.2537H91.1638L91.4014 85.9451H90.549V80.2868H88.4558V85.9451H85.8761V80.2868H83.7829V87.7617H89.3987V89.2574L89.3912 89.2537ZM92.4687 87.7579H98.6012V85.9974H94.543V84.8112H98.1712V83.1775H94.543V82.0436H98.5484V80.283H92.4687V87.7579ZM100.027 87.7579H102.12V84.9157H104.809V87.7579H106.902V80.283H104.809V83.0805H102.12V80.283H100.027V87.7579ZM110.444 87.7579H112.537V82.0995H114.804V80.283H108.173V82.0995H110.44V87.7579H110.444ZM116.078 87.7579H118.172V85.6206H119.209C121.087 85.6206 122.46 84.6919 122.46 82.9313C122.46 81.1708 121.23 80.283 119.318 80.283H116.078V87.7579ZM118.172 83.9981V82.0212H119.156C119.91 82.0212 120.367 82.3644 120.367 83.0022C120.367 83.64 119.914 83.9944 119.167 83.9944H118.175L118.172 83.9981ZM83.7754 99.8431H85.8686V97.0008H88.5577V99.8431H90.6508V92.3682H88.5577V95.1657H85.8686V92.3682H83.7754V99.8431ZM92.348 99.8431H94.4412V97.911L95.2068 97.068L97.1077 99.8431H99.6233L96.6664 95.5834L99.529 92.3682H97.0473L94.445 95.4007V92.3682H92.3518V99.8431H92.348ZM104.387 99.9923C106.717 99.9923 108.467 98.2504 108.467 96.1056C108.467 93.9609 106.74 92.219 104.409 92.219C102.079 92.219 100.329 93.9609 100.329 96.1056C100.329 98.2504 102.056 99.9923 104.387 99.9923ZM104.409 98.1236C103.267 98.1236 102.478 97.1836 102.478 96.1056C102.478 95.0277 103.244 94.0877 104.39 94.0877C105.537 94.0877 106.333 95.0277 106.333 96.1056C106.333 97.1836 105.567 98.1236 104.409 98.1236Z" fill="white"/>
</svg>
