<svg width="162" height="160" viewBox="0 0 162 160" fill="none" xmlns="http://www.w3.org/2000/svg">
<path d="M65.2226 99.8032C65.7945 100.028 66.3121 100.371 66.7416 100.809C67.179 101.243 67.5163 101.766 67.73 102.343C67.9653 102.985 68.0834 103.663 68.0789 104.347C68.0953 105.046 67.9564 105.74 67.6719 106.38C67.4415 106.976 67.0816 107.515 66.618 107.957C66.1652 108.394 65.6255 108.731 65.0336 108.948C64.4228 109.19 63.7722 109.318 63.1148 109.324H61.8357V112.942H58.834V99.4342H63.2965C63.9572 99.4236 64.613 99.5493 65.2226 99.8032M63.1366 106.546C63.4055 106.562 63.6746 106.52 63.9255 106.422C64.1764 106.325 64.4031 106.175 64.5902 105.982C64.9479 105.527 65.1286 104.959 65.099 104.383C65.1391 103.801 64.9575 103.225 64.5902 102.769C64.4147 102.576 64.1971 102.424 63.9541 102.327C63.7111 102.229 63.449 102.187 63.1875 102.205H61.8357V106.546H63.1366Z" fill="white"/>
<path d="M78.168 102.227H73.0368V112.971H70.0352V99.4414H78.168V102.227Z" fill="white"/>
<path d="M88.2043 102.206H83.1167V104.181H84.5703C85.1987 104.174 85.8234 104.277 86.4164 104.485C86.9555 104.661 87.4509 104.95 87.87 105.331C88.2883 105.711 88.6139 106.181 88.8221 106.706C89.2774 107.889 89.2774 109.198 88.8221 110.381C88.6114 110.925 88.2869 111.418 87.87 111.828C87.4449 112.206 86.9516 112.501 86.4164 112.696C85.8234 112.903 85.1987 113.006 84.5703 113H80.0859V99.4346H88.2043V102.206ZM84.4467 110.2C84.6807 110.217 84.9154 110.184 85.1358 110.104C85.3562 110.024 85.5572 109.899 85.7259 109.737C86.0126 109.402 86.1701 108.976 86.1701 108.536C86.1701 108.096 86.0126 107.67 85.7259 107.335C85.5662 107.178 85.3746 107.057 85.164 106.98C84.9535 106.902 84.7287 106.87 84.5049 106.886H83.0513V110.2H84.4467Z" fill="white"/>
<path d="M96.904 104.39L99.2733 99.4414H102.5V112.971H99.5786V104.426H99.3751L97.6526 108.246H96.0899L94.3674 104.426H94.1639V112.971H91.2422V99.4414H94.491L96.904 104.39Z" fill="white"/>
<path d="M67.5123 49H58.5V90.6511H67.5123V49Z" fill="white"/>
<path d="M94.6507 56.2852H90.1445V82.1136H94.6507V56.2852Z" fill="white"/>
<path d="M83.2768 53.1748H76.5176V85.7028H83.2768V53.1748Z" fill="white"/>
</svg>
