<svg width="162" height="160" viewBox="0 0 162 160" fill="none" xmlns="http://www.w3.org/2000/svg">
<path d="M76.517 69.8116H79.1258L79.7339 71.1724H81.0821L78.438 65.2588H77.2218L74.5781 71.1724H75.9089L76.517 69.8116ZM77.8212 66.7708L78.7202 68.812H76.9134L77.8212 66.7708Z" fill="white"/>
<path d="M81.9806 70.6768C82.4476 71.08 83.0117 71.2816 83.6638 71.2816C84.1839 71.2816 84.6422 71.1808 85.0564 70.9708V69.9628C84.7127 70.156 84.3159 70.2484 83.8663 70.2484C83.4874 70.2484 83.1615 70.1392 82.8971 69.9208C82.6327 69.7024 82.5003 69.4168 82.5003 69.0724C82.5003 68.728 82.6327 68.4424 82.888 68.2324C83.1524 68.014 83.4787 67.9048 83.8663 67.9048C84.2279 67.9048 84.6069 67.9888 84.9858 68.1568V67.1488C84.5977 66.964 84.166 66.8716 83.6812 66.8716C83.0204 66.8716 82.4563 67.0732 81.9806 67.4764C81.5132 67.8712 81.2754 68.4004 81.2754 69.064C81.2754 69.7276 81.5132 70.2652 81.9806 70.6768Z" fill="white"/>
<path d="M86.3791 70.6768C86.846 71.08 87.4101 71.2816 88.0622 71.2816C88.5823 71.2816 89.0406 71.1808 89.4549 70.9708V69.9628C89.1112 70.156 88.7143 70.2484 88.2648 70.2484C87.8858 70.2484 87.56 70.1392 87.2956 69.9208C87.0312 69.7024 86.8987 69.4168 86.8987 69.0724C86.8987 68.728 87.0312 68.4424 87.2869 68.2324C87.5513 68.014 87.8771 67.9048 88.2648 67.9048C88.6263 67.9048 89.0053 67.9888 89.3843 68.1568V67.1488C88.9966 66.964 88.5645 66.8716 88.0801 66.8716C87.4188 66.8716 86.8547 67.0732 86.3791 67.4764C85.9117 67.8712 85.6738 68.4004 85.6738 69.064C85.6738 69.7276 85.9117 70.2652 86.3791 70.6768Z" fill="white"/>
<path d="M92.5212 71.2816C93.2351 71.2816 93.8167 71.0716 94.2749 70.6516C94.7332 70.2232 94.9623 69.7024 94.9623 69.0724C94.9623 68.4592 94.7332 67.9384 94.2749 67.51C93.8167 67.0816 93.2351 66.8716 92.5212 66.8716C91.8072 66.8716 91.2257 67.0816 90.7675 67.51C90.3092 67.93 90.0801 68.4508 90.0801 69.0724C90.0801 69.7024 90.3092 70.2232 90.7675 70.6516C91.2257 71.0716 91.8072 71.2816 92.5212 71.2816ZM91.6487 68.2408C91.8778 68.014 92.1688 67.9048 92.5212 67.9048C92.8736 67.9048 93.1646 68.014 93.3937 68.2408C93.6228 68.4592 93.7374 68.7364 93.7374 69.0724C93.7374 69.4084 93.6228 69.6856 93.3937 69.9124C93.1646 70.1392 92.8736 70.2484 92.5212 70.2484C92.1688 70.2484 91.8778 70.1392 91.6487 69.9124C91.4195 69.6856 91.305 69.4084 91.305 69.0724C91.305 68.7364 91.4195 68.4592 91.6487 68.2408Z" fill="white"/>
<path d="M99.615 72.2394H100.814V70.1814H100.091V66.981H98.8484V70.1814H97.0768V66.981H95.834V71.1726H99.615V72.2394Z" fill="white"/>
<path d="M104.788 68.703V71.1726H106.013V66.981H104.849L102.858 69.4506V66.981H101.633V71.1726H102.796L104.788 68.703Z" fill="white"/>
<path d="M108.473 71.2816C109.099 71.2816 109.601 71.0884 109.989 70.7104C110.156 71.0716 110.482 71.248 110.985 71.248C111.276 71.248 111.496 71.1892 111.654 71.0716V70.2064C111.593 70.24 111.505 70.2568 111.399 70.2568C111.196 70.2568 111.09 70.1476 111.09 69.9376V68.518C111.09 68.0056 110.897 67.6024 110.509 67.3084C110.13 67.0144 109.618 66.8716 108.993 66.8716C108.35 66.8716 107.812 66.9808 107.363 67.2076V68.1988C107.777 67.9636 108.226 67.846 108.693 67.846C109.469 67.846 109.857 68.1064 109.857 68.6356V68.7616C109.504 68.5852 109.081 68.5012 108.587 68.5012C108.112 68.5012 107.706 68.6188 107.363 68.854C107.019 69.0892 106.852 69.4336 106.852 69.8788C106.852 70.7272 107.521 71.2816 108.473 71.2816ZM108.94 69.274C109.301 69.274 109.601 69.358 109.857 69.5176V69.9376C109.628 70.2232 109.293 70.366 108.861 70.366C108.402 70.366 108.076 70.1896 108.076 69.82C108.076 69.4756 108.411 69.274 108.94 69.274Z" fill="white"/>
<path d="M116.246 72.2394H117.444V70.1814H116.722V66.981H115.479V70.1814H113.708V66.981H112.465V71.1726H116.246V72.2394Z" fill="white"/>
<path d="M121.419 68.703V71.1726H122.644V66.981H121.481L119.489 69.4506V66.981H118.264V71.1726H119.427L121.419 68.703Z" fill="white"/>
<path d="M124.767 71.1726L125.781 69.7866H126.53V71.1726H127.772V66.981H125.411C124.256 66.981 123.683 67.5606 123.683 68.3418C123.683 68.9634 123.974 69.375 124.556 69.5766L123.375 71.1726H124.767ZM125.614 67.905H126.53V68.9298H125.614C125.199 68.9298 124.952 68.745 124.952 68.4174C124.952 68.0898 125.199 67.905 125.614 67.905Z" fill="white"/>
<path d="M76.3689 76.6323C76.6333 76.4139 76.9591 76.3047 77.3468 76.3047C77.7084 76.3047 78.0873 76.3887 78.4663 76.5567V75.5487C78.0786 75.3639 77.6465 75.2715 77.1617 75.2715C76.5009 75.2715 75.9368 75.4731 75.4611 75.8763C74.9937 76.2711 74.7559 76.8003 74.7559 77.4639C74.7559 78.1275 74.9937 78.6651 75.4611 79.0767C75.9281 79.4799 76.4922 79.6815 77.1443 79.6815C77.6644 79.6815 78.1226 79.5807 78.5369 79.3707V78.3627C78.1932 78.5559 77.7963 78.6483 77.3468 78.6483C76.9678 78.6483 76.642 78.5391 76.3776 78.3207C76.1132 78.1023 75.9808 77.8167 75.9808 77.4723C75.9808 77.1279 76.1132 76.8423 76.3689 76.6323Z" fill="white"/>
<path d="M81.7068 79.572V76.3716H83.0989V75.3804H79.0801V76.3716H80.4553V79.572H81.7068Z" fill="white"/>
<path d="M84.4224 80.2692C84.1845 80.2692 83.9554 80.2104 83.7529 80.1012V81.1344C83.9733 81.2436 84.2725 81.3024 84.6341 81.3024C85.4186 81.3024 86.0001 80.874 86.3878 80.0088L88.4238 75.3804H87.1105L86.0088 78.1356L84.8458 75.3804H83.5059L85.4007 79.4292C85.145 80.0088 84.8719 80.2692 84.4224 80.2692Z" fill="white"/>
<path d="M89.4631 79.572H92.6355V80.6388H93.8077V78.5808H93.0851V75.3804H89.3838L89.3659 76.1952C89.3485 77.2956 89.1721 78.0852 88.8371 78.5808H88.2734V80.6388H89.4631V79.572ZM90.4941 76.3716H91.8689V78.5808H90.1064C90.3621 77.9844 90.4941 77.2452 90.4941 76.3716Z" fill="white"/>
<path d="M94.2734 77.4723C94.2734 78.1359 94.5113 78.6735 94.9787 79.0767C95.4456 79.4799 96.0272 79.6815 96.7145 79.6815C97.4377 79.6815 97.9926 79.5387 98.3894 79.2531V78.3039C97.9399 78.5475 97.4725 78.6735 96.9789 78.6735C96.2036 78.6735 95.6395 78.3711 95.5075 77.7999H98.6626V77.4891C98.6626 76.8675 98.4687 76.3467 98.0897 75.9183C97.7108 75.4899 97.2081 75.2715 96.5651 75.2715C95.8865 75.2715 95.3311 75.4815 94.9081 75.9099C94.4852 76.3299 94.2734 76.8507 94.2734 77.4723ZM96.512 76.2039C97.0674 76.2039 97.4111 76.5819 97.4377 77.0439H95.5075C95.5689 76.5483 95.9479 76.2039 96.512 76.2039Z" fill="white"/>
<path d="M99.5723 75.3804V79.572H100.815V77.9256H102.621V79.572H103.864V75.3804H102.621V76.9344H100.815V75.3804H99.5723Z" fill="white"/>
<path d="M108.534 75.3804H104.523V76.3716H105.899V79.572H107.141V76.3716H108.534V75.3804Z" fill="white"/>
<path d="M109.617 75.9099C109.159 76.3299 108.93 76.8507 108.93 77.4723C108.93 78.1023 109.159 78.6231 109.617 79.0515C110.075 79.4715 110.657 79.6815 111.371 79.6815C112.085 79.6815 112.666 79.4715 113.125 79.0515C113.583 78.6231 113.812 78.1023 113.812 77.4723C113.812 76.8591 113.583 76.3383 113.125 75.9099C112.666 75.4815 112.085 75.2715 111.371 75.2715C110.657 75.2715 110.075 75.4815 109.617 75.9099ZM112.587 77.4723C112.587 77.8083 112.472 78.0855 112.243 78.3123C112.014 78.5391 111.724 78.6483 111.371 78.6483C111.018 78.6483 110.727 78.5391 110.498 78.3123C110.269 78.0855 110.155 77.8083 110.155 77.4723C110.155 77.1363 110.269 76.8591 110.498 76.6407C110.727 76.4139 111.018 76.3047 111.371 76.3047C111.724 76.3047 112.014 76.4139 112.243 76.6407C112.472 76.8591 112.587 77.1363 112.587 77.4723Z" fill="white"/>
<path d="M118.573 76.4556C118.573 75.8424 118.079 75.3804 117.163 75.3804H114.678V79.572H117.269C118.291 79.572 118.873 79.1268 118.873 78.4212C118.873 77.892 118.591 77.5308 118.035 77.346C118.397 77.1696 118.573 76.8756 118.573 76.4556ZM115.903 76.1952H116.766C117.163 76.1952 117.357 76.338 117.357 76.6236C117.357 76.9092 117.163 77.052 116.766 77.052H115.903V76.1952ZM116.96 78.7404H115.903V77.7996H116.96C117.392 77.7996 117.604 77.9592 117.604 78.27C117.604 78.5808 117.392 78.7404 116.96 78.7404Z" fill="white"/>
<path d="M79.4253 87.9718V83.7803H78.2618L76.2703 86.2499V83.7803H75.0449V87.9718H76.2084L78.2 85.5023V87.9718H79.4253Z" fill="white"/>
<path d="M86.3865 86.7626C86.0428 86.9558 85.646 87.0482 85.1969 87.0482C84.8179 87.0482 84.4916 86.939 84.2272 86.7206C83.9628 86.5022 83.8308 86.2166 83.8308 85.8722C83.8308 85.5278 83.9628 85.2422 84.2185 85.0322C84.4829 84.8138 84.8087 84.7046 85.1969 84.7046C85.558 84.7046 85.9369 84.7886 86.3159 84.9566V83.9486C85.9282 83.7638 85.4961 83.6714 85.0117 83.6714C84.3505 83.6714 83.7864 83.873 83.3107 84.2762C82.8438 84.671 82.6055 85.2002 82.6055 85.8638C82.6055 86.5274 82.8438 87.065 83.3107 87.4766C83.7777 87.8798 84.3418 88.0814 84.9939 88.0814C85.514 88.0814 85.9722 87.9806 86.3865 87.7706V86.7626Z" fill="white"/>
<path d="M86.9336 84.7714H88.3083V87.9718H89.5598V84.7714H90.9524V83.7803H86.9336V84.7714Z" fill="white"/>
<path d="M92.272 88.669C92.0341 88.669 91.805 88.6102 91.602 88.501V89.5343C91.8224 89.6435 92.1221 89.7023 92.4837 89.7023C93.2677 89.7023 93.8497 89.2739 94.2374 88.4087L96.2729 83.7803H94.9601L93.8584 86.5354L92.6949 83.7803H91.3555L93.2503 87.829C92.9946 88.4086 92.7215 88.669 92.272 88.669Z" fill="white"/>
<path d="M100.937 83.7803H97.2358L97.2179 84.595C97.2005 85.6954 97.0241 86.4851 96.6891 86.9807H96.125V89.0387H97.3151V87.9719H100.488V89.0387H101.66V86.9807H100.937V83.7803ZM99.7209 86.9807H97.9585C98.2137 86.3843 98.3461 85.645 98.3461 84.7714H99.7209V86.9807Z" fill="white"/>
<path d="M102.832 87.4766C103.299 87.8798 103.881 88.0814 104.569 88.0814C105.291 88.0814 105.846 87.9386 106.243 87.653V86.7038C105.793 86.9474 105.326 87.0734 104.833 87.0734C104.057 87.0734 103.493 86.771 103.361 86.1998H106.516V85.889C106.516 85.2674 106.322 84.7466 105.943 84.3182C105.564 83.8898 105.062 83.6714 104.419 83.6714C103.74 83.6714 103.185 83.8814 102.762 84.3098C102.339 84.7298 102.127 85.2506 102.127 85.8722C102.127 86.5358 102.365 87.0734 102.832 87.4766ZM104.366 84.6038C104.921 84.6038 105.265 84.9818 105.291 85.4438H103.361C103.423 84.9482 103.802 84.6038 104.366 84.6038Z" fill="white"/>
<path d="M108.668 86.3254H110.475V87.9718H111.718V83.7803H110.475V85.3343H108.668V83.7803H107.426V87.9718H108.668V86.3254Z" fill="white"/>
<path d="M115.451 86.5943V87.9718H116.694V83.7803H115.451V85.5779C115.248 85.6871 114.993 85.7374 114.684 85.7374C114.094 85.7374 113.856 85.5107 113.856 84.9059V83.7803H112.613V85.0234C112.613 86.1658 113.239 86.737 114.49 86.737C114.852 86.737 115.169 86.6867 115.451 86.5943Z" fill="white"/>
<path d="M121.701 87.653V86.7038C121.252 86.9474 120.785 87.0734 120.291 87.0734C119.516 87.0734 118.952 86.771 118.82 86.1998H121.975V85.889C121.975 85.2674 121.781 84.7466 121.402 84.3182C121.023 83.8898 120.521 83.6714 119.877 83.6714C119.199 83.6714 118.644 83.8814 118.221 84.3098C117.797 84.7298 117.586 85.2506 117.586 85.8722C117.586 86.5358 117.824 87.0734 118.291 87.4766C118.758 87.8798 119.34 88.0814 120.027 88.0814C120.75 88.0814 121.305 87.9386 121.701 87.653ZM119.824 84.6038C120.379 84.6038 120.723 84.9818 120.75 85.4438H118.82C118.881 84.9482 119.26 84.6038 119.824 84.6038Z" fill="white"/>
<path d="M126.381 87.7706V86.7626C126.037 86.9558 125.64 87.0482 125.191 87.0482C124.812 87.0482 124.486 86.939 124.221 86.7206C123.957 86.5022 123.825 86.2166 123.825 85.8722C123.825 85.5278 123.957 85.2422 124.213 85.0322C124.477 84.8138 124.803 84.7046 125.191 84.7046C125.552 84.7046 125.931 84.7886 126.31 84.9566V83.9486C125.922 83.7638 125.49 83.6714 125.006 83.6714C124.345 83.6714 123.781 83.873 123.305 84.2762C122.837 84.671 122.6 85.2002 122.6 85.8638C122.6 86.5274 122.837 87.065 123.305 87.4766C123.772 87.8798 124.336 88.0814 124.988 88.0814C125.508 88.0814 125.966 87.9806 126.381 87.7706Z" fill="white"/>
<path d="M131.977 87.9718L129.765 85.6703L131.677 83.7803H130.153L128.637 85.309V83.7803H127.395V87.9718H128.637V86.1659L130.373 87.9718H131.977Z" fill="white"/>
<path d="M133.846 86.2499V83.7803H132.621V87.9718H133.785L135.776 85.5023V87.9718H137.002V83.7803H135.838L133.846 86.2499Z" fill="white"/>
<path d="M140.824 85.7794L142.367 83.7803H140.992L140.101 84.9563L139.22 83.7803H137.828L139.361 85.7879L137.678 87.9718H139.053L140.084 86.6279L141.106 87.9718H142.499L140.824 85.7794Z" fill="white"/>
<path d="M77.197 92.0703C76.4835 92.0703 75.9015 92.2803 75.4432 92.7087C74.985 93.1287 74.7559 93.6495 74.7559 94.2711C74.7559 94.9011 74.985 95.4219 75.4432 95.8503C75.9015 96.2703 76.4835 96.4803 77.197 96.4803C77.9109 96.4803 78.4924 96.2703 78.9511 95.8503C79.4094 95.4219 79.6385 94.9011 79.6385 94.2711C79.6385 93.6579 79.4094 93.1371 78.9511 92.7087C78.4924 92.2803 77.9109 92.0703 77.197 92.0703ZM78.0695 95.1111C77.8403 95.3379 77.5498 95.4471 77.197 95.4471C76.8446 95.4471 76.5536 95.3379 76.3245 95.1111C76.0953 94.8843 75.9808 94.6071 75.9808 94.2711C75.9808 93.9351 76.0953 93.6579 76.3245 93.4395C76.5536 93.2127 76.8446 93.1035 77.197 93.1035C77.5498 93.1035 77.8403 93.2127 78.0695 93.4395C78.2986 93.6579 78.4132 93.9351 78.4132 94.2711C78.4132 94.6071 78.2986 94.8843 78.0695 95.1111Z" fill="white"/>
<path d="M83.0291 92.4492C82.333 92.4492 81.7863 92.6844 81.3899 93.1632C81.4252 92.76 81.5572 92.4492 81.8042 92.2392C81.9893 92.0796 82.0947 91.9872 82.377 91.8864C82.6588 91.7856 82.7734 91.7436 83.1258 91.6764C83.3109 91.6344 83.4434 91.6092 83.54 91.5924L83.9983 91.5168L84.4657 91.4412V90.3408C83.7078 90.4584 83.0818 90.5928 82.5883 90.7524C82.1039 90.9036 81.6718 91.1136 81.3015 91.374C80.5701 91.8864 80.2617 92.634 80.2617 93.7512C80.2617 94.5828 80.4734 95.2464 80.8877 95.742C81.3015 96.2376 81.9009 96.4812 82.6767 96.4812C83.3375 96.4812 83.8837 96.2796 84.3159 95.8764C84.7562 95.4732 84.9767 94.9524 84.9767 94.3224C84.9767 93.7596 84.7915 93.306 84.4304 92.9616C84.0689 92.6172 83.6019 92.4492 83.0291 92.4492ZM82.6675 95.4816C81.9275 95.4816 81.4866 94.9776 81.4779 94.0704C81.7249 93.7008 82.2184 93.432 82.712 93.432C83.3201 93.432 83.7518 93.81 83.7518 94.4064C83.7518 95.0364 83.3022 95.4816 82.6675 95.4816Z" fill="white"/>
<path d="M88.8817 93.4066H87.824V92.1802H85.3477V93.1714H86.5813V96.3718H88.9431C89.4985 96.3718 89.9302 96.229 90.239 95.9518C90.5474 95.6662 90.6973 95.3134 90.6973 94.885C90.6973 93.9862 89.9833 93.4066 88.8817 93.4066ZM88.6878 95.4562H87.824V94.2886H88.6878C89.1722 94.2886 89.4545 94.507 89.4545 94.8766C89.4545 95.2462 89.1722 95.4562 88.6878 95.4562Z" fill="white"/>
<path d="M93.5866 92.0703C92.908 92.0703 92.3526 92.2803 91.9296 92.7087C91.5066 93.1287 91.2949 93.6495 91.2949 94.2711C91.2949 94.9347 91.5328 95.4723 92.0002 95.8755C92.4671 96.2787 93.0486 96.4803 93.736 96.4803C94.4587 96.4803 95.0141 96.3375 95.4109 96.0519V95.1027C94.9614 95.3463 94.494 95.4723 94.0004 95.4723C93.2251 95.4723 92.661 95.1699 92.529 94.5987H95.684V94.2879C95.684 93.6663 95.4902 93.1455 95.1112 92.7171C94.7323 92.2887 94.2296 92.0703 93.5866 92.0703ZM92.529 93.8427C92.5904 93.3471 92.9694 93.0027 93.5335 93.0027C94.0889 93.0027 94.4326 93.3807 94.4587 93.8427H92.529Z" fill="white"/>
<path d="M100.909 92.1802H97.208L97.1901 92.995C97.1727 94.0954 96.9963 94.885 96.6618 95.3806H96.0977V97.4386H97.2873V96.3718H100.46V97.4386H101.632V95.3806H100.909V92.1802ZM99.6931 95.3806H97.9307C98.1864 94.7842 98.3183 94.045 98.3183 93.1714H99.6931V95.3806Z" fill="white"/>
<path d="M103.676 94.6498V92.1802H102.451V96.3718H103.615L105.606 93.9022V96.3718H106.831V92.1802H105.668L103.676 94.6498Z" fill="white"/>
<path d="M111.046 93.7342H109.231V92.1802H107.988V96.3718H109.231V94.7254H111.046V96.3718H112.289V92.1802H111.046V93.7342Z" fill="white"/>
<path d="M115.461 92.0703C114.783 92.0703 114.227 92.2803 113.804 92.7087C113.381 93.1287 113.17 93.6495 113.17 94.2711C113.17 94.9347 113.408 95.4723 113.875 95.8755C114.342 96.2787 114.924 96.4803 115.611 96.4803C116.334 96.4803 116.889 96.3375 117.285 96.0519V95.1027C116.836 95.3463 116.369 95.4723 115.875 95.4723C115.1 95.4723 114.536 95.1699 114.404 94.5987H117.559V94.2879C117.559 93.6663 117.365 93.1455 116.986 92.7171C116.607 92.2887 116.105 92.0703 115.461 92.0703ZM114.404 93.8427C114.465 93.3471 114.844 93.0027 115.408 93.0027C115.963 93.0027 116.307 93.3807 116.334 93.8427H114.404Z" fill="white"/>
<path d="M121.516 93.7342H119.71V92.1802H118.467V96.3718H119.71V94.7254H121.516V96.3718H122.759V92.1802H121.516V93.7342Z" fill="white"/>
<path d="M125.137 94.6498V92.1802H123.912V96.3718H125.076L127.067 93.9022V96.3718H128.292V92.1802H127.129L125.137 94.6498Z" fill="white"/>
<path d="M130.981 90.2817H130.047C130.056 91.1637 130.716 91.7181 131.642 91.7181C132.092 91.7181 132.471 91.5921 132.77 91.3317C133.069 91.0713 133.219 90.7269 133.229 90.2817H132.285C132.276 90.6513 132.03 90.8949 131.633 90.8949C131.236 90.8949 130.981 90.6513 130.981 90.2817Z" fill="white"/>
<path d="M130.68 94.6498V92.1802H129.455V96.3718H130.619L132.61 93.9022V96.3718H133.835V92.1802H132.672L130.68 94.6498Z" fill="white"/>
<path d="M61.5162 71.1807C60.0356 70.3323 58.3963 70.0971 56.6778 70.2567C55.5056 70.3659 54.4392 70.7523 53.5491 71.4579C52.2095 72.5163 51.5486 73.8351 51.8394 75.4563C52.0421 76.5567 52.6766 77.4051 53.7783 77.9343C54.1396 78.1107 54.5362 78.2283 54.9504 78.2367C55.1443 78.2367 55.3558 78.2367 55.4352 78.0603C55.5144 77.8839 55.347 77.7663 55.2324 77.6571C54.9328 77.3715 54.686 77.0523 54.501 76.6827C53.7607 75.1875 54.2278 73.2555 55.6026 72.1887C56.6426 71.3823 57.8499 71.1471 59.1631 71.4327C60.4321 71.7183 61.1549 72.5499 61.5338 73.6335C61.9744 74.9187 61.8687 76.1955 61.3663 77.4471C61.0138 78.3291 60.4674 79.1019 59.6654 79.7151C58.4228 80.6643 56.9686 80.9499 55.3823 80.7567C53.6989 80.5551 52.5885 79.7319 52.0862 78.2535C51.9804 77.9427 51.9011 77.6151 51.813 77.2959C51.7689 77.1279 51.6808 77.0271 51.4869 77.0187C51.2225 77.0019 50.9493 76.9767 50.6849 76.9599C50.35 76.9515 50.1297 77.0775 49.9975 77.3883C49.5216 78.4635 48.7989 79.3875 47.8118 80.1183C46.8512 80.8323 45.7584 81.2271 44.4981 81.1767C42.9382 81.1179 41.8189 80.3283 41.3694 78.9675C41.1139 78.1947 41.1227 77.4135 41.3166 76.6323C41.6867 75.1623 42.4975 73.9443 43.9429 73.1547C45.2296 72.4491 46.6044 72.2979 48.0233 72.8019C48.5433 72.9867 49.028 73.2555 49.5304 73.4907C49.6273 73.5327 49.7066 73.5999 49.8036 73.6335C50.0239 73.7175 50.2442 73.6251 50.2971 73.4151C50.3236 73.3059 50.3236 73.1799 50.3059 73.0707C50.253 72.7095 50.1032 72.3735 49.9005 72.0627C49.3013 71.1387 48.464 70.5087 47.2654 70.3155C46.4194 70.1811 45.5821 70.1811 44.7449 70.3071C43.4846 70.5003 42.3036 70.9203 41.1668 71.4327C39.8184 72.0459 38.5581 72.7851 37.3419 73.5915C37.2273 73.6671 37.1039 73.7427 36.9541 73.8267C36.9012 73.6671 36.866 73.5579 36.8219 73.4487C36.5839 72.8355 36.3724 72.2139 36.0992 71.6175C35.9582 71.3067 35.7467 71.0211 35.5175 70.7523C35.2179 70.4079 34.9007 70.3575 34.4512 70.5255C34.1075 70.6515 33.799 70.8195 33.5523 71.0715C33.2702 71.3571 32.9794 71.6343 32.7062 71.9283C30.688 74.1459 28.8284 76.4727 27.1099 78.8835C26.5811 79.6227 26.1052 80.3955 25.6557 81.1767C25.3384 81.7311 25.312 81.8319 25.9025 82.4115C25.9289 82.4367 25.9553 82.4535 25.9818 82.4787C26.1492 82.6383 26.3431 82.6719 26.5546 82.5795C26.8895 82.4283 27.2421 82.3023 27.5505 82.1175C28.3349 81.6471 29.1104 81.1683 29.8684 80.6643C31.7279 79.4211 33.5698 78.1527 35.4206 76.8927C35.5175 76.8255 35.6233 76.7583 35.7467 76.6827C35.7908 76.7835 35.8348 76.8423 35.8613 76.9095C36.0199 77.2959 36.1609 77.6907 36.3195 78.0771C36.7778 79.2027 37.2449 80.3283 37.8971 81.3783C38.0998 81.7143 38.3378 82.0335 38.6021 82.3275C38.752 82.4955 38.9635 82.6299 39.1574 82.7559C39.2807 82.8399 39.4305 82.8147 39.554 82.7307C39.6773 82.6467 39.7302 82.5291 39.695 82.3947C39.6685 82.2939 39.6333 82.1931 39.598 82.0923C38.9194 80.0175 38.232 77.9343 37.5534 75.8595C37.4652 75.5739 37.4652 75.5655 37.7208 75.4227C38.5052 74.9775 39.2984 74.5407 40.0916 74.1123C40.1973 74.0535 40.3119 74.0199 40.4969 73.9527C40.3912 74.1459 40.3383 74.2551 40.2766 74.3643C39.5716 75.6495 39.2367 77.0019 39.5011 78.4383C39.9505 80.8575 42.1803 82.6215 45.0974 82.5459C46.0227 82.5207 46.9041 82.3023 47.7413 81.9411C48.9046 81.4455 49.8917 80.7399 50.773 79.8999C50.8964 79.7823 51.011 79.6731 51.1343 79.5639C51.1784 79.6059 51.196 79.6143 51.2137 79.6311C51.2753 79.7235 51.3371 79.8159 51.3988 79.8999C51.9099 80.6559 52.5709 81.2859 53.4169 81.7311C54.8535 82.4955 56.3958 82.6635 58.0086 82.3779C62.4327 81.6051 64.4245 77.8839 64.1689 75.1707C63.9927 73.4655 63.1289 72.1047 61.5162 71.1807ZM35.0064 75.2295C32.953 76.7667 30.9083 78.3123 28.8637 79.8495C28.5288 80.1015 28.1674 80.3115 27.8149 80.5467C28.3878 79.2699 33.5875 73.8603 34.4864 73.3983C34.5305 73.4655 34.5834 73.5327 34.6098 73.6083C34.7772 74.0283 34.9359 74.4483 35.1033 74.8683C35.1562 75.0111 35.1474 75.1203 35.0064 75.2295Z" fill="white"/>
<path d="M59.5769 84.3018L57.1621 89.6778H58.3783L58.9247 88.4262H61.3836L61.93 89.6778H63.1462L60.7314 84.3102H59.5769V84.3018ZM59.3125 87.519L60.1498 85.6122L60.987 87.519H59.3125Z" fill="white"/>
<path d="M50.836 84.3018H49.417L47.3636 86.4186V84.3018H46.1738V89.6778H47.3636V87.1914L49.7872 89.6778H51.2502L48.4476 86.763L50.836 84.3018Z" fill="white"/>
<path d="M29.9393 86.5278L28.3177 84.3018H27.1367V89.6778H28.3177V86.007L29.622 87.7122H30.2918L31.5609 86.0322V89.6778H32.7418V84.3018H31.5609L29.9393 86.5278Z" fill="white"/>
<path d="M36.7151 84.1753C35.0934 84.1753 33.7715 85.4269 33.7715 86.9809C33.7715 88.5265 35.0846 89.7865 36.7151 89.7865C38.3455 89.7865 39.6586 88.5349 39.6586 86.9809C39.6586 85.4353 38.3367 84.1753 36.7151 84.1753ZM36.7151 88.7533C35.7368 88.7533 34.9436 87.9637 34.9436 86.9809C34.9436 86.0065 35.7368 85.2085 36.7151 85.2085C37.6933 85.2085 38.4865 85.9981 38.4865 86.9809C38.4865 87.9553 37.6933 88.7533 36.7151 88.7533Z" fill="white"/>
<path d="M43.4592 88.7533C42.481 88.7533 41.6878 87.9637 41.6878 86.9809C41.6878 86.0065 42.481 85.2085 43.4592 85.2085C44.0233 85.2085 44.6578 85.3009 45.0808 85.6705V84.5365C44.6137 84.2929 44.0585 84.1753 43.4592 84.1753C41.8376 84.1753 40.5156 85.4269 40.5156 86.9809C40.5156 88.5265 41.8288 89.7865 43.4592 89.7865C44.1026 89.7865 44.7019 89.6605 45.1866 89.3833V88.2157C44.7547 88.6861 44.0409 88.7533 43.4592 88.7533Z" fill="white"/>
<path d="M55.556 86.7204C55.9173 86.5356 56.2258 86.1828 56.2258 85.6032C56.2258 84.4776 55.1154 84.3096 54.8686 84.3096H53.0355H52.8592H51.8457V89.6772H53.0267V89.6688H55.0272C55.4062 89.6688 56.6488 89.3664 56.6488 88.1652C56.6576 87.1824 56.0408 86.838 55.556 86.7204ZM53.0267 85.2168H54.1459C54.3222 85.2168 55.1066 85.1412 55.1066 85.8132C55.1066 86.4096 54.5161 86.4096 54.1459 86.4096H53.0267V85.2168ZM54.331 88.728H53.0267V87.3168H54.331C54.5249 87.3168 55.3886 87.2328 55.3886 88.0224C55.3974 88.728 54.7364 88.728 54.331 88.728Z" fill="white"/>
<path d="M20.5 102H68.9719V60H20.5V102ZM22.7033 62.1H66.7686V99.9H22.7033V62.1Z" fill="white"/>
</svg>
