<svg width="183" height="160" viewBox="0 0 183 160" fill="none" xmlns="http://www.w3.org/2000/svg">
<path d="M68.4956 106.184C67.3057 105.541 65.915 105.202 64.397 105.202H61.5128C60.0339 105.03 58.8783 103.801 58.8783 102.318V98.2801H58.8587V65.7252H90.8496V102.628C90.7027 103.972 89.6058 105.05 88.2298 105.207H72.5943C71.0762 105.207 69.6855 105.541 68.4956 106.189V106.184ZM74.8566 61.9639H55V102.885C55 107.428 57.4974 108.963 60.979 108.963H64.397C66.5761 108.963 68.4418 110.117 68.4907 113.044V113.158C68.4907 113.158 68.4907 113.12 68.4907 113.101C68.4907 113.12 68.4907 113.139 68.4907 113.158V113.044C68.5397 110.117 70.4054 108.963 72.5845 108.963H88.7195C92.2011 108.963 94.6985 107.428 94.6985 102.885V61.9639H74.8566Z" fill="white"/>
<path d="M107.029 118.026C105.839 117.382 104.448 117.044 102.93 117.044H87.0403C85.6936 116.762 84.68 115.594 84.68 114.207V110.136V97.4553H116.666V114.25C116.646 115.623 115.638 116.767 114.306 117.044H111.128C109.61 117.044 108.219 117.377 107.029 118.026ZM100.673 93.6987H80.8164V114.727C80.8164 119.27 83.3138 120.805 86.7954 120.805H102.93C105.11 120.805 106.975 121.959 107.024 124.886V125C107.024 125 107.024 124.962 107.024 124.943C107.024 124.962 107.024 124.981 107.024 125V124.886C107.073 121.959 108.939 120.805 111.118 120.805H114.536C118.018 120.805 120.515 119.27 120.515 114.727V93.6987H100.663H100.673Z" fill="white"/>
<path d="M113.697 102.694C112.507 102.051 111.116 101.712 109.598 101.712H105.196C103.57 101.693 102.248 100.401 102.243 98.8188V46.7565H125.151V98.9475C125.077 100.473 123.785 101.698 122.203 101.712H117.791C116.273 101.712 114.882 102.046 113.692 102.694H113.697ZM113.702 43H98.3848V99.3908C98.3848 103.934 100.882 105.469 104.364 105.469H109.598C111.778 105.469 113.643 106.623 113.692 109.55V109.664C113.692 109.664 113.692 109.626 113.692 109.607C113.692 109.626 113.692 109.645 113.692 109.664V109.55C113.741 106.623 115.607 105.469 117.786 105.469H123.021C126.502 105.469 129 103.934 129 99.3908V43H113.687H113.702Z" fill="white"/>
</svg>
