<svg width="162" height="160" viewBox="0 0 162 160" fill="none" xmlns="http://www.w3.org/2000/svg">
<path d="M126.026 93.0127H35.9746V101H126.026V93.0127Z" fill="white"/>
<path fill-rule="evenodd" clip-rule="evenodd" d="M43.2764 55.001V58.9941H35.974V71.4117H31.5V55.001H43.2764Z" fill="white"/>
<path fill-rule="evenodd" clip-rule="evenodd" d="M49.8653 58.9941H52.5678C53.0896 58.9941 53.5342 59.1702 53.9013 59.5212C54.2698 59.8723 54.4534 60.282 54.4534 60.7518C54.4534 61.2216 54.2685 61.6313 53.9013 61.9823C53.5329 62.3334 53.0883 62.5082 52.5678 62.5082H49.8653V58.9941ZM52.9244 55.001H45.3926V71.4117H49.8666V66.4909H52.8103C54.612 66.4909 56.0819 65.9467 57.2201 64.8597C58.3583 63.7727 58.9274 62.4012 58.9274 60.7453C58.9274 59.0893 58.3596 57.7178 57.2253 56.6308C56.1147 55.566 54.6802 55.0232 52.9244 55.001" fill="white"/>
<path fill-rule="evenodd" clip-rule="evenodd" d="M67.171 59.5777L68.7012 64.385H65.6421L67.171 59.5777V59.5777ZM69.644 55H64.6993L58.4551 71.4108H63.2857L64.4593 67.8979H69.8761L71.0602 71.4108H75.8908L69.6466 55H69.644Z" fill="white"/>
<path fill-rule="evenodd" clip-rule="evenodd" d="M92.7146 71.4117H88.2406V65.0828H82.2377V71.4117H77.7637V55.001H82.2377V61.1002H88.2406V55.001H92.7146V71.4117Z" fill="white"/>
<path fill-rule="evenodd" clip-rule="evenodd" d="M108.73 55.001V58.9941H104.13V71.4117H99.6578V58.9941H95.0684V55.001H108.73Z" fill="white"/>
<path fill-rule="evenodd" clip-rule="evenodd" d="M130.5 71.4121H126.026V55.0013H130.5V71.4121ZM115.549 55.0013H111.076V71.4121H118.253C120.062 71.4121 121.536 70.8692 122.674 69.7809C123.812 68.6939 124.381 67.3224 124.381 65.6665C124.381 64.0105 123.812 62.639 122.674 61.552C121.536 60.465 120.062 59.9209 118.253 59.9209H115.55V55L115.549 55.0013ZM118.022 67.4294H115.549V63.9166H118.022C118.542 63.9166 118.987 64.0914 119.355 64.4425C119.724 64.7935 119.907 65.2032 119.907 65.673C119.907 66.1428 119.724 66.5525 119.355 66.9036C118.987 67.2546 118.542 67.4307 118.022 67.4307" fill="white"/>
<path fill-rule="evenodd" clip-rule="evenodd" d="M41.3869 75.6221H42.8699V86.4751H41.1587V78.5738L37.1817 83.5312L33.2112 78.5738V86.4751H31.5V75.6221H32.9765L37.1817 80.8979L41.3869 75.6221Z" fill="white"/>
<path fill-rule="evenodd" clip-rule="evenodd" d="M50.6627 85.4727C49.889 86.2426 48.9777 86.6276 47.9287 86.6276C47.5642 86.6276 47.2075 86.5728 46.86 86.4645C46.5126 86.3561 46.2228 86.2283 45.9894 86.0782C45.756 85.9294 45.5462 85.7807 45.3573 85.6319C45.1698 85.4831 45.0348 85.35 44.9548 85.2339L44.8105 85.0825L45.8215 84.0764C45.8412 84.1064 45.874 84.1469 45.9172 84.1978C45.9605 84.2474 46.0497 84.34 46.1834 84.4731C46.3172 84.6075 46.4601 84.725 46.6096 84.8294C46.7591 84.9325 46.9544 85.0264 47.1957 85.1099C47.437 85.1935 47.6809 85.2352 47.93 85.2352C48.2854 85.2352 48.6014 85.1687 48.8807 85.0342C49.16 84.8998 49.3763 84.7406 49.5311 84.554C49.6858 84.3674 49.8143 84.1782 49.9192 83.9864C50.0228 83.7946 50.0923 83.6328 50.1277 83.5023L50.188 83.2974H46.7578V81.9807H50.112C50.1015 81.9403 50.0805 81.8815 50.0477 81.8032C50.0149 81.725 49.9415 81.5879 49.8274 81.3909C49.7133 81.1938 49.5848 81.0216 49.4393 80.8728C49.295 80.7241 49.0866 80.5871 48.8151 80.4644C48.5437 80.3404 48.2487 80.2791 47.9287 80.2791C47.5327 80.2791 47.1669 80.3678 46.8299 80.5479C46.4929 80.728 46.2503 80.9042 46.1034 81.0816L45.9054 81.3622L44.8866 80.3561C44.9181 80.3156 44.9613 80.2621 45.0203 80.193C45.0794 80.1251 45.2039 80.009 45.3967 79.8446C45.5894 79.6801 45.794 79.5327 46.013 79.4022C46.2306 79.2704 46.5139 79.1516 46.8614 79.042C47.2088 78.9337 47.5655 78.8789 47.93 78.8789C48.979 78.8789 49.8904 79.2652 50.664 80.0377C51.4363 80.8102 51.8231 81.7171 51.8231 82.7585C51.8231 83.7998 51.4363 84.7067 50.664 85.4766" fill="white"/>
<path fill-rule="evenodd" clip-rule="evenodd" d="M55.769 81.003C55.3126 81.4871 55.0845 82.0717 55.0845 82.7555C55.0845 83.4393 55.3126 84.0226 55.769 84.508C56.2253 84.9922 56.7498 85.2349 57.3438 85.2349C57.9378 85.2349 58.4623 84.9935 58.9186 84.508C59.3749 84.0239 59.6031 83.4393 59.6031 82.7555C59.6031 82.0717 59.3749 81.4884 58.9186 81.003C58.4623 80.5189 57.9378 80.2762 57.3438 80.2762C56.7498 80.2762 56.2253 80.5189 55.769 81.003ZM56.6816 86.5281C56.418 86.4628 56.1925 86.3806 56.005 86.2827C55.8175 86.1849 55.6509 86.0831 55.5067 85.98C55.3625 85.8769 55.2576 85.7947 55.1907 85.7347L55.0845 85.6211V89.7304H53.5254V79.0365H55.0845V79.8912C55.1553 79.8207 55.2549 79.7268 55.3848 79.6107C55.5146 79.4945 55.7886 79.3431 56.2095 79.1565C56.6304 78.9699 57.0592 78.876 57.4946 78.876C58.4833 78.876 59.3408 79.2531 60.0686 80.0074C60.7963 80.7616 61.1595 81.6764 61.1595 82.7516C61.1595 83.8269 60.7963 84.7403 60.0686 85.4946C59.3408 86.2488 58.4833 86.6259 57.4946 86.6259C57.2153 86.6259 56.9451 86.5933 56.6816 86.5268" fill="white"/>
<path fill-rule="evenodd" clip-rule="evenodd" d="M66.7662 84.6698C67.1229 84.294 67.3025 83.7577 67.3025 83.0622V82.9108L64.8833 83.2971C64.6053 83.3466 64.3784 83.4615 64.2067 83.6376C64.0336 83.8138 63.9483 84.0369 63.9483 84.3045C63.9483 84.5511 64.069 84.769 64.3103 84.9556C64.5502 85.1422 64.8741 85.2362 65.2793 85.2362C65.9126 85.2362 66.4083 85.0483 66.7662 84.6724M67.3025 86.4772V85.7046C67.2829 85.7242 67.2475 85.7581 67.1989 85.8038C67.1517 85.8495 67.0547 85.9239 66.9105 86.027C66.7662 86.1301 66.6102 86.224 66.4437 86.3075C66.2758 86.391 66.066 86.4654 65.8129 86.5307C65.5599 86.5959 65.3029 86.6298 65.0446 86.6298C64.284 86.6298 63.6533 86.4106 63.1511 85.9722C62.6489 85.5324 62.3984 85.0313 62.3984 84.4663C62.3984 83.8556 62.5925 83.344 62.9793 82.9304C63.3675 82.5167 63.8985 82.2544 64.5725 82.1435L67.3025 81.6737C67.3025 81.2796 67.157 80.9495 66.8646 80.682C66.5735 80.4145 66.1998 80.2814 65.7435 80.2814C65.3475 80.2814 64.9895 80.3636 64.6669 80.528C64.3457 80.6924 64.1227 80.8568 64.0008 81.0239L63.7949 81.2888L62.7839 80.2827C62.8141 80.2422 62.8561 80.1913 62.9098 80.1274C62.9636 80.0647 63.0816 79.9538 63.2678 79.7946C63.4527 79.6354 63.6494 79.4932 63.8566 79.3679C64.0637 79.2413 64.3391 79.1291 64.6813 79.0312C65.0236 78.9321 65.3763 78.8838 65.7421 78.8838C66.6548 78.8838 67.4022 79.1526 67.9857 79.6902C68.5692 80.2279 68.8603 80.8895 68.8603 81.6776V86.4837H67.3012L67.3025 86.4772Z" fill="white"/>
<path fill-rule="evenodd" clip-rule="evenodd" d="M84.5822 75.6221H86.0652V86.4751H84.354V78.5738L80.377 83.5312L76.4065 78.5738V86.4751H74.6953V75.6221H76.1705L80.377 80.8979L84.5822 75.6221Z" fill="white"/>
<path fill-rule="evenodd" clip-rule="evenodd" d="M93.6982 80.9952C93.2367 80.5163 92.6899 80.2762 92.0552 80.2762C91.4206 80.2762 90.8725 80.5163 90.4083 80.9952C89.9441 81.4741 89.712 82.0613 89.712 82.7542C89.712 83.4471 89.9441 84.0344 90.4083 84.5133C90.8725 84.9922 91.4206 85.2323 92.0552 85.2323C92.6899 85.2323 93.2367 84.9922 93.6982 84.5133C94.1598 84.0344 94.3906 83.4471 94.3906 82.7542C94.3906 82.0613 94.1598 81.4741 93.6982 80.9952ZM89.3213 80.0335C90.0949 79.2609 91.0062 78.876 92.0552 78.876C93.1042 78.876 94.0156 79.2622 94.7892 80.0335C95.5628 80.806 95.9483 81.7129 95.9483 82.7542C95.9483 83.7956 95.5615 84.7025 94.7892 85.4711C94.0156 86.241 93.1042 86.6259 92.0552 86.6259C91.0062 86.6259 90.0936 86.241 89.3213 85.4711C88.5476 84.7012 88.1621 83.7956 88.1621 82.7542C88.1621 81.7129 88.5489 80.806 89.3213 80.0335Z" fill="white"/>
<path fill-rule="evenodd" clip-rule="evenodd" d="M98.3506 80.0354C99.1242 79.2629 100.036 78.8779 101.085 78.8779C101.668 78.8779 102.21 79.0032 102.712 79.2524C103.214 79.5017 103.575 79.7509 103.792 79.9976L104.119 80.3538L103.108 81.3599C103.057 81.279 102.979 81.1798 102.876 81.0611C102.772 80.9423 102.547 80.7818 102.199 80.5809C101.852 80.3786 101.481 80.2781 101.085 80.2781C100.451 80.2781 99.9018 80.5182 99.4376 80.9971C98.9734 81.476 98.7413 82.0633 98.7413 82.7562C98.7413 83.4491 98.9734 84.0363 99.4376 84.5152C99.9018 84.9941 100.45 85.2342 101.085 85.2342C101.481 85.2342 101.852 85.1351 102.199 84.9393C102.547 84.7423 102.796 84.5505 102.948 84.3638L103.184 84.0755L104.195 85.0816C104.165 85.122 104.119 85.1781 104.058 85.2525C103.997 85.3256 103.866 85.4495 103.662 85.6231C103.459 85.7967 103.247 85.9506 103.024 86.085C102.801 86.2181 102.512 86.3421 102.157 86.4556C101.802 86.5692 101.445 86.6266 101.085 86.6266C100.034 86.6266 99.1229 86.2416 98.3506 85.4717C97.5769 84.7018 97.1914 83.7962 97.1914 82.7549C97.1914 81.7135 97.5782 80.8066 98.3506 80.0341" fill="white"/>
<path fill-rule="evenodd" clip-rule="evenodd" d="M109.485 82.1383L112.595 86.4745H110.884L108.474 83.1444L107.303 84.3867V86.4745H105.744V79.0352H107.303V82.3653L110.497 79.0352H112.367L109.485 82.1383Z" fill="white"/>
<path fill-rule="evenodd" clip-rule="evenodd" d="M115.398 83.1447V85.1582H117.58C117.889 85.1582 118.134 85.0669 118.318 84.8855C118.5 84.7041 118.592 84.4588 118.592 84.1508C118.592 83.8729 118.499 83.6367 118.31 83.4396C118.122 83.2426 117.879 83.1447 117.58 83.1447H115.398V83.1447ZM117.991 80.5596C117.85 80.4213 117.66 80.3509 117.421 80.3509H115.398V81.9024H117.421C117.66 81.9024 117.85 81.8332 117.991 81.6949C118.133 81.5566 118.204 81.3674 118.204 81.1273C118.204 80.8872 118.133 80.698 117.991 80.5596M117.421 79.0342C118.136 79.0342 118.703 79.2169 119.124 79.5836C119.545 79.9489 119.755 80.4122 119.755 80.972C119.755 81.2891 119.685 81.5788 119.546 81.8385C119.406 82.0981 119.263 82.2782 119.116 82.38L118.904 82.5249C118.934 82.5353 118.977 82.5523 119.034 82.5784C119.089 82.6032 119.191 82.6684 119.338 82.7715C119.485 82.8746 119.612 82.9881 119.722 83.1121C119.831 83.236 119.931 83.4031 120.018 83.6158C120.108 83.8285 120.151 84.0568 120.151 84.3048C120.151 84.9455 119.921 85.4675 119.463 85.872C119.005 86.2752 118.377 86.4775 117.581 86.4775H113.84V79.0381H117.422L117.421 79.0342Z" fill="white"/>
<path fill-rule="evenodd" clip-rule="evenodd" d="M130.5 86.4745H128.941V79.0352H130.5V86.4745ZM125.048 85.1579C125.403 85.1579 125.699 85.0391 125.937 84.8016C126.175 84.5654 126.295 84.2692 126.295 83.9169C126.295 83.5646 126.175 83.2683 125.937 83.0308C125.698 82.7934 125.402 82.6746 125.048 82.6746H123.413V85.1566H125.048V85.1579ZM127.081 85.7555C126.567 86.2344 125.888 86.4745 125.048 86.4745H121.854V79.0352H123.413V81.3592H125.048C125.89 81.3592 126.567 81.6006 127.081 82.0822C127.596 82.5637 127.854 83.177 127.854 83.9221C127.854 84.6672 127.596 85.2779 127.081 85.7568" fill="white"/>
<path d="M130.5 92.4971H31.5V96.9939H130.5V92.4971Z" fill="white"/>
<path fill-rule="evenodd" clip-rule="evenodd" d="M38.2305 96.6394V96.1396H39.9142V96.6394H40.3889V95.6881H40.0519V93.6902H38.3223V94.0791C38.3223 94.481 38.2974 94.8098 38.245 95.0591C38.1925 95.307 38.1112 95.5171 37.9984 95.6894H37.7559V96.6407H38.2305V96.6394ZM38.557 95.6881C38.7721 95.2509 38.8245 94.7681 38.8245 94.1417H39.5457V95.6881H38.5583H38.557ZM40.9973 96.1187C41.0471 96.1396 41.1166 96.15 41.2045 96.15C41.4969 96.15 41.6962 96.0417 41.8129 95.8238C41.9296 95.6032 41.9925 95.2078 42.0096 94.6376L42.024 94.1404H42.7688V96.1383H43.271V93.6889H41.5349L41.5244 94.4066C41.5179 94.9038 41.489 95.2431 41.4431 95.4219C41.3972 95.6006 41.3094 95.692 41.1756 95.692C41.1048 95.692 41.0458 95.6815 40.996 95.6633V96.1187H40.9973ZM44.6754 96.1396L45.3992 95.1491H45.8279V96.1396H46.3341V93.6902H45.1946C44.935 93.6902 44.7265 93.7568 44.5757 93.8925C44.4249 94.0256 44.3475 94.2004 44.3475 94.4144C44.3475 94.7394 44.5377 94.9951 44.8602 95.093L44.0905 96.1396H44.674H44.6754ZM45.2235 94.7263C44.9953 94.7263 44.8576 94.6219 44.8576 94.4288C44.8576 94.2357 44.9953 94.1313 45.2235 94.1313H45.8279V94.7263H45.2235V94.7263ZM49.9623 96.1891C50.2298 96.1891 50.4619 96.1291 50.6626 96.0104V95.5028C50.4803 95.6463 50.2547 95.7168 49.9873 95.7168C49.7447 95.7168 49.544 95.6437 49.3867 95.4936C49.228 95.3436 49.148 95.1504 49.148 94.9155C49.148 94.6807 49.2254 94.4927 49.3801 94.3414C49.5388 94.1913 49.7316 94.1143 49.9676 94.1143C50.2036 94.1143 50.4239 94.1769 50.614 94.3035V93.7959C50.4213 93.6941 50.2062 93.6419 49.9636 93.6419C49.5808 93.6419 49.2608 93.7607 49.0077 93.9982C48.7586 94.2357 48.6314 94.541 48.6314 94.9155C48.6314 95.2901 48.7586 95.5915 49.0117 95.8316C49.2647 96.0691 49.5808 96.1891 49.965 96.1891M52.1482 95.4897C52.004 95.3396 51.9332 95.1465 51.9332 94.9155C51.9332 94.6846 52.004 94.4927 52.1482 94.3414C52.2924 94.19 52.4747 94.1143 52.6924 94.1143C52.91 94.1143 53.0897 94.1913 53.2339 94.3414C53.3782 94.4914 53.4516 94.6846 53.4516 94.9155C53.4516 95.1465 53.3782 95.3383 53.2339 95.4897C53.0897 95.6398 52.91 95.7168 52.6924 95.7168C52.4747 95.7168 52.2911 95.6398 52.1482 95.4897ZM51.4165 94.9155C51.4165 95.2692 51.5358 95.5693 51.7784 95.8185C52.021 96.0665 52.3265 96.1891 52.6924 96.1891C53.0582 96.1891 53.3611 96.0665 53.6037 95.8185C53.8463 95.5706 53.9695 95.2692 53.9695 94.9155C53.9695 94.5619 53.8463 94.2579 53.6037 94.0125C53.3611 93.7646 53.0582 93.6419 52.6924 93.6419C52.3265 93.6419 52.021 93.7646 51.7784 94.0125C51.5358 94.2579 51.4165 94.558 51.4165 94.9155ZM57.2949 96.6407V95.6894H56.954V93.6915H56.4478V95.6894H55.4172V93.6915H54.911V96.1409H56.8163V96.6407H57.2949V96.6407ZM58.5747 96.1409L59.781 94.5345V96.1409H60.2832V93.6915H59.8466L58.6547 95.2874V93.6915H58.1485V96.1409H58.5734H58.5747ZM61.6299 96.1409L61.8725 95.5745H62.9136L63.1562 96.1409H63.6938L62.6396 93.6772H62.1544L61.1001 96.1409H61.6312H61.6299ZM62.393 94.3074L62.751 95.1583H62.0298L62.3917 94.3074H62.393ZM64.2603 96.12C64.3101 96.1409 64.3796 96.1513 64.4674 96.1513C64.7599 96.1513 64.9592 96.043 65.0759 95.8251C65.1926 95.6045 65.2555 95.2091 65.2726 94.6389L65.287 94.1417H66.0318V96.1396H66.534V93.6902H64.7966L64.7861 94.4079C64.7795 94.9051 64.7507 95.2444 64.7048 95.4232C64.6589 95.6019 64.571 95.6933 64.4373 95.6933C64.3665 95.6933 64.3075 95.6828 64.2576 95.6646V96.12H64.2603ZM68.6136 96.1409C68.906 96.1409 69.1368 96.0639 69.3099 95.9138C69.483 95.7637 69.5669 95.5641 69.5669 95.3227C69.5669 95.0813 69.483 94.8816 69.3099 94.7315C69.1381 94.5776 68.906 94.5006 68.6136 94.5006H68.0721V93.6928H67.5659V96.1422H68.6136V96.1409ZM68.0721 94.9273H68.5861C68.8811 94.9273 69.0568 95.0669 69.0568 95.3162C69.0568 95.5654 68.8811 95.6972 68.5861 95.6972H68.0721V94.9273V94.9273ZM70.9411 96.1409V95.0669H72.0518V96.1409H72.554V93.6915H72.0518V94.6076H70.9411V93.6915H70.435V96.1409H70.9411ZM74.2324 95.4897C74.0881 95.3396 74.0173 95.1465 74.0173 94.9155C74.0173 94.6846 74.0881 94.4927 74.2324 94.3414C74.3766 94.1913 74.5589 94.1143 74.7778 94.1143C74.9968 94.1143 75.1752 94.1913 75.3194 94.3414C75.4636 94.4914 75.5371 94.6846 75.5371 94.9155C75.5371 95.1465 75.4636 95.3383 75.3194 95.4897C75.1752 95.6398 74.9955 95.7168 74.7778 95.7168C74.5602 95.7168 74.3766 95.6398 74.2324 95.4897ZM73.5007 94.9155C73.5007 95.2692 73.62 95.5693 73.8626 95.8185C74.1052 96.0665 74.4107 96.1891 74.7765 96.1891C75.1424 96.1891 75.4453 96.0665 75.6879 95.8185C75.9304 95.5706 76.0537 95.2692 76.0537 94.9155C76.0537 94.5619 75.9304 94.2579 75.6879 94.0125C75.4453 93.7646 75.1424 93.6419 74.7765 93.6419C74.4107 93.6419 74.1052 93.7646 73.8626 94.0125C73.62 94.2579 73.5007 94.558 73.5007 94.9155ZM78.9922 95.4897C78.848 95.3396 78.7772 95.1465 78.7772 94.9155C78.7772 94.6846 78.848 94.4927 78.9922 94.3414C79.1365 94.1913 79.3187 94.1143 79.5377 94.1143C79.7567 94.1143 79.935 94.1913 80.0793 94.3414C80.2235 94.4914 80.2969 94.6846 80.2969 94.9155C80.2969 95.1465 80.2235 95.3383 80.0793 95.4897C79.935 95.6398 79.7554 95.7168 79.5377 95.7168C79.32 95.7168 79.1365 95.6398 78.9922 95.4897ZM78.2605 94.9155C78.2605 95.2692 78.3799 95.5693 78.6225 95.8185C78.865 96.0665 79.1706 96.1891 79.5364 96.1891C79.9022 96.1891 80.2038 96.0665 80.4477 95.8185C80.6903 95.5706 80.8136 95.2692 80.8136 94.9155C80.8136 94.5619 80.6903 94.2579 80.4477 94.0125C80.2051 93.7646 79.9022 93.6419 79.5364 93.6419C79.1706 93.6419 78.865 93.7646 78.6225 94.0125C78.3799 94.2579 78.2605 94.558 78.2605 94.9155ZM82.2612 96.1396V95.17H82.8303C83.0938 95.17 83.3049 95.0995 83.4557 94.9638C83.6105 94.8268 83.6878 94.6493 83.6878 94.4288C83.6878 94.2083 83.6105 94.0334 83.4557 93.8964C83.3049 93.7594 83.0938 93.6902 82.8303 93.6902H81.7537V96.1396H82.2599H82.2612ZM82.2612 94.1313H82.7962C83.0388 94.1313 83.183 94.2396 83.183 94.4353C83.183 94.6311 83.0388 94.7394 82.7962 94.7394H82.2612V94.13V94.1313ZM84.982 96.1396L86.1884 94.5332V96.1396H86.6906V93.6902H86.254L85.062 95.2861V93.6902H84.5559V96.1396H84.9807H84.982ZM89.5662 96.1396V95.6881H88.2261V95.0578H89.2738V94.6141H88.2261V94.1417H89.5269V93.6902H87.7199V96.1396H89.5662V96.1396ZM90.9627 96.1396V95.0656H92.0733V96.1396H92.5768V93.6902H92.0733V94.6063H90.9627V93.6902H90.4565V96.1396H90.9627ZM93.441 94.1417H94.2172V96.1396H94.7234V94.1417H95.5036V93.6902H93.4396V94.1417H93.441ZM96.7912 96.1396L97.9976 94.5332V96.1396H98.4998V93.6902H98.0644L96.8725 95.2861V93.6902H96.3664V96.1396H96.7912ZM100.037 96.1396V95.17H100.606C100.869 95.17 101.08 95.0995 101.231 94.9638C101.386 94.8268 101.463 94.6493 101.463 94.4288C101.463 94.2083 101.386 94.0334 101.231 93.8964C101.08 93.7594 100.869 93.6902 100.606 93.6902H99.5291V96.1396H100.035H100.037ZM100.037 94.1313H100.572C100.814 94.1313 100.958 94.2396 100.958 94.4353C100.958 94.6311 100.814 94.7394 100.572 94.7394H100.037V94.13V94.1313ZM102.979 95.4884C102.835 95.3383 102.764 95.1452 102.764 94.9142C102.764 94.6833 102.835 94.4914 102.979 94.3401C103.123 94.1887 103.306 94.113 103.523 94.113C103.741 94.113 103.921 94.19 104.065 94.3401C104.209 94.4901 104.282 94.6833 104.282 94.9142C104.282 95.1452 104.209 95.337 104.065 95.4884C103.921 95.6385 103.741 95.7155 103.523 95.7155C103.306 95.7155 103.122 95.6385 102.979 95.4884ZM102.247 94.9142C102.247 95.2679 102.367 95.568 102.609 95.8172C102.852 96.0652 103.157 96.1878 103.523 96.1878C103.889 96.1878 104.192 96.0652 104.435 95.8172C104.677 95.5693 104.8 95.2679 104.8 94.9142C104.8 94.5606 104.677 94.2566 104.435 94.0112C104.192 93.7633 103.889 93.6406 103.523 93.6406C103.157 93.6406 102.852 93.7633 102.609 94.0112C102.367 94.2566 102.247 94.5567 102.247 94.9142ZM106.98 96.1383C107.239 96.1383 107.448 96.0756 107.603 95.9464C107.757 95.8172 107.835 95.6489 107.835 95.4427C107.835 95.264 107.785 95.1204 107.688 95.0056C107.589 94.8907 107.473 94.8164 107.336 94.789C107.505 94.7185 107.646 94.5515 107.646 94.3022C107.646 93.9107 107.351 93.6902 106.901 93.6902H105.744V96.1396H106.982L106.98 96.1383ZM106.248 95.0643H106.884C107.133 95.0643 107.285 95.1791 107.285 95.3866C107.285 95.5941 107.134 95.705 106.884 95.705H106.248V95.0643ZM106.248 94.1091H106.817C107.028 94.1091 107.154 94.2109 107.154 94.3818C107.154 94.5528 107.027 94.648 106.817 94.648H106.248V94.1091ZM109.061 96.1383L109.303 95.5719H110.344L110.587 96.1383H111.125L110.07 93.6746H109.585L108.531 96.1383H109.062H109.061ZM109.824 94.3048L110.182 95.1556H109.461L109.822 94.3048H109.824ZM112.444 96.1383V95.0643H113.554V96.1383H114.057V93.6889H113.554V94.605H112.444V93.6889H111.938V96.1383H112.444ZM115.593 96.1383V95.0643H116.704V96.1383H117.206V93.6889H116.704V94.605H115.593V93.6889H115.087V96.1383H115.593ZM120.955 93.6889H120.449V96.1383H120.955V93.6889ZM119.201 96.1383C119.493 96.1383 119.724 96.0613 119.897 95.9112C120.07 95.7611 120.154 95.5615 120.154 95.3201C120.154 95.0787 120.07 94.879 119.897 94.7289C119.725 94.575 119.493 94.498 119.201 94.498H118.743V93.6902H118.237V96.1396H119.201V96.1383ZM118.743 94.9247H119.172C119.467 94.9247 119.642 95.0643 119.642 95.3135C119.642 95.5628 119.467 95.6946 119.172 95.6946H118.743V94.9247V94.9247ZM121.882 93.6902L122.694 94.8203L121.734 96.1396H122.317L122.982 95.2261L123.65 96.1396H124.241L123.285 94.8177L124.097 93.6915H123.513L122.989 94.4223L122.472 93.6915H121.882V93.6902Z" fill="#332784"/>
<path fill-rule="evenodd" clip-rule="evenodd" d="M43.6585 100.072V98.9984H44.7691V100.072H45.2713V97.623H44.7691V98.5391H43.6585V97.623H43.1523V100.072H43.6585ZM48.1482 100.072V99.6209H46.8081V98.9906H47.8558V98.5469H46.8081V98.0745H48.1089V97.623H46.302V100.072H48.1482V100.072ZM49.5447 100.072V98.9423L50.6029 100.072H51.2493L50.0259 98.7466L51.0697 97.623H50.4508L49.5434 98.5887V97.623H49.0373V100.072H49.5434H49.5447ZM52.4033 99.4212C52.259 99.2711 52.1882 99.078 52.1882 98.847C52.1882 98.6161 52.259 98.4242 52.4033 98.2729C52.5475 98.1215 52.7298 98.0458 52.9474 98.0458C53.1651 98.0458 53.3447 98.1228 53.489 98.2729C53.6332 98.4229 53.7066 98.6161 53.7066 98.847C53.7066 99.078 53.6332 99.2698 53.489 99.4212C53.3447 99.5713 53.1651 99.6483 52.9474 99.6483C52.7298 99.6483 52.5462 99.5713 52.4033 99.4212ZM51.6716 98.847C51.6716 99.2007 51.7909 99.5008 52.0335 99.7501C52.2761 99.998 52.5816 100.121 52.9474 100.121C53.3133 100.121 53.6162 99.998 53.8587 99.7501C54.1013 99.5021 54.2246 99.2007 54.2246 98.847C54.2246 98.4934 54.1013 98.1894 53.8587 97.944C53.6162 97.6961 53.3133 97.5734 52.9474 97.5734C52.5816 97.5734 52.2761 97.6961 52.0335 97.944C51.7909 98.1894 51.6716 98.4895 51.6716 98.847ZM55.6722 100.071V98.3955L56.2492 99.1824H56.5311L57.0975 98.3955V100.071H57.5971V97.6217H57.0975L56.3842 98.6356L55.6709 97.6217H55.1687V100.071H55.6748H55.6722ZM59.1313 100.071V98.3955L59.7083 99.1824H59.9889L60.5553 98.3955V100.071H61.0549V97.6217H60.5553L59.842 98.6356L59.1287 97.6217H58.6265V100.071H59.1326H59.1313ZM63.9305 100.071V99.6196H62.5904V98.9893H63.6381V98.5456H62.5904V98.0732H63.8912V97.6217H62.0842V100.071H63.9305V100.071ZM65.327 100.071V99.1015H65.8961C66.1596 99.1015 66.3707 99.031 66.5215 98.8953C66.6763 98.7583 66.7536 98.5808 66.7536 98.3603C66.7536 98.1398 66.6763 97.9649 66.5215 97.8292C66.3707 97.6922 66.1596 97.623 65.8961 97.623H64.8195V100.072H65.3257L65.327 100.071ZM65.327 98.0628H65.8607C66.1033 98.0628 66.2475 98.1711 66.2475 98.3668C66.2475 98.5626 66.1033 98.6709 65.8607 98.6709H65.327V98.0615V98.0628ZM69.5112 100.071V97.6217H69.009V98.633C68.8648 98.7035 68.7035 98.7374 68.5199 98.7374C68.2065 98.7374 68.0492 98.6252 68.0492 98.3212V97.6217H67.543V98.406C67.543 98.9345 67.8734 99.2033 68.453 99.2033C68.6458 99.2033 68.8333 99.1759 69.009 99.1159V100.071H69.5112ZM72.3868 100.071V99.6196H71.0467V98.9893H72.0944V98.5456H71.0467V98.0732H72.3474V97.6217H70.5405V100.071H72.3868V100.071ZM74.4717 100.121C74.7392 100.121 74.9713 100.061 75.1706 99.9419V99.4343C74.9883 99.5778 74.7628 99.6483 74.4953 99.6483C74.2527 99.6483 74.0521 99.5752 73.8947 99.4238C73.7361 99.2738 73.6561 99.0806 73.6561 98.847C73.6561 98.6135 73.7334 98.4242 73.8882 98.2729C74.0468 98.1228 74.2396 98.0458 74.4756 98.0458C74.7116 98.0458 74.9332 98.1085 75.1221 98.235V97.7274C74.9293 97.6256 74.7143 97.5734 74.4717 97.5734C74.0888 97.5734 73.7689 97.6922 73.5158 97.9297C73.2666 98.1672 73.1394 98.4725 73.1394 98.847C73.1394 99.2216 73.2653 99.5217 73.5197 99.7631C73.7728 100.001 74.0888 100.121 74.473 100.121M76.5959 100.071V98.941L77.6541 100.071H78.3005L77.0771 98.7453L78.1209 97.6217H77.502L76.5946 98.5874V97.6217H76.0885V100.071H76.5946H76.5959ZM79.482 100.071L80.6883 98.4647V100.071H81.1906V97.6217H80.7552L79.5633 99.2176V97.6217H79.0571V100.071H79.482ZM82.1189 97.6217L82.9306 98.7518L81.9708 100.071H82.5543L83.2191 99.1576L83.8865 100.071H84.4779L83.522 98.7492L84.3336 97.623H83.7501L83.2269 98.3538L82.7103 97.623H82.1202L82.1189 97.6217ZM87.2525 99.4199C87.1083 99.2698 87.0374 99.0767 87.0374 98.8457C87.0374 98.6148 87.1083 98.4229 87.2525 98.2716C87.3967 98.1215 87.579 98.0445 87.798 98.0445C88.017 98.0445 88.1953 98.1215 88.3395 98.2716C88.4838 98.4216 88.5572 98.6148 88.5572 98.8457C88.5572 99.0767 88.4838 99.2685 88.3395 99.4199C88.1953 99.57 88.0156 99.647 87.798 99.647C87.5803 99.647 87.3967 99.57 87.2525 99.4199ZM86.5208 98.8457C86.5208 99.1994 86.6401 99.4995 86.8827 99.7487C87.1253 99.998 87.4308 100.119 87.7967 100.119C88.1625 100.119 88.4641 99.9967 88.708 99.7487C88.9506 99.5008 89.0738 99.1994 89.0738 98.8457C89.0738 98.4921 88.9506 98.1881 88.708 97.9427C88.4654 97.6948 88.1625 97.5721 87.7967 97.5721C87.4308 97.5721 87.1253 97.6948 86.8827 97.9427C86.6401 98.1881 86.5208 98.4882 86.5208 98.8457ZM90.5215 100.07V99.1002H91.0905C91.3541 99.1002 91.5652 99.0297 91.716 98.894C91.8707 98.757 91.9481 98.5795 91.9481 98.359C91.9481 98.1385 91.8707 97.9636 91.716 97.8279C91.5652 97.6909 91.3541 97.6217 91.0905 97.6217H90.0153V100.071H90.5215V100.07ZM90.5215 98.0615H91.0564C91.299 98.0615 91.4433 98.1698 91.4433 98.3655C91.4433 98.5613 91.299 98.6696 91.0564 98.6696H90.5215V98.0602V98.0615ZM93.3236 100.07V98.0719H94.5929V97.6204H92.8175V100.07H93.3236ZM95.2957 100.07L95.5383 99.5034H96.5795L96.822 100.07H97.3597L96.3054 97.6061H95.8202L94.766 100.07H95.297H95.2957ZM96.0589 98.2363L96.4169 99.0871H95.6957L96.0576 98.2363H96.0589ZM98.6775 100.07V98.9958H99.7881V100.07H100.292V97.6204H99.7881V98.5365H98.6775V97.6204H98.1713V100.07H98.6775ZM101.747 100.07L102.953 98.4634V100.07H103.456V97.6204H103.019L101.827 99.2163V97.6204H101.321V100.07H101.746H101.747ZM105.227 100.119C105.547 100.119 105.804 100.046 105.99 99.8988C106.177 99.7487 106.272 99.5661 106.272 99.3455C106.272 99.048 106.09 98.8457 105.85 98.757C106.022 98.6839 106.184 98.5156 106.184 98.2677C106.184 98.0615 106.1 97.8931 105.927 97.764C105.758 97.6348 105.534 97.5721 105.249 97.5721C104.936 97.5721 104.666 97.6322 104.438 97.7535V98.2194C104.68 98.0967 104.944 98.038 105.226 98.038C105.508 98.038 105.686 98.1319 105.686 98.2964C105.686 98.4751 105.552 98.5665 105.289 98.5665H104.919V98.9893H105.228C105.555 98.9893 105.752 99.0976 105.752 99.2933C105.752 99.5178 105.534 99.6509 105.158 99.6509C104.88 99.6509 104.553 99.553 104.338 99.4029V99.8923C104.574 100.042 104.869 100.119 105.227 100.119M107.435 100.07L107.678 99.5034H108.719L108.962 100.07H109.499L108.445 97.6061H107.96L106.906 100.07H107.437H107.435ZM108.198 98.2363L108.556 99.0871H107.835L108.197 98.2363H108.198ZM112.695 100.57V99.6183H112.354V97.6204H111.848V99.6183H110.817V97.6204H110.311V100.07H112.216V100.57H112.695V100.57ZM113.975 100.07L115.181 98.4634V100.07H115.683V97.6204H115.248L114.056 99.2163V97.6204H113.55V100.07H113.975ZM117.139 100.07L118.345 98.4634V100.07H118.847V97.6204H118.412L117.22 99.2163V97.6204H116.714V100.07H117.139ZM117.135 96.8896C117.139 97.2576 117.409 97.4886 117.779 97.4886C118.148 97.4886 118.418 97.2576 118.422 96.8896H118.05C118.046 97.0436 117.941 97.1454 117.776 97.1454C117.611 97.1454 117.508 97.0436 117.508 96.8896H117.136H117.135Z" fill="#332784"/>
</svg>
