<svg width="162" height="160" viewBox="0 0 162 160" fill="none" xmlns="http://www.w3.org/2000/svg">
<path fill-rule="evenodd" clip-rule="evenodd" d="M65.8228 96.9968V86.9946H67.5496L60.1102 79L57.9082 81.2533V96.9968H65.8261H65.8228ZM59.1197 91.4323H60.7059V94.131H59.1197V91.4323ZM62.426 87.1387H64.0023V89.8341H62.426V87.1387Z" fill="white"/>
<path fill-rule="evenodd" clip-rule="evenodd" d="M58.8715 77.8765L51.4221 69.8853L49.6719 71.6767V96.9966H57.0744V77.8765H58.8715ZM52.8979 86.5916H54.4775V89.287H52.8979V86.5916ZM52.8979 79.9497H54.4775V82.6484H52.8979V79.9497V79.9497Z" fill="white"/>
<path fill-rule="evenodd" clip-rule="evenodd" d="M48.9021 69.0306H48.8486V96.9968H41.2754V78.7315L44.4312 78.7413L37.38 71.5164V68.9913H35.6465L43.0859 61L50.9402 69.0339H48.9021V69.0306ZM44.6253 81.8428H46.2048V84.5382H44.6253V81.8428ZM39.9501 70.3079H41.5364V73.0033H39.9501V70.3079V70.3079Z" fill="white"/>
<path fill-rule="evenodd" clip-rule="evenodd" d="M20.2369 96.9968V86.9946H18.5L25.9427 79L28.1414 81.2533V96.9968H20.2369ZM22.1511 86.8897H23.7307V89.5852H22.1511V86.8897Z" fill="white"/>
<path fill-rule="evenodd" clip-rule="evenodd" d="M40.4487 77.9191V96.9999H28.9768V77.8765H27.1797L34.6291 69.8853L42.4834 77.9257L40.4454 77.9158L40.4487 77.9191ZM36.3894 86.0905H37.9756V88.7892H36.3894V86.0905ZM36.3894 78.299H37.9756V80.9977H36.3894V78.299ZM30.9814 82.5927H32.5676V85.2881H30.9814V82.5927Z" fill="white"/>
<path d="M74.2012 75.64H76.0585V73.9435L76.7379 73.2033L78.4245 75.64H80.6567L78.033 71.8998L80.573 69.0767H78.371L76.0619 71.7393V69.0767H74.2045V75.64H74.2012ZM84.8833 75.771C86.9515 75.771 88.5043 74.2415 88.5043 72.3583C88.5043 70.4751 86.9716 68.9457 84.9034 68.9457C82.8353 68.9457 81.2825 70.4751 81.2825 72.3583C81.2825 74.2415 82.8152 75.771 84.8833 75.771ZM84.9034 74.1302C83.8894 74.1302 83.19 73.3048 83.19 72.3583C83.19 71.4118 83.8693 70.5865 84.8867 70.5865C85.904 70.5865 86.6102 71.4118 86.6102 72.3583C86.6102 73.3048 85.9308 74.1302 84.9034 74.1302ZM89.7894 75.64H93.2464C94.846 75.64 95.7864 74.9555 95.7864 73.8289C95.7864 72.9184 95.2677 72.4697 94.4545 72.2077C95.0468 71.9555 95.4885 71.5035 95.4885 70.7437C95.4885 70.2754 95.3246 69.9282 95.0568 69.6662C94.6653 69.283 94.0696 69.0767 93.2263 69.0767H89.786V75.64H89.7894ZM91.5999 74.176V72.9675H93.0188C93.6413 72.9675 93.9291 73.2033 93.9291 73.557C93.9291 73.9599 93.6044 74.176 93.0389 74.176H91.6032H91.5999ZM91.5999 71.6902V70.5374H92.808C93.3635 70.5374 93.6513 70.7437 93.6513 71.1007C93.6513 71.5035 93.3367 71.6902 92.7712 71.6902H91.6032H91.5999ZM100.328 75.7677C102.396 75.7677 103.949 74.2382 103.949 72.3551C103.949 70.4719 102.416 68.9424 100.344 68.9424C98.2729 68.9424 96.7234 70.4719 96.7234 72.3551C96.7234 74.2382 98.2561 75.7677 100.324 75.7677H100.328ZM100.348 74.1269C99.3337 74.1269 98.6343 73.3016 98.6343 72.3551C98.6343 71.4085 99.3136 70.5832 100.331 70.5832C101.348 70.5832 102.054 71.4085 102.054 72.3551C102.054 73.3016 101.375 74.1269 100.348 74.1269V74.1269ZM105.234 75.6367H107.091V73.7601H108.011C109.678 73.7601 110.896 72.9446 110.896 71.3987C110.896 69.8529 109.805 69.0734 108.108 69.0734H105.234V75.6367V75.6367ZM107.091 72.3354V70.5996H107.964C108.634 70.5996 109.039 70.9009 109.039 71.4609C109.039 72.021 108.637 72.3321 107.975 72.3321H107.094L107.091 72.3354ZM111.994 75.6367H113.851V73.9402L114.53 73.2L116.217 75.6367H118.449L115.826 71.8965L118.366 69.0734H116.164L113.854 71.7361V69.0734H111.997V75.6367H111.994ZM119.303 75.6367H121.036L123.633 71.9424V75.6367H125.474V69.0767H123.74L121.143 72.771V69.0767H119.303V75.64V75.6367ZM126.976 75.6367H128.834V73.1444H131.22V75.6367H133.077V69.0767H131.22V71.533H128.834V69.0767H126.976V75.64V75.6367ZM134.583 75.6367H136.44V70.6684H139.409V69.0734H134.58V75.6367H134.583ZM140.205 73.4719H144.499V71.9424H140.205V73.4719ZM79.1842 87.5647H80.7571L80.9679 84.6597H80.2116V79.6913H78.3542V84.6597H76.0652V79.6913H74.2079V86.2546H79.1909V87.568L79.1842 87.5647ZM81.915 86.2514H87.3564V84.7055H83.7556V83.664H86.9749V82.2295H83.7556V81.2339H87.3096V79.688H81.915V86.2514ZM88.6214 86.2514H90.4788V83.7557H92.8649V86.2514H94.7222V79.688H92.8649V82.1444H90.4788V79.688H88.6214V86.2514V86.2514ZM97.8646 86.2514H99.7219V81.283H101.733V79.688H95.85V81.283H97.8612V86.2514H97.8646ZM102.864 86.2514H104.722V84.3747H105.642C107.309 84.3747 108.527 83.5592 108.527 82.0134C108.527 80.4675 107.436 79.688 105.739 79.688H102.864V86.2514ZM104.722 82.95V81.2142H105.595C106.264 81.2142 106.669 81.5155 106.669 82.0756C106.669 82.6356 106.268 82.9468 105.605 82.9468H104.725L104.722 82.95ZM74.2012 96.8627H76.0585V94.3671H78.4446V96.8627H80.3019V90.2994H78.4446V92.7557H76.0585V90.2994H74.2012V96.8627ZM81.8079 96.8627H83.6652V95.1662L84.3446 94.426L86.0312 96.8627H88.2634L85.6397 93.1225L88.1797 90.2994H85.9777L83.6686 92.9621V90.2994H81.8112V96.8627H81.8079ZM92.49 96.9937C94.5582 96.9937 96.111 95.4643 96.111 93.5811C96.111 91.6979 94.5783 90.1684 92.5101 90.1684C90.442 90.1684 88.8892 91.6979 88.8892 93.5811C88.8892 95.4643 90.4219 96.9937 92.49 96.9937ZM92.5101 95.3529C91.4961 95.3529 90.7967 94.5276 90.7967 93.5811C90.7967 92.6346 91.476 91.8092 92.4934 91.8092C93.5107 91.8092 94.2169 92.6346 94.2169 93.5811C94.2169 94.5276 93.5375 95.3529 92.5101 95.3529Z" fill="white"/>
</svg>
