<svg width="183" height="160" viewBox="0 0 183 160" fill="none" xmlns="http://www.w3.org/2000/svg">
<path d="M74.4557 89.4186V68.5815C74.4557 60.5272 67.8314 54 59.6571 54H38.5096C30.3353 54 23.7109 60.5272 23.7109 68.5815V89.4186C23.7109 96.9525 29.5087 103.152 36.9482 103.921L52.4587 91.5H35.8231V85.5272L52.4472 72.2127H36.4775V66.5H62.3436V72.4728L45.708 85.7873H62.3321V91.7602L47.0513 104H59.6571C67.8314 104 74.4557 97.4729 74.4557 89.4186Z" fill="white"/>
<path d="M87.0977 63.2308H90.9552C92.6428 63.2082 93.9402 64.2715 93.9172 65.991C93.9402 67.7218 92.6428 68.7512 90.9552 68.7399H88.2916V72.405H87.0977M90.7485 67.6539C91.9999 67.6539 92.7232 67.077 92.7232 65.9797C92.7232 64.8824 91.9999 64.2942 90.7485 64.2942H88.2916V67.6539H90.7485Z" fill="white"/>
<path d="M97.922 65.7193C99.6785 65.6854 101.102 67.1447 101.068 69.113C101.091 71.0926 99.667 72.5519 97.922 72.518C96.1884 72.5519 94.7533 71.0926 94.7877 69.113C94.7648 67.1447 96.1884 65.6854 97.922 65.7193ZM97.9908 71.5904C99.1159 71.5904 99.9426 70.6515 99.9426 69.1243C99.9426 67.5972 99.1159 66.6582 97.9908 66.6582H97.876C96.7509 66.6582 95.9243 67.5972 95.9243 69.1243C95.9243 70.6628 96.7509 71.5904 97.876 71.5904H97.9908Z" fill="white"/>
<path d="M105.443 65.7193C106.935 65.7193 107.991 66.5904 108.129 67.9931H107.004C106.935 67.5971 106.763 67.2804 106.499 67.0315C106.235 66.7827 105.902 66.6582 105.512 66.6582H105.397C104.122 66.6356 103.434 67.7894 103.445 69.1243C103.434 70.4591 104.122 71.613 105.397 71.5903H105.512C105.902 71.5903 106.235 71.4659 106.499 71.217C106.763 70.9682 106.935 70.6401 107.004 70.2555H108.129C107.957 71.6469 106.935 72.5293 105.443 72.5293C103.491 72.5519 102.285 71.0587 102.297 69.1243C102.285 67.1899 103.491 65.6854 105.443 65.7193Z" fill="white"/>
<path d="M112.468 65.7193C113.961 65.7193 115.017 66.5904 115.143 67.9931H114.018C113.961 67.5971 113.789 67.2804 113.525 67.0315C113.26 66.7827 112.928 66.6582 112.526 66.6582H112.411C111.137 66.6356 110.448 67.7894 110.459 69.1243C110.448 70.4591 111.137 71.613 112.411 71.5903H112.526C112.928 71.5903 113.249 71.4659 113.513 71.217C113.777 70.9682 113.949 70.6401 114.018 70.2555H115.143C114.983 71.6469 113.961 72.5293 112.468 72.5293C110.517 72.5519 109.311 71.0587 109.323 69.1243C109.3 67.1899 110.505 65.6854 112.468 65.7193Z" fill="white"/>
<path d="M122.63 65.8555V72.3939H121.493V67.0546L118.29 72.3939H116.74V65.8555H117.865V71.2401L121.149 65.8555" fill="white"/>
<path d="M130.552 65.8436V72.3934H129.415V67.0427L126.212 72.3934H124.662V65.8436H125.799V71.2395L129.071 65.8436M126.591 63.2305C126.648 63.9205 126.981 64.2373 127.555 64.2373C128.152 64.2373 128.474 63.9092 128.52 63.2305H129.507C129.495 64.4069 128.772 64.9612 127.555 64.9612C126.327 64.9612 125.604 64.4183 125.604 63.2305H126.591Z" fill="white"/>
<path d="M135.337 65.7193C136.818 65.7193 137.886 66.5904 138.012 67.9931H136.887C136.818 67.5971 136.658 67.2804 136.382 67.0315C136.118 66.7827 135.785 66.6582 135.395 66.6582H135.28C134.006 66.6356 133.317 67.7894 133.328 69.1243C133.317 70.4591 134.006 71.613 135.28 71.5903H135.395C135.785 71.5903 136.118 71.4659 136.382 71.217C136.646 70.9682 136.818 70.6401 136.887 70.2555H138.012C137.84 71.6469 136.818 72.5293 135.337 72.5293C133.374 72.5519 132.18 71.0587 132.192 69.1243C132.169 67.1899 133.374 65.6854 135.337 65.7193Z" fill="white"/>
<path d="M141.904 69.2152L140.733 70.3464V72.3939H139.607V65.8555H140.733V69.0908L143.982 65.8555H145.394L142.719 68.4347L145.52 72.3939H144.154" fill="white"/>
<path d="M149.093 65.7193C150.85 65.6854 152.273 67.1447 152.239 69.113C152.262 71.0926 150.85 72.5519 149.093 72.518C147.36 72.5519 145.925 71.0926 145.948 69.113C145.925 67.1447 147.36 65.6854 149.093 65.7193ZM149.151 71.5904C150.276 71.5904 151.102 70.6515 151.102 69.1243C151.102 67.5972 150.276 66.6582 149.151 66.6582H149.036C147.911 66.6582 147.084 67.5972 147.084 69.1243C147.084 70.6628 147.922 71.5904 149.036 71.5904H149.151Z" fill="white"/>
<path d="M156.521 65.7191C158.174 65.6964 159.311 66.9408 159.288 68.615V69.2711H154.592C154.627 70.8096 155.603 71.6014 156.521 71.5901H156.625C157.382 71.5901 157.979 71.1942 158.14 70.4815H159.277C159.036 71.7824 157.922 72.529 156.544 72.529C154.857 72.5516 153.444 71.3186 153.467 69.1127C153.433 66.9182 154.937 65.6964 156.521 65.7191ZM158.163 68.3774C158.129 67.2575 157.44 66.6467 156.579 66.6467H156.464C155.672 66.6467 154.868 67.1331 154.673 68.3774H158.163Z" fill="white"/>
<path d="M89.6108 76.941C91.3674 76.9071 92.791 78.3664 92.7566 80.346C92.7795 82.3256 91.3674 83.7849 89.6108 83.751C87.8772 83.7849 86.4422 82.3256 86.4651 80.346C86.4536 78.3664 87.8772 76.9071 89.6108 76.941ZM89.6797 82.8121C90.8048 82.8121 91.6314 81.8731 91.6314 80.346C91.6314 78.8075 90.8048 77.8799 89.6797 77.8799H89.5649C88.4398 77.8799 87.6132 78.8188 87.6132 80.346C87.6132 81.8845 88.4398 82.8121 89.5649 82.8121H89.6797Z" fill="white"/>
<path d="M94.3424 77.4387C94.4457 76.8165 94.6409 76.3187 94.9508 75.9454C95.4101 75.3572 96.1908 75.0631 97.2585 75.0631H98.728C99.1872 75.0631 99.348 74.9273 99.348 74.588V74.373H100.404V74.7577C100.404 75.6739 100.014 76.0359 98.8773 76.0359H97.2011C95.7201 76.0359 95.1919 76.8052 95.1231 78.5473C95.5593 77.8911 96.5122 77.3142 97.5111 77.3142C99.1413 77.2916 100.462 78.5473 100.439 80.4251C100.462 82.2916 99.1528 83.7961 97.3274 83.7622C95.2723 83.7622 94.1816 82.2803 94.1816 79.8482C94.1931 78.8527 94.2505 78.0495 94.3424 77.4387ZM97.3962 82.8233C98.5673 82.8459 99.3135 81.7486 99.302 80.4364C99.302 79.1016 98.5214 78.1739 97.3962 78.1739H97.3159C96.2137 78.1739 95.3527 79.0676 95.3527 80.3459C95.3527 81.8052 96.1219 82.8346 97.3159 82.8346H97.3962V82.8233Z" fill="white"/>
<path d="M112.307 82.6989V85.3686H111.24V83.6152H102.066V77.0654H103.192V82.6989H106.05V77.0654H107.175V82.6989H110.046V77.0654H111.171V82.6989" fill="white"/>
<path d="M116.188 76.9412C117.853 76.9186 118.978 78.163 118.955 79.8372V80.4933H114.26C114.294 82.0317 115.258 82.8236 116.188 82.8123H116.28C117.038 82.8123 117.635 82.4163 117.796 81.6924H118.921C118.68 82.9933 117.566 83.7399 116.188 83.7399C114.501 83.7625 113.089 82.5295 113.112 80.3236C113.1 78.1403 114.604 76.9186 116.188 76.9412ZM117.83 79.5996C117.784 78.4684 117.107 77.8688 116.234 77.8688H116.12C115.327 77.8688 114.535 78.3439 114.329 79.5996H117.83Z" fill="white"/>
<path d="M123.376 76.9412C124.869 76.9412 125.925 77.8122 126.063 79.2149H124.937C124.869 78.819 124.696 78.5023 124.432 78.2534C124.168 78.0045 123.835 77.8801 123.433 77.8801H123.319C122.044 77.8575 121.355 79.0113 121.367 80.3462C121.355 81.681 122.044 82.8348 123.319 82.8122H123.433C123.835 82.8122 124.157 82.6878 124.421 82.4389C124.685 82.19 124.857 81.862 124.926 81.4774H126.051C125.879 82.8688 124.857 83.7511 123.365 83.7511C121.413 83.7738 120.207 82.2805 120.219 80.3462C120.219 78.4118 121.424 76.9185 123.376 76.9412Z" fill="white"/>
<path d="M132.295 77.9817H130.091V83.6152H128.954V77.9817H126.75V77.0654H132.295" fill="white"/>
<path d="M133.511 77.0654H136.634C138 77.0654 138.747 77.7781 138.747 78.7283C138.747 79.5202 138.31 80.0405 137.53 80.2781C138.207 80.3233 138.919 80.889 138.919 81.7487C138.942 82.7894 137.989 83.6265 136.692 83.6152H133.5M136.496 79.8482C137.197 79.8482 137.622 79.4523 137.622 78.8414C137.622 78.2419 137.185 77.9252 136.405 77.9252H134.66V79.8482H136.496ZM136.474 82.7668C137.358 82.7668 137.782 82.3822 137.782 81.6921C137.782 81.1265 137.358 80.7419 136.519 80.7419H134.66V82.7668H136.474Z" fill="white"/>
<path d="M143.307 76.941C145.063 76.9071 146.487 78.3664 146.452 80.346C146.475 82.3256 145.052 83.7849 143.307 83.751C141.573 83.7849 140.138 82.3256 140.172 80.346C140.138 78.3664 141.573 76.9071 143.307 76.941ZM143.364 82.8121C144.489 82.8121 145.316 81.8731 145.316 80.346C145.316 78.8075 144.489 77.8799 143.364 77.8799H143.249C142.124 77.8799 141.298 78.8188 141.298 80.346C141.298 81.8845 142.124 82.8121 143.249 82.8121H143.364Z" fill="white"/>
<path d="M93.2959 90.8892C93.6174 91.2285 93.7781 91.6697 93.7781 92.2127C93.7781 93.9435 92.366 94.9729 90.1961 94.9729C87.8311 94.9729 86.4993 93.853 86.373 91.8394H88.164C88.3248 92.9027 88.9906 93.4118 90.242 93.4118C91.3786 93.4118 91.9756 92.9932 91.9756 92.1788C91.9756 91.4095 91.4246 91.0136 90.3798 91.0136H89.1055V89.4299H90.288C91.2983 89.4299 91.8608 88.9774 91.8608 88.2082C91.8608 87.5294 91.2753 87.0996 90.2191 87.0996C89.6106 87.0996 89.1399 87.2466 88.8184 87.5521C88.497 87.8462 88.3018 88.2534 88.2444 88.7285H86.4534C86.4764 88.2421 86.6141 87.7557 86.8667 87.2693C87.1308 86.7828 87.5326 86.3756 88.0837 86.0475C88.6347 85.7195 89.3351 85.5498 90.1732 85.5498C92.4234 85.5498 93.6518 86.6132 93.6518 88.2082C93.6518 89.1358 93.0893 89.8937 92.0445 90.1991C92.5612 90.3236 92.9745 90.5498 93.2959 90.8892Z" fill="white"/>
<path d="M95.2812 88.2988H97.0148V90.7649H99.5865V88.2988H101.309V94.8373H99.5865V92.145H97.0148V94.8373H95.2812" fill="white"/>
<path d="M102.721 91.5681C102.698 89.3736 104.087 88.1519 105.58 88.1632C106.567 88.1632 107.279 88.6157 107.566 89.2039V88.2989H109.3V94.8487H107.566V93.9324C107.233 94.5206 106.556 94.9731 105.58 94.9731C104.202 94.9844 102.687 93.7514 102.721 91.5681ZM106.051 93.593C106.889 93.593 107.566 92.8238 107.566 91.5681C107.566 90.3125 106.889 89.5433 106.051 89.5433H105.947C105.132 89.5206 104.432 90.4256 104.443 91.5568C104.432 92.6994 105.144 93.6157 105.947 93.593H106.051Z" fill="white"/>
<path d="M111.08 88.2988H112.802V90.7649H115.374V88.2988H117.096V94.8373H115.374V92.145H112.802V94.8373H111.08" fill="white"/>
<path d="M125.339 88.2988V94.8373H123.605V90.1201L121.183 94.8373H118.875V88.2988H120.597V92.9708L123.02 88.2988" fill="white"/>
<path d="M126.751 91.5678C126.728 89.6108 127.968 88.1402 129.908 88.1629C131.848 88.1402 132.95 89.5769 132.939 91.4887C132.939 91.6131 132.927 91.8167 132.916 92.0995H128.427C128.496 92.9819 129.207 93.5927 129.919 93.5927H130.034C130.654 93.5927 131.079 93.2534 131.205 92.7669H132.916C132.594 94.0678 131.538 94.9615 129.908 94.9615C128.243 94.9954 126.716 93.6606 126.751 91.5678ZM131.263 90.7986C131.228 90.0294 130.62 89.543 129.896 89.543H129.793C129.07 89.543 128.461 90.0181 128.427 90.7986H131.263Z" fill="white"/>
</svg>
