<svg width="162" height="160" viewBox="0 0 162 160" fill="none" xmlns="http://www.w3.org/2000/svg">
<path d="M45.5 98.0233C45.5 101.114 48.0545 103.628 51.1953 103.628H66.8141V114L70.2627 110.422C75.1807 105.405 79.0939 103.628 85.2125 103.628H90.8166C93.9561 103.628 96.5118 101.114 96.5118 98.0233V90.15C95.8331 90.4232 95.2626 90.6318 94.8393 90.7828C94.332 90.6006 93.6155 90.3357 92.7567 89.9774V98.0233C92.7567 99.0768 91.887 99.9338 90.8166 99.9338H85.2125C79.8225 99.9338 75.1709 100.811 69.972 106.414L69.9513 99.9338H51.1953C50.1248 99.9338 49.2539 99.0768 49.2539 98.0233V52.6939H92.7567V61.1821C93.6241 62.1218 94.36 63.2256 94.9098 64.4566C95.3283 63.4666 95.8696 62.5533 96.5118 61.7406V49H45.5V98.0233Z" fill="white"/>
<path d="M116.498 69.3539C116.498 69.3095 116.496 69.2939 116.495 69.3539H116.498ZM112.747 69.3539V69.3874V69.3539ZM112.746 69.4282V69.4174L112.747 69.3551V69.4294L112.746 69.4282ZM73.1858 69.4857C73.1833 69.2652 73.1809 69.4054 73.1797 69.4905H73.1858V69.4857ZM76.9323 69.4785V69.4438V69.4414V69.4773V69.4785ZM97.6468 58.0851C99.5639 56.7271 101.836 55.9421 104.273 55.9421C107.683 55.9421 110.761 57.4714 112.982 59.9452C115.144 62.3543 116.484 65.6695 116.493 69.3215H116.495V69.3551H116.498V69.3215H116.501V69.3551C116.501 69.7566 116.501 69.4953 116.498 69.3551H116.494C116.494 69.3814 116.494 69.415 116.494 69.4593V69.5636V69.5708V69.6211C116.494 69.6451 116.493 69.6691 116.49 69.6931H116.493C116.434 70.5069 116.329 71.3003 116.185 72.0686C116.045 72.8153 115.871 73.5248 115.673 74.1948C113.884 80.2128 109.667 84.4964 105.454 87.4305C101.347 90.2902 97.221 91.8651 95.4743 92.486L94.8369 92.7125L94.2043 92.486C92.4515 91.8591 88.3351 90.2758 84.2138 87.3933C80.005 84.4497 75.7986 80.1588 74.0105 74.1373C73.8122 73.4661 73.6383 72.7566 73.4984 72.0111C73.3585 71.2572 73.2527 70.4805 73.1943 69.6835C73.1858 69.6128 73.1833 69.5684 73.1833 69.5313C73.1833 69.5696 73.1809 69.5432 73.1809 69.2987V69.2652H73.1882C73.1809 65.6036 74.5591 62.3663 76.6818 59.9992C78.9674 57.4522 82.1313 55.9061 85.4011 55.8917C87.7621 55.8809 90.066 56.6672 92.0379 58.0539C93.0937 58.797 94.0571 59.7139 94.8843 60.771C95.6762 59.7307 96.608 58.8246 97.6504 58.0863L97.6468 58.0851ZM104.273 59.6468C102.64 59.6468 101.118 60.1729 99.8363 61.0815C98.4667 62.0523 97.3536 63.457 96.6457 65.1338L94.9609 69.1202L93.1947 65.1697C92.4283 63.457 91.2533 62.0427 89.8617 61.0635C88.5102 60.1142 86.9654 59.5761 85.4145 59.5821C83.2322 59.5916 81.0803 60.6691 79.4868 62.4454C77.9347 64.1749 76.9263 66.5552 76.9336 69.2652H76.9409V69.4462C76.9932 70.1305 77.0759 70.7622 77.1866 71.3459C77.3021 71.9715 77.4469 72.56 77.6099 73.1113C79.1085 78.162 82.7408 81.8332 86.3888 84.3837C89.695 86.697 93.0183 88.0945 94.849 88.7812C96.6676 88.1017 99.9787 86.7149 103.296 84.4053C106.943 81.8656 110.576 78.2064 112.075 73.1677C112.239 72.6163 112.383 72.0278 112.499 71.4022C112.608 70.8197 112.691 70.1857 112.744 69.5013C112.744 69.4641 112.744 69.4162 112.744 69.3551V69.3215H112.751C112.744 66.6032 111.763 64.1545 110.18 62.3915C108.658 60.6955 106.57 59.6468 104.276 59.6468H104.273Z" fill="white"/>
</svg>
