<svg width="183" height="160" viewBox="0 0 183 160" fill="none" xmlns="http://www.w3.org/2000/svg">
<path d="M49 101.582C49 105.339 52.0582 108.394 55.8183 108.394H74.5169V121L78.6455 116.652C84.5332 110.554 89.2181 108.394 96.5431 108.394H103.252C107.011 108.394 110.071 105.339 110.071 101.582V92.013C109.258 92.3452 108.575 92.5986 108.068 92.7822C107.461 92.5608 106.603 92.2388 105.575 91.8033V101.582C105.575 102.863 104.534 103.904 103.252 103.904H96.5431C90.0904 103.904 84.5216 104.97 78.2974 111.781L78.2727 103.904H55.8183C54.5368 103.904 53.4941 102.863 53.4941 101.582V46.4896H105.575V56.8059C106.613 57.948 107.494 59.2896 108.153 60.7857C108.654 59.5824 109.302 58.4724 110.071 57.4848V42H49V101.582Z" fill="white"/>
<path d="M133.996 66.7378C133.996 66.6839 133.995 66.665 133.993 66.7378H133.996ZM129.507 66.7378V66.7786V66.7378ZM129.505 66.8281V66.815L129.507 66.7393V66.8296L129.505 66.8281ZM82.144 66.8981C82.1411 66.63 82.1382 66.8005 82.1367 66.9039H82.144V66.8981ZM86.6293 66.8893V66.8471V66.8442V66.8879V66.8893ZM111.428 53.0419C113.723 51.3914 116.444 50.4373 119.361 50.4373C123.444 50.4373 127.128 52.296 129.788 55.3027C132.375 58.2307 133.98 62.2599 133.99 66.6985H133.993V66.7393H133.996V66.6985H134.001V66.7393C134.001 67.2273 134.001 66.9097 133.996 66.7393H133.992C133.992 66.7713 133.992 66.8121 133.992 66.866V66.9927V67.0015V67.0627C133.992 67.0918 133.99 67.1209 133.988 67.1501H133.99C133.921 68.1392 133.794 69.1035 133.622 70.0372C133.455 70.9448 133.246 71.8071 133.009 72.6214C130.867 79.9356 125.819 85.1418 120.775 88.7078C115.858 92.1835 110.919 94.0976 108.827 94.8522L108.064 95.1275L107.307 94.8522C105.209 94.0904 100.281 92.166 95.3466 88.6627C90.3079 85.085 85.2721 79.87 83.1314 72.5515C82.894 71.7358 82.6857 70.8734 82.5183 69.9673C82.3508 69.0511 82.2241 68.1071 82.1542 67.1384C82.144 67.0525 82.1411 66.9986 82.1411 66.9534C82.1411 67 82.1382 66.968 82.1382 66.6708V66.63H82.1469C82.1382 62.1798 83.7881 58.2452 86.3293 55.3682C89.0657 52.2727 92.8535 50.3936 96.768 50.3761C99.5946 50.363 102.353 51.3186 104.713 53.004C105.977 53.9072 107.131 55.0215 108.121 56.3064C109.069 55.0419 110.185 53.9407 111.433 53.0433L111.428 53.0419ZM119.361 54.94C117.406 54.94 115.585 55.5795 114.05 56.6836C112.41 57.8636 111.077 59.5708 110.23 61.6088L108.213 66.4538L106.098 61.6525C105.181 59.5708 103.774 57.8519 102.108 56.6618C100.49 55.5081 98.6407 54.854 96.784 54.8613C94.1714 54.873 91.5953 56.1825 89.6875 58.3414C87.8293 60.4434 86.6221 63.3364 86.6308 66.63H86.6395V66.85C86.7022 67.6818 86.8012 68.4494 86.9337 69.1589C87.0721 69.9193 87.2453 70.6345 87.4405 71.3046C89.2346 77.4431 93.5831 81.905 97.9505 85.0049C101.909 87.8163 105.887 89.5148 108.079 90.3495C110.256 89.5236 114.22 87.8382 118.191 85.0311C122.557 81.9443 126.907 77.497 128.701 71.373C128.898 70.703 129.07 69.9877 129.209 69.2273C129.339 68.5194 129.44 67.7488 129.502 66.917C129.502 66.8718 129.502 66.8136 129.502 66.7393V66.6985H129.511C129.502 63.3947 128.328 60.4186 126.432 58.2758C124.611 56.2146 122.112 54.94 119.365 54.94H119.361Z" fill="white"/>
</svg>
