<svg width="162" height="160" viewBox="0 0 162 160" fill="none" xmlns="http://www.w3.org/2000/svg">
<path d="M48.9322 55.1134L26.6844 58.8446C24.6865 59.1855 22.8714 60.2257 21.5576 61.7827C20.2438 63.3398 19.5154 65.3141 19.5001 67.3593C19.4977 67.8478 19.5366 68.3356 19.6164 68.8175C20.391 73.5204 24.8413 76.7282 30.1655 75.9477L52.4133 72.2191C55.9219 71.519 58.9093 67.8431 58.9288 63.7005C58.9315 63.2124 58.8921 62.7249 58.8113 62.2436C58.4317 59.979 57.1796 57.958 55.3286 56.622C53.4776 55.286 51.1781 54.7437 48.9322 55.1134V55.1134Z" fill="white"/>
<path d="M32.6509 64.215C32.5045 63.8155 32.27 63.4548 31.9651 63.1602C31.5314 62.7498 30.9971 62.4635 30.4173 62.3309C29.7542 62.1739 29.0659 62.1581 28.3965 62.2848C27.7265 62.3827 27.0818 62.6116 26.4985 62.9585C26.0127 63.247 25.6202 63.6716 25.3686 64.1807C25.1335 64.6886 25.0635 65.2586 25.1688 65.809C25.2317 66.2734 25.4116 66.7138 25.6913 67.0879C25.9782 67.4342 26.3613 67.6858 26.7911 67.8104C27.36 67.9718 27.952 68.0338 28.5415 67.9937L30.1717 67.9317C30.4775 67.9147 30.7842 67.9324 31.086 67.9845C31.2765 68.0156 31.4537 68.1028 31.5955 68.235C31.7156 68.3716 31.792 68.5416 31.8149 68.7228C31.8582 68.9617 31.8086 69.2081 31.6765 69.411C31.5172 69.6444 31.2983 69.8299 31.0429 69.9477C30.7124 70.1077 30.3603 70.2174 29.9979 70.2733C29.6095 70.3477 29.2107 70.3477 28.8223 70.2733C28.5004 70.2136 28.1985 70.073 27.9445 69.8646C27.809 69.7481 27.6949 69.6084 27.6075 69.4519L25.771 69.887C25.9189 70.3062 26.1581 70.6864 26.4711 70.9998C26.9204 71.4415 27.4803 71.7515 28.0908 71.8963C28.7963 72.0636 29.5286 72.0806 30.2409 71.9464C30.9369 71.8426 31.604 71.5943 32.2003 71.2173C32.7079 70.8991 33.1156 70.4418 33.3759 69.8989C33.6192 69.363 33.6917 68.7641 33.5836 68.1849C33.5264 67.7308 33.353 67.2996 33.0807 66.9337C32.8023 66.61 32.4297 66.3834 32.0161 66.2863C31.4173 66.1448 30.8011 66.0929 30.1874 66.132L28.4892 66.1755C28.2066 66.1897 27.9233 66.1693 27.6454 66.1149C27.4661 66.0826 27.2995 65.9999 27.1647 65.8763C27.0518 65.7506 26.9794 65.5934 26.957 65.4253C26.9128 65.1977 26.9573 64.9616 27.0811 64.7661C27.2269 64.5467 27.4292 64.3716 27.6663 64.2598C27.972 64.1082 28.2989 64.0046 28.6355 63.9526C28.9949 63.8854 29.3631 63.8818 29.7236 63.9421C30.0158 63.9882 30.2914 64.109 30.5244 64.2928C30.7011 64.4343 30.8366 64.6216 30.9162 64.8347L32.6509 64.215Z" fill="#332784"/>
<path d="M42.2976 62.0833L41.9854 60.2217L33.8867 61.5982L34.2067 63.4585L37.3574 62.9219L38.6022 70.391L40.3983 70.0851L39.1535 62.6173L42.2976 62.0833Z" fill="#332784"/>
<path d="M53.0033 63.3078C52.8749 62.4226 52.5296 61.5838 51.9988 60.8673C51.5102 60.2128 50.8455 59.714 50.0838 59.4302C49.273 59.158 48.4084 59.0906 47.5658 59.2341C46.7232 59.3775 45.9283 59.7274 45.2508 60.2529C44.6211 60.7686 44.1536 61.4581 43.9053 62.2372C43.6557 63.0929 43.6021 63.9946 43.7485 64.8742C43.895 65.7538 44.2376 66.5883 44.7505 67.3146C45.2393 67.9679 45.9047 68.4647 46.6667 68.7451C47.4774 69.0176 48.342 69.0851 49.1846 68.9419C50.0272 68.7987 50.8222 68.4491 51.4998 67.9237C52.1266 67.4081 52.5935 66.7217 52.8452 65.9461C53.1151 65.0937 53.1694 64.1868 53.0033 63.3078V63.3078ZM51.1079 65.2525C50.9638 65.7235 50.6825 66.1398 50.3007 66.4471C49.8786 66.7637 49.388 66.9748 48.8693 67.0628C48.3507 67.1508 47.8187 67.1133 47.3172 66.9534C46.8577 66.7877 46.4578 66.4869 46.169 66.0898C45.8604 65.6336 45.6539 65.1151 45.5636 64.5703C45.4734 64.0255 45.5017 63.4674 45.6466 62.9347C45.7917 62.4649 46.0717 62.0492 46.4512 61.7402C46.8739 61.4243 47.3647 61.2137 47.8834 61.1257C48.4021 61.0377 48.9341 61.0748 49.4359 61.2339C49.8967 61.398 50.2974 61.6991 50.5854 62.0975C50.8916 62.5548 51.0968 63.0732 51.187 63.6176C51.2771 64.162 51.2502 64.7196 51.1079 65.2525V65.2525Z" fill="#332784"/>
<path d="M82.1641 70.355L71.3642 90.414V70.355H65.3477V98.6294H72.8938L84.053 77.7173V98.6294H90.0525V70.355H82.1641Z" fill="white"/>
<path d="M131.782 70.3379H124.871L117.307 89.6837H123.387V92.0885H134.037L136.499 98.6294H142.5L131.782 70.3379ZM124.511 86.0276L128.138 76.2565L131.782 86.0223L124.511 86.0276Z" fill="white"/>
<path d="M114.999 92.0814V70.3545H108.959L108.987 92.0814H98.456L98.4286 70.3558H92.4316V98.6289H114.999V105H121.008V92.0788L114.999 92.0814Z" fill="white"/>
<path d="M58.4589 70.3735C56.6119 72.3895 55.5277 73.6525 52.7428 74.1325L42.6443 75.8465L42.6116 87.532V87.5847V87.6691C42.6116 87.6955 42.6116 87.7245 42.6116 87.7548C42.6122 88.0315 42.5961 88.308 42.5633 88.5828C42.5639 88.5854 42.5639 88.5881 42.5633 88.5907C42.4444 89.6455 42.0761 91.1591 41.1447 91.9304C40.3348 92.5988 39.0273 92.7544 37.2456 92.3971H37.2142C37.0749 92.369 36.9325 92.3373 36.7871 92.3022V98.3249C37.4812 98.5121 38.1954 98.6126 38.9137 98.6242C39.1854 98.6242 39.4505 98.6149 39.7065 98.5991C42.1753 98.437 43.8734 97.5338 44.9851 96.6109L45.0073 96.5911C48.1488 93.9542 48.589 89.7918 48.6334 88.091V88.0211C48.6334 87.9341 48.6334 87.8563 48.6334 87.7838V76.4385H56.9659V98.6281H62.9745V70.3735H58.4589Z" fill="white"/>
</svg>
