<svg width="183" height="160" viewBox="0 0 183 160" fill="none" xmlns="http://www.w3.org/2000/svg">
<path d="M55.7822 52.127L31.0021 56.306C28.7768 56.6877 26.7551 57.8528 25.2918 59.5966C23.8285 61.3405 23.0171 63.5518 23.0001 65.8424C22.9974 66.3895 23.0407 66.9359 23.1296 67.4756C23.9924 72.7429 28.9493 76.3356 34.8795 75.4614L59.6596 71.2854C63.5675 70.5013 66.8949 66.3843 66.9167 61.7446C66.9196 61.1979 66.8758 60.6519 66.7857 60.1129C66.3629 57.5765 64.9684 55.3129 62.9067 53.8167C60.845 52.3204 58.2837 51.7129 55.7822 52.127Z" fill="white"/>
<path d="M37.6486 62.3205C37.4855 61.8731 37.2243 61.4691 36.8848 61.1392C36.4016 60.6795 35.8065 60.3589 35.1607 60.2104C34.4221 60.0345 33.6556 60.0169 32.9099 60.1587C32.1637 60.2684 31.4456 60.5247 30.796 60.9133C30.2548 61.2364 29.8177 61.7119 29.5374 62.2821C29.2755 62.851 29.1976 63.4893 29.3148 64.1058C29.3849 64.626 29.5852 65.1192 29.8968 65.5382C30.2164 65.926 30.6431 66.2078 31.1219 66.3474C31.7554 66.5282 32.4148 66.5976 33.0714 66.5527L34.8872 66.4833C35.2278 66.4642 35.5694 66.4841 35.9056 66.5424C36.1178 66.5773 36.3151 66.6749 36.473 66.8229C36.6068 66.976 36.6919 67.1664 36.7174 67.3693C36.7656 67.6368 36.7104 67.9129 36.5632 68.1401C36.3859 68.4015 36.142 68.6092 35.8576 68.7411C35.4895 68.9203 35.0972 69.0432 34.6937 69.1059C34.261 69.1891 33.8169 69.1891 33.3842 69.1059C33.0257 69.039 32.6894 68.8815 32.4065 68.6481C32.2556 68.5177 32.1285 68.3612 32.0312 68.1859L29.9856 68.6732C30.1503 69.1426 30.4168 69.5686 30.7654 69.9195C31.2658 70.4143 31.8895 70.7614 32.5695 70.9236C33.3553 71.111 34.1708 71.1301 34.9643 70.9798C35.7395 70.8634 36.4826 70.5854 37.1466 70.1632C37.7121 69.8067 38.1662 69.2946 38.4561 68.6865C38.7271 68.0863 38.8079 67.4156 38.6874 66.7668C38.6237 66.2583 38.4306 65.7753 38.1273 65.3654C37.8172 65.0029 37.4022 64.7492 36.9415 64.6404C36.2745 64.482 35.5883 64.4238 34.9046 64.4676L33.0132 64.5164C32.6984 64.5322 32.3828 64.5094 32.0734 64.4484C31.8737 64.4123 31.6881 64.3197 31.538 64.1811C31.4122 64.0405 31.3316 63.8644 31.3066 63.6761C31.2574 63.4211 31.3069 63.1567 31.4448 62.9378C31.6072 62.6921 31.8326 62.496 32.0966 62.3707C32.4371 62.2009 32.8012 62.0849 33.1762 62.0267C33.5764 61.9514 33.9865 61.9474 34.3881 62.0149C34.7135 62.0666 35.0205 62.2018 35.28 62.4077C35.4769 62.5662 35.6277 62.7759 35.7165 63.0146L37.6486 62.3205Z" fill="#332784"/>
<path d="M48.3916 59.9327L48.0439 57.8477L39.0234 59.3893L39.3799 61.4729L42.8891 60.8719L44.2757 69.2373L46.2762 68.8947L44.8896 60.5308L48.3916 59.9327Z" fill="#332784"/>
<path d="M60.3158 61.3045C60.1729 60.3131 59.7883 59.3736 59.197 58.5712C58.6529 57.8381 57.9125 57.2794 57.0641 56.9616C56.161 56.6567 55.198 56.5813 54.2595 56.7419C53.3209 56.9026 52.4356 57.2944 51.6809 57.883C50.9796 58.4606 50.4589 59.2328 50.1824 60.1054C49.9044 61.0637 49.8446 62.0736 50.0077 63.0588C50.1708 64.044 50.5524 64.9786 51.1237 65.7921C51.6681 66.5238 52.4093 67.0802 53.258 67.3943C54.161 67.6994 55.124 67.7751 56.0625 67.6147C57.001 67.4543 57.8865 67.0628 58.6412 66.4743C59.3393 65.8968 59.8594 65.128 60.1398 64.2593C60.4403 63.3047 60.5009 62.2889 60.3158 61.3045ZM58.2048 63.4826C58.0442 64.0101 57.7309 64.4763 57.3056 64.8205C56.8355 65.1751 56.2891 65.4115 55.7114 65.5101C55.1337 65.6086 54.5412 65.5666 53.9826 65.3875C53.4707 65.2019 53.0253 64.8651 52.7037 64.4203C52.36 63.9094 52.1299 63.3287 52.0294 62.7185C51.9289 62.1083 51.9604 61.4832 52.1218 60.8866C52.2834 60.3604 52.5953 59.8948 53.018 59.5487C53.4888 59.1949 54.0355 58.9591 54.6132 58.8606C55.191 58.762 55.7835 58.8035 56.3425 58.9817C56.8556 59.1656 57.302 59.5027 57.6228 59.9489C57.9639 60.4611 58.1924 61.0417 58.2928 61.6515C58.3932 62.2612 58.3632 62.8857 58.2048 63.4826Z" fill="#332784"/>
<path d="M92.797 69.1973L80.7677 91.6634V69.1973H74.0664V100.865H82.4714L94.9008 77.443V100.865H101.583V69.1973H92.797Z" fill="white"/>
<path d="M148.061 69.1782H140.363L131.938 90.8455H138.71V93.5389H150.572L153.315 100.865H159.998L148.061 69.1782ZM139.961 86.7507L144.002 75.807L148.061 86.7447L139.961 86.7507Z" fill="white"/>
<path d="M129.371 93.5314V69.1973H122.643L122.674 93.5314H110.944L110.914 69.1987H104.234V100.865H129.371V108H136.064V93.5284L129.371 93.5314Z" fill="white"/>
<path d="M66.3924 69.2183C64.3351 71.4761 63.1276 72.8908 60.0257 73.4283L48.7777 75.3479L48.7414 88.4357V88.4948V88.5893C48.7414 88.6188 48.7414 88.6513 48.7414 88.6853C48.7421 88.9952 48.7241 89.3049 48.6875 89.6126C48.6882 89.6155 48.6882 89.6186 48.6875 89.6215C48.5551 90.8028 48.1449 92.498 47.1075 93.3619C46.2055 94.1106 44.7491 94.2848 42.7646 93.8846H42.7297C42.5745 93.8531 42.4159 93.8177 42.2539 93.7783V100.524C43.027 100.733 43.8224 100.846 44.6225 100.859C44.9251 100.859 45.2205 100.849 45.5056 100.831C48.2554 100.649 50.1468 99.6378 51.3849 98.6041L51.4097 98.5819C54.9087 95.6286 55.3991 90.9667 55.4485 89.0618V88.9836C55.4485 88.8861 55.4485 88.799 55.4485 88.7178V76.011H64.7294V100.863H71.422V69.2183H66.3924Z" fill="white"/>
</svg>
