<svg width="183" height="160" viewBox="0 0 183 160" fill="none" xmlns="http://www.w3.org/2000/svg">
<path d="M86.2816 67.7462H89.2753L89.9731 69.2366H91.5202L88.486 62.7598H87.0903L84.0566 69.2366H85.5837L86.2816 67.7462ZM87.7782 64.4158L88.8099 66.6514H86.7364L87.7782 64.4158Z" fill="white"/>
<path d="M92.5515 68.6935C93.0873 69.1351 93.7347 69.3559 94.483 69.3559C95.0798 69.3559 95.6057 69.2455 96.0811 69.0155V67.9115C95.6867 68.1231 95.2313 68.2243 94.7154 68.2243C94.2805 68.2243 93.9066 68.1047 93.6032 67.8655C93.2998 67.6263 93.1478 67.3135 93.1478 66.9363C93.1478 66.5591 93.2998 66.2463 93.5927 66.0163C93.8961 65.7771 94.2705 65.6575 94.7154 65.6575C95.1303 65.6575 95.5652 65.7495 96.0001 65.9335V64.8295C95.5547 64.6271 95.0593 64.5259 94.503 64.5259C93.7447 64.5259 93.0973 64.7467 92.5515 65.1883C92.0151 65.6207 91.7422 66.2003 91.7422 66.9271C91.7422 67.6539 92.0151 68.2427 92.5515 68.6935Z" fill="white"/>
<path d="M97.5984 68.6935C98.1342 69.1351 98.7816 69.3559 99.5299 69.3559C100.127 69.3559 100.653 69.2455 101.128 69.0155V67.9115C100.734 68.1231 100.278 68.2243 99.7623 68.2243C99.3274 68.2243 98.9535 68.1047 98.6501 67.8655C98.3467 67.6263 98.1947 67.3135 98.1947 66.9363C98.1947 66.5591 98.3467 66.2463 98.6401 66.0163C98.9435 65.7771 99.3174 65.6575 99.7623 65.6575C100.177 65.6575 100.612 65.7495 101.047 65.9335V64.8295C100.602 64.6271 100.106 64.5259 99.5504 64.5259C98.7915 64.5259 98.1442 64.7467 97.5984 65.1883C97.062 65.6207 96.7891 66.2003 96.7891 66.9271C96.7891 67.6539 97.062 68.2427 97.5984 68.6935Z" fill="white"/>
<path d="M104.647 69.3559C105.466 69.3559 106.134 69.1259 106.659 68.6659C107.185 68.1967 107.448 67.6263 107.448 66.9363C107.448 66.2647 107.185 65.6943 106.659 65.2251C106.134 64.7559 105.466 64.5259 104.647 64.5259C103.828 64.5259 103.16 64.7559 102.634 65.2251C102.109 65.6851 101.846 66.2555 101.846 66.9363C101.846 67.6263 102.109 68.1967 102.634 68.6659C103.16 69.1259 103.828 69.3559 104.647 69.3559ZM103.646 66.0255C103.909 65.7771 104.243 65.6575 104.647 65.6575C105.051 65.6575 105.385 65.7771 105.648 66.0255C105.911 66.2647 106.043 66.5683 106.043 66.9363C106.043 67.3043 105.911 67.6079 105.648 67.8563C105.385 68.1047 105.051 68.2243 104.647 68.2243C104.243 68.2243 103.909 68.1047 103.646 67.8563C103.383 67.6079 103.251 67.3043 103.251 66.9363C103.251 66.5683 103.383 66.2647 103.646 66.0255Z" fill="white"/>
<path d="M112.788 70.4047H114.164V68.1507H113.334V64.6455H111.908V68.1507H109.875V64.6455H108.449V69.2363H112.788V70.4047Z" fill="white"/>
<path d="M118.724 66.5315V69.2363H120.13V64.6455H118.795L116.509 67.3503V64.6455H115.104V69.2363H116.438L118.724 66.5315Z" fill="white"/>
<path d="M122.952 69.3559C123.671 69.3559 124.247 69.1443 124.692 68.7303C124.884 69.1259 125.258 69.3191 125.835 69.3191C126.168 69.3191 126.421 69.2547 126.603 69.1259V68.1783C126.532 68.2151 126.431 68.2335 126.31 68.2335C126.077 68.2335 125.956 68.1139 125.956 67.8839V66.3291C125.956 65.7679 125.734 65.3263 125.289 65.0043C124.854 64.6823 124.267 64.5259 123.549 64.5259C122.811 64.5259 122.194 64.6455 121.678 64.8939V65.9795C122.154 65.7219 122.669 65.5931 123.205 65.5931C124.095 65.5931 124.54 65.8783 124.54 66.4579V66.5959C124.135 66.4027 123.65 66.3107 123.084 66.3107C122.538 66.3107 122.073 66.4395 121.678 66.6971C121.284 66.9547 121.092 67.3319 121.092 67.8195C121.092 68.7487 121.86 69.3559 122.952 69.3559ZM123.489 67.1571C123.903 67.1571 124.247 67.2491 124.54 67.4239V67.8839C124.277 68.1967 123.893 68.3531 123.397 68.3531C122.871 68.3531 122.497 68.1599 122.497 67.7551C122.497 67.3779 122.882 67.1571 123.489 67.1571Z" fill="white"/>
<path d="M131.872 70.4047H133.247V68.1507H132.418V64.6455H130.992V68.1507H128.959V64.6455H127.533V69.2363H131.872V70.4047Z" fill="white"/>
<path d="M137.808 66.5315V69.2363H139.214V64.6455H137.879L135.593 67.3503V64.6455H134.188V69.2363H135.522L137.808 66.5315Z" fill="white"/>
<path d="M141.65 69.2363L142.814 67.7183H143.673V69.2363H145.099V64.6455H142.389C141.064 64.6455 140.407 65.2803 140.407 66.1359C140.407 66.8167 140.74 67.2675 141.408 67.4883L140.053 69.2363H141.65ZM142.622 65.6575H143.673V66.7799H142.622C142.146 66.7799 141.863 66.5775 141.863 66.2187C141.863 65.8599 142.146 65.6575 142.622 65.6575Z" fill="white"/>
<path d="M86.1108 75.216C86.4142 74.9768 86.7881 74.8572 87.233 74.8572C87.6479 74.8572 88.0828 74.9492 88.5177 75.1332V74.0292C88.0728 73.8268 87.5769 73.7256 87.0205 73.7256C86.2622 73.7256 85.6149 73.9464 85.0691 74.388C84.5327 74.8204 84.2598 75.4 84.2598 76.1268C84.2598 76.8536 84.5327 77.4424 85.0691 77.8932C85.6049 78.3348 86.2523 78.5556 87.0006 78.5556C87.5974 78.5556 88.1233 78.4452 88.5986 78.2152V77.1112C88.2042 77.3228 87.7489 77.424 87.233 77.424C86.7981 77.424 86.4242 77.3044 86.1208 77.0652C85.8174 76.826 85.6654 76.5132 85.6654 76.136C85.6654 75.7588 85.8174 75.446 86.1108 75.216Z" fill="white"/>
<path d="M92.2369 78.436V74.9308H93.8345V73.8452H89.2227V74.9308H90.8008V78.436H92.2369Z" fill="white"/>
<path d="M95.3525 79.1996C95.0796 79.1996 94.8167 79.1352 94.5842 79.0156V80.1472C94.8372 80.2668 95.1805 80.3312 95.5955 80.3312C96.4957 80.3312 97.163 79.862 97.6079 78.9144L99.9443 73.8452H98.4372L97.173 76.8628L95.8384 73.8452H94.3008L96.4752 78.2796C96.1818 78.9144 95.8684 79.1996 95.3525 79.1996Z" fill="white"/>
<path d="M101.139 78.436H104.779V79.6044H106.124V77.3504H105.295V73.8452H101.048L101.027 74.7376C101.007 75.9428 100.805 76.8076 100.42 77.3504H99.7734V79.6044H101.139V78.436ZM102.322 74.9308H103.899V77.3504H101.877C102.17 76.6972 102.322 75.8876 102.322 74.9308Z" fill="white"/>
<path d="M106.658 76.136C106.658 76.8628 106.931 77.4516 107.468 77.8932C108.003 78.3348 108.671 78.5556 109.459 78.5556C110.289 78.5556 110.926 78.3992 111.381 78.0864V77.0468C110.866 77.3136 110.329 77.4516 109.763 77.4516C108.873 77.4516 108.226 77.1204 108.074 76.4948H111.695V76.1544C111.695 75.4736 111.472 74.9032 111.038 74.434C110.603 73.9648 110.026 73.7256 109.288 73.7256C108.509 73.7256 107.872 73.9556 107.387 74.4248C106.901 74.8848 106.658 75.4552 106.658 76.136ZM109.227 74.7468C109.864 74.7468 110.259 75.1608 110.289 75.6668H108.074C108.145 75.124 108.58 74.7468 109.227 74.7468Z" fill="white"/>
<path d="M112.738 73.8452V78.436H114.164V76.6328H116.237V78.436H117.663V73.8452H116.237V75.5472H114.164V73.8452H112.738Z" fill="white"/>
<path d="M123.022 73.8452H118.42V74.9308H119.998V78.436H121.424V74.9308H123.022V73.8452Z" fill="white"/>
<path d="M124.265 74.4248C123.739 74.8848 123.477 75.4552 123.477 76.136C123.477 76.826 123.739 77.3964 124.265 77.8656C124.791 78.3256 125.459 78.5556 126.278 78.5556C127.097 78.5556 127.764 78.3256 128.291 77.8656C128.817 77.3964 129.08 76.826 129.08 76.136C129.08 75.4644 128.817 74.894 128.291 74.4248C127.764 73.9556 127.097 73.7256 126.278 73.7256C125.459 73.7256 124.791 73.9556 124.265 74.4248ZM127.673 76.136C127.673 76.504 127.542 76.8076 127.279 77.056C127.016 77.3044 126.683 77.424 126.278 77.424C125.873 77.424 125.54 77.3044 125.277 77.056C125.014 76.8076 124.882 76.504 124.882 76.136C124.882 75.768 125.014 75.4644 125.277 75.2252C125.54 74.9768 125.873 74.8572 126.278 74.8572C126.683 74.8572 127.016 74.9768 127.279 75.2252C127.542 75.4644 127.673 75.768 127.673 76.136Z" fill="white"/>
<path d="M134.542 75.0228C134.542 74.3512 133.976 73.8452 132.924 73.8452H130.072V78.436H133.045C134.219 78.436 134.886 77.9484 134.886 77.1756C134.886 76.596 134.563 76.2004 133.925 75.998C134.34 75.8048 134.542 75.4828 134.542 75.0228ZM131.478 74.7376H132.469C132.924 74.7376 133.146 74.894 133.146 75.2068C133.146 75.5196 132.924 75.676 132.469 75.676H131.478V74.7376ZM132.692 77.5252H131.478V76.4948H132.692C133.187 76.4948 133.43 76.6696 133.43 77.01C133.43 77.3504 133.187 77.5252 132.692 77.5252Z" fill="white"/>
<path d="M89.6185 87.6362V83.0454H88.2833L85.998 85.7502V83.0454H84.5918V87.6362H85.927L88.2123 84.9314V87.6362H89.6185Z" fill="white"/>
<path d="M97.6084 86.3114C97.214 86.523 96.7586 86.6242 96.2433 86.6242C95.8084 86.6242 95.434 86.5046 95.1305 86.2654C94.8271 86.0262 94.6757 85.7134 94.6757 85.3362C94.6757 84.959 94.8271 84.6462 95.1206 84.4162C95.424 84.177 95.7979 84.0574 96.2433 84.0574C96.6577 84.0574 97.0925 84.1494 97.5274 84.3334V83.2294C97.0825 83.027 96.5867 82.9258 96.0308 82.9258C95.272 82.9258 94.6247 83.1466 94.0788 83.5882C93.543 84.0206 93.2695 84.6002 93.2695 85.327C93.2695 86.0538 93.543 86.6426 94.0788 87.0934C94.6147 87.535 95.262 87.7558 96.0103 87.7558C96.6072 87.7558 97.133 87.6454 97.6084 87.4154V86.3114Z" fill="white"/>
<path d="M98.2344 84.131H99.812V87.6362H101.248V84.131H102.846V83.0454H98.2344V84.131Z" fill="white"/>
<path d="M104.362 88.3998C104.089 88.3998 103.826 88.3354 103.593 88.2158V89.3474C103.846 89.467 104.19 89.5314 104.605 89.5314C105.505 89.5314 106.173 89.0622 106.618 88.1146L108.954 83.0454H107.447L106.183 86.063L104.848 83.0454H103.311L105.485 87.4798C105.192 88.1146 104.878 88.3998 104.362 88.3998Z" fill="white"/>
<path d="M114.305 83.0454H110.058L110.037 83.9378C110.017 85.143 109.815 86.0078 109.431 86.5506H108.783V88.8046H110.149V87.6362H113.789V88.8046H115.135V86.5506H114.305V83.0454ZM112.91 86.5506H110.887C111.18 85.8974 111.332 85.0878 111.332 84.131H112.91V86.5506Z" fill="white"/>
<path d="M116.479 87.0934C117.015 87.535 117.683 87.7558 118.472 87.7558C119.301 87.7558 119.938 87.5994 120.393 87.2866V86.247C119.877 86.5138 119.341 86.6518 118.775 86.6518C117.885 86.6518 117.238 86.3206 117.086 85.695H120.707V85.3546C120.707 84.6738 120.484 84.1034 120.049 83.6342C119.614 83.165 119.038 82.9258 118.3 82.9258C117.521 82.9258 116.884 83.1558 116.398 83.625C115.913 84.085 115.67 84.6554 115.67 85.3362C115.67 86.063 115.943 86.6518 116.479 87.0934ZM118.239 83.947C118.876 83.947 119.27 84.361 119.301 84.867H117.086C117.157 84.3242 117.592 83.947 118.239 83.947Z" fill="white"/>
<path d="M123.176 85.833H125.249V87.6362H126.675V83.0454H125.249V84.7474H123.176V83.0454H121.75V87.6362H123.176V85.833Z" fill="white"/>
<path d="M130.959 86.1274V87.6362H132.385V83.0454H130.959V85.0142C130.727 85.1338 130.433 85.189 130.079 85.189C129.402 85.189 129.129 84.9406 129.129 84.2782V83.0454H127.703V84.407C127.703 85.6582 128.421 86.2838 129.857 86.2838C130.272 86.2838 130.636 86.2286 130.959 86.1274Z" fill="white"/>
<path d="M138.133 87.2866V86.247C137.617 86.5138 137.081 86.6518 136.515 86.6518C135.625 86.6518 134.978 86.3206 134.826 85.695H138.446V85.3546C138.446 84.6738 138.224 84.1034 137.789 83.6342C137.354 83.165 136.778 82.9258 136.039 82.9258C135.261 82.9258 134.624 83.1558 134.138 83.625C133.653 84.085 133.41 84.6554 133.41 85.3362C133.41 86.063 133.683 86.6518 134.219 87.0934C134.755 87.535 135.423 87.7558 136.211 87.7558C137.041 87.7558 137.678 87.5994 138.133 87.2866ZM135.979 83.947C136.616 83.947 137.01 84.361 137.041 84.867H134.826C134.897 84.3242 135.332 83.947 135.979 83.947Z" fill="white"/>
<path d="M143.503 87.4154V86.3114C143.109 86.523 142.653 86.6242 142.137 86.6242C141.702 86.6242 141.329 86.5046 141.025 86.2654C140.722 86.0262 140.57 85.7134 140.57 85.3362C140.57 84.959 140.722 84.6462 141.015 84.4162C141.319 84.177 141.692 84.0574 142.137 84.0574C142.552 84.0574 142.987 84.1494 143.422 84.3334V83.2294C142.977 83.027 142.481 82.9258 141.925 82.9258C141.167 82.9258 140.519 83.1466 139.973 83.5882C139.437 84.0206 139.164 84.6002 139.164 85.327C139.164 86.0538 139.437 86.6426 139.973 87.0934C140.509 87.535 141.157 87.7558 141.905 87.7558C142.502 87.7558 143.028 87.6454 143.503 87.4154Z" fill="white"/>
<path d="M149.925 87.6362L147.386 85.1154L149.581 83.0454H147.831L146.092 84.7198V83.0454H144.666V87.6362H146.092V85.6582L148.084 87.6362H149.925Z" fill="white"/>
<path d="M152.07 85.7502V83.0454H150.664V87.6362H151.999L154.285 84.9314V87.6362H155.691V83.0454H154.356L152.07 85.7502Z" fill="white"/>
<path d="M160.077 85.235L161.847 83.0454H160.27L159.248 84.3334L158.237 83.0454H156.639L158.399 85.2442L156.467 87.6362H158.045L159.228 86.1642L160.401 87.6362H161.999L160.077 85.235Z" fill="white"/>
<path d="M87.061 92.125C86.2423 92.125 85.5744 92.355 85.0486 92.8242C84.5227 93.2842 84.2598 93.8546 84.2598 94.5354C84.2598 95.2254 84.5227 95.7958 85.0486 96.265C85.5744 96.725 86.2423 96.955 87.061 96.955C87.8803 96.955 88.5476 96.725 89.074 96.265C89.5999 95.7958 89.8628 95.2254 89.8628 94.5354C89.8628 93.8638 89.5999 93.2934 89.074 92.8242C88.5476 92.355 87.8803 92.125 87.061 92.125ZM88.0623 95.4554C87.7993 95.7038 87.4659 95.8234 87.061 95.8234C86.6566 95.8234 86.3227 95.7038 86.0598 95.4554C85.7969 95.207 85.6654 94.9034 85.6654 94.5354C85.6654 94.1674 85.7969 93.8638 86.0598 93.6246C86.3227 93.3762 86.6566 93.2566 87.061 93.2566C87.4659 93.2566 87.7993 93.3762 88.0623 93.6246C88.3252 93.8638 88.4567 94.1674 88.4567 94.5354C88.4567 94.9034 88.3252 95.207 88.0623 95.4554Z" fill="white"/>
<path d="M93.7538 92.5397C92.955 92.5397 92.3277 92.7973 91.8728 93.3217C91.9133 92.8801 92.0647 92.5397 92.3482 92.3097C92.5606 92.1349 92.6816 92.0337 93.0055 91.9233C93.3289 91.8129 93.4604 91.7669 93.8648 91.6933C94.0772 91.6473 94.2292 91.6197 94.3401 91.6013L94.866 91.5185L95.4024 91.4357V90.2305C94.5326 90.3593 93.8143 90.5065 93.2479 90.6813C92.6921 90.8469 92.1962 91.0769 91.7713 91.3621C90.932 91.9233 90.5781 92.7421 90.5781 93.9657C90.5781 94.8765 90.8211 95.6033 91.2965 96.1461C91.7713 96.6889 92.4591 96.9557 93.3494 96.9557C94.1077 96.9557 94.7345 96.7349 95.2304 96.2933C95.7358 95.8517 95.9887 95.2813 95.9887 94.5913C95.9887 93.9749 95.7763 93.4781 95.3619 93.1009C94.947 92.7237 94.4111 92.5397 93.7538 92.5397ZM93.3389 95.8609C92.4896 95.8609 91.9838 95.3089 91.9738 94.3153C92.2572 93.9105 92.8236 93.6161 93.3899 93.6161C94.0877 93.6161 94.5831 94.0301 94.5831 94.6833C94.5831 95.3733 94.0672 95.8609 93.3389 95.8609Z" fill="white"/>
<path d="M100.471 93.5883H99.2578V92.2451H96.416V93.3307H97.8316V96.8359H100.542C101.179 96.8359 101.675 96.6795 102.029 96.3759C102.383 96.0631 102.555 95.6767 102.555 95.2075C102.555 94.2231 101.736 93.5883 100.471 93.5883ZM100.249 95.8331H99.2578V94.5543H100.249C100.805 94.5543 101.129 94.7935 101.129 95.1983C101.129 95.6031 100.805 95.8331 100.249 95.8331Z" fill="white"/>
<path d="M105.87 92.125C105.091 92.125 104.454 92.355 103.969 92.8242C103.483 93.2842 103.24 93.8546 103.24 94.5354C103.24 95.2622 103.513 95.851 104.05 96.2926C104.585 96.7342 105.253 96.955 106.041 96.955C106.871 96.955 107.508 96.7986 107.964 96.4858V95.4462C107.448 95.713 106.911 95.851 106.345 95.851C105.455 95.851 104.808 95.5198 104.656 94.8942H108.277V94.5538C108.277 93.873 108.054 93.3026 107.62 92.8334C107.185 92.3642 106.608 92.125 105.87 92.125ZM104.656 94.0662C104.727 93.5234 105.162 93.1462 105.809 93.1462C106.446 93.1462 106.841 93.5602 106.871 94.0662H104.656Z" fill="white"/>
<path d="M114.273 92.2451H110.026L110.006 93.1375C109.986 94.3427 109.783 95.2075 109.399 95.7503H108.752V98.0043H110.117V96.8359H113.758V98.0043H115.103V95.7503H114.273V92.2451ZM112.878 95.7503H110.855C111.149 95.0971 111.3 94.2875 111.3 93.3307H112.878V95.7503Z" fill="white"/>
<path d="M117.449 94.9499V92.2451H116.043V96.8359H117.378L119.664 94.1311V96.8359H121.069V92.2451H119.735L117.449 94.9499Z" fill="white"/>
<path d="M125.906 93.9471H123.822V92.2451H122.396V96.8359H123.822V95.0327H125.906V96.8359H127.332V92.2451H125.906V93.9471Z" fill="white"/>
<path d="M130.971 92.125C130.192 92.125 129.555 92.355 129.07 92.8242C128.584 93.2842 128.342 93.8546 128.342 94.5354C128.342 95.2622 128.615 95.851 129.151 96.2926C129.686 96.7342 130.354 96.955 131.143 96.955C131.972 96.955 132.609 96.7986 133.065 96.4858V95.4462C132.549 95.713 132.013 95.851 131.446 95.851C130.556 95.851 129.909 95.5198 129.757 94.8942H133.378V94.5538C133.378 93.873 133.156 93.3026 132.721 92.8334C132.286 92.3642 131.709 92.125 130.971 92.125ZM129.757 94.0662C129.828 93.5234 130.263 93.1462 130.911 93.1462C131.547 93.1462 131.942 93.5602 131.972 94.0662H129.757Z" fill="white"/>
<path d="M137.921 93.9471H135.848V92.2451H134.422V96.8359H135.848V95.0327H137.921V96.8359H139.347V92.2451H137.921V93.9471Z" fill="white"/>
<path d="M142.076 94.9499V92.2451H140.67V96.8359H142.005L144.29 94.1311V96.8359H145.696V92.2451H144.361L142.076 94.9499Z" fill="white"/>
<path d="M148.781 90.1655H147.709C147.719 91.1315 148.477 91.7387 149.54 91.7387C150.055 91.7387 150.49 91.6007 150.834 91.3155C151.178 91.0303 151.35 90.6531 151.36 90.1655H150.278C150.267 90.5703 149.984 90.8371 149.53 90.8371C149.074 90.8371 148.781 90.5703 148.781 90.1655Z" fill="white"/>
<path d="M148.437 94.9499V92.2451H147.031V96.8359H148.366L150.652 94.1311V96.8359H152.057V92.2451H150.723L148.437 94.9499Z" fill="white"/>
<path d="M69.0684 69.2453C67.3693 68.3161 65.4882 68.0585 63.5161 68.2333C62.171 68.3529 60.9473 68.7761 59.9258 69.5489C58.3886 70.7081 57.6301 72.1525 57.9639 73.9281C58.1965 75.1333 58.9246 76.0625 60.1888 76.6421C60.6035 76.8353 61.0586 76.9641 61.5339 76.9733C61.7564 76.9733 61.9991 76.9733 62.0901 76.7801C62.1811 76.5869 61.989 76.4581 61.8575 76.3385C61.5136 76.0257 61.2305 75.6761 61.0181 75.2713C60.1686 73.6337 60.7046 71.5177 62.2823 70.3493C63.4757 69.4661 64.8612 69.2085 66.3681 69.5213C67.8244 69.8341 68.6537 70.7449 69.0886 71.9317C69.5942 73.3393 69.4729 74.7377 68.8964 76.1085C68.4919 77.0745 67.8649 77.9209 66.9445 78.5925C65.5185 79.6321 63.8498 79.9449 62.0295 79.7333C60.0978 79.5125 58.8235 78.6109 58.247 76.9917C58.1257 76.6513 58.0346 76.2925 57.9335 75.9429C57.8829 75.7589 57.7818 75.6485 57.5593 75.6393C57.2559 75.6209 56.9424 75.5933 56.639 75.5749C56.2547 75.5657 56.0019 75.7037 55.8502 76.0441C55.3041 77.2217 54.4747 78.2337 53.342 79.0341C52.2397 79.8161 50.9856 80.2485 49.5394 80.1933C47.7493 80.1289 46.4649 79.2641 45.9492 77.7737C45.6559 76.9273 45.666 76.0717 45.8885 75.2161C46.3133 73.6061 47.2437 72.2721 48.9023 71.4073C50.3788 70.6345 51.9565 70.4689 53.5848 71.0209C54.1815 71.2233 54.7377 71.5177 55.3142 71.7753C55.4254 71.8213 55.5164 71.8949 55.6277 71.9317C55.8805 72.0237 56.1333 71.9225 56.194 71.6925C56.2244 71.5729 56.2244 71.4349 56.2041 71.3153C56.1434 70.9197 55.9715 70.5517 55.7389 70.2113C55.0512 69.1993 54.0904 68.5093 52.715 68.2977C51.7441 68.1505 50.7833 68.1505 49.8226 68.2885C48.3764 68.5001 47.0212 68.9601 45.7166 69.5213C44.1692 70.1929 42.723 71.0025 41.3274 71.8857C41.1958 71.9685 41.0543 72.0513 40.8823 72.1433C40.8216 71.9685 40.7812 71.8489 40.7307 71.7293C40.4576 71.0577 40.2149 70.3769 39.9013 69.7237C39.7395 69.3833 39.4968 69.0705 39.2339 68.7761C38.89 68.3989 38.5259 68.3437 38.0101 68.5277C37.6157 68.6657 37.2618 68.8497 36.9786 69.1257C36.6549 69.4385 36.3212 69.7421 36.0077 70.0641C33.6917 72.4929 31.5578 75.0413 29.5857 77.6817C28.9789 78.4913 28.4328 79.3377 27.917 80.1933C27.5529 80.8005 27.5226 80.9109 28.2001 81.5457C28.2305 81.5733 28.2608 81.5917 28.2912 81.6193C28.4833 81.7941 28.7058 81.8309 28.9486 81.7297C29.3329 81.5641 29.7374 81.4261 30.0914 81.2237C30.9915 80.7085 31.8814 80.1841 32.7512 79.6321C34.8851 78.2705 36.9988 76.8813 39.1226 75.5013C39.2339 75.4277 39.3552 75.3541 39.4968 75.2713C39.5474 75.3817 39.598 75.4461 39.6283 75.5197C39.8103 75.9429 39.9722 76.3753 40.1542 76.7985C40.6801 78.0313 41.2161 79.2641 41.9645 80.4141C42.1971 80.7821 42.4702 81.1317 42.7735 81.4537C42.9455 81.6377 43.1882 81.7849 43.4107 81.9229C43.5523 82.0149 43.7242 81.9873 43.8658 81.8953C44.0074 81.8033 44.068 81.6745 44.0276 81.5273C43.9973 81.4169 43.9568 81.3065 43.9164 81.1961C43.1376 78.9237 42.3488 76.6421 41.5701 74.3697C41.4689 74.0569 41.4689 74.0477 41.7622 73.8913C42.6623 73.4037 43.5725 72.9253 44.4827 72.4561C44.6041 72.3917 44.7356 72.3549 44.9479 72.2813C44.8265 72.4929 44.7659 72.6125 44.6951 72.7321C43.886 74.1397 43.5017 75.6209 43.8051 77.1941C44.3209 79.8437 46.8796 81.7757 50.2271 81.6929C51.289 81.6653 52.3003 81.4261 53.2611 81.0305C54.5961 80.4877 55.7288 79.7149 56.7401 78.7949C56.8817 78.6661 57.0132 78.5465 57.1548 78.4269C57.2054 78.4729 57.2256 78.4821 57.2458 78.5005C57.3166 78.6017 57.3874 78.7029 57.4582 78.7949C58.0447 79.6229 58.8032 80.3129 59.7741 80.8005C61.4226 81.6377 63.1925 81.8217 65.0432 81.5089C70.1201 80.6625 72.4058 76.5869 72.1125 73.6153C71.9102 71.7477 70.9191 70.2573 69.0684 69.2453ZM38.6473 73.6797C36.2909 75.3633 33.9445 77.0561 31.5983 78.7397C31.214 79.0157 30.7993 79.2457 30.3948 79.5033C31.0522 78.1049 37.019 72.1801 38.0506 71.6741C38.1012 71.7477 38.1618 71.8213 38.1922 71.9041C38.3843 72.3641 38.5664 72.8241 38.7585 73.2841C38.8192 73.4405 38.8091 73.5601 38.6473 73.6797Z" fill="white"/>
<path d="M66.8414 83.6162L64.0703 89.5042H65.4659L66.093 88.1334H68.9146L69.5416 89.5042H70.9373L68.1662 83.6254H66.8414V83.6162ZM66.538 87.1398L67.4988 85.0514L68.4595 87.1398H66.538Z" fill="white"/>
<path d="M56.8109 83.6162H55.1827L52.8263 85.9346V83.6162H51.4609V89.5042H52.8263V86.781L55.6075 89.5042H57.2863L54.0702 86.3118L56.8109 83.6162Z" fill="white"/>
<path d="M32.8313 86.0542L30.9704 83.6162H29.6152V89.5042H30.9704V85.4838L32.4672 87.3514H33.2358L34.6922 85.5114V89.5042H36.0474V83.6162H34.6922L32.8313 86.0542Z" fill="white"/>
<path d="M40.6083 83.4775C38.7475 83.4775 37.2305 84.8483 37.2305 86.5503C37.2305 88.2431 38.7373 89.6231 40.6083 89.6231C42.4793 89.6231 43.9862 88.2523 43.9862 86.5503C43.9862 84.8575 42.4692 83.4775 40.6083 83.4775ZM40.6083 88.4915C39.4857 88.4915 38.5755 87.6267 38.5755 86.5503C38.5755 85.4831 39.4857 84.6091 40.6083 84.6091C41.7309 84.6091 42.6411 85.4739 42.6411 86.5503C42.6411 87.6175 41.7309 88.4915 40.6083 88.4915Z" fill="white"/>
<path d="M48.3466 88.4915C47.2241 88.4915 46.3138 87.6267 46.3138 86.5503C46.3138 85.4831 47.2241 84.6091 48.3466 84.6091C48.9939 84.6091 49.7221 84.7103 50.2075 85.1151V83.8731C49.6715 83.6063 49.0343 83.4775 48.3466 83.4775C46.4858 83.4775 44.9688 84.8483 44.9688 86.5503C44.9688 88.2431 46.4757 89.6231 48.3466 89.6231C49.0849 89.6231 49.7726 89.4851 50.3288 89.1815V87.9027C49.8333 88.4179 49.0141 88.4915 48.3466 88.4915Z" fill="white"/>
<path d="M62.2284 86.2654C62.6431 86.063 62.9971 85.6766 62.9971 85.0418C62.9971 83.809 61.7228 83.625 61.4396 83.625H59.336H59.1337H57.9707V89.5038H59.3259V89.4946H61.6216C62.0565 89.4946 63.4825 89.1634 63.4825 87.8478C63.4926 86.7714 62.7847 86.3942 62.2284 86.2654ZM59.3259 84.6186H60.6103C60.8126 84.6186 61.7127 84.5358 61.7127 85.2718C61.7127 85.925 61.0351 85.925 60.6103 85.925H59.3259V84.6186ZM60.8227 88.4642H59.3259V86.9186H60.8227C61.0452 86.9186 62.0363 86.8266 62.0363 87.6914C62.0464 88.4642 61.2879 88.4642 60.8227 88.4642Z" fill="white"/>
<path d="M22 103H77.6234V57H22V103ZM24.5283 59.3H75.0951V100.7H24.5283V59.3Z" fill="white"/>
</svg>
