<svg width="183" height="160" viewBox="0 0 183 160" fill="none" xmlns="http://www.w3.org/2000/svg">
<path d="M143.803 96.6235H39.1973V106H143.803V96.6235Z" fill="white"/>
<path fill-rule="evenodd" clip-rule="evenodd" d="M47.6796 52.0015V56.689H39.1971V71.2663H34V52.0015H47.6796Z" fill="white"/>
<path fill-rule="evenodd" clip-rule="evenodd" d="M55.3342 56.689H58.4735C59.0797 56.689 59.5961 56.8958 60.0226 57.3079C60.4506 57.7199 60.6638 58.2009 60.6638 58.7524C60.6638 59.3039 60.449 59.7849 60.0226 60.197C59.5945 60.6091 59.0782 60.8143 58.4735 60.8143H55.3342V56.689ZM58.8878 52.0015H50.1387V71.2663H55.3357V65.4896H58.7553C60.8481 65.4896 62.5556 64.8508 63.8777 63.5748C65.1998 62.2987 65.8609 60.6887 65.8609 58.7448C65.8609 56.8008 65.2014 55.1908 63.8838 53.9148C62.5937 52.6648 60.9273 52.0275 58.8878 52.0015Z" fill="white"/>
<path fill-rule="evenodd" clip-rule="evenodd" d="M75.4351 57.3738L77.2126 63.0172H73.6591L75.4351 57.3738ZM78.3078 52H72.5639L65.3105 71.2648H70.9219L72.2852 67.141H78.5774L79.9528 71.2648H85.5642L78.3109 52H78.3078Z" fill="white"/>
<path fill-rule="evenodd" clip-rule="evenodd" d="M105.107 71.2663H99.9104V63.8367H92.9373V71.2663H87.7402V52.0015H92.9373V59.1614H99.9104V52.0015H105.107V71.2663Z" fill="white"/>
<path fill-rule="evenodd" clip-rule="evenodd" d="M123.712 52.0015V56.689H118.368V71.2663H113.173V56.689H107.842V52.0015H123.712Z" fill="white"/>
<path fill-rule="evenodd" clip-rule="evenodd" d="M149 71.2663H143.803V52.0015H149V71.2663ZM131.633 52.0015H126.438V71.2663H134.774C136.876 71.2663 138.588 70.6291 139.91 69.3515C141.232 68.0755 141.893 66.4655 141.893 64.5215C141.893 62.5776 141.232 60.9676 139.91 59.6915C138.588 58.4155 136.876 57.7767 134.774 57.7767H131.635V52L131.633 52.0015ZM134.506 66.5911H131.633V62.4673H134.506C135.11 62.4673 135.627 62.6725 136.055 63.0846C136.483 63.4967 136.696 63.9777 136.696 64.5292C136.696 65.0807 136.483 65.5617 136.055 65.9737C135.627 66.3858 135.11 66.5926 134.506 66.5926" fill="white"/>
<path fill-rule="evenodd" clip-rule="evenodd" d="M45.4847 76.208H47.2075V88.9486H45.2197V79.6731L40.5999 85.4927L35.9877 79.6731V88.9486H34V76.208H35.7151L40.5999 82.4014L45.4847 76.208Z" fill="white"/>
<path fill-rule="evenodd" clip-rule="evenodd" d="M56.2589 87.7723C55.3602 88.6761 54.3016 89.128 53.083 89.128C52.6596 89.128 52.2453 89.0637 51.8417 88.9365C51.438 88.8094 51.1014 88.6592 50.8303 88.4831C50.5591 88.3084 50.3154 88.1338 50.0961 87.9592C49.8783 87.7845 49.7214 87.6283 49.6285 87.4919L49.4609 87.3143L50.6353 86.1332C50.6582 86.1684 50.6962 86.2159 50.7465 86.2756C50.7968 86.3339 50.9003 86.4426 51.0557 86.5989C51.2111 86.7567 51.3771 86.8945 51.5507 87.0171C51.7244 87.1381 51.9513 87.2484 52.2316 87.3464C52.5119 87.4445 52.7952 87.4935 53.0846 87.4935C53.4974 87.4935 53.8644 87.4154 54.1889 87.2576C54.5133 87.0998 54.7646 86.9129 54.9444 86.6938C55.1241 86.4748 55.2734 86.2527 55.3952 86.0275C55.5156 85.8023 55.5963 85.6123 55.6374 85.4592L55.7075 85.2187H51.7229V83.673H55.6191C55.6069 83.6255 55.5826 83.5566 55.5445 83.4647C55.5064 83.3728 55.4211 83.2119 55.2886 82.9806C55.1561 82.7493 55.0068 82.5471 54.8377 82.3724C54.6702 82.1978 54.428 82.037 54.1127 81.893C53.7974 81.7474 53.4547 81.6754 53.083 81.6754C52.623 81.6754 52.1981 81.7796 51.8066 81.991C51.4152 82.2024 51.1334 82.4092 50.9628 82.6175L50.7328 82.9469L49.5493 81.7658C49.5858 81.7183 49.6361 81.6555 49.7046 81.5743C49.7732 81.4947 49.9179 81.3583 50.1418 81.1653C50.3657 80.9723 50.6033 80.7992 50.8577 80.646C51.1105 80.4913 51.4395 80.3519 51.8432 80.2232C52.2468 80.0961 52.6611 80.0317 53.0846 80.0317C54.3031 80.0317 55.3617 80.4852 56.2604 81.392C57.1575 82.2989 57.6069 83.3636 57.6069 84.586C57.6069 85.8084 57.1575 86.8731 56.2604 87.7769" fill="white"/>
<path fill-rule="evenodd" clip-rule="evenodd" d="M62.1901 82.5258C61.6601 83.0941 61.395 83.7804 61.395 84.5831C61.395 85.3858 61.6601 86.0705 62.1901 86.6404C62.7202 87.2087 63.3295 87.4936 64.0195 87.4936C64.7095 87.4936 65.3187 87.2102 65.8488 86.6404C66.3789 86.072 66.6439 85.3858 66.6439 84.5831C66.6439 83.7804 66.3789 83.0956 65.8488 82.5258C65.3187 81.9574 64.7095 81.6725 64.0195 81.6725C63.3295 81.6725 62.7202 81.9574 62.1901 82.5258ZM63.2503 89.0117C62.9441 88.9351 62.6821 88.8386 62.4643 88.7237C62.2465 88.6088 62.0531 88.4893 61.8855 88.3683C61.718 88.2473 61.5961 88.1508 61.5184 88.0803L61.395 87.9471V92.7709H59.584V80.2172H61.395V81.2206C61.4773 81.1379 61.5931 81.0276 61.7439 80.8913C61.8946 80.7549 62.213 80.5772 62.7019 80.3582C63.1909 80.1391 63.6889 80.0288 64.1946 80.0288C65.3431 80.0288 66.3393 80.4715 67.1846 81.3569C68.03 82.2424 68.4519 83.3162 68.4519 84.5785C68.4519 85.8407 68.03 86.913 67.1846 87.7985C66.3393 88.6839 65.3431 89.1266 64.1946 89.1266C63.8702 89.1266 63.5564 89.0883 63.2503 89.0102" fill="white"/>
<path fill-rule="evenodd" clip-rule="evenodd" d="M74.9663 86.8304C75.3806 86.3892 75.5893 85.7596 75.5893 84.9431V84.7654L72.779 85.2189C72.4561 85.2771 72.1926 85.4119 71.993 85.6187C71.792 85.8255 71.693 86.0874 71.693 86.4015C71.693 86.691 71.8331 86.9468 72.1134 87.1659C72.3921 87.3849 72.7683 87.4952 73.239 87.4952C73.9747 87.4952 74.5504 87.2746 74.9663 86.8335M75.5893 88.952V88.0452C75.5664 88.0682 75.5253 88.108 75.4689 88.1616C75.4141 88.2152 75.3014 88.3025 75.1338 88.4235C74.9663 88.5446 74.785 88.6549 74.5916 88.7529C74.3966 88.8509 74.1529 88.9383 73.8589 89.0148C73.565 89.0914 73.2664 89.1313 72.9663 89.1313C72.0829 89.1313 71.3503 88.8739 70.7669 88.3592C70.1835 87.843 69.8926 87.2547 69.8926 86.5914C69.8926 85.8745 70.118 85.274 70.5673 84.7884C71.0182 84.3028 71.6351 83.9949 72.418 83.8647L75.5893 83.3132C75.5893 82.8506 75.4202 82.463 75.0805 82.149C74.7424 81.835 74.3083 81.6787 73.7782 81.6787C73.3182 81.6787 72.9024 81.7752 72.5277 81.9682C72.1545 82.1613 71.8956 82.3543 71.7539 82.5504L71.5148 82.8613L70.3404 81.6802C70.3754 81.6328 70.4242 81.573 70.4866 81.498C70.5491 81.4244 70.6862 81.2942 70.9024 81.1073C71.1172 80.9204 71.3457 80.7535 71.5863 80.6064C71.827 80.4578 72.1469 80.3261 72.5444 80.2112C72.942 80.0948 73.3517 80.0381 73.7767 80.0381C74.8368 80.0381 75.705 80.3537 76.3828 80.9848C77.0606 81.6159 77.3988 82.3926 77.3988 83.3178V88.9597H75.5877L75.5893 88.952Z" fill="white"/>
<path fill-rule="evenodd" clip-rule="evenodd" d="M95.6605 76.208H97.3832V88.9486H95.3955V79.6731L90.7757 85.4927L86.1635 79.6731V88.9486H84.1758V76.208H85.8894L90.7757 82.4014L95.6605 76.208Z" fill="white"/>
<path fill-rule="evenodd" clip-rule="evenodd" d="M106.251 82.5166C105.715 81.9544 105.08 81.6725 104.343 81.6725C103.605 81.6725 102.969 81.9544 102.43 82.5166C101.89 83.0788 101.621 83.7681 101.621 84.5815C101.621 85.395 101.89 86.0843 102.43 86.6465C102.969 87.2087 103.605 87.4906 104.343 87.4906C105.08 87.4906 105.715 87.2087 106.251 86.6465C106.787 86.0843 107.055 85.395 107.055 84.5815C107.055 83.7681 106.787 83.0788 106.251 82.5166ZM101.167 81.3876C102.065 80.4807 103.124 80.0288 104.343 80.0288C105.561 80.0288 106.62 80.4822 107.518 81.3876C108.417 82.2945 108.865 83.3591 108.865 84.5815C108.865 85.804 108.416 86.8686 107.518 87.7709C106.62 88.6747 105.561 89.1266 104.343 89.1266C103.124 89.1266 102.064 88.6747 101.167 87.7709C100.268 86.8671 99.8203 85.804 99.8203 84.5815C99.8203 83.3591 100.27 82.2945 101.167 81.3876Z" fill="white"/>
<path fill-rule="evenodd" clip-rule="evenodd" d="M111.655 81.389C112.554 80.4822 113.612 80.0303 114.831 80.0303C115.509 80.0303 116.138 80.1773 116.721 80.4699C117.305 80.7625 117.723 81.0551 117.976 81.3446L118.356 81.7628L117.181 82.9439C117.122 82.8489 117.032 82.7325 116.912 82.5931C116.791 82.4537 116.529 82.2653 116.126 82.0294C115.722 81.7919 115.291 81.674 114.831 81.674C114.095 81.674 113.457 81.9558 112.918 82.518C112.379 83.0802 112.109 83.7696 112.109 84.583C112.109 85.3964 112.379 86.0858 112.918 86.648C113.457 87.2102 114.094 87.492 114.831 87.492C115.291 87.492 115.722 87.3756 116.126 87.1458C116.529 86.9145 116.819 86.6893 116.995 86.4703L117.27 86.1317L118.444 87.3128C118.409 87.3603 118.356 87.4261 118.285 87.5135C118.214 87.5993 118.062 87.7448 117.825 87.9485C117.589 88.1523 117.343 88.333 117.084 88.4908C116.825 88.6471 116.49 88.7926 116.077 88.9259C115.664 89.0591 115.25 89.1265 114.831 89.1265C113.611 89.1265 112.552 88.6746 111.655 87.7708C110.756 86.867 110.309 85.8039 110.309 84.5815C110.309 83.359 110.758 82.2944 111.655 81.3875" fill="white"/>
<path fill-rule="evenodd" clip-rule="evenodd" d="M124.59 83.8586L128.203 88.949H126.215L123.415 85.0397L122.055 86.498V88.949H120.244V80.2158H122.055V84.1252L125.766 80.2158H127.938L124.59 83.8586Z" fill="white"/>
<path fill-rule="evenodd" clip-rule="evenodd" d="M131.456 85.0393V87.4029H133.991C134.35 87.4029 134.635 87.2957 134.848 87.0828C135.06 86.8698 135.166 86.5819 135.166 86.2203C135.166 85.894 135.058 85.6168 134.839 85.3855C134.621 85.1542 134.338 85.0393 133.991 85.0393H131.456ZM134.469 82.0046C134.304 81.8422 134.083 81.7595 133.806 81.7595H131.456V83.5809H133.806C134.083 83.5809 134.304 83.4997 134.469 83.3374C134.633 83.175 134.716 82.9529 134.716 82.671C134.716 82.3891 134.633 82.167 134.469 82.0046ZM133.806 80.2139C134.636 80.2139 135.296 80.4283 135.785 80.8588C136.274 81.2877 136.518 81.8315 136.518 82.4887C136.518 82.8609 136.437 83.201 136.275 83.5059C136.112 83.8107 135.946 84.0221 135.776 84.1416L135.529 84.3116C135.564 84.3239 135.614 84.3438 135.68 84.3744C135.744 84.4035 135.863 84.4801 136.033 84.6011C136.204 84.7222 136.352 84.8554 136.479 85.001C136.606 85.1465 136.722 85.3426 136.824 85.5923C136.927 85.842 136.978 86.11 136.978 86.4011C136.978 87.1532 136.711 87.766 136.178 88.2409C135.646 88.7142 134.917 88.9517 133.992 88.9517H129.646V80.2185H133.808L133.806 80.2139Z" fill="white"/>
<path fill-rule="evenodd" clip-rule="evenodd" d="M148.999 88.949H147.188V80.2158H148.999V88.949ZM142.666 87.4034C143.078 87.4034 143.423 87.264 143.698 86.9852C143.975 86.7079 144.114 86.3602 144.114 85.9466C144.114 85.5329 143.975 85.1852 143.698 84.9064C143.421 84.6276 143.077 84.4882 142.666 84.4882H140.766V87.4018H142.666V87.4034ZM145.028 88.105C144.431 88.6672 143.642 88.949 142.666 88.949H138.955V80.2158H140.766V82.9441H142.666C143.643 82.9441 144.431 83.2275 145.028 83.7927C145.625 84.358 145.925 85.078 145.925 85.9527C145.925 86.8274 145.625 87.5443 145.028 88.1065" fill="white"/>
<path d="M149 96.0186H34V101.297H149V96.0186Z" fill="white"/>
<path fill-rule="evenodd" clip-rule="evenodd" d="M41.819 100.881V100.294H43.7747V100.881H44.3261V99.7639H43.9347V97.4186H41.9256V97.8751C41.9256 98.3469 41.8966 98.7329 41.8357 99.0255C41.7748 99.3166 41.6804 99.5632 41.5494 99.7654H41.2676V100.882H41.819V100.881ZM42.1982 99.7639C42.448 99.2507 42.509 98.6839 42.509 97.9486H43.3467V99.7639H42.1998H42.1982ZM45.0329 100.269C45.0907 100.294 45.1715 100.306 45.2735 100.306C45.6132 100.306 45.8447 100.179 45.9803 99.9232C46.1158 99.6643 46.189 99.2001 46.2088 98.5307L46.2255 97.9471H47.0907V100.292H47.6741V97.417H45.6574L45.6452 98.2596C45.6376 98.8432 45.6041 99.2415 45.5507 99.4514C45.4974 99.6612 45.3954 99.7685 45.24 99.7685C45.1578 99.7685 45.0892 99.7562 45.0313 99.7348V100.269H45.0329ZM49.3054 100.294L50.1462 99.1312H50.6442V100.294H51.2322V97.4186H49.9086C49.607 97.4186 49.3648 97.4967 49.1896 97.656C49.0144 97.8123 48.9246 98.0175 48.9246 98.2688C48.9246 98.6502 49.1454 98.9504 49.5201 99.0653L48.626 100.294H49.3039H49.3054ZM49.9421 98.6349C49.677 98.6349 49.5171 98.5123 49.5171 98.2856C49.5171 98.0589 49.677 97.9363 49.9421 97.9363H50.6442V98.6349H49.9421ZM55.4468 100.352C55.7575 100.352 56.0272 100.282 56.2602 100.142V99.5463C56.0485 99.7148 55.7865 99.7976 55.4758 99.7976C55.194 99.7976 54.9609 99.7118 54.7781 99.5356C54.5938 99.3594 54.5009 99.1327 54.5009 98.857C54.5009 98.5813 54.5908 98.3607 54.7705 98.183C54.9548 98.0068 55.1787 97.9164 55.4529 97.9164C55.7271 97.9164 55.983 97.9899 56.2038 98.1385V97.5426C55.9799 97.4232 55.7301 97.3619 55.4483 97.3619C55.0036 97.3619 54.6319 97.5013 54.3379 97.7801C54.0485 98.0589 53.9008 98.4173 53.9008 98.857C53.9008 99.2966 54.0485 99.6505 54.3425 99.9324C54.6365 100.211 55.0036 100.352 55.4499 100.352M57.986 99.531C57.8184 99.3549 57.7361 99.1281 57.7361 98.857C57.7361 98.5858 57.8184 98.3607 57.986 98.183C58.1535 98.0053 58.3652 97.9164 58.6181 97.9164C58.8709 97.9164 59.0796 98.0068 59.2471 98.183C59.4147 98.3591 59.5 98.5858 59.5 98.857C59.5 99.1281 59.4147 99.3533 59.2471 99.531C59.0796 99.7072 58.8709 99.7976 58.6181 99.7976C58.3652 99.7976 58.152 99.7072 57.986 99.531ZM57.136 98.857C57.136 99.2721 57.2746 99.6245 57.5564 99.917C57.8382 100.208 58.1931 100.352 58.6181 100.352C59.043 100.352 59.3949 100.208 59.6767 99.917C59.9585 99.626 60.1016 99.2721 60.1016 98.857C60.1016 98.4419 59.9585 98.0849 59.6767 97.7969C59.3949 97.5059 59.043 97.3619 58.6181 97.3619C58.1931 97.3619 57.8382 97.5059 57.5564 97.7969C57.2746 98.0849 57.136 98.4373 57.136 98.857ZM63.9644 100.882V99.7654H63.5684V97.4201H62.9804V99.7654H61.7832V97.4201H61.1953V100.295H63.4085V100.882H63.9644ZM65.451 100.295L66.8524 98.4097V100.295H67.4357V97.4201H66.9285L65.5439 99.2936V97.4201H64.956V100.295H65.4495H65.451ZM69 100.295L69.2818 99.6306H70.4912L70.773 100.295H71.3975L70.1729 97.4032H69.6093L68.3847 100.295H69.0016H69ZM69.8865 98.1431L70.3023 99.1419H69.4646L69.885 98.1431H69.8865ZM72.0555 100.271C72.1134 100.295 72.1941 100.308 72.2962 100.308C72.6359 100.308 72.8674 100.181 73.0029 99.9247C73.1385 99.6658 73.2116 99.2017 73.2314 98.5322L73.2482 97.9486H74.1133V100.294H74.6967V97.4186H72.6785L72.6663 98.2611C72.6587 98.8447 72.6252 99.243 72.5719 99.4529C72.5186 99.6628 72.4165 99.77 72.2612 99.77C72.1789 99.77 72.1104 99.7577 72.0525 99.7363V100.271H72.0555ZM77.1125 100.295C77.4521 100.295 77.7202 100.205 77.9213 100.029C78.1223 99.8527 78.2198 99.6183 78.2198 99.3349C78.2198 99.0515 78.1223 98.8172 77.9213 98.641C77.7217 98.4602 77.4521 98.3699 77.1125 98.3699H76.4834V97.4216H75.8954V100.297H77.1125V100.295ZM76.4834 98.8708H77.0805C77.4232 98.8708 77.6273 99.0347 77.6273 99.3273C77.6273 99.6199 77.4232 99.7746 77.0805 99.7746H76.4834V98.8708ZM79.8161 100.295V99.0347H81.1062V100.295H81.6896V97.4201H81.1062V98.4955H79.8161V97.4201H79.2282V100.295H79.8161ZM83.6393 99.531C83.4717 99.3549 83.3895 99.1281 83.3895 98.857C83.3895 98.5858 83.4717 98.3607 83.6393 98.183C83.8068 98.0068 84.0185 97.9164 84.2729 97.9164C84.5273 97.9164 84.7344 98.0068 84.902 98.183C85.0695 98.3591 85.1548 98.5858 85.1548 98.857C85.1548 99.1281 85.0695 99.3533 84.902 99.531C84.7344 99.7072 84.5258 99.7976 84.2729 99.7976C84.0201 99.7976 83.8068 99.7072 83.6393 99.531ZM82.7893 98.857C82.7893 99.2721 82.928 99.6245 83.2097 99.917C83.4915 100.208 83.8464 100.352 84.2714 100.352C84.6964 100.352 85.0482 100.208 85.33 99.917C85.6118 99.626 85.755 99.2721 85.755 98.857C85.755 98.4419 85.6118 98.0849 85.33 97.7969C85.0482 97.5059 84.6964 97.3619 84.2714 97.3619C83.8464 97.3619 83.4915 97.5059 83.2097 97.7969C82.928 98.0849 82.7893 98.4373 82.7893 98.857ZM89.1684 99.531C89.0009 99.3549 88.9186 99.1281 88.9186 98.857C88.9186 98.5858 89.0009 98.3607 89.1684 98.183C89.3359 98.0068 89.5477 97.9164 89.802 97.9164C90.0564 97.9164 90.2636 98.0068 90.4311 98.183C90.5987 98.3591 90.684 98.5858 90.684 98.857C90.684 99.1281 90.5987 99.3533 90.4311 99.531C90.2636 99.7072 90.0549 99.7976 89.802 99.7976C89.5492 99.7976 89.3359 99.7072 89.1684 99.531ZM88.3185 98.857C88.3185 99.2721 88.4571 99.6245 88.7389 99.917C89.0206 100.208 89.3756 100.352 89.8005 100.352C90.2255 100.352 90.5758 100.208 90.8591 99.917C91.1409 99.626 91.2841 99.2721 91.2841 98.857C91.2841 98.4419 91.1409 98.0849 90.8591 97.7969C90.5773 97.5059 90.2255 97.3619 89.8005 97.3619C89.3756 97.3619 89.0206 97.5059 88.7389 97.7969C88.4571 98.0849 88.3185 98.4373 88.3185 98.857ZM92.9657 100.294V99.1557H93.6267C93.9329 99.1557 94.1781 99.073 94.3533 98.9137C94.533 98.7528 94.6229 98.5445 94.6229 98.2856C94.6229 98.0267 94.533 97.8214 94.3533 97.6606C94.1781 97.4998 93.9329 97.4186 93.6267 97.4186H92.3762V100.294H92.9641H92.9657ZM92.9657 97.9363H93.5871C93.8689 97.9363 94.0365 98.0635 94.0365 98.2933C94.0365 98.523 93.8689 98.6502 93.5871 98.6502H92.9657V97.9348V97.9363ZM96.1263 100.294L97.5276 98.4082V100.294H98.111V97.4186H97.6037L96.2192 99.292V97.4186H95.6312V100.294H96.1247H96.1263ZM101.451 100.294V99.7639H99.8946V99.024H101.112V98.5031H99.8946V97.9486H101.406V97.4186H99.3067V100.294H101.451ZM103.073 100.294V99.0332H104.364V100.294H104.948V97.4186H104.364V98.4939H103.073V97.4186H102.486V100.294H103.073ZM105.952 97.9486H106.854V100.294H107.442V97.9486H108.348V97.4186H105.951V97.9486H105.952ZM109.844 100.294L111.245 98.4082V100.294H111.829V97.4186H111.323L109.938 99.292V97.4186H109.35V100.294H109.844ZM113.614 100.294V99.1557H114.275C114.581 99.1557 114.826 99.073 115.001 98.9137C115.181 98.7528 115.271 98.5445 115.271 98.2856C115.271 98.0267 115.181 97.8214 115.001 97.6606C114.826 97.4998 114.581 97.4186 114.275 97.4186H113.024V100.294H113.612H113.614ZM113.614 97.9363H114.235C114.517 97.9363 114.685 98.0635 114.685 98.2933C114.685 98.523 114.517 98.6502 114.235 98.6502H113.614V97.9348V97.9363ZM117.032 99.5295C116.864 99.3533 116.782 99.1266 116.782 98.8555C116.782 98.5843 116.864 98.3591 117.032 98.1814C117.199 98.0037 117.411 97.9149 117.664 97.9149C117.917 97.9149 118.125 98.0053 118.293 98.1814C118.461 98.3576 118.546 98.5843 118.546 98.8555C118.546 99.1266 118.461 99.3518 118.293 99.5295C118.125 99.7056 117.917 99.796 117.664 99.796C117.411 99.796 117.198 99.7056 117.032 99.5295ZM116.182 98.8555C116.182 99.2706 116.321 99.6229 116.602 99.9155C116.884 100.207 117.239 100.351 117.664 100.351C118.089 100.351 118.441 100.207 118.723 99.9155C119.004 99.6245 119.148 99.2706 119.148 98.8555C119.148 98.4403 119.004 98.0834 118.723 97.7954C118.441 97.5043 118.089 97.3604 117.664 97.3604C117.239 97.3604 116.884 97.5043 116.602 97.7954C116.321 98.0834 116.182 98.4357 116.182 98.8555ZM121.679 100.292C121.981 100.292 122.223 100.219 122.403 100.067C122.582 99.9155 122.672 99.7179 122.672 99.4759C122.672 99.266 122.614 99.0975 122.502 98.9627C122.387 98.8279 122.252 98.7406 122.093 98.7084C122.29 98.6257 122.453 98.4296 122.453 98.137C122.453 97.6775 122.11 97.4186 121.588 97.4186H120.244V100.294H121.682L121.679 100.292ZM120.829 99.0316H121.568C121.857 99.0316 122.034 99.1664 122.034 99.41C122.034 99.6536 121.859 99.7838 121.568 99.7838H120.829V99.0316ZM120.829 97.9103H121.49C121.735 97.9103 121.882 98.0298 121.882 98.2305C121.882 98.4311 121.734 98.543 121.49 98.543H120.829V97.9103ZM124.096 100.292L124.378 99.6275H125.588L125.869 100.292H126.494L125.269 97.4002H124.706L123.481 100.292H124.098H124.096ZM124.983 98.1401L125.399 99.1389H124.561L124.981 98.1401H124.983ZM128.026 100.292V99.0316H129.316V100.292H129.9V97.417H129.316V98.4924H128.026V97.417H127.438V100.292H128.026ZM131.685 100.292V99.0316H132.975V100.292H133.558V97.417H132.975V98.4924H131.685V97.417H131.097V100.292H131.685ZM137.913 97.417H137.325V100.292H137.913V97.417ZM135.875 100.292C136.215 100.292 136.483 100.202 136.684 100.026C136.885 99.8496 136.982 99.6153 136.982 99.3319C136.982 99.0485 136.885 98.8141 136.684 98.6379C136.484 98.4572 136.215 98.3668 135.875 98.3668H135.343V97.4186H134.756V100.294H135.875V100.292ZM135.343 98.8677H135.842C136.184 98.8677 136.388 99.0316 136.388 99.3242C136.388 99.6168 136.184 99.7715 135.842 99.7715H135.343V98.8677ZM138.99 97.4186L139.933 98.7452L138.818 100.294H139.496L140.268 99.2216L141.043 100.294H141.73L140.62 98.7421L141.563 97.4201H140.885L140.276 98.2779L139.675 97.4201H138.99V97.4186Z" fill="#332784"/>
<path fill-rule="evenodd" clip-rule="evenodd" d="M48.1231 104.911V103.65H49.4132V104.911H49.9966V102.036H49.4132V103.111H48.1231V102.036H47.5352V104.911H48.1231ZM53.3385 104.911V104.381H51.7818V103.641H52.9988V103.12H51.7818V102.566H53.2928V102.036H51.1938V104.911H53.3385ZM54.9606 104.911V103.584L56.1898 104.911H56.9408L55.5196 103.355L56.7321 102.036H56.0131L54.9591 103.169V102.036H54.3712V104.911H54.9591H54.9606ZM58.2812 104.147C58.1136 103.97 58.0314 103.744 58.0314 103.473C58.0314 103.201 58.1136 102.976 58.2812 102.799C58.4487 102.621 58.6604 102.532 58.9133 102.532C59.1661 102.532 59.3748 102.622 59.5423 102.799C59.7099 102.975 59.7952 103.201 59.7952 103.473C59.7952 103.744 59.7099 103.969 59.5423 104.147C59.3748 104.323 59.1661 104.413 58.9133 104.413C58.6604 104.413 58.4472 104.323 58.2812 104.147ZM57.4312 103.473C57.4312 103.888 57.5698 104.24 57.8516 104.533C58.1334 104.824 58.4883 104.968 58.9133 104.968C59.3382 104.968 59.6901 104.824 59.9719 104.533C60.2537 104.242 60.3968 103.888 60.3968 103.473C60.3968 103.057 60.2537 102.701 59.9719 102.413C59.6901 102.122 59.3382 101.978 58.9133 101.978C58.4883 101.978 58.1334 102.122 57.8516 102.413C57.5698 102.701 57.4312 103.053 57.4312 103.473ZM62.0784 104.91V102.943L62.7486 103.866H63.0761L63.7341 102.943V104.91H64.3145V102.034H63.7341L62.9055 103.224L62.0769 102.034H61.4935V104.91H62.0815H62.0784ZM66.0966 104.91V102.943L66.7668 103.866H67.0927L67.7507 102.943V104.91H68.3311V102.034H67.7507L66.9221 103.224L66.0935 102.034H65.5101V104.91H66.0981H66.0966ZM71.6714 104.91V104.379H70.1147V103.64H71.3317V103.119H70.1147V102.564H71.6257V102.034H69.5268V104.91H71.6714ZM73.2936 104.91V103.771H73.9546C74.2608 103.771 74.506 103.689 74.6812 103.529C74.8609 103.368 74.9508 103.16 74.9508 102.901C74.9508 102.642 74.8609 102.437 74.6812 102.278C74.506 102.117 74.2608 102.036 73.9546 102.036H72.7041V104.911H73.2921L73.2936 104.91ZM73.2936 102.552H73.9135C74.1953 102.552 74.3628 102.679 74.3628 102.909C74.3628 103.139 74.1953 103.266 73.9135 103.266H73.2936V102.55V102.552ZM78.154 104.91V102.034H77.5707V103.221C77.4031 103.304 77.2158 103.344 77.0025 103.344C76.6385 103.344 76.4557 103.212 76.4557 102.855V102.034H75.8677V102.955C75.8677 103.575 76.2516 103.891 76.9248 103.891C77.1487 103.891 77.3665 103.859 77.5707 103.788V104.91H78.154ZM81.4944 104.91V104.379H79.9377V103.64H81.1547V103.119H79.9377V102.564H81.4487V102.034H79.3497V104.91H81.4944ZM83.9162 104.968C84.2269 104.968 84.4965 104.897 84.7281 104.758V104.162C84.5163 104.33 84.2544 104.413 83.9436 104.413C83.6618 104.413 83.4288 104.327 83.246 104.15C83.0617 103.974 82.9688 103.747 82.9688 103.473C82.9688 103.198 83.0587 102.976 83.2384 102.799C83.4227 102.622 83.6466 102.532 83.9208 102.532C84.1949 102.532 84.4524 102.606 84.6717 102.754V102.158C84.4478 102.039 84.198 101.978 83.9162 101.978C83.4714 101.978 83.0998 102.117 82.8058 102.396C82.5164 102.675 82.3687 103.033 82.3687 103.473C82.3687 103.912 82.5149 104.265 82.8104 104.548C83.1044 104.827 83.4714 104.968 83.9177 104.968M86.3837 104.91V103.583L87.6129 104.91H88.3639L86.9427 103.353L88.1552 102.034H87.4363L86.3822 103.168V102.034H85.7943V104.91H86.3822H86.3837ZM89.7363 104.91L91.1376 103.024V104.91H91.721V102.034H91.2153L89.8307 103.908V102.034H89.2427V104.91H89.7363ZM92.7994 102.034L93.7422 103.361L92.6273 104.91H93.3051L94.0773 103.837L94.8526 104.91H95.5396L94.4292 103.358L95.372 102.036H94.6942L94.0864 102.894L93.4863 102.036H92.8009L92.7994 102.034ZM98.7626 104.145C98.595 103.969 98.5128 103.742 98.5128 103.471C98.5128 103.2 98.595 102.975 98.7626 102.797C98.9301 102.621 99.1419 102.531 99.3962 102.531C99.6506 102.531 99.8578 102.621 100.025 102.797C100.193 102.973 100.278 103.2 100.278 103.471C100.278 103.742 100.193 103.967 100.025 104.145C99.8578 104.321 99.6491 104.412 99.3962 104.412C99.1434 104.412 98.9301 104.321 98.7626 104.145ZM97.9127 103.471C97.9127 103.886 98.0513 104.239 98.3331 104.531C98.6148 104.824 98.9698 104.966 99.3947 104.966C99.8197 104.966 100.17 104.822 100.453 104.531C100.735 104.24 100.878 103.886 100.878 103.471C100.878 103.056 100.735 102.699 100.453 102.411C100.172 102.12 99.8197 101.976 99.3947 101.976C98.9698 101.976 98.6148 102.12 98.3331 102.411C98.0513 102.699 97.9127 103.051 97.9127 103.471ZM102.56 104.908V103.77H103.221C103.527 103.77 103.772 103.687 103.947 103.528C104.127 103.367 104.217 103.159 104.217 102.9C104.217 102.641 104.127 102.436 103.947 102.276C103.772 102.115 103.527 102.034 103.221 102.034H101.972V104.91H102.56V104.908ZM102.56 102.55H103.181C103.463 102.55 103.631 102.678 103.631 102.907C103.631 103.137 103.463 103.264 103.181 103.264H102.56V102.549V102.55ZM105.815 104.908V102.563H107.289V102.033H105.227V104.908H105.815ZM108.106 104.908L108.388 104.243H109.597L109.879 104.908H110.503L109.279 102.016H108.715L107.49 104.908H108.107H108.106ZM108.992 102.756L109.408 103.754H108.57L108.991 102.756H108.992ZM112.034 104.908V103.647H113.324V104.908H113.909V102.033H113.324V103.108H112.034V102.033H111.446V104.908H112.034ZM115.6 104.908L117.001 103.022V104.908H117.584V102.033H117.077L115.693 103.906V102.033H115.105V104.908H115.598H115.6ZM119.642 104.966C120.014 104.966 120.312 104.88 120.529 104.707C120.745 104.531 120.856 104.317 120.856 104.058C120.856 103.709 120.645 103.471 120.366 103.367C120.565 103.281 120.754 103.084 120.754 102.792C120.754 102.55 120.657 102.353 120.456 102.201C120.259 102.05 119.999 101.976 119.668 101.976C119.304 101.976 118.99 102.046 118.725 102.189V102.736C119.007 102.592 119.313 102.523 119.641 102.523C119.968 102.523 120.175 102.633 120.175 102.826C120.175 103.036 120.02 103.143 119.714 103.143H119.284V103.64H119.644C120.023 103.64 120.252 103.767 120.252 103.997C120.252 104.26 119.999 104.416 119.562 104.416C119.239 104.416 118.859 104.301 118.61 104.125V104.7C118.884 104.876 119.226 104.966 119.642 104.966ZM122.207 104.908L122.489 104.243H123.699L123.98 104.908H124.605L123.38 102.016H122.817L121.592 104.908H122.209H122.207ZM123.094 102.756L123.51 103.754H122.672L123.092 102.756H123.094ZM128.317 105.495V104.378H127.921V102.033H127.333V104.378H126.136V102.033H125.548V104.908H127.761V105.495H128.317ZM129.803 104.908L131.205 103.022V104.908H131.788V102.033H131.282L129.898 103.906V102.033H129.31V104.908H129.803ZM133.479 104.908L134.88 103.022V104.908H135.464V102.033H134.958L133.573 103.906V102.033H132.985V104.908H133.479ZM133.474 101.175C133.479 101.607 133.793 101.878 134.222 101.878C134.652 101.878 134.965 101.607 134.97 101.175H134.537C134.533 101.356 134.411 101.475 134.219 101.475C134.027 101.475 133.908 101.356 133.908 101.175H133.476H133.474Z" fill="#332784"/>
</svg>
