<svg width="183" height="160" viewBox="0 0 183 160" fill="none" xmlns="http://www.w3.org/2000/svg">
<path d="M90.3584 121H93.6896C111.773 121 120.816 121 126.432 115.384C132.048 109.768 132 100.728 132 82.6896V79.3104C132 61.2752 132 52.232 126.432 46.616C120.864 41 111.773 41 93.6896 41H90.3584C72.272 41 63.232 41 57.616 46.616C52 52.232 52 61.2688 52 79.3104V82.6896C52 100.728 52 109.768 57.616 115.384C63.232 121 72.272 121 90.3584 121Z" fill="white"/>
<path d="M94.9288 98.6792C76.8904 98.6792 65.9432 86.164 65.5176 65.3672H74.6536C74.9384 80.644 81.8888 87.1272 87.2168 88.4488V65.3672H95.9752V78.548C101.114 77.9784 106.49 71.9816 108.302 65.3672H116.913C115.534 73.5048 109.681 79.5016 105.54 81.9752C109.681 83.9752 116.343 89.2104 118.913 98.6792H109.444C107.444 92.3496 102.542 87.4472 95.9752 86.7816V98.6792H94.9288Z" fill="#332784"/>
</svg>
