<svg width="162" height="160" viewBox="0 0 162 160" fill="none" xmlns="http://www.w3.org/2000/svg">
<path d="M63.0776 101.314C62.145 100.812 61.055 100.548 59.8652 100.548H57.6046C56.4455 100.414 55.5397 99.4538 55.5397 98.2966V95.1452H55.5244V69.7364H80.5983V98.5385C80.4832 99.5877 79.6235 100.429 78.545 100.551H66.2901C65.1003 100.551 64.0103 100.812 63.0776 101.318V101.314ZM68.0633 66.8008H52.5V98.7394C52.5 102.285 54.4574 103.483 57.1863 103.483H59.8652C61.5731 103.483 63.0354 104.384 63.0738 106.668V106.758C63.0738 106.758 63.0738 106.728 63.0738 106.713C63.0738 106.728 63.0738 106.743 63.0738 106.758V106.668C63.1122 104.384 64.5745 103.483 66.2824 103.483H78.9288C81.6576 103.483 83.615 102.285 83.615 98.7394V66.8008H68.0633V66.8008Z" fill="white"/>
<path d="M93.2794 110.557C92.3468 110.054 91.2568 109.79 90.067 109.79H77.6125C76.5571 109.571 75.7626 108.659 75.7626 107.576V104.399V94.5018H100.833V107.61C100.817 108.681 100.027 109.574 98.9828 109.79H96.4919C95.3021 109.79 94.2121 110.051 93.2794 110.557V110.557ZM88.2976 91.5698H72.7344V107.982C72.7344 111.528 74.6918 112.726 77.4206 112.726H90.067C91.7749 112.726 93.2372 113.626 93.2756 115.911V116C93.2756 116 93.2756 115.97 93.2756 115.955C93.2756 115.97 93.2756 115.985 93.2756 116V115.911C93.314 113.626 94.7763 112.726 96.4842 112.726H99.1632C101.892 112.726 103.849 111.528 103.849 107.982V91.5698H88.29H88.2976Z" fill="white"/>
<path d="M98.5055 98.5908C97.5728 98.0885 96.4828 97.8243 95.293 97.8243H91.8426C90.5684 97.8095 89.5321 96.8011 89.5283 95.5659V54.9319H107.483V95.6663C107.425 96.8569 106.412 97.8132 105.172 97.8243H101.714C100.524 97.8243 99.4343 98.0848 98.5016 98.5908H98.5055ZM98.5093 52H86.5039V96.0123C86.5039 99.5582 88.4613 100.756 91.1902 100.756H95.293C97.001 100.756 98.4633 101.657 98.5016 103.941V104.03C98.5016 104.03 98.5016 104.001 98.5016 103.986C98.5016 104.001 98.5016 104.016 98.5016 104.03V103.941C98.54 101.657 100.002 100.756 101.71 100.756H105.813C108.542 100.756 110.499 99.5582 110.499 96.0123V52H98.4978H98.5093Z" fill="white"/>
</svg>
