<svg width="162" height="160" viewBox="0 0 162 160" fill="none" xmlns="http://www.w3.org/2000/svg">
<path d="M52.1666 80.1748C51.9563 80.2246 51.749 80.2919 51.5387 80.3446C51.3996 80.3768 51.2574 80.4032 51.1182 80.4266C51.0412 80.4412 50.9672 80.4383 50.9168 80.368C50.8635 80.2978 50.8843 80.2304 50.9198 80.1631C52.1458 77.1653 50.9139 74.469 50.7895 73.9274C50.7244 73.6463 50.5852 73.6053 50.3571 73.781C50.1646 73.9274 49.9633 74.0591 49.7619 74.1938C49.7115 74.226 49.6494 74.2465 49.5931 74.2641C48.9416 71.7668 47.9851 71.2457 47.6386 70.7832C47.5823 70.6163 47.4964 70.5782 47.3306 70.6514C47.1499 70.7305 46.9752 70.8242 46.7975 70.9091C46.7294 70.9413 46.6554 70.9676 46.5813 70.991C46.4955 71.0174 46.4155 70.991 46.3918 70.9061C45.456 68.6343 44.8134 68.5055 44.4432 68.1396C44.3218 67.9142 44.2477 67.9054 44.0464 68.0605C43.8746 68.1952 43.6969 68.324 43.5192 68.4528C43.4778 68.485 43.4245 68.5085 43.3741 68.5319C43.2616 68.5816 43.0395 67.3257 41.929 66.4972C41.6713 66.2454 41.7394 66.2162 41.4463 66.2835C41.3426 66.3069 41.2389 66.3391 41.1353 66.3538C41.002 66.3713 39.5273 64.0761 39.4828 64H39.3644C39.2222 64.1639 37.8126 66.3801 37.6142 66.3303C37.5105 66.3069 37.4069 66.2747 37.3032 66.2572C37.1522 66.2279 37.2025 66.2572 36.9597 66.4709C36.5096 66.629 35.7959 67.5892 35.4672 68.5729C35.2658 68.4118 35.0674 68.2479 34.866 68.084C34.8364 68.0605 34.8097 68.0313 34.7801 68.0078C34.6557 67.9112 34.5521 67.9171 34.4692 68.0518C32.6597 69.5068 32.5176 70.7744 32.4969 70.8651C32.4672 70.9852 32.3903 71.0349 32.2777 70.9852C32.0704 70.8973 31.8631 70.8037 31.6736 70.6807C31.3982 70.5051 31.4663 70.6368 31.2027 70.83C29.4525 72.1152 29.2156 74.2436 29.2156 74.2436C28.9669 74.1528 28.7596 74.0006 28.5582 73.8396C28.493 73.7839 28.422 73.7312 28.345 73.6902C28.2443 73.6346 28.1732 73.6522 28.1377 73.7605C26.1417 76.8549 27.7675 80.4441 27.6609 80.4207C27.424 80.368 27.187 80.3065 26.9531 80.2509C26.8702 80.2304 26.7902 80.2099 26.7073 80.1953C26.6273 80.1807 26.5563 80.1953 26.5 80.2568V80.4705C26.577 80.7193 26.3549 84.1329 29.6865 86.3315C29.725 86.3549 29.7546 86.4017 29.7812 86.4281C29.7191 86.4339 29.5266 86.4281 29.3074 86.4281C28.9698 86.4222 28.5641 86.4164 28.4516 86.4457C28.573 86.6652 28.6885 86.8789 28.8099 87.0897C28.9757 87.3766 29.183 87.6342 29.4288 87.8626C29.6302 88.047 29.8049 88.2607 30.0093 88.4452C30.3054 88.7116 30.643 88.9195 30.9984 89.1039C31.3715 89.2971 31.7387 89.5108 32.1237 89.6865C32.7486 89.9675 33.4179 90.111 34.0901 90.2486C34.9844 90.4359 35.8847 90.6145 36.782 90.8077C37.1315 90.8838 37.7445 90.9336 38.014 91.1795C38.5204 91.4137 38.932 91.8792 39.0179 92.2452C39.1512 92.7926 39.1275 93.3459 39.0682 93.8992C39.0445 94.1393 39.0149 94.3764 39.0031 94.6165C38.9883 94.8595 39.0238 94.9063 39.2341 95H39.6368C39.8175 94.9327 39.8412 94.9063 39.8293 94.7014C39.8056 94.3472 39.7731 93.9929 39.7434 93.6387C39.6931 93.0678 39.7168 92.5057 39.9063 91.9583C40.1195 91.3259 41.3485 90.9482 42.0148 90.8165C42.5923 90.7023 43.1609 90.5413 43.7384 90.4213C44.1707 90.3305 44.615 90.2808 45.0473 90.19C46.4392 89.8973 47.7096 89.3498 48.8202 88.4598C49.3503 88.0353 50.2476 86.753 50.3038 86.6594C50.3423 86.5979 50.3631 86.5306 50.3186 86.4603C50.2742 86.39 50.2031 86.3842 50.1291 86.393C50.0403 86.4047 49.9485 86.4164 49.8626 86.4427C49.753 86.4779 49.6494 86.4574 49.5487 86.4281C49.5013 86.4134 49.4391 86.3608 49.4332 86.3198C49.4273 86.2729 49.4658 86.1997 49.5072 86.1705C49.602 86.109 49.7086 86.068 49.8063 86.0153C52.3472 84.5193 52.3294 80.4734 52.3442 80.3388C52.3591 80.2041 52.2939 80.1514 52.1636 80.1807M49.9307 80.3095C49.8981 80.33 49.8981 80.3944 49.8774 80.4354C49.4539 81.2463 47.7126 83.5591 46.993 84.1241C46.3918 84.5984 45.7373 84.9848 45.0562 85.3361C44.9555 85.3888 44.8459 85.4239 44.7453 85.4708C44.6594 85.5118 42.1777 86.6242 41.3308 87.2888C40.6022 87.8597 39.9359 88.5184 39.7197 89.4054C39.6516 89.6835 39.5954 90.8077 39.5628 91.0946C39.5243 91.4137 39.4177 91.6333 39.4177 91.6333C39.4177 91.6333 39.2903 91.241 39.2785 91.0946C39.2341 90.6204 39.1985 89.3615 39.0149 88.9165C38.5766 87.1688 34.173 85.4942 34.0901 85.4474C34.0605 85.4298 34.0279 85.4122 33.9953 85.4005C33.329 85.1692 32.7515 84.7799 32.1918 84.3729C31.4515 83.8313 30.2491 82.5637 29.722 81.8142C29.5118 81.5156 28.647 80.2978 28.5819 79.9347C28.5967 79.9523 28.6944 79.9552 28.7063 79.9757C29.6539 81.3195 31.4219 83.7435 33.5689 84.6189C34.173 84.9321 34.8097 85.1722 35.4316 85.4327C36.6547 85.945 37.7593 86.6418 38.7099 87.5669C38.8076 87.6635 38.9113 87.7543 39.012 87.8509C39.1097 87.7689 39.1275 87.6665 39.1275 87.5581C39.1275 86.8116 39.1275 86.0621 39.1245 85.3156C39.1245 85.1165 39.1127 84.9116 39.1304 84.7096C39.1571 84.411 39.0209 84.2353 38.7602 84.1124C38.3486 83.9192 37.937 83.7201 37.5342 83.5064C36.5125 82.9677 35.5353 82.3558 34.6439 81.6152C32.7101 80.0782 30.1958 76.4773 29.7042 75.6868C29.6124 75.5346 29.5473 75.3648 29.4733 75.2038C29.4584 75.1657 29.4585 75.1248 29.4466 75.0604C29.5976 75.2097 29.7368 75.3385 29.8671 75.4731C30.4861 76.1172 32.9885 79.7884 34.8956 81.2024C35.9913 82.0982 37.1877 82.8184 38.5411 83.2722C38.6536 83.3102 38.7691 83.3454 38.8876 83.3688C39.0297 83.3981 39.0978 83.3483 39.1127 83.2048C39.1275 83.0585 39.1304 82.9121 39.1304 82.7628C39.1304 82.066 39.1245 81.3722 39.1215 80.6754C39.1215 80.3797 39.1245 80.0841 39.1334 79.7913C39.1423 79.4634 39.0001 79.2263 38.7336 79.036C38.3901 78.7901 38.0465 78.5412 37.7178 78.2777C36.7495 77.5049 35.9143 76.6178 35.2984 75.5434C34.8008 74.8525 32.9292 71.7698 32.7841 71.4682C32.7693 71.4389 32.7634 71.4097 32.7515 71.3745C32.8463 71.3482 32.9203 71.3599 32.9736 71.4419C33.021 71.5121 33.0684 71.5824 33.1158 71.6497C33.1484 71.6936 33.1928 71.7288 33.2224 71.7727C33.2698 71.843 33.3083 71.9161 33.3468 71.9893C33.4119 72.1123 35.5619 75.397 35.6922 75.4673C35.7574 75.5024 35.7988 75.5815 35.8433 75.6429C35.9203 75.7513 35.9884 75.8625 36.0979 75.9445C36.169 75.9972 36.2016 76.0938 36.2578 76.164C36.3141 76.2314 36.3793 76.2899 36.4444 76.3485C36.4622 76.369 36.4977 76.3777 36.5096 76.3982C36.628 76.6266 36.8472 76.7583 37.0367 76.9164C37.0693 76.9428 37.09 76.9779 37.1167 77.0101C37.1285 77.0247 37.1374 77.0482 37.1492 77.0569C37.3447 77.2238 37.5401 77.3907 37.7356 77.5546C37.7563 77.5751 37.783 77.5868 37.8096 77.6015C37.9311 77.663 38.0554 77.7127 38.1472 77.8181C38.1709 77.8445 38.2124 77.8591 38.245 77.8796C38.3249 77.9264 38.4049 77.9733 38.4848 78.0172C38.4937 78.023 38.4996 78.0318 38.5085 78.0348C38.6418 78.0845 38.7603 78.1548 38.8757 78.2338C39.006 78.3217 39.1334 78.2338 39.1334 78.0699C39.1334 77.057 39.1334 76.044 39.1304 75.0311C39.1304 74.9257 39.1393 74.8144 39.1097 74.7178C39.0801 74.6183 39.012 74.5275 38.9498 74.4426C38.9024 74.3782 38.8372 74.3285 38.781 74.2699C38.6092 74.1001 38.4345 73.9332 38.2657 73.7634C38.1828 73.6785 38.1058 73.5878 38.0229 73.5058C37.934 73.418 37.8393 73.336 37.7474 73.2482C37.6793 73.1779 37.6142 73.1077 37.5549 73.0315C37.475 72.9349 37.4039 72.8325 37.3269 72.7329C37.2707 72.6597 37.2203 72.5836 37.1552 72.5192C36.8353 72.203 34.8156 69.6707 34.5935 69.296C34.558 69.2374 34.561 69.2345 34.6054 69.1994C34.7505 69.337 34.9015 69.4716 35.0407 69.6121C35.636 70.224 38.1324 72.932 38.8076 73.4619C38.8609 73.5029 38.8994 73.5644 38.9587 73.5966C38.9912 73.6141 39.0416 73.6317 39.083 73.6317C39.0978 73.6317 39.1127 73.6288 39.1275 73.6229C39.1689 73.6024 39.2133 73.5351 39.2163 73.4824C39.2252 73.2833 39.2163 73.0784 39.2222 72.8764C39.2281 72.2352 39.24 71.5941 39.2489 70.953C39.2607 70.1333 39.2696 69.3135 39.2815 68.4909C39.2815 68.3679 39.2815 68.245 39.2992 68.1279C39.317 68.0313 39.3673 67.9376 39.4118 67.8293C39.5184 67.9229 39.5628 68.0225 39.5687 68.1337C39.5806 68.3796 39.5865 68.6285 39.5924 68.8744C39.6072 69.7819 39.6161 70.6895 39.6339 71.5941C39.6398 72.1269 39.6546 72.6597 39.6635 73.1896C39.6635 73.2775 39.6546 73.3682 39.6487 73.459C39.6487 73.5322 39.6605 73.5995 39.7346 73.6375C39.8086 73.6756 39.8708 73.6376 39.927 73.5936C40.8007 72.8939 43.2468 70.0718 44.0138 69.2608C44.0316 69.2433 44.0464 69.2198 44.0612 69.1994C44.0671 69.2052 44.076 69.2111 44.0819 69.214C44.0701 69.2433 44.0612 69.2755 44.0464 69.3077C43.765 69.9898 41.6802 72.6158 41.1738 73.1486C40.7474 73.5966 40.312 74.0386 39.8797 74.4778C39.7997 74.5597 39.7464 74.6534 39.7464 74.7676C39.7464 75.8391 39.7434 76.9106 39.7464 77.9821C39.7464 78.2426 39.8323 78.2924 40.0722 78.1723C40.7355 77.8474 41.3248 77.4141 41.8668 76.9164C43.1076 75.9533 44.8104 72.9086 45.3316 72.203C45.4678 72.0186 45.61 71.84 45.7492 71.6614C45.7581 71.6497 45.7699 71.6409 45.8054 71.6409C45.7462 71.8137 45.69 71.9864 45.6248 72.1533C45.3701 72.7915 43.5577 75.8713 42.8144 76.6207C42.2073 77.3936 41.4699 78.0318 40.6852 78.6203C40.4986 78.7637 40.312 78.9101 40.1136 79.0389C39.8323 79.2175 39.7138 79.4634 39.7316 79.7942C39.7494 80.1338 39.7405 80.4734 39.7405 80.8159C39.7434 81.5742 39.7434 82.3353 39.7464 83.0965C39.7464 83.117 39.7464 83.1346 39.7464 83.1551C39.7642 83.3483 39.8323 83.401 40.0218 83.3512C40.5253 83.2165 41.008 83.0204 41.4788 82.7979C42.6397 82.2475 43.6584 81.5039 44.5883 80.6315C45.607 79.7562 48.5921 75.9942 49.1282 75.4848C49.1459 75.4673 49.1666 75.4526 49.1874 75.438C49.1963 75.4409 49.2022 75.4468 49.2111 75.4497C49.1637 75.561 49.1222 75.681 49.0689 75.7864C48.906 76.1026 46.1904 79.5571 45.5063 80.2597C44.4106 81.6357 43.001 82.6164 41.4522 83.4215C41.0583 83.6264 40.6585 83.8167 40.2646 84.0158C40.1906 84.0538 40.1225 84.0948 40.0544 84.1417C39.7967 84.3144 39.6931 84.5662 39.7168 84.8648C39.779 85.7196 39.7345 86.5745 39.7286 87.4322C39.7286 87.5874 39.7464 87.7221 39.8175 87.8392C39.9389 87.7338 40.0573 87.6313 40.1728 87.5289C40.7444 87.0165 41.3367 86.5364 42.003 86.15C42.7285 85.7225 43.4985 85.3712 44.2862 85.0609C45.6544 84.5252 46.8745 83.764 47.8962 82.7159C48.1835 82.4203 49.5842 80.4529 49.8567 80.1426C49.8863 80.1075 49.907 80.0694 49.9277 80.0284C49.9899 79.9143 49.9958 79.9142 50.1321 79.9669C50.0728 80.0782 50.0728 80.2187 49.9425 80.2978" fill="white"/>
<path d="M74.4544 68.3298C72.9174 67.6448 71.0725 67.2993 68.9195 67.2993H58.9277V91.3083H63.438V84.3787H68.9195C71.0695 84.3787 72.9145 84.0362 74.4544 83.3512C75.9944 82.6661 77.1789 81.6824 78.0111 80.4002C78.8432 79.1208 79.2608 77.5985 79.2608 75.839C79.2608 74.0796 78.8432 72.5572 78.0111 71.2779C77.1789 69.9985 75.9914 69.0149 74.4544 68.3269M73.2047 79.355C72.1978 80.1894 70.7023 80.608 68.7122 80.608H63.438V71.0729H68.7122C70.7023 71.0729 72.1978 71.4857 73.2047 72.3084C74.2116 73.131 74.715 74.3079 74.715 75.842C74.715 77.376 74.2116 78.5236 73.2047 79.358" fill="white"/>
<path d="M89.0593 73.2332C89.8322 72.4779 90.7473 71.8953 91.7986 71.4855C92.8499 71.0727 94.0138 70.8678 95.2842 70.8678C96.5546 70.8678 97.7363 71.102 98.8231 71.5704C99.9099 72.0388 100.893 72.7414 101.773 73.6782L104.687 70.9673C103.552 69.6411 102.167 68.6399 100.523 67.9666C98.8794 67.2932 97.064 66.9536 95.0769 66.9536C93.2023 66.9536 91.4788 67.2581 89.9063 67.8641C88.3338 68.4701 86.9567 69.3279 85.7781 70.4374C84.5994 71.547 83.6843 72.8556 83.0358 74.3633C82.3872 75.8739 82.0645 77.5192 82.0645 79.3021C82.0645 81.085 82.3872 82.7332 83.0358 84.2409C83.6843 85.7486 84.5905 87.0601 85.7603 88.1668C86.9271 89.2763 88.3041 90.1341 89.8885 90.7401C91.4729 91.3461 93.1905 91.6506 95.0414 91.6506C97.0551 91.6506 98.8794 91.308 100.523 90.6201C102.164 89.935 103.552 88.9396 104.687 87.6369L101.773 84.8937C100.893 85.854 99.9099 86.5683 98.8231 87.0367C97.7363 87.5051 96.5576 87.7393 95.2842 87.7393C94.0108 87.7393 92.8499 87.5344 91.7986 87.1216C90.7473 86.7118 89.8322 86.1262 89.0593 85.3739C88.2834 84.6185 87.6823 83.7286 87.2558 82.6981C86.8264 81.6705 86.6132 80.5375 86.6132 79.3021C86.6132 78.0667 86.8264 76.9337 87.2558 75.9061C87.6823 74.8756 88.2834 73.9856 89.0593 73.2303" fill="white"/>
<path d="M135.5 91.3083L135.431 67.2993H131.753L122.256 83.1843L112.599 67.2993H108.924V91.3083H113.191V75.6078L121.169 88.5652H123.183L131.164 75.4028L131.197 91.3083H135.5Z" fill="white"/>
</svg>
