<svg width="162" height="160" viewBox="0 0 162 160" fill="none" xmlns="http://www.w3.org/2000/svg">
<path d="M36.9816 54C34.1071 56.5831 32.2969 60.3361 32.2969 64.5134C32.2969 68.6907 34.1071 72.4438 36.9816 75.0268C39.8561 72.4438 41.6663 68.6907 41.6663 64.5134C41.6663 60.3361 39.8561 56.5831 36.9816 54" fill="white"/>
<path d="M23.2048 69.603C22.0015 73.2825 22.3035 77.4414 24.3849 81.0588C26.4662 84.6773 29.9023 87.0182 33.6791 87.8124C34.8823 84.1329 34.5803 79.9741 32.499 76.3566C30.4176 72.7391 26.9815 70.3972 23.2048 69.603Z" fill="white"/>
<path d="M23.2048 86.7905C22.0015 90.47 22.3035 94.6289 24.3849 98.2463C26.4662 101.865 29.9023 104.206 33.6791 105C34.8823 101.32 34.5803 97.1616 32.499 93.5441C30.4176 89.9266 26.9815 87.5847 23.2048 86.7905Z" fill="white"/>
<path d="M50.7338 69.603C51.937 73.2825 51.635 77.4414 49.5537 81.0588C47.4723 84.6773 44.0362 87.0182 40.2595 87.8124C39.0562 84.1329 39.3582 79.9741 41.4396 76.3566C43.5209 72.7391 46.957 70.3972 50.7338 69.603Z" fill="white"/>
<path d="M50.7338 86.7905C51.937 90.47 51.635 94.6289 49.5537 98.2463C47.4723 101.865 44.0362 104.206 40.2595 105C39.0562 101.32 39.3582 97.1616 41.4396 93.5441C43.5209 89.9266 46.957 87.5847 50.7338 86.7905Z" fill="white"/>
<path d="M71.4432 84.1673C69.8057 83.4816 68.4181 82.5111 67.2805 81.2549C66.1428 79.9987 65.2667 78.4946 64.654 76.7435C64.0403 74.9924 63.7344 73.0505 63.7344 70.9187C63.7344 68.787 64.0403 66.8451 64.654 65.094C65.2667 63.3429 66.1428 61.8388 67.2805 60.5826C68.4181 59.3264 69.8057 58.3559 71.4432 57.6702C73.0807 56.9854 74.9227 56.6426 76.9713 56.6426C78.5383 56.6426 79.9828 56.846 81.3048 57.2518C82.6258 57.6576 83.8107 58.2358 84.8605 58.9835C85.9094 59.7322 86.8165 60.6426 87.5816 61.7148C88.3468 62.7869 88.9441 63.9889 89.3735 65.3216L84.1774 66.7686C83.9246 65.9434 83.583 65.2044 83.1536 64.5506C82.7232 63.8969 82.2079 63.3448 81.6078 62.8945C81.0066 62.4441 80.3215 62.1012 79.5505 61.8668C78.7796 61.6325 77.9198 61.5143 76.9713 61.5143C75.7198 61.5143 74.6101 61.7361 73.6432 62.1806C72.6764 62.6252 71.861 63.2557 71.1971 64.0741C70.5333 64.8925 70.0276 65.8795 69.6803 67.034C69.3319 68.1884 69.1582 69.4834 69.1582 70.9168C69.1582 72.3502 69.3223 73.6297 69.6513 74.79C69.9804 75.9512 70.4696 76.9411 71.1209 77.7595C71.7722 78.5779 72.5837 79.2094 73.5574 79.653C74.531 80.0975 75.6686 80.3193 76.9713 80.3193C77.9198 80.3193 78.7786 80.2021 79.5505 79.9668C80.3215 79.7324 81.0076 79.3895 81.6078 78.9392C82.2079 78.4888 82.7232 77.9367 83.1536 77.283C83.583 76.6292 83.9246 75.8902 84.1774 75.066L89.3735 76.513C88.9432 77.8457 88.3459 79.0476 87.5816 80.1198C86.8165 81.192 85.9094 82.1024 84.8605 82.8511C83.8107 83.5997 82.6258 84.177 81.3048 84.5828C79.9838 84.9886 78.5393 85.192 76.9713 85.192C74.9227 85.192 73.0807 84.8491 71.4432 84.1644" fill="white"/>
<path d="M92.9023 57.2148H98.0985V84.6243H92.9023V57.2148ZM108.491 57.2148H114.787L103.371 70.7297L115.508 84.6253H108.984L97.1316 71.0348L108.491 57.2158V57.2148Z" fill="white"/>
<path d="M122.57 84.1668C120.933 83.4811 119.545 82.5106 118.407 81.2544C117.27 79.9982 116.394 78.4941 115.781 76.743C115.167 74.9919 114.861 73.05 114.861 70.9183C114.861 68.7865 115.168 66.8446 115.781 65.0935C116.394 63.3424 117.27 61.8383 118.407 60.5821C119.545 59.3259 120.933 58.3554 122.57 57.6697C124.208 56.9849 126.05 56.6421 128.098 56.6421C129.665 56.6421 131.11 56.8455 132.432 57.2513C133.753 57.6571 134.938 58.2353 135.987 58.983C137.036 59.7317 137.943 60.6421 138.709 61.7143C139.474 62.7865 140.071 63.9884 140.5 65.3211L135.304 66.7681C135.052 65.9429 134.71 65.2039 134.281 64.5502C133.85 63.8964 133.335 63.3443 132.735 62.894C132.135 62.4436 131.448 62.1007 130.677 61.8664C129.907 61.632 129.047 61.5138 128.098 61.5138C126.847 61.5138 125.737 61.7356 124.77 62.1802C123.803 62.6247 122.988 63.2552 122.324 64.0736C121.66 64.892 121.155 65.879 120.807 67.0335C120.46 68.188 120.285 69.4829 120.285 70.9163C120.285 72.3497 120.449 73.6292 120.778 74.7895C121.107 75.9507 121.597 76.9406 122.248 77.759C122.899 78.5774 123.711 79.2089 124.684 79.6525C125.658 80.097 126.796 80.3188 128.098 80.3188C129.047 80.3188 129.906 80.2016 130.677 79.9663C131.448 79.7319 132.135 79.389 132.735 78.9387C133.335 78.4883 133.85 77.9362 134.281 77.2825C134.71 76.6287 135.052 75.8897 135.304 75.0655L140.5 76.5125C140.07 77.8452 139.473 79.0471 138.709 80.1193C137.943 81.1915 137.036 82.1019 135.987 82.8506C134.938 83.5992 133.753 84.1765 132.432 84.5823C131.111 84.9881 129.666 85.1915 128.098 85.1915C126.05 85.1915 124.208 84.8486 122.57 84.1639" fill="white"/>
<path d="M64.4629 99.2721V89.5093H71.7915V99.2721H70.5825V90.6551H65.6719V99.2721H64.4629Z" fill="white"/>
<path d="M73.7617 91.95H74.964V102.526H73.7617V91.95ZM77.4024 99.4755C76.8755 99.4755 76.424 99.3796 76.0486 99.1869C75.6723 98.9951 75.3654 98.7268 75.1271 98.3839C74.8888 98.0401 74.7141 97.6314 74.6041 97.1568C74.4941 96.6822 74.4381 96.165 74.4381 95.6042C74.4381 95.0435 74.4941 94.5205 74.607 94.0488C74.7199 93.5761 74.8965 93.1694 75.1367 92.8284C75.378 92.4875 75.6848 92.2221 76.0583 92.0323C76.4317 91.8425 76.8804 91.7476 77.4024 91.7476C77.9244 91.7476 78.3693 91.8425 78.7765 92.0323C79.1837 92.2221 79.532 92.4875 79.8205 92.8284C80.109 93.1703 80.331 93.5761 80.4863 94.0488C80.6417 94.5214 80.7198 95.0396 80.7198 95.6042C80.7198 96.1689 80.6407 96.7026 80.4834 97.1771C80.3261 97.6517 80.1032 98.0585 79.8147 98.3975C79.5262 98.7365 79.1788 99.0009 78.7707 99.1907C78.3635 99.3806 77.9071 99.4755 77.4024 99.4755M77.1998 98.3297C77.578 98.3297 77.9071 98.2629 78.1859 98.1302C78.4648 97.9965 78.6983 97.8106 78.8855 97.5704C79.0727 97.3311 79.2116 97.0445 79.3043 96.7093C79.3969 96.3752 79.4423 96.0062 79.4423 95.6042C79.4423 95.2023 79.395 94.8207 79.3004 94.4856C79.2059 94.1515 79.065 93.8667 78.8778 93.6313C78.6906 93.396 78.458 93.2149 78.1792 93.0851C77.9003 92.9563 77.5732 92.8924 77.1998 92.8924C76.8263 92.8924 76.4857 92.9592 76.2069 93.0928C75.928 93.2265 75.6954 93.4125 75.5111 93.6517C75.3268 93.8909 75.1889 94.1757 75.0991 94.5059C75.0094 94.8362 74.964 95.2023 74.964 95.6042C74.964 96.0062 75.0113 96.3897 75.1059 96.7268C75.2004 97.0638 75.3423 97.3505 75.5314 97.5878C75.7205 97.8251 75.954 98.0081 76.23 98.137C76.5069 98.2658 76.8302 98.3297 77.1988 98.3297" fill="white"/>
<path d="M83.9304 99.1936C83.4961 99.0057 83.1266 98.7403 82.8226 98.3965C82.5187 98.0527 82.2852 97.644 82.124 97.1694C81.9619 96.6948 81.8809 96.1728 81.8809 95.6033C81.8809 95.0338 81.9629 94.5059 82.1269 94.0333C82.291 93.5606 82.5254 93.1558 82.8294 92.8168C83.1333 92.4778 83.5029 92.2144 83.9371 92.0265C84.3713 91.8386 84.8567 91.7446 85.3932 91.7446C85.9297 91.7446 86.4334 91.8386 86.8657 92.0265C87.298 92.2144 87.6656 92.4788 87.9705 92.8197C88.2745 93.1606 88.507 93.5684 88.6691 94.0439C88.8312 94.5185 88.9123 95.0386 88.9123 95.6033C88.9123 96.1679 88.8312 96.7016 88.6691 97.1762C88.507 97.6507 88.2726 98.0585 87.9667 98.3994C87.6608 98.7413 87.2912 99.0047 86.8589 99.1926C86.4266 99.3796 85.9384 99.4735 85.3932 99.4735C84.848 99.4735 84.3656 99.3796 83.9304 99.1926M86.3658 98.135C86.6447 98.0062 86.8782 97.8231 87.0645 97.5858C87.2517 97.3486 87.3935 97.0628 87.49 96.7277C87.5865 96.3936 87.6357 96.0178 87.6357 95.6023C87.6357 95.1868 87.5875 94.81 87.49 94.473C87.3935 94.1369 87.2517 93.8522 87.0645 93.6187C86.8773 93.3863 86.6447 93.2061 86.3658 93.0793C86.086 92.9524 85.7628 92.8894 85.3932 92.8894C85.0236 92.8894 84.6994 92.9543 84.4206 93.0831C84.1407 93.212 83.9082 93.394 83.721 93.6284C83.5338 93.8638 83.3929 94.1485 83.2983 94.4827C83.2038 94.8168 83.1565 95.1897 83.1565 95.6013C83.1565 96.0129 83.2047 96.3936 83.3012 96.7306C83.3977 97.0677 83.5415 97.3544 83.7297 97.5917C83.9188 97.8289 84.1533 98.011 84.4321 98.1379C84.711 98.2648 85.0314 98.3277 85.3913 98.3277C85.7512 98.3277 86.0841 98.2638 86.3639 98.135" fill="white"/>
<path d="M94.0613 99.3943C93.5123 99.3807 92.996 99.2935 92.5145 99.1337C92.033 98.973 91.6104 98.7357 91.2486 98.4219C90.8857 98.1081 90.6001 97.7177 90.3907 97.2519C90.1813 96.786 90.0762 96.2417 90.0762 95.618C90.0762 94.9942 90.1804 94.4489 90.3907 93.9811C90.6001 93.5133 90.8857 93.122 91.2486 92.8082C91.6114 92.4944 92.033 92.2552 92.5145 92.0925C92.996 91.9298 93.5123 91.8416 94.0613 91.8281V89.645H95.2636V91.8281C95.8127 91.8416 96.3299 91.9298 96.8133 92.0925C97.2977 92.2552 97.7194 92.4935 98.0793 92.8082C98.4392 93.122 98.7258 93.5133 98.9371 93.9811C99.1484 94.4489 99.2546 94.9942 99.2546 95.618C99.2546 96.2417 99.1484 96.7879 98.9371 97.2548C98.7258 97.7226 98.4392 98.1129 98.0793 98.4248C97.7194 98.7366 97.2967 98.973 96.8133 99.1337C96.3289 99.2935 95.8127 99.3807 95.2636 99.3943V102.323H94.0613V99.3943ZM94.0613 92.9535C93.6474 92.9632 93.2711 93.0291 92.9333 93.154C92.5956 93.278 92.3061 93.4533 92.0649 93.679C91.8237 93.9046 91.6384 94.1816 91.5081 94.51C91.3779 94.8373 91.3122 95.2073 91.3122 95.618C91.3122 96.0286 91.3779 96.3976 91.5081 96.7231C91.6384 97.0485 91.8246 97.3245 92.0649 97.5502C92.3061 97.7758 92.5956 97.9502 92.9333 98.0722C93.2711 98.1943 93.6474 98.2601 94.0613 98.2688V92.9535ZM95.2636 98.2688C95.6824 98.264 96.0607 98.2001 96.3984 98.0761C96.7361 97.9521 97.0256 97.7768 97.2659 97.5511C97.5071 97.3255 97.6914 97.0494 97.8197 96.724C97.9481 96.3986 98.0117 96.0306 98.0117 95.6189C98.0117 95.2073 97.9471 94.8383 97.8197 94.5109C97.6914 94.1836 97.5071 93.9056 97.2659 93.677C97.0246 93.4494 96.7361 93.2722 96.3984 93.1482C96.0607 93.0242 95.6824 92.9593 95.2636 92.9555V98.2708V98.2688Z" fill="white"/>
<path d="M102.439 99.1936C102.009 99.0057 101.644 98.7423 101.345 98.4033C101.046 98.0643 100.816 97.6575 100.656 97.1829C100.496 96.7084 100.416 96.1844 100.416 95.61C100.416 95.0357 100.497 94.504 100.659 94.0265C100.821 93.55 101.053 93.1432 101.355 92.8061C101.657 92.4691 102.023 92.2086 102.453 92.0226C102.883 91.8376 103.368 91.7446 103.908 91.7446C104.291 91.7446 104.65 91.795 104.986 91.8938C105.321 91.9935 105.624 92.134 105.894 92.318C106.164 92.5011 106.395 92.7248 106.586 92.9892C106.777 93.2536 106.92 93.548 107.015 93.8744L105.826 94.2338C105.669 93.8086 105.419 93.4793 105.077 93.2439C104.734 93.0086 104.34 92.8914 103.895 92.8914C103.535 92.8914 103.217 92.9553 102.942 93.0841C102.667 93.2129 102.438 93.396 102.253 93.6333C102.069 93.8706 101.929 94.1553 101.834 94.4875C101.74 94.8197 101.693 95.1936 101.693 95.61C101.693 96.0265 101.739 96.3878 101.831 96.7219C101.923 97.0561 102.062 97.3427 102.249 97.58C102.437 97.8173 102.667 98.0013 102.942 98.1321C103.217 98.2629 103.535 98.3287 103.895 98.3287C104.376 98.3287 104.773 98.2183 105.083 97.9965C105.394 97.7747 105.632 97.459 105.799 97.0473L107.015 97.366C106.889 97.705 106.726 98.0062 106.525 98.2706C106.324 98.535 106.093 98.7558 105.829 98.9321C105.566 99.1084 105.272 99.243 104.947 99.335C104.623 99.428 104.272 99.4735 103.894 99.4735C103.353 99.4735 102.868 99.3796 102.438 99.1926" fill="white"/>
<path d="M109.922 99.1936C109.487 99.0057 109.118 98.7403 108.814 98.3965C108.51 98.0527 108.276 97.644 108.114 97.1694C107.952 96.6948 107.871 96.1728 107.871 95.6033C107.871 95.0338 107.953 94.5059 108.117 94.0333C108.281 93.5606 108.516 93.1558 108.82 92.8168C109.124 92.4778 109.493 92.2144 109.927 92.0265C110.362 91.8386 110.847 91.7446 111.383 91.7446C111.92 91.7446 112.424 91.8386 112.856 92.0265C113.288 92.2144 113.656 92.4788 113.96 92.8197C114.264 93.1606 114.496 93.5684 114.658 94.0439C114.821 94.5185 114.902 95.0386 114.902 95.6033C114.902 96.1679 114.821 96.7016 114.658 97.1762C114.496 97.6507 114.262 98.0585 113.956 98.3994C113.65 98.7413 113.28 99.0047 112.848 99.1926C112.416 99.3796 111.927 99.4735 111.382 99.4735C110.838 99.4735 110.355 99.3796 109.92 99.1926M112.354 98.135C112.633 98.0062 112.867 97.8231 113.053 97.5858C113.24 97.3486 113.382 97.0628 113.478 96.7277C113.575 96.3936 113.624 96.0178 113.624 95.6023C113.624 95.1868 113.576 94.81 113.478 94.473C113.381 94.1369 113.24 93.8522 113.053 93.6187C112.866 93.3863 112.633 93.2061 112.354 93.0793C112.074 92.9524 111.751 92.8894 111.382 92.8894C111.012 92.8894 110.688 92.9543 110.409 93.0831C110.13 93.212 109.896 93.394 109.71 93.6284C109.523 93.8638 109.382 94.1485 109.288 94.4827C109.193 94.8168 109.146 95.1897 109.146 95.6013C109.146 96.0129 109.194 96.3936 109.291 96.7306C109.388 97.0677 109.531 97.3544 109.72 97.5917C109.909 97.8289 110.143 98.011 110.422 98.1379C110.701 98.2648 111.022 98.3277 111.382 98.3277C111.741 98.3277 112.074 98.2638 112.354 98.135" fill="white"/>
<path d="M119.356 96.2144H117.667V99.2721H116.465V91.95H117.667V95.0076H119.356V96.2144V96.2144ZM121.088 99.1907C120.654 99.0009 120.284 98.7355 119.98 98.3936C119.676 98.0527 119.445 97.6449 119.284 97.1704C119.124 96.6958 119.045 96.1737 119.045 95.6042C119.045 95.0347 119.127 94.5059 119.292 94.0313C119.456 93.5568 119.691 93.1509 119.995 92.8139C120.299 92.4778 120.668 92.2153 121.102 92.0274C121.537 91.8396 122.022 91.7456 122.557 91.7456C123.093 91.7456 123.592 91.8405 124.027 92.0304C124.461 92.2202 124.831 92.4856 125.135 92.8275C125.439 93.1684 125.671 93.5752 125.833 94.0478C125.995 94.5205 126.077 95.0386 126.077 95.6042C126.077 96.1699 125.994 96.7026 125.829 97.1771C125.665 97.6517 125.431 98.0585 125.127 98.3975C124.823 98.7365 124.453 99.0009 124.019 99.1907C123.584 99.3805 123.097 99.4755 122.556 99.4755C122.016 99.4755 121.522 99.3805 121.088 99.1907M123.54 98.1292C123.821 97.9955 124.055 97.8096 124.242 97.5694C124.429 97.3302 124.568 97.0444 124.661 96.7122C124.754 96.38 124.8 96.011 124.8 95.6033C124.8 95.1955 124.753 94.8188 124.658 94.4846C124.563 94.1505 124.423 93.8657 124.235 93.6304C124.048 93.395 123.816 93.2139 123.537 93.0841C123.258 92.9553 122.931 92.8914 122.557 92.8914C122.184 92.8914 121.842 92.9582 121.562 93.0919C121.28 93.2255 121.048 93.4115 120.866 93.6517C120.684 93.8909 120.547 94.1757 120.458 94.5059C120.368 94.8362 120.323 95.2023 120.323 95.6042C120.323 96.0062 120.37 96.3897 120.464 96.7268C120.559 97.0638 120.7 97.3505 120.887 97.5878C121.074 97.8251 121.307 98.0081 121.586 98.1369C121.865 98.2658 122.187 98.3297 122.552 98.3297C122.916 98.3297 123.26 98.2629 123.542 98.1302" fill="white"/>
<path d="M130.021 99.4755C129.592 99.4755 129.201 99.428 128.845 99.3331C128.489 99.2382 128.177 99.091 127.906 98.8924C127.636 98.6939 127.412 98.444 127.235 98.1438C127.057 97.8435 126.935 97.4871 126.867 97.0764L128.015 96.8663C128.056 97.1239 128.128 97.3476 128.232 97.5375C128.335 97.7273 128.47 97.8871 128.637 98.015C128.804 98.1438 129 98.2397 129.225 98.3036C129.449 98.3665 129.704 98.3985 129.988 98.3985C130.573 98.3985 131.021 98.2881 131.332 98.0663C131.643 97.8445 131.798 97.5423 131.798 97.1578C131.798 96.9496 131.76 96.7733 131.687 96.629C131.613 96.4847 131.509 96.3665 131.376 96.2764C131.243 96.1864 131.088 96.1195 130.91 96.0769C130.733 96.0343 130.538 96.012 130.326 96.012H129.205V95.0154H130.326C130.529 95.0154 130.71 94.9941 130.867 94.9515C131.024 94.9089 131.158 94.845 131.269 94.7617C131.379 94.6784 131.464 94.5767 131.522 94.4566C131.581 94.3374 131.61 94.198 131.61 94.0401C131.61 93.8454 131.575 93.674 131.506 93.5248C131.436 93.3757 131.332 93.2488 131.195 93.1452C131.058 93.0415 130.889 92.9621 130.688 92.9079C130.488 92.8536 130.255 92.8265 129.989 92.8265C129.722 92.8265 129.472 92.8556 129.263 92.9147C129.054 92.9737 128.874 93.059 128.727 93.1723C128.578 93.2856 128.456 93.4222 128.362 93.5829C128.267 93.7437 128.193 93.9258 128.139 94.1292L126.991 93.919C127.09 93.5122 127.238 93.1713 127.434 92.8953C127.629 92.6193 127.86 92.3975 128.125 92.228C128.391 92.0585 128.685 91.9364 129.007 91.8619C129.33 91.7873 129.666 91.7505 130.018 91.7505C130.459 91.7505 130.851 91.8018 131.196 91.9035C131.54 92.0052 131.832 92.1524 132.07 92.3442C132.308 92.536 132.49 92.7704 132.614 93.0454C132.738 93.3214 132.801 93.6333 132.801 93.981C132.801 94.198 132.773 94.3936 132.716 94.567C132.66 94.7413 132.577 94.8953 132.469 95.028C132.361 95.1617 132.227 95.2759 132.07 95.3709C131.912 95.4658 131.73 95.5423 131.523 95.6014L131.536 95.4183C131.734 95.4367 131.921 95.4929 132.097 95.5878C132.273 95.6827 132.428 95.8057 132.563 95.9578C132.698 96.1089 132.804 96.2881 132.881 96.4934C132.957 96.6987 132.995 96.9263 132.995 97.1752C132.995 97.5142 132.929 97.8251 132.796 98.107C132.663 98.3898 132.47 98.6319 132.215 98.8363C131.96 99.0397 131.649 99.1975 131.283 99.3108C130.916 99.4242 130.495 99.4803 130.023 99.4803" fill="white"/>
<path d="M139.666 92.5156C140.157 93.0289 140.402 93.8047 140.402 94.8439V99.2711H139.2V98.1186C138.943 98.566 138.603 98.904 138.176 99.1326C137.751 99.3612 137.241 99.4745 136.647 99.4745C136.264 99.4745 135.919 99.4251 135.613 99.3253C135.307 99.2256 135.046 99.0822 134.83 98.8953C134.614 98.7074 134.447 98.4818 134.33 98.2173C134.213 97.9529 134.154 97.6556 134.154 97.3253C134.154 96.9505 134.222 96.626 134.357 96.3529C134.492 96.0798 134.687 95.8464 134.942 95.6546C135.196 95.4628 135.505 95.3098 135.87 95.1975C136.235 95.0841 136.645 94.9989 137.099 94.9398L139.43 94.6483L139.484 95.5907L137.234 95.8754C136.901 95.9161 136.615 95.9723 136.377 96.0449C136.138 96.1176 135.942 96.2096 135.789 96.3229C135.635 96.4362 135.524 96.5679 135.451 96.719C135.379 96.8711 135.343 97.0454 135.343 97.2449C135.343 97.6382 135.473 97.9345 135.735 98.1331C135.995 98.3316 136.385 98.4314 136.903 98.4314C137.187 98.4314 137.45 98.3917 137.691 98.3123C137.932 98.2328 138.145 98.1215 138.332 97.9771C138.52 97.8328 138.677 97.6585 138.805 97.4551C138.934 97.2517 139.027 97.0261 139.086 96.7771C139.14 96.596 139.173 96.4033 139.184 96.198C139.196 95.9926 139.202 95.8076 139.202 95.6449V94.7093C139.202 94.3839 139.166 94.104 139.094 93.8686C139.021 93.6333 138.912 93.4396 138.766 93.2856C138.619 93.1316 138.435 93.0192 138.212 92.9466C137.989 92.8739 137.726 92.8381 137.425 92.8381C136.907 92.8381 136.495 92.9408 136.189 93.1461C135.883 93.3514 135.669 93.6672 135.548 94.0924L134.426 93.8076C134.606 93.1384 134.954 92.6279 135.469 92.2754C135.985 91.9229 136.642 91.7466 137.439 91.7466C138.434 91.7466 139.177 92.0032 139.668 92.5166" fill="white"/>
</svg>
