<svg width="162" height="160" viewBox="0 0 162 160" fill="none" xmlns="http://www.w3.org/2000/svg">
<path d="M67.824 87.245V71.2165C67.824 65.0209 62.703 60 56.3839 60H40.0358C33.7167 60 28.5957 65.0209 28.5957 71.2165V87.245C28.5957 93.0404 33.0777 97.8089 38.8288 98.4006L50.8191 88.8462H37.959V84.2517L50.8103 74.0097H38.4649V69.6154H58.4607V74.2099L45.6005 84.4518H58.4518V89.0463L46.6389 98.4615H56.3839C62.703 98.4615 67.824 93.4407 67.824 87.245Z" fill="white"/>
<path d="M77.5977 67.1009H80.5797C81.8844 67.0835 82.8873 67.9014 82.8695 69.2241C82.8873 70.5554 81.8844 71.3473 80.5797 71.3386H78.5207V74.1579H77.5977M80.42 70.5032C81.3874 70.5032 81.9465 70.0594 81.9465 69.2154C81.9465 68.3713 81.3874 67.9188 80.42 67.9188H78.5207V70.5032H80.42V70.5032Z" fill="white"/>
<path d="M85.9644 69.0151C87.3223 68.989 88.4228 70.1115 88.3962 71.6256C88.414 73.1484 87.3134 74.2709 85.9644 74.2448C84.6243 74.2709 83.5149 73.1484 83.5415 71.6256C83.5237 70.1115 84.6243 68.989 85.9644 69.0151ZM86.0177 73.5313C86.8874 73.5313 87.5264 72.809 87.5264 71.6343C87.5264 70.4596 86.8874 69.7373 86.0177 69.7373H85.9289C85.0591 69.7373 84.4201 70.4596 84.4201 71.6343C84.4201 72.8177 85.0591 73.5313 85.9289 73.5313H86.0177Z" fill="white"/>
<path d="M91.7776 69.0151C92.9313 69.0151 93.7479 69.6851 93.8544 70.7641H92.9846C92.9313 70.4596 92.7982 70.2159 92.5941 70.0245C92.39 69.833 92.1326 69.7373 91.8308 69.7373H91.7421C90.7569 69.7199 90.2244 70.6075 90.2333 71.6343C90.2244 72.6611 90.7569 73.5487 91.7421 73.5313H91.8308C92.1326 73.5313 92.39 73.4355 92.5941 73.2441C92.7982 73.0527 92.9313 72.8003 92.9846 72.5045H93.8544C93.7212 73.5748 92.9313 74.2535 91.7776 74.2535C90.2688 74.2709 89.3369 73.1223 89.3458 71.6343C89.3369 70.1463 90.2688 68.989 91.7776 69.0151Z" fill="white"/>
<path d="M97.2094 69.0151C98.3632 69.0151 99.1797 69.6851 99.2773 70.7641H98.4075C98.3632 70.4596 98.23 70.2159 98.0259 70.0245C97.8218 69.833 97.5644 69.7373 97.2538 69.7373H97.165C96.1799 69.7199 95.6474 70.6075 95.6562 71.6343C95.6474 72.6611 96.1799 73.5487 97.165 73.5313H97.2538C97.5644 73.5313 97.8129 73.4355 98.017 73.2441C98.2212 73.0527 98.3543 72.8003 98.4075 72.5045H99.2773C99.1531 73.5748 98.3632 74.2535 97.2094 74.2535C95.7006 74.2709 94.7687 73.1223 94.7776 71.6343C94.7598 70.1463 95.6917 68.989 97.2094 69.0151Z" fill="white"/>
<path d="M105.065 69.1191V74.1487H104.186V70.0415L101.71 74.1487H100.512V69.1191H101.381V73.2612L103.92 69.1191" fill="white"/>
<path d="M111.19 69.1107V74.149H110.311V70.0331L107.835 74.149H106.637V69.1107H107.515V73.2614L110.045 69.1107M108.128 67.1006C108.172 67.6314 108.429 67.875 108.873 67.875C109.335 67.875 109.583 67.6227 109.619 67.1006H110.382C110.373 68.0056 109.814 68.4319 108.873 68.4319C107.924 68.4319 107.364 68.0143 107.364 67.1006H108.128Z" fill="white"/>
<path d="M114.889 69.0151C116.034 69.0151 116.859 69.6851 116.957 70.7641H116.087C116.034 70.4596 115.91 70.2159 115.697 70.0245C115.493 69.833 115.235 69.7373 114.933 69.7373H114.845C113.86 69.7199 113.327 70.6075 113.336 71.6343C113.327 72.6611 113.86 73.5487 114.845 73.5313H114.933C115.235 73.5313 115.493 73.4355 115.697 73.2441C115.901 73.0527 116.034 72.8003 116.087 72.5045H116.957C116.824 73.5748 116.034 74.2535 114.889 74.2535C113.371 74.2709 112.448 73.1223 112.457 71.6343C112.44 70.1463 113.371 68.989 114.889 69.0151Z" fill="white"/>
<path d="M119.964 71.704L119.059 72.5742V74.1492H118.189V69.1196H119.059V71.6083L121.571 69.1196H122.663L120.595 71.1036L122.76 74.1492H121.704" fill="white"/>
<path d="M125.522 69.0151C126.88 68.989 127.98 70.1115 127.954 71.6256C127.971 73.1484 126.88 74.2709 125.522 74.2448C124.182 74.2709 123.072 73.1484 123.09 71.6256C123.072 70.1115 124.182 68.989 125.522 69.0151ZM125.566 73.5313C126.436 73.5313 127.075 72.809 127.075 71.6343C127.075 70.4596 126.436 69.7373 125.566 69.7373H125.477C124.608 69.7373 123.969 70.4596 123.969 71.6343C123.969 72.8177 124.617 73.5313 125.477 73.5313H125.566Z" fill="white"/>
<path d="M131.266 69.0149C132.544 68.9975 133.422 69.9547 133.404 71.2425V71.7472H129.775C129.801 72.9307 130.556 73.5398 131.266 73.5311H131.345C131.931 73.5311 132.393 73.2265 132.517 72.6783H133.396C133.209 73.679 132.348 74.2533 131.283 74.2533C129.979 74.2707 128.887 73.3222 128.905 71.6254C128.878 69.9373 130.041 68.9975 131.266 69.0149ZM132.535 71.0598C132.508 70.1983 131.976 69.7284 131.31 69.7284H131.221C130.609 69.7284 129.988 70.1026 129.837 71.0598H132.535Z" fill="white"/>
<path d="M79.5394 77.6469C80.8973 77.6208 81.9978 78.7433 81.9712 80.2661C81.989 81.7889 80.8973 82.9115 79.5394 82.8854C78.1993 82.9115 77.0899 81.7889 77.1076 80.2661C77.0988 78.7433 78.1993 77.6208 79.5394 77.6469ZM79.5927 82.1631C80.4624 82.1631 81.1015 81.4409 81.1015 80.2661C81.1015 79.0827 80.4624 78.3692 79.5927 78.3692H79.5039C78.6342 78.3692 77.9951 79.0914 77.9951 80.2661C77.9951 81.4496 78.6342 82.1631 79.5039 82.1631H79.5927Z" fill="white"/>
<path d="M83.1965 78.03C83.2764 77.5514 83.4273 77.1686 83.6669 76.8814C84.0219 76.4289 84.6254 76.2027 85.4508 76.2027H86.5868C86.9418 76.2027 87.0661 76.0983 87.0661 75.8372V75.6719H87.8826V75.9677C87.8826 76.6726 87.5808 76.951 86.7022 76.951H85.4064C84.2615 76.951 83.8533 77.5427 83.8 78.8828C84.1373 78.3781 84.8739 77.9343 85.6461 77.9343C86.9063 77.9169 87.927 78.8828 87.9092 80.3273C87.927 81.7631 86.9152 82.9204 85.5041 82.8943C83.9154 82.8943 83.0723 81.7544 83.0723 79.8835C83.0811 79.1177 83.1255 78.4999 83.1965 78.03ZM85.5573 82.172C86.4626 82.1894 87.0395 81.3454 87.0306 80.336C87.0306 79.3092 86.4271 78.5956 85.5573 78.5956H85.4952C84.6432 78.5956 83.9775 79.2831 83.9775 80.2664C83.9775 81.3889 84.5722 82.1807 85.4952 82.1807H85.5573V82.172Z" fill="white"/>
<path d="M97.0846 82.0761V84.1297H96.2592V82.781H89.168V77.7427H90.0377V82.0761H92.2477V77.7427H93.1174V82.0761H95.3362V77.7427H96.206V82.0761" fill="white"/>
<path d="M100.086 77.6467C101.373 77.6293 102.242 78.5865 102.225 79.8744V80.3791H98.5948C98.6214 81.5625 99.3669 82.1716 100.086 82.1629H100.157C100.743 82.1629 101.204 81.8583 101.328 81.3014H102.198C102.012 82.3021 101.151 82.8764 100.086 82.8764C98.7811 82.8939 97.6895 81.9454 97.7072 80.2485C97.6984 78.5691 98.861 77.6293 100.086 77.6467ZM101.355 79.6916C101.319 78.8215 100.796 78.3603 100.121 78.3603H100.033C99.4202 78.3603 98.8078 78.7257 98.648 79.6916H101.355Z" fill="white"/>
<path d="M105.642 77.6472C106.796 77.6472 107.612 78.3172 107.719 79.3962H106.849C106.796 79.0917 106.663 78.848 106.458 78.6566C106.254 78.4651 105.997 78.3694 105.686 78.3694H105.598C104.612 78.352 104.08 79.2396 104.089 80.2664C104.08 81.2932 104.612 82.1808 105.598 82.1634H105.686C105.997 82.1634 106.245 82.0676 106.45 81.8762C106.654 81.6848 106.787 81.4324 106.84 81.1366H107.71C107.577 82.2069 106.787 82.8856 105.633 82.8856C104.124 82.903 103.192 81.7544 103.201 80.2664C103.201 78.7784 104.133 77.6298 105.642 77.6472Z" fill="white"/>
<path d="M112.537 78.4475H110.833V82.781H109.954V78.4475H108.25V77.7427H112.537" fill="white"/>
<path d="M113.478 77.7427H115.892C116.948 77.7427 117.525 78.2909 117.525 79.0218C117.525 79.6309 117.187 80.0312 116.584 80.214C117.108 80.2488 117.658 80.6838 117.658 81.3452C117.676 82.1457 116.939 82.7897 115.936 82.781H113.469M115.785 79.8833C116.327 79.8833 116.655 79.5787 116.655 79.1088C116.655 78.6477 116.318 78.404 115.714 78.404H114.365V79.8833H115.785ZM115.767 82.1283C116.451 82.1283 116.779 81.8325 116.779 81.3017C116.779 80.8666 116.451 80.5707 115.803 80.5707H114.365V82.1283H115.767Z" fill="white"/>
<path d="M121.048 77.6469C122.406 77.6208 123.507 78.7433 123.48 80.2661C123.498 81.7889 122.397 82.9115 121.048 82.8854C119.708 82.9115 118.599 81.7889 118.625 80.2661C118.599 78.7433 119.708 77.6208 121.048 77.6469ZM121.093 82.1631C121.963 82.1631 122.602 81.4409 122.602 80.2661C122.602 79.0827 121.963 78.3692 121.093 78.3692H121.004C120.134 78.3692 119.495 79.0914 119.495 80.2661C119.495 81.4496 120.134 82.1631 121.004 82.1631H121.093Z" fill="white"/>
<path d="M82.3888 88.3762C82.6373 88.6373 82.7616 88.9767 82.7616 89.3943C82.7616 90.7257 81.6699 91.5176 79.9925 91.5176C78.1643 91.5176 77.1347 90.6561 77.0371 89.1072H78.4216C78.5459 89.9252 79.0606 90.3167 80.028 90.3167C80.9067 90.3167 81.3682 89.9948 81.3682 89.3682C81.3682 88.7765 80.9422 88.472 80.1345 88.472H79.1494V87.2537H80.0635C80.8446 87.2537 81.2794 86.9057 81.2794 86.3139C81.2794 85.7918 80.8268 85.4612 80.0103 85.4612C79.5399 85.4612 79.176 85.5743 78.9275 85.8092C78.679 86.0355 78.5281 86.3487 78.4838 86.7142H77.0992C77.117 86.34 77.2235 85.9659 77.4187 85.5917C77.6229 85.2175 77.9335 84.9043 78.3595 84.6519C78.7855 84.3996 79.3269 84.269 79.9748 84.269C81.7143 84.269 82.664 85.087 82.664 86.3139C82.664 87.0275 82.2291 87.6105 81.4214 87.8454C81.8208 87.9412 82.1403 88.1152 82.3888 88.3762Z" fill="white"/>
<path d="M83.9238 86.3838H85.264V88.2808H87.252V86.3838H88.5833V91.4134H87.252V89.3424H85.264V91.4134H83.9238" fill="white"/>
<path d="M89.6743 88.8986C89.6565 87.2104 90.7304 86.2707 91.8842 86.2794C92.6475 86.2794 93.1977 86.6274 93.4196 87.0799V86.3838H94.7597V91.4221H93.4196V90.7172C93.1622 91.1697 92.6386 91.5178 91.8842 91.5178C90.8192 91.5265 89.6476 90.578 89.6743 88.8986ZM92.2481 90.4562C92.896 90.4562 93.4196 89.8645 93.4196 88.8986C93.4196 87.9327 92.896 87.341 92.2481 87.341H92.1682C91.5381 87.3236 90.9967 88.0197 91.0055 88.8899C90.9967 89.7687 91.5469 90.4736 92.1682 90.4562H92.2481Z" fill="white"/>
<path d="M96.1367 86.3838H97.468V88.2808H99.456V86.3838H100.787V91.4134H99.456V89.3424H97.468V91.4134H96.1367" fill="white"/>
<path d="M107.159 86.3838V91.4134H105.819V87.7848L103.946 91.4134H102.162V86.3838H103.493V89.9776L105.366 86.3838" fill="white"/>
<path d="M108.25 88.8982C108.233 87.3928 109.191 86.2616 110.691 86.279C112.191 86.2616 113.043 87.3667 113.034 88.8373C113.034 88.933 113.025 89.0897 113.016 89.3072H109.546C109.599 89.9859 110.15 90.4558 110.7 90.4558H110.789C111.268 90.4558 111.596 90.1948 111.694 89.8206H113.016C112.768 90.8213 111.951 91.5087 110.691 91.5087C109.404 91.5348 108.224 90.508 108.25 88.8982ZM111.738 88.3065C111.712 87.7148 111.241 87.3406 110.682 87.3406H110.602C110.043 87.3406 109.573 87.7061 109.546 88.3065H111.738Z" fill="white"/>
</svg>
