<svg width="162" height="160" viewBox="0 0 162 160" fill="none" xmlns="http://www.w3.org/2000/svg">
<path d="M80.1867 113H82.8517C97.3183 113 104.553 113 109.046 108.507C113.538 104.014 113.5 96.7824 113.5 82.3517V79.6483C113.5 65.2202 113.5 57.9856 109.046 53.4928C104.591 49 97.3183 49 82.8517 49H80.1867C65.7176 49 58.4856 49 53.9928 53.4928C49.5 57.9856 49.5 65.2151 49.5 79.6483V82.3517C49.5 96.7824 49.5 104.014 53.9928 108.507C58.4856 113 65.7176 113 80.1867 113Z" fill="white"/>
<path d="M83.8434 95.1433C69.4127 95.1433 60.6549 85.1311 60.3145 68.4937H67.6233C67.8511 80.7151 73.4114 85.9017 77.6738 86.9589V68.4937H84.6805V79.0383C88.7919 78.5826 93.0927 73.7852 94.5417 68.4937H101.431C100.327 75.0037 95.645 79.8012 92.3324 81.7801C95.645 83.3801 100.975 87.5682 103.031 95.1433H95.4556C93.8556 90.0796 89.9337 86.1577 84.6805 85.6252V95.1433H83.8434Z" fill="#332784"/>
</svg>
