<svg width="162" height="160" viewBox="0 0 162 160" fill="none" xmlns="http://www.w3.org/2000/svg">
<path d="M53.4673 79.875C53.0559 80.1464 52.566 80.2549 51.9973 80.2127C51.1383 80.1464 50.4911 79.7665 50.0495 79.061C49.6079 78.3555 49.4325 77.3968 49.5232 76.1788L49.8983 71.2344L59.5649 71.9579L59.2141 76.637C59.1294 77.7948 58.839 78.6751 58.3551 79.2781C57.8711 79.8811 57.2239 80.1584 56.4254 80.0981C55.9535 80.062 55.5482 79.9172 55.2095 79.67C54.8647 79.4168 54.6045 79.0731 54.4291 78.6329C54.1992 79.1876 53.8847 79.5977 53.4733 79.869M52.4208 77.4692C53.0741 77.5174 53.431 77.1496 53.4915 76.3597L53.6548 74.2131L51.6646 74.0623L51.5013 76.2089C51.4408 76.9988 51.7493 77.4209 52.4208 77.4692ZM55.5059 74.3518L55.3728 76.0883C55.3123 76.8601 55.6027 77.2702 56.2378 77.3184C56.873 77.3666 57.2178 77.0049 57.2783 76.233L57.4114 74.4965L55.5059 74.3518Z" fill="white"/>
<path d="M62.4202 90.1138L53.3948 93.6473L52.3906 91.0967L55.9113 89.7219L54.5442 86.2548L51.0235 87.6296L50.0254 85.085L59.0508 81.5576L60.055 84.1022L56.6614 85.4227L58.0285 88.8958L61.4161 87.5693L62.4202 90.1138Z" fill="white"/>
<path d="M63.441 91.5669L65.5038 93.3095L61.8138 97.6328L68.5526 95.8902L70.5186 97.5545L64.2395 104.917L62.1828 103.174L65.8546 98.8629L59.14 100.599L57.168 98.9292L63.441 91.5669Z" fill="white"/>
<path d="M79.5326 109.608L80.3069 104.543L77.2037 108.287L75.9999 108.1L74.1609 103.705L73.3927 108.661L70.9004 108.275L72.3885 98.7241L74.6146 99.0678L77.125 105.104L81.2688 100.099L83.5009 100.443L82.037 110L79.5326 109.608Z" fill="white"/>
<path d="M92.5394 105.635L88.6377 106.889L88.4683 108.836L85.8066 109.693L87.0225 99.5565L89.5934 98.7305L96.538 106.25L93.8219 107.124L92.5394 105.641V105.635ZM91.1783 104.037L89.0793 101.595L88.8071 104.802L91.1783 104.043V104.037Z" fill="white"/>
<path d="M99.4521 91.3438L105.84 98.6096L103.777 100.413L101.285 97.5785L98.4722 100.039L100.964 102.873L98.9016 104.676L92.5137 97.4037L94.5765 95.6008L96.978 98.3322L99.7909 95.8781L97.3893 93.1467L99.4521 91.3438Z" fill="white"/>
<path d="M100.209 90.2828L101.219 87.7865L106.5 89.915L102.719 84.0903L103.687 81.7085L112.676 85.3324L111.66 87.8287L106.397 85.7062L110.166 91.5129L109.198 93.9067L100.209 90.2828Z" fill="white"/>
<path d="M103.162 71.9941L112.829 71.2344L113.041 73.9176L110.609 74.1045L110.724 75.5939L113.277 76.9868L113.501 79.8509L110.518 78.1204C110.282 78.7836 109.913 79.3082 109.399 79.6881C108.885 80.068 108.262 80.2911 107.512 80.3514C106.756 80.4117 106.09 80.2851 105.51 79.9836C104.929 79.676 104.469 79.2118 104.118 78.5847C103.773 77.9576 103.568 77.2038 103.495 76.3356L103.15 72.0002L103.162 71.9941ZM107.258 77.6018C107.748 77.5656 108.105 77.3968 108.341 77.1074C108.57 76.8179 108.667 76.4139 108.625 75.9014L108.498 74.2794L105.528 74.5146L105.655 76.1125C105.739 77.1858 106.272 77.6862 107.258 77.6078" fill="white"/>
<path d="M65.8917 58.1197L69.128 60.7125L67.5552 62.6601L66.0127 61.424L61.0281 67.5985L53.4727 61.5446L55.1664 59.4463L61.0281 64.1434L63.3631 61.2492L57.5014 56.552L59.1952 54.4536L65.0569 59.1508L65.8917 58.1197Z" fill="white"/>
<path d="M76.2296 54.0436L77.022 56.0033L69.8053 58.9096L66.1758 49.9494L73.2231 47.1094L74.0216 49.069L69.4847 50.8961L70.0957 52.4035L74.0942 50.7936L74.8625 52.6929L70.8639 54.2969L71.5293 55.9369L76.2296 54.0436Z" fill="white"/>
<path d="M88.9163 46.8562L88.0089 56.4797L85.2807 56.2265L85.6315 52.4699L81.9113 52.1262L81.5604 55.8768L78.8262 55.6235L79.7275 46L82.4618 46.2533L82.123 49.8711L85.8433 50.2208L86.182 46.603L88.9163 46.8562Z" fill="white"/>
<path d="M99.7551 54.0377L97.1781 52.5845L93.4821 59.1147L91.1289 57.7942L94.825 51.264L92.2299 49.8048L93.3006 47.9175L100.826 52.1504L99.7551 54.0377Z" fill="white"/>
<path d="M108.467 61.5207C108.612 62.2141 108.563 62.8593 108.334 63.4562C108.104 64.0532 107.692 64.5657 107.099 64.9938C106.507 65.4219 105.89 65.645 105.254 65.6752C104.613 65.7053 103.99 65.5425 103.373 65.1928C102.756 64.8431 102.194 64.3125 101.679 63.601L100.687 62.2382L98.6306 63.7215L97.0215 61.5086L104.879 55.8467L107.475 59.4284C107.989 60.1399 108.315 60.8393 108.461 61.5267M104.371 63.0281C104.734 63.1186 105.103 63.0281 105.472 62.7628C105.841 62.4975 106.041 62.1779 106.071 61.8041C106.107 61.4302 105.956 61.0142 105.63 60.5559L104.734 59.3259L102.436 60.984L103.331 62.2141C103.657 62.6663 104.008 62.9377 104.377 63.0281" fill="white"/>
</svg>
