<svg width="183" height="160" viewBox="0 0 183 160" fill="none" xmlns="http://www.w3.org/2000/svg">
<path d="M57.9051 80.7836C57.6601 80.8414 57.4186 80.9196 57.1736 80.9808C57.0114 81.0182 56.8458 81.0488 56.6836 81.076C56.5939 81.093 56.5076 81.0896 56.449 81.008C56.3869 80.9264 56.411 80.8482 56.4524 80.77C57.8809 77.2887 56.4455 74.1575 56.3006 73.5286C56.2247 73.2022 56.0625 73.1546 55.7969 73.3586C55.5726 73.5286 55.3379 73.6816 55.1033 73.8379C55.0446 73.8753 54.9722 73.8991 54.9066 73.9195C54.1475 71.0196 53.033 70.4144 52.6293 69.8772C52.5638 69.6834 52.4637 69.6393 52.2705 69.7242C52.06 69.816 51.8564 69.9248 51.6494 70.0234C51.57 70.0608 51.4838 70.0914 51.3975 70.1186C51.2975 70.1492 51.2043 70.1186 51.1767 70.02C50.0863 67.3818 49.3376 67.2322 48.9063 66.8073C48.7648 66.5455 48.6786 66.5353 48.4439 66.7155C48.2438 66.8719 48.0368 67.0214 47.8298 67.171C47.7814 67.2084 47.7193 67.2356 47.6607 67.2628C47.5296 67.3206 47.2708 65.8621 45.9769 64.9C45.6767 64.6076 45.756 64.5736 45.4144 64.6518C45.2937 64.679 45.1729 64.7164 45.0521 64.7334C44.8969 64.7538 43.1785 62.0884 43.1268 62H42.9888C42.8231 62.1904 41.1807 64.764 40.9496 64.7062C40.8288 64.679 40.708 64.6416 40.5873 64.6212C40.4113 64.5872 40.4699 64.6212 40.187 64.8694C39.6625 65.053 38.831 66.1681 38.448 67.3104C38.2133 67.1234 37.9822 66.933 37.7475 66.7427C37.713 66.7155 37.682 66.6815 37.6475 66.6543C37.5025 66.5421 37.3818 66.5489 37.2852 66.7053C35.1769 68.3949 35.0113 69.867 34.9872 69.9724C34.9527 70.1118 34.863 70.1696 34.7318 70.1118C34.4903 70.0098 34.2488 69.901 34.0279 69.7582C33.7071 69.5543 33.7864 69.7072 33.4793 69.9316C31.4401 71.4241 31.1641 73.8957 31.1641 73.8957C30.8742 73.7904 30.6327 73.6136 30.3981 73.4266C30.3222 73.362 30.2393 73.3008 30.1496 73.2532C30.0323 73.1886 29.9495 73.209 29.9081 73.3348C27.5825 76.9283 29.4768 81.0964 29.3526 81.0692C29.0765 81.008 28.8005 80.9366 28.5279 80.872C28.4313 80.8482 28.3381 80.8244 28.2415 80.8074C28.1484 80.7904 28.0656 80.8074 28 80.8788V81.127C28.0897 81.416 27.8309 85.3801 31.7127 87.9333C31.7575 87.9605 31.792 88.0149 31.8231 88.0455C31.7506 88.0523 31.5264 88.0455 31.271 88.0455C30.8777 88.0387 30.405 88.0319 30.2738 88.0659C30.4153 88.3209 30.5499 88.5691 30.6914 88.8139C30.8846 89.147 31.1261 89.4462 31.4125 89.7114C31.6471 89.9256 31.8507 90.1738 32.0888 90.388C32.4338 90.6973 32.8272 90.9387 33.2412 91.1529C33.676 91.3773 34.1038 91.6255 34.5524 91.8294C35.2805 92.1558 36.0603 92.3224 36.8435 92.4822C37.8856 92.6998 38.9345 92.9072 39.98 93.1315C40.3871 93.2199 41.1014 93.2777 41.4154 93.5633C42.0054 93.8353 42.485 94.3759 42.5851 94.8008C42.7403 95.4366 42.7127 96.0791 42.6437 96.7217C42.6161 97.0005 42.5816 97.2759 42.5678 97.5546C42.5506 97.8368 42.592 97.8912 42.8369 98H43.3062C43.5167 97.9218 43.5443 97.8912 43.5305 97.6532C43.5029 97.2419 43.4649 96.8305 43.4304 96.4191C43.3718 95.7562 43.3994 95.1034 43.6202 94.4677C43.8686 93.7333 45.3006 93.2947 46.0769 93.1417C46.7498 93.0092 47.4122 92.8222 48.0851 92.6828C48.5889 92.5774 49.1064 92.5196 49.6102 92.4142C51.2319 92.0742 52.7121 91.4385 54.0061 90.4049C54.6237 89.912 55.6692 88.4229 55.7347 88.3141C55.7796 88.2427 55.8038 88.1645 55.752 88.0829C55.7002 88.0013 55.6174 87.9945 55.5312 88.0047C55.4277 88.0183 55.3207 88.0319 55.2206 88.0625C55.093 88.1033 54.9722 88.0795 54.8549 88.0455C54.7997 88.0285 54.7272 87.9673 54.7203 87.9197C54.7134 87.8653 54.7583 87.7803 54.8066 87.7463C54.917 87.6749 55.0412 87.6273 55.1551 87.5662C58.1155 85.8289 58.0948 81.1304 58.1121 80.974C58.1294 80.8176 58.0534 80.7564 57.9016 80.7904M55.3 80.94C55.262 80.9638 55.262 81.0386 55.2379 81.0862C54.7445 82.028 52.7156 84.7138 51.8771 85.3699C51.1767 85.9207 50.4141 86.3694 49.6205 86.7774C49.5032 86.8386 49.3756 86.8794 49.2582 86.9338C49.1582 86.9814 46.2667 88.2733 45.2799 89.045C44.4311 89.708 43.6547 90.4729 43.4028 91.5031C43.3235 91.8261 43.2579 93.1316 43.2199 93.4647C43.1751 93.8353 43.0509 94.0903 43.0509 94.0903C43.0509 94.0903 42.9025 93.6347 42.8887 93.4647C42.8369 92.914 42.7955 91.4521 42.5816 90.9353C42.071 88.9057 36.9401 86.961 36.8435 86.9066C36.809 86.8862 36.7711 86.8658 36.7331 86.8522C35.9567 86.5836 35.2839 86.1315 34.6318 85.6589C33.7692 85.0299 32.3683 83.5578 31.7541 82.6875C31.5091 82.3407 30.5016 80.9264 30.4257 80.5049C30.4429 80.5253 30.5568 80.5287 30.5706 80.5525C31.6747 82.1129 33.7347 84.9279 36.2362 85.9445C36.9401 86.3082 37.682 86.587 38.4066 86.8896C39.8316 87.4846 41.1186 88.2937 42.2262 89.368C42.3401 89.4802 42.4608 89.5856 42.5782 89.6978C42.692 89.6026 42.7127 89.4836 42.7127 89.3578C42.7127 88.4909 42.7127 87.6206 42.7093 86.7536C42.7093 86.5224 42.6955 86.2844 42.7162 86.0499C42.7472 85.7031 42.5885 85.4991 42.2849 85.3563C41.8053 85.1319 41.3257 84.9007 40.8564 84.6526C39.666 84.027 38.5273 83.3165 37.4887 82.4563C35.2356 80.6715 32.3062 76.4898 31.7334 75.5718C31.6264 75.395 31.5505 75.1978 31.4643 75.0109C31.447 74.9667 31.447 74.9191 31.4332 74.8443C31.6092 75.0177 31.7713 75.1673 31.9232 75.3236C32.6443 76.0716 35.5599 80.3349 37.782 81.977C39.0587 83.0173 40.4527 83.8536 42.0295 84.3806C42.1607 84.4248 42.2952 84.4656 42.4332 84.4928C42.5989 84.5268 42.6782 84.469 42.6955 84.3024C42.7127 84.1324 42.7162 83.9624 42.7162 83.789C42.7162 82.9799 42.7093 82.1741 42.7058 81.365C42.7058 81.0216 42.7093 80.6783 42.7196 80.3383C42.73 79.9575 42.5644 79.6821 42.2538 79.4611C41.8536 79.1756 41.4533 78.8866 41.0703 78.5806C39.942 77.6831 38.969 76.6529 38.2513 75.4052C37.6716 74.6029 35.4909 71.0229 35.3219 70.6728C35.3046 70.6388 35.2977 70.6048 35.2839 70.564C35.3943 70.5334 35.4806 70.547 35.5427 70.6422C35.5979 70.7238 35.6531 70.8054 35.7083 70.8836C35.7463 70.9346 35.798 70.9754 35.8325 71.0263C35.8877 71.1079 35.9326 71.1929 35.9774 71.2779C36.0534 71.4207 38.5584 75.2352 38.7102 75.3168C38.7861 75.3576 38.8344 75.4494 38.8862 75.5208C38.9759 75.6466 39.0553 75.7758 39.1829 75.871C39.2657 75.9322 39.3037 76.0444 39.3692 76.126C39.4348 76.2042 39.5107 76.2722 39.5866 76.3402C39.6073 76.364 39.6487 76.3742 39.6625 76.398C39.8005 76.6631 40.0559 76.8161 40.2767 76.9997C40.3147 77.0303 40.3388 77.0711 40.3699 77.1085C40.3837 77.1255 40.394 77.1527 40.4078 77.1629C40.6356 77.3567 40.8633 77.5505 41.091 77.7409C41.1152 77.7647 41.1462 77.7783 41.1773 77.7953C41.3188 77.8667 41.4637 77.9244 41.5706 78.0468C41.5982 78.0774 41.6465 78.0944 41.6845 78.1182C41.7777 78.1726 41.8708 78.227 41.964 78.278C41.9743 78.2848 41.9812 78.295 41.9916 78.2984C42.1469 78.3562 42.2849 78.4378 42.4194 78.5296C42.5713 78.6316 42.7196 78.5296 42.7196 78.3392C42.7196 77.1629 42.7196 75.9866 42.7162 74.8103C42.7162 74.6879 42.7265 74.5587 42.692 74.4465C42.6575 74.3309 42.5782 74.2255 42.5057 74.1269C42.4505 74.0521 42.3746 73.9943 42.309 73.9263C42.1089 73.7292 41.9053 73.5354 41.7087 73.3382C41.612 73.2396 41.5223 73.1342 41.4257 73.039C41.3222 72.937 41.2118 72.8418 41.1048 72.7398C41.0255 72.6582 40.9495 72.5766 40.8805 72.4882C40.7874 72.376 40.7046 72.2571 40.6149 72.1415C40.5493 72.0565 40.4906 71.9681 40.4147 71.8933C40.0421 71.5261 37.6889 68.5853 37.4301 68.1502C37.3887 68.0822 37.3921 68.0788 37.4439 68.038C37.613 68.1978 37.7889 68.3541 37.9511 68.5173C38.6446 69.2279 41.5534 72.3726 42.3401 72.988C42.4022 73.0356 42.4471 73.107 42.5161 73.1444C42.554 73.1648 42.6127 73.1852 42.661 73.1852C42.6782 73.1852 42.6955 73.1818 42.7127 73.175C42.761 73.1512 42.8128 73.073 42.8162 73.0118C42.8266 72.7806 42.8162 72.5426 42.8231 72.3081C42.83 71.5635 42.8438 70.819 42.8542 70.0744C42.868 69.1225 42.8784 68.1706 42.8922 67.2152C42.8922 67.0724 42.8922 66.9296 42.9129 66.7937C42.9336 66.6815 42.9922 66.5727 43.044 66.4469C43.1682 66.5557 43.22 66.6713 43.2269 66.8005C43.2407 67.086 43.2476 67.375 43.2545 67.6606C43.2717 68.7145 43.2821 69.7684 43.3028 70.819C43.3097 71.4377 43.3269 72.0565 43.3373 72.6718C43.3373 72.7738 43.3269 72.8792 43.32 72.9846C43.32 73.0696 43.3338 73.1478 43.4201 73.192C43.5063 73.2362 43.5788 73.192 43.6444 73.141C44.6622 72.3285 47.5123 69.0511 48.406 68.1094C48.4267 68.089 48.4439 68.0618 48.4612 68.038C48.4681 68.0448 48.4784 68.0516 48.4853 68.055C48.4715 68.089 48.4612 68.1264 48.4439 68.1638C48.1161 68.9559 45.687 72.0055 45.097 72.6242C44.6001 73.1444 44.0929 73.6578 43.5891 74.1677C43.496 74.2629 43.4339 74.3717 43.4339 74.5043C43.4339 75.7486 43.4304 76.9929 43.4339 78.2372C43.4339 78.5398 43.5339 78.5976 43.8134 78.4582C44.5863 78.0808 45.273 77.5777 45.9044 76.9997C47.3501 75.8812 49.3342 72.3455 49.9414 71.5261C50.1002 71.3119 50.2658 71.1045 50.4279 70.8972C50.4383 70.8836 50.4521 70.8734 50.4935 70.8734C50.4245 71.0739 50.3589 71.2745 50.283 71.4683C49.9863 72.2095 47.8746 75.786 47.0085 76.6563C46.3012 77.5539 45.442 78.295 44.5277 78.9784C44.3103 79.145 44.0929 79.315 43.8617 79.4645C43.5339 79.6719 43.3959 79.9575 43.4166 80.3417C43.4373 80.736 43.427 81.1304 43.427 81.5282C43.4304 82.4087 43.4304 83.2927 43.4339 84.1766C43.4339 84.2004 43.4339 84.2208 43.4339 84.2446C43.4546 84.469 43.5339 84.5302 43.7548 84.4724C44.3413 84.316 44.9038 84.0882 45.4524 83.8298C46.805 83.1907 47.9919 82.3271 49.0754 81.314C50.2623 80.2975 53.7404 75.9288 54.3649 75.3372C54.3856 75.3168 54.4098 75.2998 54.4339 75.2828C54.4443 75.2862 54.4512 75.293 54.4615 75.2964C54.4063 75.4256 54.358 75.565 54.2959 75.6874C54.1061 76.0546 50.9421 80.0663 50.145 80.8822C48.8683 82.4801 47.2259 83.619 45.4213 84.554C44.9624 84.792 44.4966 85.0129 44.0377 85.2441C43.9514 85.2883 43.8721 85.3359 43.7927 85.3903C43.4925 85.5909 43.3718 85.8833 43.3994 86.2301C43.4718 87.2228 43.4201 88.2155 43.4132 89.2116C43.4132 89.3918 43.4339 89.5482 43.5167 89.6842C43.6582 89.5618 43.7962 89.4428 43.9307 89.3238C44.5967 88.7289 45.2868 88.1713 46.0631 87.7225C46.9085 87.2262 47.8056 86.8182 48.7234 86.4578C50.3175 85.8357 51.7391 84.9517 52.9295 83.7346C53.2642 83.3913 54.8963 81.1066 55.2137 80.7462C55.2482 80.7054 55.2724 80.6613 55.2965 80.6137C55.369 80.4811 55.3759 80.4811 55.5346 80.5423C55.4656 80.6714 55.4656 80.8346 55.3138 80.9264" fill="white"/>
<path d="M83.8739 67.0283C82.0831 66.2327 79.9335 65.8315 77.425 65.8315H65.7832V93.7129H71.0382V85.6657H77.425C79.9301 85.6657 82.0797 85.2679 83.8739 84.4724C85.6682 83.6768 87.0484 82.5345 88.0179 81.0454C88.9875 79.5598 89.474 77.7919 89.474 75.7486C89.474 73.7054 88.9875 71.9375 88.0179 70.4518C87.0484 68.9661 85.6647 67.8238 83.8739 67.0249M82.4178 79.8317C81.2447 80.8007 79.5022 81.2868 77.1835 81.2868H71.0382V70.2138H77.1835C79.5022 70.2138 81.2447 70.6932 82.4178 71.6485C83.591 72.6038 84.1776 73.9706 84.1776 75.752C84.1776 77.5335 83.591 78.8662 82.4178 79.8351" fill="white"/>
<path d="M100.89 72.7226C101.791 71.8455 102.857 71.169 104.082 70.693C105.307 70.2136 106.663 69.9757 108.143 69.9757C109.623 69.9757 111 70.2476 112.266 70.7916C113.533 71.3356 114.678 72.1515 115.703 73.2394L119.098 70.0912C117.777 68.5512 116.162 67.3884 114.247 66.6065C112.332 65.8245 110.217 65.4302 107.902 65.4302C105.717 65.4302 103.709 65.7838 101.877 66.4875C100.045 67.1912 98.4404 68.1874 97.0671 69.4759C95.6938 70.7644 94.6276 72.2841 93.872 74.035C93.1163 75.7892 92.7402 77.6999 92.7402 79.7703C92.7402 81.8408 93.1163 83.7549 93.872 85.5057C94.6276 87.2566 95.6835 88.7797 97.0464 90.0648C98.4059 91.3533 100.01 92.3494 101.856 93.0532C103.702 93.7569 105.704 94.1105 107.86 94.1105C110.206 94.1105 112.332 93.7127 114.247 92.9138C116.158 92.1183 117.777 90.9623 119.098 89.4494L115.703 86.2639C114.678 87.379 113.533 88.2085 112.266 88.7525C111 89.2965 109.627 89.5684 108.143 89.5684C106.659 89.5684 105.307 89.3304 104.082 88.8511C102.857 88.3751 101.791 87.6952 100.89 86.8214C99.9862 85.9443 99.2857 84.9108 98.7889 83.7141C98.2886 82.5207 98.0401 81.205 98.0401 79.7703C98.0401 78.3356 98.2886 77.0199 98.7889 75.8266C99.2857 74.6299 99.9862 73.5964 100.89 72.7193" fill="white"/>
<path d="M155 93.7129L154.92 65.8315H150.635L139.569 84.2786L128.317 65.8315H124.035V93.7129H129.007V75.48L138.303 90.5274H140.649L149.948 75.2421L149.986 93.7129H155Z" fill="white"/>
</svg>
