<svg width="183" height="160" viewBox="0 0 183 160" fill="none" xmlns="http://www.w3.org/2000/svg">
<path d="M72.4037 104.504C73.1186 104.785 73.7656 105.213 74.3024 105.761C74.8493 106.303 75.2709 106.957 75.538 107.678C75.8321 108.481 75.9798 109.329 75.9741 110.183C75.9947 111.057 75.8209 111.925 75.4653 112.725C75.1774 113.47 74.7275 114.143 74.148 114.696C73.582 115.242 72.9073 115.664 72.1675 115.935C71.4039 116.238 70.5908 116.397 69.769 116.405H68.1701V120.927H64.418V104.043H69.9962C70.822 104.03 71.6417 104.187 72.4037 104.504ZM69.7963 112.933C70.1323 112.952 70.4687 112.9 70.7823 112.778C71.0959 112.656 71.3794 112.468 71.6133 112.227C72.0604 111.659 72.2862 110.949 72.2492 110.229C72.2994 109.501 72.0723 108.781 71.6133 108.212C71.3938 107.97 71.1219 107.78 70.8182 107.658C70.5144 107.536 70.1867 107.484 69.8599 107.506H68.1701V112.933H69.7963Z" fill="white"/>
<path d="M88.5841 107.534H82.1701V120.963H78.418V104.052H88.5841V107.534Z" fill="white"/>
<path d="M101.132 107.507H94.7728V109.976H96.5898C97.3753 109.968 98.1562 110.096 98.8974 110.355C99.5713 110.576 100.191 110.937 100.714 111.413C101.237 111.889 101.644 112.476 101.905 113.132C102.474 114.611 102.474 116.247 101.905 117.726C101.641 118.406 101.236 119.023 100.714 119.535C100.183 120.007 99.5665 120.376 98.8974 120.62C98.1562 120.879 97.3753 121.008 96.5898 121H90.9844V104.043H101.132V107.507ZM96.4354 117.5C96.7278 117.52 97.0212 117.479 97.2967 117.38C97.5722 117.28 97.8235 117.124 98.0343 116.921C98.3927 116.502 98.5896 115.97 98.5896 115.42C98.5896 114.87 98.3927 114.337 98.0343 113.919C97.8347 113.722 97.5952 113.571 97.332 113.474C97.0688 113.377 96.7879 113.338 96.5081 113.358H94.6911V117.5H96.4354Z" fill="white"/>
<path d="M112.007 110.238L114.969 104.052H119.002V120.963H115.35V110.283H115.096L112.943 115.058H110.989L108.836 110.283H108.582V120.963H104.93V104.052H108.991L112.007 110.238Z" fill="white"/>
<path d="M75.2654 41H64V93.0639H75.2654V41Z" fill="white"/>
<path d="M109.187 50.1069H103.555V82.3925H109.187V50.1069Z" fill="white"/>
<path d="M94.9725 46.2183H86.5234V86.8782H94.9725V46.2183Z" fill="white"/>
</svg>
