<svg width="183" height="160" viewBox="0 0 183 160" fill="none" xmlns="http://www.w3.org/2000/svg">
<path d="M41.4449 51C38.1807 53.9376 36.125 58.2058 36.125 62.9564C36.125 67.7071 38.1807 71.9753 41.4449 74.9129C44.7092 71.9753 46.7649 67.7071 46.7649 62.9564C46.7649 58.2058 44.7092 53.9376 41.4449 51Z" fill="white"/>
<path d="M25.8003 68.7446C24.4339 72.9291 24.7769 77.6588 27.1405 81.7728C29.504 85.8879 33.4061 88.5501 37.6949 89.4533C39.0613 85.2689 38.7183 80.5391 36.3548 76.4252C33.9912 72.3112 30.0892 69.6478 25.8003 68.7446Z" fill="white"/>
<path d="M25.8003 88.2915C24.4339 92.476 24.7769 97.2057 27.1405 101.32C29.504 105.435 33.4061 108.097 37.6949 109C39.0613 104.816 38.7183 100.086 36.3548 95.972C33.9912 91.8581 30.0892 89.1947 25.8003 88.2915Z" fill="white"/>
<path d="M57.0621 68.7446C58.4285 72.9291 58.0855 77.6588 55.722 81.7728C53.3584 85.8879 49.4564 88.5501 45.1675 89.4533C43.8011 85.2689 44.1441 80.5391 46.5077 76.4252C48.8712 72.3112 52.7732 69.6478 57.0621 68.7446Z" fill="white"/>
<path d="M57.0621 88.291C58.4285 92.4755 58.0855 97.2052 55.722 101.319C53.3584 105.434 49.4564 108.097 45.1675 109C43.8011 104.815 44.1441 100.086 46.5077 95.9716C48.8712 91.8576 52.7732 89.1942 57.0621 88.291Z" fill="white"/>
<path d="M80.5803 85.3075C78.7207 84.5277 77.145 83.424 75.8531 81.9954C74.5612 80.5668 73.5663 78.8562 72.8704 76.8647C72.1735 74.8733 71.8262 72.6649 71.8262 70.2405C71.8262 67.8162 72.1735 65.6077 72.8704 63.6163C73.5663 61.6248 74.5612 59.9143 75.8531 58.4857C77.145 57.057 78.7207 55.9534 80.5803 55.1735C82.4398 54.3948 84.5316 54.0049 86.8579 54.0049C88.6374 54.0049 90.2778 54.2362 91.779 54.6977C93.2791 55.1592 94.6247 55.8168 95.8169 56.6671C97.008 57.5186 98.038 58.5539 98.907 59.7733C99.7759 60.9926 100.454 62.3595 100.942 63.8751L95.0411 65.5207C94.754 64.5823 94.3661 63.7419 93.8785 62.9984C93.3898 62.2549 92.8046 61.627 92.1231 61.1149C91.4404 60.6027 90.6624 60.2128 89.7869 59.9462C88.9114 59.6796 87.935 59.5453 86.8579 59.5453C85.4367 59.5453 84.1766 59.7975 83.0786 60.3031C81.9806 60.8086 81.0547 61.5257 80.3008 62.4564C79.547 63.3872 78.9728 64.5096 78.5783 65.8225C78.1827 67.1355 77.9855 68.6081 77.9855 70.2383C77.9855 71.8685 78.1718 73.3235 78.5454 74.6431C78.9191 75.9637 79.4746 77.0894 80.2143 78.0202C80.9539 78.9509 81.8755 79.6691 82.9811 80.1736C84.0867 80.6791 85.3786 80.9314 86.8579 80.9314C87.935 80.9314 88.9103 80.7981 89.7869 80.5304C90.6624 80.2639 91.4415 79.874 92.1231 79.3618C92.8046 78.8496 93.3898 78.2218 93.8785 77.4783C94.3661 76.7348 94.754 75.8943 95.0411 74.957L100.942 76.6026C100.453 78.1182 99.7748 79.4851 98.907 80.7045C98.038 81.9238 97.008 82.9592 95.8169 83.8106C94.6247 84.662 93.2791 85.3185 91.779 85.78C90.2789 86.2415 88.6385 86.4729 86.8579 86.4729C84.5316 86.4729 82.4398 86.0829 80.5803 85.3042" fill="white"/>
<path d="M104.947 54.6558H110.848V85.8273H104.947V54.6558ZM122.649 54.6558H129.799L116.835 70.0256L130.618 85.8284H123.209L109.75 70.3726L122.649 54.6569V54.6558Z" fill="white"/>
<path d="M138.639 85.3075C136.779 84.5277 135.204 83.424 133.912 81.9954C132.62 80.5668 131.625 78.8562 130.929 76.8647C130.232 74.8733 129.885 72.6649 129.885 70.2405C129.885 67.8162 130.233 65.6077 130.929 63.6163C131.625 61.6248 132.62 59.9143 133.912 58.4857C135.204 57.057 136.779 55.9534 138.639 55.1735C140.498 54.3948 142.59 54.0049 144.917 54.0049C146.696 54.0049 148.336 54.2362 149.838 54.6977C151.338 55.1592 152.683 55.8168 153.875 56.6671C155.067 57.5186 156.097 58.5539 156.966 59.7733C157.834 60.9926 158.513 62.3595 159 63.8751L153.1 65.5207C152.813 64.5823 152.425 63.7419 151.937 62.9984C151.448 62.2549 150.863 61.627 150.182 61.1149C149.5 60.6027 148.721 60.2128 147.845 59.9462C146.97 59.6796 145.994 59.5453 144.917 59.5453C143.495 59.5453 142.235 59.7975 141.137 60.3031C140.039 60.8086 139.113 61.5257 138.359 62.4564C137.606 63.3872 137.031 64.5096 136.637 65.8225C136.242 67.1355 136.044 68.6081 136.044 70.2383C136.044 71.8685 136.23 73.3235 136.604 74.6431C136.978 75.9637 137.533 77.0894 138.273 78.0202C139.013 78.9509 139.934 79.6691 141.04 80.1736C142.145 80.6791 143.437 80.9314 144.917 80.9314C145.994 80.9314 146.969 80.7981 147.845 80.5304C148.721 80.2639 149.5 79.874 150.182 79.3618C150.863 78.8496 151.448 78.2218 151.937 77.4783C152.425 76.7348 152.813 75.8943 153.1 74.957L159 76.6026C158.512 78.1182 157.833 79.4851 156.966 80.7045C156.097 81.9238 155.067 82.9592 153.875 83.8106C152.683 84.662 151.338 85.3185 149.838 85.78C148.337 86.2415 146.697 86.4729 144.917 86.4729C142.59 86.4729 140.498 86.0829 138.639 85.3042" fill="white"/>
<path d="M72.6523 102.486V91.3833H80.9747V102.486H79.6017V92.6863H74.0253V102.486H72.6523Z" fill="white"/>
<path d="M83.2129 94.1589H84.5782V106.187H83.2129V94.1589ZM87.3472 102.717C86.7489 102.717 86.2361 102.608 85.8099 102.389C85.3825 102.171 85.0341 101.866 84.7634 101.476C84.4927 101.085 84.2944 100.62 84.1695 100.08C84.0446 99.5407 83.981 98.9525 83.981 98.3148C83.981 97.677 84.0446 97.0822 84.1728 96.5458C84.301 96.0083 84.5015 95.5457 84.7744 95.1579C85.0483 94.7702 85.3968 94.4684 85.8208 94.2525C86.2449 94.0367 86.7544 93.9287 87.3472 93.9287C87.94 93.9287 88.4452 94.0367 88.9076 94.2525C89.37 94.4684 89.7656 94.7702 90.0932 95.1579C90.4209 95.5468 90.6729 96.0083 90.8493 96.5458C91.0257 97.0833 91.1145 97.6726 91.1145 98.3148C91.1145 98.9569 91.0246 99.5638 90.846 100.104C90.6674 100.643 90.4143 101.106 90.0866 101.491C89.759 101.877 89.3645 102.178 88.901 102.393C88.4386 102.609 87.9203 102.717 87.3472 102.717ZM87.1171 101.414C87.5467 101.414 87.9203 101.338 88.237 101.187C88.5537 101.035 88.8188 100.824 89.0314 100.551C89.244 100.279 89.4018 99.9526 89.507 99.5715C89.6122 99.1915 89.6637 98.7719 89.6637 98.3148C89.6637 97.8576 89.61 97.4237 89.5026 97.0426C89.3952 96.6625 89.2352 96.3387 89.0227 96.0711C88.8101 95.8034 88.546 95.5974 88.2293 95.4498C87.9126 95.3033 87.5412 95.2306 87.1171 95.2306C86.693 95.2306 86.3062 95.3066 85.9896 95.4586C85.6729 95.6106 85.4088 95.8221 85.1995 96.0942C84.9902 96.3663 84.8335 96.6901 84.7316 97.0657C84.6297 97.4413 84.5782 97.8576 84.5782 98.3148C84.5782 98.7719 84.6319 99.208 84.7393 99.5914C84.8467 99.9747 85.0078 100.301 85.2225 100.571C85.4373 100.84 85.7025 101.049 86.0159 101.195C86.3304 101.342 86.6974 101.414 87.116 101.414" fill="white"/>
<path d="M94.761 102.397C94.2679 102.183 93.8482 101.881 93.5031 101.49C93.1579 101.099 92.8927 100.634 92.7097 100.095C92.5256 99.5549 92.4336 98.9612 92.4336 98.3135C92.4336 97.6659 92.5267 97.0656 92.713 96.5281C92.8993 95.9905 93.1656 95.5301 93.5107 95.1446C93.8559 94.7591 94.2756 94.4595 94.7687 94.2458C95.2618 94.0321 95.8129 93.9253 96.4222 93.9253C97.0314 93.9253 97.6034 94.0321 98.0943 94.2458C98.5852 94.4595 99.0027 94.7602 99.349 95.1479C99.6941 95.5356 99.9582 95.9994 100.142 96.5402C100.326 97.0799 100.418 97.6714 100.418 98.3135C100.418 98.9557 100.326 99.5626 100.142 100.102C99.9582 100.642 99.692 101.106 99.3446 101.493C98.9972 101.882 98.5776 102.182 98.0867 102.396C97.5958 102.608 97.0413 102.715 96.4222 102.715C95.8031 102.715 95.2552 102.608 94.761 102.396M97.5267 101.193C97.8434 101.046 98.1086 100.838 98.3201 100.568C98.5326 100.298 98.6937 99.9735 98.8033 99.5923C98.9129 99.2123 98.9688 98.785 98.9688 98.3124C98.9688 97.8399 98.914 97.4114 98.8033 97.0281C98.6937 96.6459 98.5326 96.3221 98.3201 96.0566C98.1075 95.7923 97.8434 95.5874 97.5267 95.4431C97.2089 95.2988 96.8419 95.2272 96.4222 95.2272C96.0025 95.2272 95.6343 95.301 95.3177 95.4475C94.9999 95.594 94.7358 95.8011 94.5232 96.0676C94.3106 96.3353 94.1507 96.6591 94.0433 97.0391C93.9359 97.4192 93.8822 97.8432 93.8822 98.3113C93.8822 98.7795 93.937 99.2123 94.0466 99.5956C94.1561 99.979 94.3194 100.305 94.5331 100.575C94.7479 100.845 95.0141 101.052 95.3308 101.196C95.6475 101.34 96.0113 101.412 96.42 101.412C96.8287 101.412 97.2068 101.339 97.5245 101.193" fill="white"/>
<path d="M106.264 102.624C105.64 102.609 105.054 102.51 104.507 102.328C103.96 102.145 103.481 101.875 103.07 101.519C102.658 101.162 102.333 100.718 102.095 100.188C101.858 99.6582 101.738 99.0392 101.738 98.3299C101.738 97.6205 101.857 97.0004 102.095 96.4684C102.333 95.9364 102.658 95.4914 103.07 95.1345C103.482 94.7776 103.96 94.5056 104.507 94.3205C105.054 94.1355 105.64 94.0352 106.264 94.0198V91.5371H107.629V94.0198C108.253 94.0352 108.84 94.1355 109.389 94.3205C109.939 94.5056 110.418 94.7765 110.827 95.1345C111.235 95.4914 111.561 95.9364 111.801 96.4684C112.041 97.0004 112.161 97.6205 112.161 98.3299C112.161 99.0392 112.041 99.6604 111.801 100.191C111.561 100.723 111.235 101.167 110.827 101.522C110.418 101.877 109.938 102.145 109.389 102.328C108.839 102.51 108.253 102.609 107.629 102.624V105.955H106.264V102.624ZM106.264 95.2997C105.794 95.3107 105.366 95.3856 104.983 95.5277C104.599 95.6687 104.271 95.8681 103.997 96.1247C103.723 96.3814 103.512 96.6964 103.364 97.0698C103.216 97.4421 103.142 97.8628 103.142 98.3299C103.142 98.7969 103.216 99.2165 103.364 99.5866C103.512 99.9567 103.724 100.271 103.997 100.527C104.271 100.784 104.599 100.982 104.983 101.121C105.366 101.26 105.794 101.335 106.264 101.345V95.2997ZM107.629 101.345C108.105 101.339 108.534 101.266 108.918 101.125C109.301 100.984 109.63 100.785 109.903 100.528C110.177 100.272 110.386 99.9578 110.532 99.5877C110.678 99.2176 110.75 98.7991 110.75 98.331C110.75 97.8628 110.676 97.4432 110.532 97.0709C110.386 96.6986 110.177 96.3825 109.903 96.1225C109.629 95.8637 109.301 95.6621 108.918 95.5211C108.534 95.3801 108.105 95.3063 107.629 95.3019V101.347V101.345Z" fill="white"/>
<path d="M115.778 102.397C115.29 102.183 114.875 101.883 114.536 101.498C114.196 101.112 113.935 100.65 113.753 100.11C113.571 99.5703 113.48 98.9744 113.48 98.3212C113.48 97.6681 113.573 97.0634 113.757 96.5204C113.941 95.9784 114.204 95.5158 114.547 95.1325C114.89 94.7492 115.305 94.4529 115.794 94.2414C116.282 94.031 116.832 93.9253 117.446 93.9253C117.881 93.9253 118.289 93.9826 118.67 94.0949C119.05 94.2084 119.394 94.3681 119.701 94.5774C120.008 94.7855 120.27 95.04 120.487 95.3407C120.704 95.6414 120.866 95.9762 120.974 96.3474L119.624 96.7561C119.446 96.2725 119.162 95.898 118.773 95.6304C118.384 95.3627 117.937 95.2294 117.431 95.2294C117.022 95.2294 116.661 95.3021 116.349 95.4486C116.037 95.5951 115.776 95.8033 115.567 96.0732C115.358 96.343 115.199 96.6668 115.091 97.0447C114.984 97.4225 114.93 97.8476 114.93 98.3212C114.93 98.7949 114.983 99.2057 115.087 99.5857C115.192 99.9657 115.35 100.292 115.562 100.562C115.775 100.831 116.037 101.041 116.349 101.189C116.661 101.338 117.022 101.413 117.431 101.413C117.977 101.413 118.428 101.288 118.781 101.035C119.134 100.783 119.404 100.424 119.594 99.9558L120.974 100.318C120.831 100.704 120.646 101.046 120.418 101.347C120.19 101.648 119.927 101.899 119.628 102.099C119.329 102.3 118.994 102.453 118.626 102.557C118.258 102.663 117.859 102.715 117.43 102.715C116.816 102.715 116.265 102.608 115.776 102.396" fill="white"/>
<path d="M124.276 102.397C123.783 102.183 123.363 101.881 123.018 101.49C122.673 101.099 122.407 100.634 122.223 100.095C122.039 99.5549 121.947 98.9612 121.947 98.3135C121.947 97.6659 122.04 97.0656 122.227 96.5281C122.413 95.9905 122.679 95.5301 123.024 95.1446C123.37 94.7591 123.789 94.4595 124.282 94.2458C124.775 94.0321 125.327 93.9253 125.936 93.9253C126.545 93.9253 127.117 94.0321 127.608 94.2458C128.099 94.4595 128.516 94.7602 128.862 95.1479C129.207 95.5356 129.471 95.9994 129.655 96.5402C129.839 97.0799 129.931 97.6714 129.931 98.3135C129.931 98.9557 129.839 99.5626 129.655 100.102C129.471 100.642 129.205 101.106 128.857 101.493C128.51 101.882 128.09 102.182 127.599 102.396C127.108 102.608 126.553 102.715 125.935 102.715C125.317 102.715 124.768 102.608 124.274 102.396M127.038 101.193C127.355 101.046 127.62 100.838 127.832 100.568C128.044 100.298 128.205 99.9735 128.315 99.5923C128.424 99.2123 128.48 98.785 128.48 98.3124C128.48 97.8399 128.425 97.4114 128.315 97.0281C128.204 96.6459 128.044 96.3221 127.832 96.0566C127.619 95.7923 127.355 95.5874 127.038 95.4431C126.72 95.2988 126.353 95.2272 125.934 95.2272C125.514 95.2272 125.146 95.301 124.829 95.4475C124.512 95.594 124.247 95.8011 124.036 96.0676C123.823 96.3353 123.663 96.6591 123.556 97.0391C123.448 97.4192 123.395 97.8432 123.395 98.3113C123.395 98.7795 123.45 99.2123 123.56 99.5956C123.67 99.979 123.832 100.305 124.047 100.575C124.262 100.845 124.528 101.052 124.844 101.196C125.161 101.34 125.525 101.412 125.934 101.412C126.342 101.412 126.72 101.339 127.038 101.193Z" fill="white"/>
<path d="M134.988 99.0089H133.07V102.486H131.705V94.1592H133.07V97.6365H134.988V99.0089ZM136.955 102.394C136.462 102.178 136.042 101.876 135.697 101.487C135.352 101.1 135.089 100.636 134.907 100.096C134.725 99.5564 134.635 98.9627 134.635 98.315C134.635 97.6673 134.728 97.0659 134.916 96.5262C135.102 95.9865 135.368 95.525 135.713 95.1417C136.059 94.7595 136.478 94.461 136.971 94.2473C137.464 94.0336 138.016 93.9268 138.624 93.9268C139.232 93.9268 139.798 94.0347 140.293 94.2506C140.786 94.4665 141.205 94.7683 141.551 95.1571C141.896 95.5448 142.16 96.0074 142.344 96.5449C142.528 97.0825 142.62 97.6717 142.62 98.315C142.62 98.9583 142.527 99.5641 142.34 100.104C142.153 100.644 141.887 101.106 141.542 101.492C141.197 101.877 140.777 102.178 140.284 102.394C139.79 102.61 139.236 102.718 138.623 102.718C138.009 102.718 137.448 102.61 136.955 102.394ZM139.739 101.187C140.059 101.035 140.324 100.823 140.537 100.55C140.75 100.278 140.907 99.9529 141.013 99.5751C141.118 99.1973 141.17 98.7776 141.17 98.3139C141.17 97.8502 141.117 97.4217 141.009 97.0417C140.902 96.6617 140.742 96.3379 140.529 96.0702C140.317 95.8026 140.053 95.5966 139.736 95.449C139.419 95.3025 139.048 95.2298 138.624 95.2298C138.2 95.2298 137.812 95.3058 137.493 95.4578C137.173 95.6098 136.91 95.8213 136.703 96.0944C136.496 96.3665 136.341 96.6903 136.239 97.0659C136.137 97.4415 136.086 97.8579 136.086 98.315C136.086 98.7721 136.14 99.2083 136.247 99.5916C136.354 99.9749 136.514 100.301 136.727 100.571C136.94 100.841 137.204 101.049 137.52 101.195C137.837 101.342 138.203 101.415 138.617 101.415C139.031 101.415 139.421 101.339 139.741 101.188" fill="white"/>
<path d="M147.1 102.717C146.614 102.717 146.17 102.663 145.766 102.555C145.362 102.447 145.006 102.28 144.7 102.054C144.393 101.828 144.139 101.544 143.937 101.202C143.735 100.861 143.596 100.456 143.52 99.9886L144.823 99.7496C144.87 100.043 144.952 100.297 145.069 100.513C145.186 100.729 145.34 100.911 145.529 101.056C145.719 101.202 145.941 101.311 146.196 101.384C146.452 101.456 146.741 101.492 147.063 101.492C147.728 101.492 148.237 101.367 148.59 101.114C148.942 100.862 149.119 100.518 149.119 100.081C149.119 99.8443 149.076 99.6439 148.993 99.4797C148.909 99.3156 148.791 99.1812 148.64 99.0788C148.489 98.9764 148.312 98.9004 148.111 98.8519C147.909 98.8034 147.688 98.7781 147.448 98.7781H146.175V97.6447H147.448C147.678 97.6447 147.883 97.6205 148.061 97.572C148.24 97.5235 148.392 97.4508 148.518 97.3561C148.643 97.2614 148.74 97.1457 148.806 97.0091C148.872 96.8737 148.905 96.7151 148.905 96.5355C148.905 96.3141 148.866 96.1192 148.787 95.9495C148.708 95.7799 148.59 95.6356 148.434 95.5178C148.278 95.3999 148.087 95.3096 147.859 95.2479C147.631 95.1862 147.367 95.1554 147.064 95.1554C146.762 95.1554 146.478 95.1884 146.24 95.2556C146.003 95.3228 145.799 95.4197 145.631 95.5486C145.462 95.6775 145.324 95.8328 145.217 96.0156C145.109 96.1985 145.025 96.4055 144.964 96.6368L143.66 96.3978C143.773 95.9352 143.94 95.5475 144.163 95.2336C144.385 94.9197 144.647 94.6674 144.948 94.4747C145.25 94.2819 145.584 94.1431 145.95 94.0583C146.316 93.9735 146.698 93.9316 147.097 93.9316C147.598 93.9316 148.044 93.99 148.435 94.1057C148.826 94.2213 149.157 94.3888 149.428 94.6068C149.699 94.8249 149.905 95.0915 150.046 95.4043C150.186 95.7182 150.257 96.0729 150.257 96.4683C150.257 96.7151 150.226 96.9375 150.161 97.1347C150.097 97.333 150.003 97.5081 149.88 97.659C149.758 97.811 149.607 97.941 149.428 98.0489C149.248 98.1569 149.042 98.2439 148.807 98.3111L148.822 98.1029C149.047 98.1238 149.259 98.1877 149.459 98.2957C149.658 98.4036 149.834 98.5435 149.988 98.7164C150.141 98.8882 150.262 99.092 150.348 99.3255C150.435 99.559 150.479 99.8179 150.479 100.101C150.479 100.486 150.403 100.84 150.252 101.161C150.101 101.482 149.882 101.758 149.592 101.99C149.303 102.221 148.95 102.401 148.534 102.53C148.117 102.659 147.64 102.722 147.103 102.722" fill="white"/>
<path d="M158.054 94.8023C158.612 95.3861 158.89 96.2684 158.89 97.4502V102.485H157.525V101.174C157.233 101.683 156.846 102.068 156.362 102.328C155.879 102.587 155.3 102.716 154.625 102.716C154.19 102.716 153.799 102.66 153.452 102.547C153.104 102.433 152.807 102.27 152.562 102.058C152.317 101.844 152.127 101.587 151.994 101.287C151.862 100.986 151.795 100.648 151.795 100.272C151.795 99.8459 151.872 99.4769 152.025 99.1663C152.178 98.8557 152.4 98.5902 152.689 98.3722C152.978 98.1541 153.329 97.98 153.743 97.8523C154.157 97.7234 154.623 97.6265 155.139 97.5593L157.785 97.2277L157.847 98.2995L155.293 98.6233C154.915 98.6696 154.589 98.7334 154.318 98.8161C154.048 98.8987 153.825 99.0033 153.651 99.1322C153.477 99.261 153.35 99.4108 153.268 99.5827C153.185 99.7556 153.145 99.9539 153.145 100.181C153.145 100.628 153.293 100.965 153.59 101.191C153.886 101.417 154.328 101.53 154.917 101.53C155.239 101.53 155.537 101.485 155.811 101.395C156.085 101.304 156.327 101.178 156.54 101.013C156.752 100.849 156.931 100.651 157.077 100.42C157.222 100.188 157.329 99.9318 157.395 99.6488C157.457 99.4428 157.494 99.2236 157.507 98.9901C157.52 98.7566 157.527 98.5462 157.527 98.3611V97.2971C157.527 96.927 157.486 96.6087 157.404 96.341C157.322 96.0734 157.198 95.8531 157.032 95.678C156.865 95.5028 156.656 95.3751 156.403 95.2924C156.149 95.2098 155.851 95.1691 155.51 95.1691C154.921 95.1691 154.453 95.2858 154.106 95.5194C153.759 95.7529 153.515 96.1119 153.377 96.5955L152.104 96.2717C152.308 95.5105 152.703 94.9301 153.288 94.5291C153.874 94.1282 154.62 93.9277 155.525 93.9277C156.655 93.9277 157.498 94.2196 158.056 94.8034" fill="white"/>
</svg>
