<svg width="183" height="160" viewBox="0 0 183 160" fill="none" xmlns="http://www.w3.org/2000/svg">
<path d="M56.9591 80.3443C56.4449 80.6834 55.8324 80.8191 55.1217 80.7664C54.0479 80.6834 53.2388 80.2086 52.6869 79.3268C52.1349 78.4449 51.9156 77.2465 52.029 75.724L52.4978 69.5435L64.5811 70.4479L64.1426 76.2968C64.0367 77.7439 63.6737 78.8444 63.0688 79.5981C62.4639 80.3518 61.6548 80.6985 60.6567 80.6232C60.0669 80.5779 59.5603 80.397 59.1368 80.088C58.7058 79.7714 58.3807 79.3418 58.1614 78.7916C57.8741 79.485 57.4809 79.9976 56.9667 80.3367M55.651 77.3369C56.4676 77.3972 56.9137 76.9375 56.9894 75.9501L57.1935 73.2668L54.7058 73.0784L54.5016 75.7617C54.426 76.749 54.8116 77.2766 55.651 77.3369ZM59.5073 73.4402L59.341 75.6109C59.2654 76.5757 59.6283 77.0882 60.4223 77.1485C61.2163 77.2088 61.6473 76.7566 61.7229 75.7918L61.8892 73.6211L59.5073 73.4402Z" fill="white"/>
<path d="M68.1498 93.1426L56.868 97.5594L55.6128 94.3711L60.0136 92.6526L58.3047 88.3187L53.9039 90.0372L52.6562 86.8565L63.938 82.4473L65.1933 85.628L60.9512 87.2786L62.6601 91.62L66.8946 89.9619L68.1498 93.1426Z" fill="white"/>
<path d="M69.4272 94.959L72.0057 97.1372L67.3932 102.541L75.8167 100.363L78.2742 102.443L70.4254 111.646L67.8544 109.468L72.4443 104.079L64.051 106.25L61.5859 104.162L69.4272 94.959Z" fill="white"/>
<path d="M89.5403 117.51L90.5082 111.179L86.6291 115.859L85.1244 115.626L82.8257 110.131L81.8653 116.327L78.75 115.844L80.6101 103.905L83.3928 104.335L86.5308 111.88L91.7105 105.624L94.5007 106.053L92.6708 118L89.5403 117.51Z" fill="white"/>
<path d="M105.799 112.543L100.922 114.111L100.71 116.545L97.3828 117.616L98.9027 104.946L102.116 103.913L110.797 113.312L107.402 114.405L105.799 112.551V112.543ZM104.097 110.546L101.474 107.493L101.133 111.503L104.097 110.553V110.546Z" fill="white"/>
<path d="M114.441 94.6797L122.426 103.762L119.847 106.016L116.732 102.473L113.216 105.548L116.331 109.091L113.753 111.344L105.768 102.255L108.346 100.001L111.348 103.415L114.864 100.348L111.862 96.9333L114.441 94.6797Z" fill="white"/>
<path d="M115.387 93.3532L116.649 90.2328L123.251 92.8934L118.525 85.6124L119.735 82.6353L130.971 87.1651L129.701 90.2855L123.122 87.6324L127.833 94.8907L126.623 97.883L115.387 93.3532Z" fill="white"/>
<path d="M119.078 70.4927L131.161 69.543L131.426 72.897L128.386 73.1307L128.53 74.9924L131.72 76.7335L132 80.3136L128.272 78.1505C127.978 78.9795 127.516 79.6353 126.874 80.1101C126.231 80.585 125.452 80.8639 124.514 80.9392C123.569 81.0146 122.737 80.8563 122.011 80.4795C121.286 80.0951 120.711 79.5147 120.272 78.7308C119.841 77.947 119.584 77.0048 119.494 75.9194L119.062 70.5002L119.078 70.4927ZM124.197 77.5023C124.809 77.457 125.255 77.246 125.55 76.8842C125.838 76.5224 125.959 76.0174 125.906 75.3768L125.747 73.3493L122.034 73.6432L122.193 75.6406C122.299 76.9822 122.964 77.6078 124.197 77.5098" fill="white"/>
<path d="M72.4887 53.15L76.5341 56.391L74.5681 58.8255L72.6399 57.2804L66.4092 64.9985L56.9648 57.4311L59.0821 54.8082L66.4092 60.6797L69.3279 57.0618L62.0008 51.1903L64.118 48.5674L71.4452 54.4389L72.4887 53.15Z" fill="white"/>
<path d="M85.413 48.0545L86.4035 50.5041L77.3826 54.137L72.8457 42.9367L81.6549 39.3867L82.653 41.8363L76.9819 44.1201L77.7456 46.0044L82.7437 43.9919L83.7041 46.3662L78.7059 48.3711L79.5377 50.4212L85.413 48.0545Z" fill="white"/>
<path d="M101.271 39.0703L100.137 51.0997L96.7263 50.7831L97.1649 46.0874L92.5146 45.6578L92.076 50.3459L88.6582 50.0294L89.7849 38L93.2027 38.3166L92.7792 42.8389L97.4296 43.276L97.853 38.7537L101.271 39.0703Z" fill="white"/>
<path d="M114.82 48.0472L111.599 46.2308L106.979 54.3936L104.037 52.7429L108.657 44.5801L105.413 42.7561L106.752 40.397L116.158 45.6881L114.82 48.0472Z" fill="white"/>
<path d="M125.709 57.4011C125.89 58.2679 125.83 59.0744 125.542 59.8205C125.255 60.5667 124.741 61.2074 124 61.7425C123.259 62.2777 122.488 62.5566 121.694 62.5942C120.892 62.6319 120.113 62.4284 119.342 61.9913C118.571 61.5541 117.867 60.8908 117.225 60.0014L115.985 58.298L113.414 60.1522L111.402 57.386L121.225 50.3086L124.469 54.7857C125.111 55.6751 125.52 56.5494 125.701 57.4086M120.59 59.2854C121.043 59.3985 121.505 59.2854 121.966 58.9538C122.427 58.6221 122.677 58.2227 122.714 57.7554C122.76 57.288 122.571 56.768 122.162 56.1951L121.043 54.6576L118.17 56.7303L119.289 58.2679C119.697 58.8332 120.136 59.1723 120.597 59.2854" fill="white"/>
</svg>
